<?xml version="1.0" encoding="us-ascii" standalone="no"?><svg xmlns="http://www.w3.org/2000/svg" xmlns:xlink="http://www.w3.org/1999/xlink" contentStyleType="text/css" height="615px" preserveAspectRatio="none" style="width:771px;height:615px;background:#FFFFFF;" version="1.1" viewBox="0 0 771 615" width="771px" zoomAndPan="magnify"><defs/><g><rect fill="none" height="92.0547" style="stroke:#000000;stroke-width:1.5;" width="472.5" x="63" y="469.4766"/><line style="stroke:#181818;stroke-width:0.5;stroke-dasharray:5.0,5.0;" x1="34" x2="34" y1="37.6094" y2="578.5313"/><line style="stroke:#181818;stroke-width:0.5;stroke-dasharray:5.0,5.0;" x1="126" x2="126" y1="37.6094" y2="578.5313"/><line style="stroke:#181818;stroke-width:0.5;stroke-dasharray:5.0,5.0;" x1="319" x2="319" y1="37.6094" y2="578.5313"/><line style="stroke:#181818;stroke-width:0.5;stroke-dasharray:5.0,5.0;" x1="715.5" x2="715.5" y1="37.6094" y2="578.5313"/><rect fill="#E2E2F0" height="31.6094" rx="2.5" ry="2.5" style="stroke:#181818;stroke-width:0.5;" width="58" x="5" y="5"/><text fill="#000000" font-family="sans-serif" font-size="14" lengthAdjust="spacing" textLength="44" x="12" y="26.5332">Engine</text><rect fill="#E2E2F0" height="31.6094" rx="2.5" ry="2.5" style="stroke:#181818;stroke-width:0.5;" width="58" x="5" y="577.5313"/><text fill="#000000" font-family="sans-serif" font-size="14" lengthAdjust="spacing" textLength="44" x="12" y="599.0645">Engine</text><rect fill="#E2E2F0" height="31.6094" rx="2.5" ry="2.5" style="stroke:#181818;stroke-width:0.5;" width="107" x="73" y="5"/><text fill="#000000" font-family="sans-serif" font-size="14" lengthAdjust="spacing" textLength="93" x="80" y="26.5332">RenderModule</text><rect fill="#E2E2F0" height="31.6094" rx="2.5" ry="2.5" style="stroke:#181818;stroke-width:0.5;" width="107" x="73" y="577.5313"/><text fill="#000000" font-family="sans-serif" font-size="14" lengthAdjust="spacing" textLength="93" x="80" y="599.0645">RenderModule</text><rect fill="#E2E2F0" height="31.6094" rx="2.5" ry="2.5" style="stroke:#181818;stroke-width:0.5;" width="77" x="281" y="5"/><text fill="#000000" font-family="sans-serif" font-size="14" lengthAdjust="spacing" textLength="63" x="288" y="26.5332">IRenderer</text><rect fill="#E2E2F0" height="31.6094" rx="2.5" ry="2.5" style="stroke:#181818;stroke-width:0.5;" width="77" x="281" y="577.5313"/><text fill="#000000" font-family="sans-serif" font-size="14" lengthAdjust="spacing" textLength="63" x="288" y="599.0645">IRenderer</text><rect fill="#E2E2F0" height="31.6094" rx="2.5" ry="2.5" style="stroke:#181818;stroke-width:0.5;" width="88" x="671.5" y="5"/><text fill="#000000" font-family="sans-serif" font-size="14" lengthAdjust="spacing" textLength="74" x="678.5" y="26.5332">ECSModule</text><rect fill="#E2E2F0" height="31.6094" rx="2.5" ry="2.5" style="stroke:#181818;stroke-width:0.5;" width="88" x="671.5" y="577.5313"/><text fill="#000000" font-family="sans-serif" font-size="14" lengthAdjust="spacing" textLength="74" x="678.5" y="599.0645">ECSModule</text><rect fill="#EEEEEE" height="3" style="stroke:#EEEEEE;stroke-width:1.0;" width="764.5" x="0" y="68.7852"/><line style="stroke:#000000;stroke-width:1.0;" x1="0" x2="764.5" y1="68.7852" y2="68.7852"/><line style="stroke:#000000;stroke-width:1.0;" x1="0" x2="764.5" y1="71.7852" y2="71.7852"/><rect fill="#EEEEEE" height="24.3516" style="stroke:#000000;stroke-width:2.0;" width="122" x="321.25" y="57.6094"/><text fill="#000000" font-family="sans-serif" font-size="13" font-weight="bold" lengthAdjust="spacing" textLength="104" x="327.25" y="75.1045">&#1048;&#1085;&#1080;&#1094;&#1080;&#1072;&#1083;&#1080;&#1079;&#1072;&#1094;&#1080;&#1103;</text><polygon fill="#181818" points="114.5,110.3125,124.5,114.3125,114.5,118.3125,118.5,114.3125" style="stroke:#181818;stroke-width:1.0;"/><line style="stroke:#181818;stroke-width:1.0;" x1="34" x2="120.5" y1="114.3125" y2="114.3125"/><text fill="#000000" font-family="sans-serif" font-size="13" lengthAdjust="spacing" textLength="48" x="41" y="109.4561">startup()</text><polygon fill="#181818" points="307.5,140.6641,317.5,144.6641,307.5,148.6641,311.5,144.6641" style="stroke:#181818;stroke-width:1.0;"/><line style="stroke:#181818;stroke-width:1.0;" x1="126.5" x2="313.5" y1="144.6641" y2="144.6641"/><text fill="#000000" font-family="sans-serif" font-size="13" lengthAdjust="spacing" textLength="169" x="133.5" y="139.8076">setupWorldChangesHandler()</text><polygon fill="#181818" points="703.5,171.0156,713.5,175.0156,703.5,179.0156,707.5,175.0156" style="stroke:#181818;stroke-width:1.0;"/><line style="stroke:#181818;stroke-width:1.0;" x1="319.5" x2="709.5" y1="175.0156" y2="175.0156"/><text fill="#000000" font-family="sans-serif" font-size="13" lengthAdjust="spacing" textLength="165" x="326.5" y="170.1592">subscribe(updateRenderList)</text><rect fill="#EEEEEE" height="3" style="stroke:#EEEEEE;stroke-width:1.0;" width="764.5" x="0" y="204.1914"/><line style="stroke:#000000;stroke-width:1.0;" x1="0" x2="764.5" y1="204.1914" y2="204.1914"/><line style="stroke:#000000;stroke-width:1.0;" x1="0" x2="764.5" y1="207.1914" y2="207.1914"/><rect fill="#EEEEEE" height="24.3516" style="stroke:#000000;stroke-width:2.0;" width="133" x="315.75" y="193.0156"/><text fill="#000000" font-family="sans-serif" font-size="13" font-weight="bold" lengthAdjust="spacing" textLength="115" x="321.75" y="210.5107">&#1048;&#1079;&#1084;&#1077;&#1085;&#1077;&#1085;&#1080;&#1103; &#1074; ECS</text><polygon fill="#181818" points="330.5,245.7188,320.5,249.7188,330.5,253.7188,326.5,249.7188" style="stroke:#181818;stroke-width:1.0;"/><line style="stroke:#181818;stroke-width:1.0;" x1="324.5" x2="714.5" y1="249.7188" y2="249.7188"/><text fill="#000000" font-family="sans-serif" font-size="13" lengthAdjust="spacing" textLength="109" x="336.5" y="244.8623">updateRenderList()</text><line style="stroke:#181818;stroke-width:1.0;" x1="319.5" x2="361.5" y1="280.0703" y2="280.0703"/><line style="stroke:#181818;stroke-width:1.0;" x1="361.5" x2="361.5" y1="280.0703" y2="293.0703"/><line style="stroke:#181818;stroke-width:1.0;" x1="320.5" x2="361.5" y1="293.0703" y2="293.0703"/><polygon fill="#181818" points="330.5,289.0703,320.5,293.0703,330.5,297.0703,326.5,293.0703" style="stroke:#181818;stroke-width:1.0;"/><text fill="#000000" font-family="sans-serif" font-size="13" lengthAdjust="spacing" textLength="207" x="326.5" y="275.2139">clear(m_updateRenderPipelineData)</text><polygon fill="#181818" points="703.5,319.4219,713.5,323.4219,703.5,327.4219,707.5,323.4219" style="stroke:#181818;stroke-width:1.0;"/><line style="stroke:#181818;stroke-width:1.0;" x1="319.5" x2="709.5" y1="323.4219" y2="323.4219"/><text fill="#000000" font-family="sans-serif" font-size="13" lengthAdjust="spacing" textLength="102" x="326.5" y="318.5654">getCurrentWorld()</text><line style="stroke:#181818;stroke-width:1.0;" x1="319.5" x2="361.5" y1="353.7734" y2="353.7734"/><line style="stroke:#181818;stroke-width:1.0;" x1="361.5" x2="361.5" y1="353.7734" y2="366.7734"/><line style="stroke:#181818;stroke-width:1.0;" x1="320.5" x2="361.5" y1="366.7734" y2="366.7734"/><polygon fill="#181818" points="330.5,362.7734,320.5,366.7734,330.5,370.7734,326.5,366.7734" style="stroke:#181818;stroke-width:1.0;"/><text fill="#000000" font-family="sans-serif" font-size="13" lengthAdjust="spacing" textLength="187" x="326.5" y="348.917">fill m_updateRenderPipelineData</text><line style="stroke:#181818;stroke-width:1.0;" x1="319.5" x2="361.5" y1="397.125" y2="397.125"/><line style="stroke:#181818;stroke-width:1.0;" x1="361.5" x2="361.5" y1="397.125" y2="410.125"/><line style="stroke:#181818;stroke-width:1.0;" x1="320.5" x2="361.5" y1="410.125" y2="410.125"/><polygon fill="#181818" points="330.5,406.125,320.5,410.125,330.5,414.125,326.5,410.125" style="stroke:#181818;stroke-width:1.0;"/><text fill="#000000" font-family="sans-serif" font-size="13" lengthAdjust="spacing" textLength="382" x="326.5" y="392.2686">swap(m_activeRenderPipelineData, m_updateRenderPipelineData)</text><rect fill="#EEEEEE" height="3" style="stroke:#EEEEEE;stroke-width:1.0;" width="764.5" x="0" y="439.3008"/><line style="stroke:#000000;stroke-width:1.0;" x1="0" x2="764.5" y1="439.3008" y2="439.3008"/><line style="stroke:#000000;stroke-width:1.0;" x1="0" x2="764.5" y1="442.3008" y2="442.3008"/><rect fill="#EEEEEE" height="24.3516" style="stroke:#000000;stroke-width:2.0;" width="107" x="328.75" y="428.125"/><text fill="#000000" font-family="sans-serif" font-size="13" font-weight="bold" lengthAdjust="spacing" textLength="89" x="334.75" y="445.6201">&#1048;&#1075;&#1088;&#1086;&#1074;&#1086;&#1081; &#1094;&#1080;&#1082;&#1083;</text><path d="M63,469.4766 L136,469.4766 L136,477.8281 L126,487.8281 L63,487.8281 L63,469.4766 " fill="#EEEEEE" style="stroke:#000000;stroke-width:1.5;"/><rect fill="none" height="92.0547" style="stroke:#000000;stroke-width:1.5;" width="472.5" x="63" y="469.4766"/><text fill="#000000" font-family="sans-serif" font-size="13" font-weight="bold" lengthAdjust="spacing" textLength="28" x="78" y="483.9717">loop</text><text fill="#000000" font-family="sans-serif" font-size="11" font-weight="bold" lengthAdjust="spacing" textLength="75" x="151" y="482.8955">[every frame]</text><polygon fill="#181818" points="307.5,506.1797,317.5,510.1797,307.5,514.1797,311.5,510.1797" style="stroke:#181818;stroke-width:1.0;"/><line style="stroke:#181818;stroke-width:1.0;" x1="126.5" x2="313.5" y1="510.1797" y2="510.1797"/><text fill="#000000" font-family="sans-serif" font-size="13" lengthAdjust="spacing" textLength="44" x="133.5" y="505.3232">render()</text><line style="stroke:#181818;stroke-width:1.0;" x1="319.5" x2="361.5" y1="540.5313" y2="540.5313"/><line style="stroke:#181818;stroke-width:1.0;" x1="361.5" x2="361.5" y1="540.5313" y2="553.5313"/><line style="stroke:#181818;stroke-width:1.0;" x1="320.5" x2="361.5" y1="553.5313" y2="553.5313"/><polygon fill="#181818" points="330.5,549.5313,320.5,553.5313,330.5,557.5313,326.5,553.5313" style="stroke:#181818;stroke-width:1.0;"/><text fill="#000000" font-family="sans-serif" font-size="13" lengthAdjust="spacing" textLength="197" x="326.5" y="535.6748">uses m_activeRenderPipelineData</text><!--SRC=[VP6nJiCm48PtFyMDhGGlW1IMK0aaa10CZCXDhi6IwrYsKyJ6nDgLnwYAgXOAFCFbZN2IDaeYai6HS_x_-p-VDJTEH49pvM2Y4g6GwKRf3bMCvYQDCza-kAfEqBIga_3-e6L10FHEFxJBtsX7AzhxxvPMnL- -X21Wh8g3q_DMoXbOvpjcUZHcpNgXgqEz2Bta8JKo3f-uIj1USXLBDDvLgmfBJUGjsTH6HannbEcOEwnaryAwyH5tIz-qyT2R4dm9j2uQLBJ7HXsGRgykG4CQIUHcD7ziMcw5Hkd7SC4TxqTFq8MPCQXSUUM1Z9cG4leZUdtscMkFnYCd5l_uJc08-p2zZ_oLVcdjroUKh_v5-t9sCaqru0BD2ymCdoC367XQK-xy7G7wQ3EB5lffcQ_y0G00]--></g></svg>