<?xml version="1.0" encoding="us-ascii" standalone="no"?><svg xmlns="http://www.w3.org/2000/svg" xmlns:xlink="http://www.w3.org/1999/xlink" contentStyleType="text/css" height="465px" preserveAspectRatio="none" style="width:1763px;height:465px;background:#FFFFFF;" version="1.1" viewBox="0 0 1763 465" width="1763px" zoomAndPan="magnify"><defs/><g><!--cluster RenderSubsystem--><g id="cluster_RenderSubsystem"><path d="M8.5,6 L137.5,6 A3.75,3.75 0 0 1 140,8.5 L147,29.6094 L1753.5,29.6094 A2.5,2.5 0 0 1 1756,32.1094 L1756,455.5 A2.5,2.5 0 0 1 1753.5,458 L8.5,458 A2.5,2.5 0 0 1 6,455.5 L6,8.5 A2.5,2.5 0 0 1 8.5,6 " fill="none" style="stroke:#000000;stroke-width:1.5;"/><line style="stroke:#000000;stroke-width:1.5;" x1="6" x2="147" y1="29.6094" y2="29.6094"/><text fill="#000000" font-family="sans-serif" font-size="14" font-weight="bold" lengthAdjust="spacing" textLength="128" x="10" y="22.5332">RenderSubsystem</text></g><!--cluster AbstractRenderObjects--><g id="cluster_AbstractRenderObjects"><path d="M32.5,50 L197.5,50 A3.75,3.75 0 0 1 200,52.5 L207,73.6094 L1729.5,73.6094 A2.5,2.5 0 0 1 1732,76.1094 L1732,431.5 A2.5,2.5 0 0 1 1729.5,434 L32.5,434 A2.5,2.5 0 0 1 30,431.5 L30,52.5 A2.5,2.5 0 0 1 32.5,50 " fill="none" style="stroke:#000000;stroke-width:1.5;"/><line style="stroke:#000000;stroke-width:1.5;" x1="30" x2="207" y1="73.6094" y2="73.6094"/><text fill="#000000" font-family="sans-serif" font-size="14" font-weight="bold" lengthAdjust="spacing" textLength="164" x="34" y="66.5332">AbstractRenderObjects</text></g><!--class IMaterial--><g id="elem_IMaterial"><rect codeLine="4" fill="#F1F1F1" height="188.875" id="IMaterial" rx="2.5" ry="2.5" style="stroke:#181818;stroke-width:0.5;" width="155" x="1451.5" y="86"/><ellipse cx="1497.25" cy="102" fill="#A9DCDF" rx="11" ry="11" style="stroke:#181818;stroke-width:1.0;"/><path d="M1499.4375,103.7656 L1495.2969,103.7656 L1494.875,104.7969 L1495.2969,104.7969 Q1495.9063,104.7969 1496.1719,105.0313 Q1496.4375,105.2656 1496.4375,105.6563 Q1496.4375,106.0313 1496.1719,106.2656 Q1495.9063,106.5 1495.2969,106.5 L1493,106.5 Q1492.3906,106.5 1492.1406,106.2656 Q1491.875,106.0313 1491.875,105.6406 Q1491.875,105.2656 1492.1563,105.0313 Q1492.4219,104.7813 1493.0469,104.7969 L1495.7188,98.1406 L1494.6094,98.1406 Q1494,98.1406 1493.7344,97.9063 Q1493.4688,97.6719 1493.4688,97.2813 Q1493.4688,96.9063 1493.7344,96.6719 Q1494,96.4375 1494.6094,96.4375 L1498.2813,96.4375 L1501.6719,104.7969 Q1502.2656,104.7969 1502.4531,104.9375 Q1502.8438,105.2031 1502.8438,105.6563 Q1502.8438,106.0313 1502.5781,106.2656 Q1502.3281,106.5 1501.7188,106.5 L1499.4219,106.5 Q1498.8125,106.5 1498.5469,106.2656 Q1498.2813,106.0313 1498.2813,105.6406 Q1498.2813,105.2656 1498.5469,105.0313 Q1498.8125,104.7969 1499.4219,104.7969 L1499.8438,104.7969 L1499.4375,103.7656 Z M1498.7188,102.0625 L1497.3594,98.6875 L1495.9844,102.0625 L1498.7188,102.0625 Z " fill="#000000"/><text fill="#000000" font-family="sans-serif" font-size="14" font-style="italic" lengthAdjust="spacing" textLength="55" x="1517.75" y="107.7285">IMaterial</text><line style="stroke:#181818;stroke-width:0.5;" x1="1452.5" x2="1605.5" y1="118" y2="118"/><ellipse cx="1462.5" cy="132.3047" fill="none" rx="3" ry="3" style="stroke:#038048;stroke-width:1.0;"/><text fill="#000000" font-family="sans-serif" font-size="14" lengthAdjust="spacing" textLength="103" x="1471.5" y="136.5332">vec3 baseColor;</text><ellipse cx="1462.5" cy="149.9141" fill="none" rx="3" ry="3" style="stroke:#038048;stroke-width:1.0;"/><text fill="#000000" font-family="sans-serif" font-size="14" lengthAdjust="spacing" textLength="86" x="1471.5" y="154.1426">void* metallic;</text><ellipse cx="1462.5" cy="167.5234" fill="none" rx="3" ry="3" style="stroke:#038048;stroke-width:1.0;"/><text fill="#000000" font-family="sans-serif" font-size="14" lengthAdjust="spacing" textLength="99" x="1471.5" y="171.752">void* roughnes;</text><ellipse cx="1462.5" cy="185.1328" fill="none" rx="3" ry="3" style="stroke:#038048;stroke-width:1.0;"/><text fill="#000000" font-family="sans-serif" font-size="14" lengthAdjust="spacing" textLength="89" x="1471.5" y="189.3613">float specular;</text><ellipse cx="1462.5" cy="202.7422" fill="none" rx="3" ry="3" style="stroke:#038048;stroke-width:1.0;"/><text fill="#000000" font-family="sans-serif" font-size="14" lengthAdjust="spacing" textLength="78" x="1471.5" y="206.9707">float albedo;</text><ellipse cx="1462.5" cy="220.3516" fill="none" rx="3" ry="3" style="stroke:#038048;stroke-width:1.0;"/><text fill="#000000" font-family="sans-serif" font-size="14" lengthAdjust="spacing" textLength="98" x="1471.5" y="224.5801">float reflectivity;</text><line style="stroke:#181818;stroke-width:0.5;" x1="1452.5" x2="1605.5" y1="231.6563" y2="231.6563"/><ellipse cx="1462.5" cy="245.9609" fill="#84BE84" rx="3" ry="3" style="stroke:#038048;stroke-width:1.0;"/><text fill="#000000" font-family="sans-serif" font-size="14" lengthAdjust="spacing" textLength="113" x="1471.5" y="250.1895">virtual void bind();</text><ellipse cx="1462.5" cy="263.5703" fill="#84BE84" rx="3" ry="3" style="stroke:#038048;stroke-width:1.0;"/><text fill="#000000" font-family="sans-serif" font-size="14" lengthAdjust="spacing" textLength="129" x="1471.5" y="267.7988">virtual void unbind();</text></g><!--class IMesh--><g id="elem_IMesh"><rect codeLine="16" fill="#F1F1F1" height="83.2188" id="IMesh" rx="2.5" ry="2.5" style="stroke:#181818;stroke-width:0.5;" width="245" x="962.5" y="139"/><ellipse cx="1061.25" cy="155" fill="#A9DCDF" rx="11" ry="11" style="stroke:#181818;stroke-width:1.0;"/><path d="M1063.4375,156.7656 L1059.2969,156.7656 L1058.875,157.7969 L1059.2969,157.7969 Q1059.9063,157.7969 1060.1719,158.0313 Q1060.4375,158.2656 1060.4375,158.6563 Q1060.4375,159.0313 1060.1719,159.2656 Q1059.9063,159.5 1059.2969,159.5 L1057,159.5 Q1056.3906,159.5 1056.1406,159.2656 Q1055.875,159.0313 1055.875,158.6406 Q1055.875,158.2656 1056.1563,158.0313 Q1056.4219,157.7813 1057.0469,157.7969 L1059.7188,151.1406 L1058.6094,151.1406 Q1058,151.1406 1057.7344,150.9063 Q1057.4688,150.6719 1057.4688,150.2813 Q1057.4688,149.9063 1057.7344,149.6719 Q1058,149.4375 1058.6094,149.4375 L1062.2813,149.4375 L1065.6719,157.7969 Q1066.2656,157.7969 1066.4531,157.9375 Q1066.8438,158.2031 1066.8438,158.6563 Q1066.8438,159.0313 1066.5781,159.2656 Q1066.3281,159.5 1065.7188,159.5 L1063.4219,159.5 Q1062.8125,159.5 1062.5469,159.2656 Q1062.2813,159.0313 1062.2813,158.6406 Q1062.2813,158.2656 1062.5469,158.0313 Q1062.8125,157.7969 1063.4219,157.7969 L1063.8438,157.7969 L1063.4375,156.7656 Z M1062.7188,155.0625 L1061.3594,151.6875 L1059.9844,155.0625 L1062.7188,155.0625 Z " fill="#000000"/><text fill="#000000" font-family="sans-serif" font-size="14" font-style="italic" lengthAdjust="spacing" textLength="39" x="1081.75" y="160.7285">IMesh</text><line style="stroke:#181818;stroke-width:0.5;" x1="963.5" x2="1206.5" y1="171" y2="171"/><line style="stroke:#181818;stroke-width:0.5;" x1="963.5" x2="1206.5" y1="179" y2="179"/><ellipse cx="973.5" cy="193.3047" fill="#84BE84" rx="3" ry="3" style="stroke:#038048;stroke-width:1.0;"/><text fill="#000000" font-family="sans-serif" font-size="14" lengthAdjust="spacing" textLength="116" x="982.5" y="197.5332">virtual void draw();</text><ellipse cx="973.5" cy="210.9141" fill="#84BE84" rx="3" ry="3" style="stroke:#038048;stroke-width:1.0;"/><text fill="#000000" font-family="sans-serif" font-size="14" lengthAdjust="spacing" textLength="219" x="982.5" y="215.1426">virtual void drawIndexed(int count);</text></g><!--class IShader--><g id="elem_IShader"><rect codeLine="21" fill="#F1F1F1" height="83.2188" id="IShader" rx="2.5" ry="2.5" style="stroke:#181818;stroke-width:0.5;" width="155" x="510.5" y="139"/><ellipse cx="558.75" cy="155" fill="#A9DCDF" rx="11" ry="11" style="stroke:#181818;stroke-width:1.0;"/><path d="M560.9375,156.7656 L556.7969,156.7656 L556.375,157.7969 L556.7969,157.7969 Q557.4063,157.7969 557.6719,158.0313 Q557.9375,158.2656 557.9375,158.6563 Q557.9375,159.0313 557.6719,159.2656 Q557.4063,159.5 556.7969,159.5 L554.5,159.5 Q553.8906,159.5 553.6406,159.2656 Q553.375,159.0313 553.375,158.6406 Q553.375,158.2656 553.6563,158.0313 Q553.9219,157.7813 554.5469,157.7969 L557.2188,151.1406 L556.1094,151.1406 Q555.5,151.1406 555.2344,150.9063 Q554.9688,150.6719 554.9688,150.2813 Q554.9688,149.9063 555.2344,149.6719 Q555.5,149.4375 556.1094,149.4375 L559.7813,149.4375 L563.1719,157.7969 Q563.7656,157.7969 563.9531,157.9375 Q564.3438,158.2031 564.3438,158.6563 Q564.3438,159.0313 564.0781,159.2656 Q563.8281,159.5 563.2188,159.5 L560.9219,159.5 Q560.3125,159.5 560.0469,159.2656 Q559.7813,159.0313 559.7813,158.6406 Q559.7813,158.2656 560.0469,158.0313 Q560.3125,157.7969 560.9219,157.7969 L561.3438,157.7969 L560.9375,156.7656 Z M560.2188,155.0625 L558.8594,151.6875 L557.4844,155.0625 L560.2188,155.0625 Z " fill="#000000"/><text fill="#000000" font-family="sans-serif" font-size="14" font-style="italic" lengthAdjust="spacing" textLength="50" x="579.25" y="160.7285">IShader</text><line style="stroke:#181818;stroke-width:0.5;" x1="511.5" x2="664.5" y1="171" y2="171"/><line style="stroke:#181818;stroke-width:0.5;" x1="511.5" x2="664.5" y1="179" y2="179"/><ellipse cx="521.5" cy="193.3047" fill="#84BE84" rx="3" ry="3" style="stroke:#038048;stroke-width:1.0;"/><text fill="#000000" font-family="sans-serif" font-size="14" lengthAdjust="spacing" textLength="113" x="530.5" y="197.5332">virtual void bind();</text><ellipse cx="521.5" cy="210.9141" fill="#84BE84" rx="3" ry="3" style="stroke:#038048;stroke-width:1.0;"/><text fill="#000000" font-family="sans-serif" font-size="14" lengthAdjust="spacing" textLength="129" x="530.5" y="215.1426">virtual void unbind();</text></g><!--class ITexture--><g id="elem_ITexture"><rect codeLine="26" fill="#F1F1F1" height="100.8281" id="ITexture" rx="2.5" ry="2.5" style="stroke:#181818;stroke-width:0.5;" width="185" x="193.5" y="130"/><ellipse cx="255.75" cy="146" fill="#A9DCDF" rx="11" ry="11" style="stroke:#181818;stroke-width:1.0;"/><path d="M257.9375,147.7656 L253.7969,147.7656 L253.375,148.7969 L253.7969,148.7969 Q254.4063,148.7969 254.6719,149.0313 Q254.9375,149.2656 254.9375,149.6563 Q254.9375,150.0313 254.6719,150.2656 Q254.4063,150.5 253.7969,150.5 L251.5,150.5 Q250.8906,150.5 250.6406,150.2656 Q250.375,150.0313 250.375,149.6406 Q250.375,149.2656 250.6563,149.0313 Q250.9219,148.7813 251.5469,148.7969 L254.2188,142.1406 L253.1094,142.1406 Q252.5,142.1406 252.2344,141.9063 Q251.9688,141.6719 251.9688,141.2813 Q251.9688,140.9063 252.2344,140.6719 Q252.5,140.4375 253.1094,140.4375 L256.7813,140.4375 L260.1719,148.7969 Q260.7656,148.7969 260.9531,148.9375 Q261.3438,149.2031 261.3438,149.6563 Q261.3438,150.0313 261.0781,150.2656 Q260.8281,150.5 260.2188,150.5 L257.9219,150.5 Q257.3125,150.5 257.0469,150.2656 Q256.7813,150.0313 256.7813,149.6406 Q256.7813,149.2656 257.0469,149.0313 Q257.3125,148.7969 257.9219,148.7969 L258.3438,148.7969 L257.9375,147.7656 Z M257.2188,146.0625 L255.8594,142.6875 L254.4844,146.0625 L257.2188,146.0625 Z " fill="#000000"/><text fill="#000000" font-family="sans-serif" font-size="14" font-style="italic" lengthAdjust="spacing" textLength="52" x="276.25" y="151.7285">ITexture</text><line style="stroke:#181818;stroke-width:0.5;" x1="194.5" x2="377.5" y1="162" y2="162"/><line style="stroke:#181818;stroke-width:0.5;" x1="194.5" x2="377.5" y1="170" y2="170"/><ellipse cx="204.5" cy="184.3047" fill="#84BE84" rx="3" ry="3" style="stroke:#038048;stroke-width:1.0;"/><text fill="#000000" font-family="sans-serif" font-size="14" lengthAdjust="spacing" textLength="113" x="213.5" y="188.5332">virtual void bind();</text><ellipse cx="204.5" cy="201.9141" fill="#84BE84" rx="3" ry="3" style="stroke:#038048;stroke-width:1.0;"/><text fill="#000000" font-family="sans-serif" font-size="14" lengthAdjust="spacing" textLength="129" x="213.5" y="206.1426">virtual void unbind();</text><ellipse cx="204.5" cy="219.5234" fill="#84BE84" rx="3" ry="3" style="stroke:#038048;stroke-width:1.0;"/><text fill="#000000" font-family="sans-serif" font-size="14" lengthAdjust="spacing" textLength="159" x="213.5" y="223.752">virtual void* getTexture();</text></g><!--class OpenGLMaterial--><g id="elem_OpenGLMaterial"><rect codeLine="37" fill="#F1F1F1" height="83.2188" id="OpenGLMaterial" rx="2.5" ry="2.5" style="stroke:#181818;stroke-width:0.5;" width="169" x="1342.5" y="335"/><ellipse cx="1372.35" cy="351" fill="#ADD1B2" rx="11" ry="11" style="stroke:#181818;stroke-width:1.0;"/><path d="M1375.1156,346.875 Q1375.2719,346.6563 1375.4594,346.5469 Q1375.6469,346.4375 1375.8656,346.4375 Q1376.2406,346.4375 1376.475,346.7031 Q1376.7094,346.9531 1376.7094,347.5625 L1376.7094,349.0156 Q1376.7094,349.625 1376.475,349.8906 Q1376.2406,350.1563 1375.8656,350.1563 Q1375.5219,350.1563 1375.3188,349.9531 Q1375.1156,349.7656 1375.0063,349.25 Q1374.9594,348.8906 1374.7719,348.7031 Q1374.4438,348.3281 1373.8344,348.1094 Q1373.225,347.8906 1372.6,347.8906 Q1371.8344,347.8906 1371.1938,348.2188 Q1370.5688,348.5469 1370.0688,349.2969 Q1369.5844,350.0469 1369.5844,351.0781 L1369.5844,352.1719 Q1369.5844,353.4063 1370.475,354.2344 Q1371.3656,355.0469 1372.9594,355.0469 Q1373.8969,355.0469 1374.5531,354.7969 Q1374.9438,354.6406 1375.3656,354.2031 Q1375.6313,353.9375 1375.7719,353.8594 Q1375.9281,353.7813 1376.1313,353.7813 Q1376.4594,353.7813 1376.7094,354.0469 Q1376.975,354.2969 1376.975,354.6406 Q1376.975,354.9844 1376.6313,355.3906 Q1376.1313,355.9688 1375.3344,356.2969 Q1374.2563,356.75 1372.9594,356.75 Q1371.4438,356.75 1370.2406,356.125 Q1369.2563,355.625 1368.5688,354.5625 Q1367.8813,353.4844 1367.8813,352.2031 L1367.8813,351.0469 Q1367.8813,349.7188 1368.4906,348.5781 Q1369.1156,347.4219 1370.2094,346.8125 Q1371.3031,346.1875 1372.5375,346.1875 Q1373.2719,346.1875 1373.9125,346.3594 Q1374.5688,346.5156 1375.1156,346.875 Z " fill="#000000"/><text fill="#000000" font-family="sans-serif" font-size="14" lengthAdjust="spacing" textLength="104" x="1389.65" y="356.7285">OpenGLMaterial</text><line style="stroke:#181818;stroke-width:0.5;" x1="1343.5" x2="1510.5" y1="367" y2="367"/><line style="stroke:#181818;stroke-width:0.5;" x1="1343.5" x2="1510.5" y1="375" y2="375"/><ellipse cx="1353.5" cy="389.3047" fill="#84BE84" rx="3" ry="3" style="stroke:#038048;stroke-width:1.0;"/><text fill="#000000" font-family="sans-serif" font-size="14" lengthAdjust="spacing" textLength="127" x="1362.5" y="393.5332">void bind() override;</text><ellipse cx="1353.5" cy="406.9141" fill="#84BE84" rx="3" ry="3" style="stroke:#038048;stroke-width:1.0;"/><text fill="#000000" font-family="sans-serif" font-size="14" lengthAdjust="spacing" textLength="143" x="1362.5" y="411.1426">void unbind() override;</text></g><!--class OpenGLMesh--><g id="elem_OpenGLMesh"><rect codeLine="43" fill="#F1F1F1" height="83.2188" id="OpenGLMesh" rx="2.5" ry="2.5" style="stroke:#181818;stroke-width:0.5;" width="205" x="862.5" y="335"/><ellipse cx="916.75" cy="351" fill="#ADD1B2" rx="11" ry="11" style="stroke:#181818;stroke-width:1.0;"/><path d="M919.5156,346.875 Q919.6719,346.6563 919.8594,346.5469 Q920.0469,346.4375 920.2656,346.4375 Q920.6406,346.4375 920.875,346.7031 Q921.1094,346.9531 921.1094,347.5625 L921.1094,349.0156 Q921.1094,349.625 920.875,349.8906 Q920.6406,350.1563 920.2656,350.1563 Q919.9219,350.1563 919.7188,349.9531 Q919.5156,349.7656 919.4063,349.25 Q919.3594,348.8906 919.1719,348.7031 Q918.8438,348.3281 918.2344,348.1094 Q917.625,347.8906 917,347.8906 Q916.2344,347.8906 915.5938,348.2188 Q914.9688,348.5469 914.4688,349.2969 Q913.9844,350.0469 913.9844,351.0781 L913.9844,352.1719 Q913.9844,353.4063 914.875,354.2344 Q915.7656,355.0469 917.3594,355.0469 Q918.2969,355.0469 918.9531,354.7969 Q919.3438,354.6406 919.7656,354.2031 Q920.0313,353.9375 920.1719,353.8594 Q920.3281,353.7813 920.5313,353.7813 Q920.8594,353.7813 921.1094,354.0469 Q921.375,354.2969 921.375,354.6406 Q921.375,354.9844 921.0313,355.3906 Q920.5313,355.9688 919.7344,356.2969 Q918.6563,356.75 917.3594,356.75 Q915.8438,356.75 914.6406,356.125 Q913.6563,355.625 912.9688,354.5625 Q912.2813,353.4844 912.2813,352.2031 L912.2813,351.0469 Q912.2813,349.7188 912.8906,348.5781 Q913.5156,347.4219 914.6094,346.8125 Q915.7031,346.1875 916.9375,346.1875 Q917.6719,346.1875 918.3125,346.3594 Q918.9688,346.5156 919.5156,346.875 Z " fill="#000000"/><text fill="#000000" font-family="sans-serif" font-size="14" lengthAdjust="spacing" textLength="88" x="937.25" y="356.7285">OpenGLMesh</text><line style="stroke:#181818;stroke-width:0.5;" x1="863.5" x2="1066.5" y1="367" y2="367"/><line style="stroke:#181818;stroke-width:0.5;" x1="863.5" x2="1066.5" y1="375" y2="375"/><ellipse cx="873.5" cy="389.3047" fill="#84BE84" rx="3" ry="3" style="stroke:#038048;stroke-width:1.0;"/><text fill="#000000" font-family="sans-serif" font-size="14" lengthAdjust="spacing" textLength="130" x="882.5" y="393.5332">void draw() override;</text><ellipse cx="873.5" cy="406.9141" fill="#84BE84" rx="3" ry="3" style="stroke:#038048;stroke-width:1.0;"/><text fill="#000000" font-family="sans-serif" font-size="14" lengthAdjust="spacing" textLength="179" x="882.5" y="411.1426">void drawIndexed() override;</text></g><!--class OpenGLShader--><g id="elem_OpenGLShader"><rect codeLine="49" fill="#F1F1F1" height="83.2188" id="OpenGLShader" rx="2.5" ry="2.5" style="stroke:#181818;stroke-width:0.5;" width="169" x="454.5" y="335"/><ellipse cx="486.15" cy="351" fill="#ADD1B2" rx="11" ry="11" style="stroke:#181818;stroke-width:1.0;"/><path d="M488.9156,346.875 Q489.0719,346.6563 489.2594,346.5469 Q489.4469,346.4375 489.6656,346.4375 Q490.0406,346.4375 490.275,346.7031 Q490.5094,346.9531 490.5094,347.5625 L490.5094,349.0156 Q490.5094,349.625 490.275,349.8906 Q490.0406,350.1563 489.6656,350.1563 Q489.3219,350.1563 489.1188,349.9531 Q488.9156,349.7656 488.8063,349.25 Q488.7594,348.8906 488.5719,348.7031 Q488.2438,348.3281 487.6344,348.1094 Q487.025,347.8906 486.4,347.8906 Q485.6344,347.8906 484.9938,348.2188 Q484.3688,348.5469 483.8688,349.2969 Q483.3844,350.0469 483.3844,351.0781 L483.3844,352.1719 Q483.3844,353.4063 484.275,354.2344 Q485.1656,355.0469 486.7594,355.0469 Q487.6969,355.0469 488.3531,354.7969 Q488.7438,354.6406 489.1656,354.2031 Q489.4313,353.9375 489.5719,353.8594 Q489.7281,353.7813 489.9313,353.7813 Q490.2594,353.7813 490.5094,354.0469 Q490.775,354.2969 490.775,354.6406 Q490.775,354.9844 490.4313,355.3906 Q489.9313,355.9688 489.1344,356.2969 Q488.0563,356.75 486.7594,356.75 Q485.2438,356.75 484.0406,356.125 Q483.0563,355.625 482.3688,354.5625 Q481.6813,353.4844 481.6813,352.2031 L481.6813,351.0469 Q481.6813,349.7188 482.2906,348.5781 Q482.9156,347.4219 484.0094,346.8125 Q485.1031,346.1875 486.3375,346.1875 Q487.0719,346.1875 487.7125,346.3594 Q488.3688,346.5156 488.9156,346.875 Z " fill="#000000"/><text fill="#000000" font-family="sans-serif" font-size="14" lengthAdjust="spacing" textLength="100" x="503.85" y="356.7285">OpenGLShader</text><line style="stroke:#181818;stroke-width:0.5;" x1="455.5" x2="622.5" y1="367" y2="367"/><line style="stroke:#181818;stroke-width:0.5;" x1="455.5" x2="622.5" y1="375" y2="375"/><ellipse cx="465.5" cy="389.3047" fill="#84BE84" rx="3" ry="3" style="stroke:#038048;stroke-width:1.0;"/><text fill="#000000" font-family="sans-serif" font-size="14" lengthAdjust="spacing" textLength="127" x="474.5" y="393.5332">void bind() override;</text><ellipse cx="465.5" cy="406.9141" fill="#84BE84" rx="3" ry="3" style="stroke:#038048;stroke-width:1.0;"/><text fill="#000000" font-family="sans-serif" font-size="14" lengthAdjust="spacing" textLength="143" x="474.5" y="411.1426">void unbind() override;</text></g><!--class OpenGLTexture--><g id="elem_OpenGLTexture"><rect codeLine="55" fill="#F1F1F1" height="83.2188" id="OpenGLTexture" rx="2.5" ry="2.5" style="stroke:#181818;stroke-width:0.5;" width="169" x="46.5" y="335"/><ellipse cx="77.25" cy="351" fill="#ADD1B2" rx="11" ry="11" style="stroke:#181818;stroke-width:1.0;"/><path d="M80.0156,346.875 Q80.1719,346.6563 80.3594,346.5469 Q80.5469,346.4375 80.7656,346.4375 Q81.1406,346.4375 81.375,346.7031 Q81.6094,346.9531 81.6094,347.5625 L81.6094,349.0156 Q81.6094,349.625 81.375,349.8906 Q81.1406,350.1563 80.7656,350.1563 Q80.4219,350.1563 80.2188,349.9531 Q80.0156,349.7656 79.9063,349.25 Q79.8594,348.8906 79.6719,348.7031 Q79.3438,348.3281 78.7344,348.1094 Q78.125,347.8906 77.5,347.8906 Q76.7344,347.8906 76.0938,348.2188 Q75.4688,348.5469 74.9688,349.2969 Q74.4844,350.0469 74.4844,351.0781 L74.4844,352.1719 Q74.4844,353.4063 75.375,354.2344 Q76.2656,355.0469 77.8594,355.0469 Q78.7969,355.0469 79.4531,354.7969 Q79.8438,354.6406 80.2656,354.2031 Q80.5313,353.9375 80.6719,353.8594 Q80.8281,353.7813 81.0313,353.7813 Q81.3594,353.7813 81.6094,354.0469 Q81.875,354.2969 81.875,354.6406 Q81.875,354.9844 81.5313,355.3906 Q81.0313,355.9688 80.2344,356.2969 Q79.1563,356.75 77.8594,356.75 Q76.3438,356.75 75.1406,356.125 Q74.1563,355.625 73.4688,354.5625 Q72.7813,353.4844 72.7813,352.2031 L72.7813,351.0469 Q72.7813,349.7188 73.3906,348.5781 Q74.0156,347.4219 75.1094,346.8125 Q76.2031,346.1875 77.4375,346.1875 Q78.1719,346.1875 78.8125,346.3594 Q79.4688,346.5156 80.0156,346.875 Z " fill="#000000"/><text fill="#000000" font-family="sans-serif" font-size="14" lengthAdjust="spacing" textLength="102" x="94.75" y="356.7285">OpenGLTexture</text><line style="stroke:#181818;stroke-width:0.5;" x1="47.5" x2="214.5" y1="367" y2="367"/><line style="stroke:#181818;stroke-width:0.5;" x1="47.5" x2="214.5" y1="375" y2="375"/><ellipse cx="57.5" cy="389.3047" fill="#84BE84" rx="3" ry="3" style="stroke:#038048;stroke-width:1.0;"/><text fill="#000000" font-family="sans-serif" font-size="14" lengthAdjust="spacing" textLength="127" x="66.5" y="393.5332">void bind() override;</text><ellipse cx="57.5" cy="406.9141" fill="#84BE84" rx="3" ry="3" style="stroke:#038048;stroke-width:1.0;"/><text fill="#000000" font-family="sans-serif" font-size="14" lengthAdjust="spacing" textLength="143" x="66.5" y="411.1426">void unbind() override;</text></g><!--class VulkanMaterial--><g id="elem_VulkanMaterial"><rect codeLine="61" fill="#F1F1F1" height="83.2188" id="VulkanMaterial" rx="2.5" ry="2.5" style="stroke:#181818;stroke-width:0.5;" width="169" x="1546.5" y="335"/><ellipse cx="1581.3" cy="351" fill="#ADD1B2" rx="11" ry="11" style="stroke:#181818;stroke-width:1.0;"/><path d="M1584.0656,346.875 Q1584.2219,346.6563 1584.4094,346.5469 Q1584.5969,346.4375 1584.8156,346.4375 Q1585.1906,346.4375 1585.425,346.7031 Q1585.6594,346.9531 1585.6594,347.5625 L1585.6594,349.0156 Q1585.6594,349.625 1585.425,349.8906 Q1585.1906,350.1563 1584.8156,350.1563 Q1584.4719,350.1563 1584.2688,349.9531 Q1584.0656,349.7656 1583.9563,349.25 Q1583.9094,348.8906 1583.7219,348.7031 Q1583.3938,348.3281 1582.7844,348.1094 Q1582.175,347.8906 1581.55,347.8906 Q1580.7844,347.8906 1580.1438,348.2188 Q1579.5188,348.5469 1579.0188,349.2969 Q1578.5344,350.0469 1578.5344,351.0781 L1578.5344,352.1719 Q1578.5344,353.4063 1579.425,354.2344 Q1580.3156,355.0469 1581.9094,355.0469 Q1582.8469,355.0469 1583.5031,354.7969 Q1583.8938,354.6406 1584.3156,354.2031 Q1584.5813,353.9375 1584.7219,353.8594 Q1584.8781,353.7813 1585.0813,353.7813 Q1585.4094,353.7813 1585.6594,354.0469 Q1585.925,354.2969 1585.925,354.6406 Q1585.925,354.9844 1585.5813,355.3906 Q1585.0813,355.9688 1584.2844,356.2969 Q1583.2063,356.75 1581.9094,356.75 Q1580.3938,356.75 1579.1906,356.125 Q1578.2063,355.625 1577.5188,354.5625 Q1576.8313,353.4844 1576.8313,352.2031 L1576.8313,351.0469 Q1576.8313,349.7188 1577.4406,348.5781 Q1578.0656,347.4219 1579.1594,346.8125 Q1580.2531,346.1875 1581.4875,346.1875 Q1582.2219,346.1875 1582.8625,346.3594 Q1583.5188,346.5156 1584.0656,346.875 Z " fill="#000000"/><text fill="#000000" font-family="sans-serif" font-size="14" lengthAdjust="spacing" textLength="93" x="1599.7" y="356.7285">VulkanMaterial</text><line style="stroke:#181818;stroke-width:0.5;" x1="1547.5" x2="1714.5" y1="367" y2="367"/><line style="stroke:#181818;stroke-width:0.5;" x1="1547.5" x2="1714.5" y1="375" y2="375"/><ellipse cx="1557.5" cy="389.3047" fill="#84BE84" rx="3" ry="3" style="stroke:#038048;stroke-width:1.0;"/><text fill="#000000" font-family="sans-serif" font-size="14" lengthAdjust="spacing" textLength="127" x="1566.5" y="393.5332">void bind() override;</text><ellipse cx="1557.5" cy="406.9141" fill="#84BE84" rx="3" ry="3" style="stroke:#038048;stroke-width:1.0;"/><text fill="#000000" font-family="sans-serif" font-size="14" lengthAdjust="spacing" textLength="143" x="1566.5" y="411.1426">void unbind() override;</text></g><!--class VulkanMesh--><g id="elem_VulkanMesh"><rect codeLine="66" fill="#F1F1F1" height="83.2188" id="VulkanMesh" rx="2.5" ry="2.5" style="stroke:#181818;stroke-width:0.5;" width="205" x="1102.5" y="335"/><ellipse cx="1162.25" cy="351" fill="#ADD1B2" rx="11" ry="11" style="stroke:#181818;stroke-width:1.0;"/><path d="M1165.0156,346.875 Q1165.1719,346.6563 1165.3594,346.5469 Q1165.5469,346.4375 1165.7656,346.4375 Q1166.1406,346.4375 1166.375,346.7031 Q1166.6094,346.9531 1166.6094,347.5625 L1166.6094,349.0156 Q1166.6094,349.625 1166.375,349.8906 Q1166.1406,350.1563 1165.7656,350.1563 Q1165.4219,350.1563 1165.2188,349.9531 Q1165.0156,349.7656 1164.9063,349.25 Q1164.8594,348.8906 1164.6719,348.7031 Q1164.3438,348.3281 1163.7344,348.1094 Q1163.125,347.8906 1162.5,347.8906 Q1161.7344,347.8906 1161.0938,348.2188 Q1160.4688,348.5469 1159.9688,349.2969 Q1159.4844,350.0469 1159.4844,351.0781 L1159.4844,352.1719 Q1159.4844,353.4063 1160.375,354.2344 Q1161.2656,355.0469 1162.8594,355.0469 Q1163.7969,355.0469 1164.4531,354.7969 Q1164.8438,354.6406 1165.2656,354.2031 Q1165.5313,353.9375 1165.6719,353.8594 Q1165.8281,353.7813 1166.0313,353.7813 Q1166.3594,353.7813 1166.6094,354.0469 Q1166.875,354.2969 1166.875,354.6406 Q1166.875,354.9844 1166.5313,355.3906 Q1166.0313,355.9688 1165.2344,356.2969 Q1164.1563,356.75 1162.8594,356.75 Q1161.3438,356.75 1160.1406,356.125 Q1159.1563,355.625 1158.4688,354.5625 Q1157.7813,353.4844 1157.7813,352.2031 L1157.7813,351.0469 Q1157.7813,349.7188 1158.3906,348.5781 Q1159.0156,347.4219 1160.1094,346.8125 Q1161.2031,346.1875 1162.4375,346.1875 Q1163.1719,346.1875 1163.8125,346.3594 Q1164.4688,346.5156 1165.0156,346.875 Z " fill="#000000"/><text fill="#000000" font-family="sans-serif" font-size="14" lengthAdjust="spacing" textLength="77" x="1182.75" y="356.7285">VulkanMesh</text><line style="stroke:#181818;stroke-width:0.5;" x1="1103.5" x2="1306.5" y1="367" y2="367"/><line style="stroke:#181818;stroke-width:0.5;" x1="1103.5" x2="1306.5" y1="375" y2="375"/><ellipse cx="1113.5" cy="389.3047" fill="#84BE84" rx="3" ry="3" style="stroke:#038048;stroke-width:1.0;"/><text fill="#000000" font-family="sans-serif" font-size="14" lengthAdjust="spacing" textLength="130" x="1122.5" y="393.5332">void draw() override;</text><ellipse cx="1113.5" cy="406.9141" fill="#84BE84" rx="3" ry="3" style="stroke:#038048;stroke-width:1.0;"/><text fill="#000000" font-family="sans-serif" font-size="14" lengthAdjust="spacing" textLength="179" x="1122.5" y="411.1426">void drawIndexed() override;</text></g><!--class VulkanShader--><g id="elem_VulkanShader"><rect codeLine="71" fill="#F1F1F1" height="83.2188" id="VulkanShader" rx="2.5" ry="2.5" style="stroke:#181818;stroke-width:0.5;" width="169" x="658.5" y="335"/><ellipse cx="695.1" cy="351" fill="#ADD1B2" rx="11" ry="11" style="stroke:#181818;stroke-width:1.0;"/><path d="M697.8656,346.875 Q698.0219,346.6563 698.2094,346.5469 Q698.3969,346.4375 698.6156,346.4375 Q698.9906,346.4375 699.225,346.7031 Q699.4594,346.9531 699.4594,347.5625 L699.4594,349.0156 Q699.4594,349.625 699.225,349.8906 Q698.9906,350.1563 698.6156,350.1563 Q698.2719,350.1563 698.0688,349.9531 Q697.8656,349.7656 697.7563,349.25 Q697.7094,348.8906 697.5219,348.7031 Q697.1938,348.3281 696.5844,348.1094 Q695.975,347.8906 695.35,347.8906 Q694.5844,347.8906 693.9438,348.2188 Q693.3188,348.5469 692.8188,349.2969 Q692.3344,350.0469 692.3344,351.0781 L692.3344,352.1719 Q692.3344,353.4063 693.225,354.2344 Q694.1156,355.0469 695.7094,355.0469 Q696.6469,355.0469 697.3031,354.7969 Q697.6938,354.6406 698.1156,354.2031 Q698.3813,353.9375 698.5219,353.8594 Q698.6781,353.7813 698.8813,353.7813 Q699.2094,353.7813 699.4594,354.0469 Q699.725,354.2969 699.725,354.6406 Q699.725,354.9844 699.3813,355.3906 Q698.8813,355.9688 698.0844,356.2969 Q697.0063,356.75 695.7094,356.75 Q694.1938,356.75 692.9906,356.125 Q692.0063,355.625 691.3188,354.5625 Q690.6313,353.4844 690.6313,352.2031 L690.6313,351.0469 Q690.6313,349.7188 691.2406,348.5781 Q691.8656,347.4219 692.9594,346.8125 Q694.0531,346.1875 695.2875,346.1875 Q696.0219,346.1875 696.6625,346.3594 Q697.3188,346.5156 697.8656,346.875 Z " fill="#000000"/><text fill="#000000" font-family="sans-serif" font-size="14" lengthAdjust="spacing" textLength="89" x="713.9" y="356.7285">VulkanShader</text><line style="stroke:#181818;stroke-width:0.5;" x1="659.5" x2="826.5" y1="367" y2="367"/><line style="stroke:#181818;stroke-width:0.5;" x1="659.5" x2="826.5" y1="375" y2="375"/><ellipse cx="669.5" cy="389.3047" fill="#84BE84" rx="3" ry="3" style="stroke:#038048;stroke-width:1.0;"/><text fill="#000000" font-family="sans-serif" font-size="14" lengthAdjust="spacing" textLength="127" x="678.5" y="393.5332">void bind() override;</text><ellipse cx="669.5" cy="406.9141" fill="#84BE84" rx="3" ry="3" style="stroke:#038048;stroke-width:1.0;"/><text fill="#000000" font-family="sans-serif" font-size="14" lengthAdjust="spacing" textLength="143" x="678.5" y="411.1426">void unbind() override;</text></g><!--class VulkanTexture--><g id="elem_VulkanTexture"><rect codeLine="76" fill="#F1F1F1" height="83.2188" id="VulkanTexture" rx="2.5" ry="2.5" style="stroke:#181818;stroke-width:0.5;" width="169" x="250.5" y="335"/><ellipse cx="286.2" cy="351" fill="#ADD1B2" rx="11" ry="11" style="stroke:#181818;stroke-width:1.0;"/><path d="M288.9656,346.875 Q289.1219,346.6563 289.3094,346.5469 Q289.4969,346.4375 289.7156,346.4375 Q290.0906,346.4375 290.325,346.7031 Q290.5594,346.9531 290.5594,347.5625 L290.5594,349.0156 Q290.5594,349.625 290.325,349.8906 Q290.0906,350.1563 289.7156,350.1563 Q289.3719,350.1563 289.1688,349.9531 Q288.9656,349.7656 288.8563,349.25 Q288.8094,348.8906 288.6219,348.7031 Q288.2938,348.3281 287.6844,348.1094 Q287.075,347.8906 286.45,347.8906 Q285.6844,347.8906 285.0438,348.2188 Q284.4188,348.5469 283.9188,349.2969 Q283.4344,350.0469 283.4344,351.0781 L283.4344,352.1719 Q283.4344,353.4063 284.325,354.2344 Q285.2156,355.0469 286.8094,355.0469 Q287.7469,355.0469 288.4031,354.7969 Q288.7938,354.6406 289.2156,354.2031 Q289.4813,353.9375 289.6219,353.8594 Q289.7781,353.7813 289.9813,353.7813 Q290.3094,353.7813 290.5594,354.0469 Q290.825,354.2969 290.825,354.6406 Q290.825,354.9844 290.4813,355.3906 Q289.9813,355.9688 289.1844,356.2969 Q288.1063,356.75 286.8094,356.75 Q285.2938,356.75 284.0906,356.125 Q283.1063,355.625 282.4188,354.5625 Q281.7313,353.4844 281.7313,352.2031 L281.7313,351.0469 Q281.7313,349.7188 282.3406,348.5781 Q282.9656,347.4219 284.0594,346.8125 Q285.1531,346.1875 286.3875,346.1875 Q287.1219,346.1875 287.7625,346.3594 Q288.4188,346.5156 288.9656,346.875 Z " fill="#000000"/><text fill="#000000" font-family="sans-serif" font-size="14" lengthAdjust="spacing" textLength="91" x="304.8" y="356.7285">VulkanTexture</text><line style="stroke:#181818;stroke-width:0.5;" x1="251.5" x2="418.5" y1="367" y2="367"/><line style="stroke:#181818;stroke-width:0.5;" x1="251.5" x2="418.5" y1="375" y2="375"/><ellipse cx="261.5" cy="389.3047" fill="#84BE84" rx="3" ry="3" style="stroke:#038048;stroke-width:1.0;"/><text fill="#000000" font-family="sans-serif" font-size="14" lengthAdjust="spacing" textLength="127" x="270.5" y="393.5332">void bind() override;</text><ellipse cx="261.5" cy="406.9141" fill="#84BE84" rx="3" ry="3" style="stroke:#038048;stroke-width:1.0;"/><text fill="#000000" font-family="sans-serif" font-size="14" lengthAdjust="spacing" textLength="143" x="270.5" y="411.1426">void unbind() override;</text></g><!--reverse link IMaterial to OpenGLMaterial--><g id="link_IMaterial_OpenGLMaterial"><path d="M1471.416,291.0235 C1460.416,311.9535 1457.67,317.16 1448.5,334.61 " fill="none" id="IMaterial-backto-OpenGLMaterial" style="stroke:#181818;stroke-width:1.0;"/><polygon fill="none" points="1479.79,275.09,1466.1048,288.2321,1476.7271,293.8148,1479.79,275.09" style="stroke:#181818;stroke-width:1.0;"/></g><!--reverse link IMesh to OpenGLMesh--><g id="link_IMesh_OpenGLMesh"><path d="M1050.3712,237.4782 C1029.8912,270.5882 1010.59,301.79 990.12,334.88 " fill="none" id="IMesh-backto-OpenGLMesh" style="stroke:#181818;stroke-width:1.0;"/><polygon fill="none" points="1059.84,222.17,1045.2684,234.3219,1055.4739,240.6345,1059.84,222.17" style="stroke:#181818;stroke-width:1.0;"/></g><!--reverse link IShader to OpenGLShader--><g id="link_IShader_OpenGLShader"><path d="M573.3234,239.6223 C564.9634,272.7323 557.62,301.79 549.26,334.88 " fill="none" id="IShader-backto-OpenGLShader" style="stroke:#181818;stroke-width:1.0;"/><polygon fill="none" points="577.73,222.17,567.506,238.1534,579.1409,241.0911,577.73,222.17" style="stroke:#181818;stroke-width:1.0;"/></g><!--reverse link ITexture to OpenGLTexture--><g id="link_ITexture_OpenGLTexture"><path d="M235.0456,245.2738 C209.3956,277.3838 187.67,304.58 163.56,334.75 " fill="none" id="ITexture-backto-OpenGLTexture" style="stroke:#181818;stroke-width:1.0;"/><polygon fill="none" points="246.28,231.21,230.3577,241.529,239.7336,249.0185,246.28,231.21" style="stroke:#181818;stroke-width:1.0;"/></g><!--reverse link IMaterial to VulkanMaterial--><g id="link_IMaterial_VulkanMaterial"><path d="M1586.584,291.0235 C1597.584,311.9535 1600.33,317.16 1609.5,334.61 " fill="none" id="IMaterial-backto-VulkanMaterial" style="stroke:#181818;stroke-width:1.0;"/><polygon fill="none" points="1578.21,275.09,1581.2729,293.8148,1591.8952,288.2321,1578.21,275.09" style="stroke:#181818;stroke-width:1.0;"/></g><!--reverse link IMesh to VulkanMesh--><g id="link_IMesh_VulkanMesh"><path d="M1119.6288,237.4782 C1140.1088,270.5882 1159.41,301.79 1179.88,334.88 " fill="none" id="IMesh-backto-VulkanMesh" style="stroke:#181818;stroke-width:1.0;"/><polygon fill="none" points="1110.16,222.17,1114.5261,240.6345,1124.7316,234.3219,1110.16,222.17" style="stroke:#181818;stroke-width:1.0;"/></g><!--reverse link IShader to VulkanShader--><g id="link_IShader_VulkanShader"><path d="M631.7273,236.2314 C658.1873,269.3414 684.11,301.79 710.55,334.88 " fill="none" id="IShader-backto-VulkanShader" style="stroke:#181818;stroke-width:1.0;"/><polygon fill="none" points="620.49,222.17,627.0401,239.9772,636.4144,232.4857,620.49,222.17" style="stroke:#181818;stroke-width:1.0;"/></g><!--reverse link ITexture to VulkanTexture--><g id="link_ITexture_VulkanTexture"><path d="M302.9627,248.6633 C311.0627,280.7733 317.09,304.58 324.71,334.75 " fill="none" id="ITexture-backto-VulkanTexture" style="stroke:#181818;stroke-width:1.0;"/><polygon fill="none" points="298.56,231.21,297.145,250.1308,308.7805,247.1957,298.56,231.21" style="stroke:#181818;stroke-width:1.0;"/></g><!--SRC=[lP9BJyCm48Jl-HK-bY9nuPWJue0gWIfHn7rZRnDJruxy2ArG_ZiE2SIAauf7YPMJP-Ll9pCbq1taI1vHCjGRbvcZiRY_kicCrK1jUx_ENf1Qaxmbn1_eD48564DM3s1HSn0VOZlIdCiAwJN9mE2j4agdWQ0uMv8zMX22qqZGokM5H1C8Mw704bCYTG9q9838aAdeMkDM-BrvnUqnJG8CrzQ180sEP5oonKKweJePwlMuVpH5v3ryX6budKOqwih_vGEo1PV-LUMaFGdS5E13EOdykwidF5YdyMoKI5-I76r7wLUfawJyIIVzRcsoxThh4kNT_MSZYN_T3v_gQ6-3g0grvWm7XVpoCHYeHxY-2G5ph1Tz7oPvOI6-0MtRq6Cdsd5MerriFNIgBR-YDbfCVdPY1tAcQ2Dia-n_Hpk4pf3i43bViFvx1m00]--></g></svg>