<?xml version="1.0" encoding="us-ascii" standalone="no"?><svg xmlns="http://www.w3.org/2000/svg" xmlns:xlink="http://www.w3.org/1999/xlink" contentStyleType="text/css" height="606px" preserveAspectRatio="none" style="width:1361px;height:606px;background:#FFFFFF;" version="1.1" viewBox="0 0 1361 606" width="1361px" zoomAndPan="magnify"><defs/><g><!--cluster RenderSubsystem--><g id="cluster_RenderSubsystem"><path d="M8.5,6 L137.5,6 A3.75,3.75 0 0 1 140,8.5 L147,29.6094 L1351.5,29.6094 A2.5,2.5 0 0 1 1354,32.1094 L1354,596.5 A2.5,2.5 0 0 1 1351.5,599 L8.5,599 A2.5,2.5 0 0 1 6,596.5 L6,8.5 A2.5,2.5 0 0 1 8.5,6 " fill="none" style="stroke:#000000;stroke-width:1.5;"/><line style="stroke:#000000;stroke-width:1.5;" x1="6" x2="147" y1="29.6094" y2="29.6094"/><text fill="#000000" font-family="sans-serif" font-size="14" font-weight="bold" lengthAdjust="spacing" textLength="128" x="10" y="22.5332">RenderSubsystem</text></g><!--cluster RenderPipelineObjects--><g id="cluster_RenderPipelineObjects"><path d="M32.5,50 L196.5,50 A3.75,3.75 0 0 1 199,52.5 L206,73.6094 L1327.5,73.6094 A2.5,2.5 0 0 1 1330,76.1094 L1330,572.5 A2.5,2.5 0 0 1 1327.5,575 L32.5,575 A2.5,2.5 0 0 1 30,572.5 L30,52.5 A2.5,2.5 0 0 1 32.5,50 " fill="none" style="stroke:#000000;stroke-width:1.5;"/><line style="stroke:#000000;stroke-width:1.5;" x1="30" x2="206" y1="73.6094" y2="73.6094"/><text fill="#000000" font-family="sans-serif" font-size="14" font-weight="bold" lengthAdjust="spacing" textLength="163" x="34" y="66.5332">RenderPipelineObjects</text></g><!--class DirectionalLight--><g id="elem_DirectionalLight"><rect codeLine="2" fill="#F1F1F1" height="100.8281" id="DirectionalLight" rx="2.5" ry="2.5" style="stroke:#181818;stroke-width:0.5;" width="130" x="829" y="440.5"/><ellipse cx="844" cy="456.5" fill="#F1F1F1" rx="11" ry="11" style="stroke:#181818;stroke-width:1.0;"/><path d="M842.1094,461.0625 Q841.8906,461.3281 841.75,461.4063 Q841.6094,461.4844 841.4219,461.4844 Q841.0313,461.4844 840.7813,461.2188 Q840.5469,460.9531 840.5469,460.3594 L840.5469,459.2031 Q840.5469,458.5938 840.7813,458.3438 Q841.0313,458.0781 841.4219,458.0781 Q841.7188,458.0781 841.9219,458.2344 Q842.125,458.3906 842.2344,458.7656 Q842.3438,459.125 842.4531,459.2656 Q842.7031,459.5156 843.3125,459.7813 Q843.9219,460.0469 844.6563,460.0469 Q845.7969,460.0469 846.5156,459.5156 Q846.9844,459.1875 846.9844,458.7188 Q846.9844,458.4063 846.7656,458.125 Q846.5469,457.8438 846.0313,457.6719 Q845.7031,457.5469 844.5469,457.3281 Q843.1563,457.0625 842.4375,456.7031 Q841.7188,456.3438 841.2969,455.6875 Q840.8906,455.0156 840.8906,454.2344 Q840.8906,453.0156 841.9063,452.1094 Q842.9375,451.1875 844.5781,451.1875 Q845.2344,451.1875 845.7813,451.3281 Q846.3438,451.4688 846.8125,451.7656 Q847.1406,451.4531 847.4688,451.4531 Q847.8438,451.4531 848.0781,451.7188 Q848.3125,451.9688 848.3125,452.5781 L848.3125,453.8594 Q848.3125,454.4688 848.0781,454.7344 Q847.8438,454.9844 847.4688,454.9844 Q847.1563,454.9844 846.9219,454.7969 Q846.7344,454.6563 846.6406,454.2344 Q846.5625,453.8125 846.4219,453.625 Q846.1719,453.3125 845.6875,453.1094 Q845.2188,452.8906 844.5781,452.8906 Q843.6563,452.8906 843.125,453.3125 Q842.5938,453.7344 842.5938,454.2031 Q842.5938,454.5156 842.8125,454.8125 Q843.0313,455.1094 843.4531,455.2813 Q843.7344,455.3906 845.0313,455.6563 Q846.3438,455.9063 847.0469,456.2188 Q847.75,456.5156 848.2188,457.1719 Q848.6875,457.8281 848.6875,458.7344 Q848.6875,460 847.7969,460.75 Q846.6094,461.75 844.7813,461.75 Q844.0781,461.75 843.4063,461.5781 Q842.75,461.4063 842.1094,461.0625 Z " fill="#000000"/><text fill="#000000" font-family="sans-serif" font-size="14" lengthAdjust="spacing" textLength="98" x="858" y="462.2285">DirectionalLight</text><line style="stroke:#181818;stroke-width:0.5;" x1="830" x2="958" y1="472.5" y2="472.5"/><ellipse cx="840" cy="486.8047" fill="none" rx="3" ry="3" style="stroke:#038048;stroke-width:1.0;"/><text fill="#000000" font-family="sans-serif" font-size="14" lengthAdjust="spacing" textLength="92" x="849" y="491.0332">vec4 direction;</text><ellipse cx="840" cy="504.4141" fill="none" rx="3" ry="3" style="stroke:#038048;stroke-width:1.0;"/><text fill="#000000" font-family="sans-serif" font-size="14" lengthAdjust="spacing" textLength="69" x="849" y="508.6426">vec4 color;</text><ellipse cx="840" cy="522.0234" fill="none" rx="3" ry="3" style="stroke:#038048;stroke-width:1.0;"/><text fill="#000000" font-family="sans-serif" font-size="14" lengthAdjust="spacing" textLength="87" x="849" y="526.252">float intensity;</text><line style="stroke:#181818;stroke-width:0.5;" x1="830" x2="958" y1="533.3281" y2="533.3281"/></g><!--class PointLight--><g id="elem_PointLight"><rect codeLine="9" fill="#F1F1F1" height="100.8281" id="PointLight" rx="2.5" ry="2.5" style="stroke:#181818;stroke-width:0.5;" width="113" x="994.5" y="440.5"/><ellipse cx="1017.6" cy="456.5" fill="#F1F1F1" rx="11" ry="11" style="stroke:#181818;stroke-width:1.0;"/><path d="M1015.7094,461.0625 Q1015.4906,461.3281 1015.35,461.4063 Q1015.2094,461.4844 1015.0219,461.4844 Q1014.6313,461.4844 1014.3813,461.2188 Q1014.1469,460.9531 1014.1469,460.3594 L1014.1469,459.2031 Q1014.1469,458.5938 1014.3813,458.3438 Q1014.6313,458.0781 1015.0219,458.0781 Q1015.3188,458.0781 1015.5219,458.2344 Q1015.725,458.3906 1015.8344,458.7656 Q1015.9438,459.125 1016.0531,459.2656 Q1016.3031,459.5156 1016.9125,459.7813 Q1017.5219,460.0469 1018.2563,460.0469 Q1019.3969,460.0469 1020.1156,459.5156 Q1020.5844,459.1875 1020.5844,458.7188 Q1020.5844,458.4063 1020.3656,458.125 Q1020.1469,457.8438 1019.6313,457.6719 Q1019.3031,457.5469 1018.1469,457.3281 Q1016.7563,457.0625 1016.0375,456.7031 Q1015.3188,456.3438 1014.8969,455.6875 Q1014.4906,455.0156 1014.4906,454.2344 Q1014.4906,453.0156 1015.5063,452.1094 Q1016.5375,451.1875 1018.1781,451.1875 Q1018.8344,451.1875 1019.3813,451.3281 Q1019.9438,451.4688 1020.4125,451.7656 Q1020.7406,451.4531 1021.0688,451.4531 Q1021.4438,451.4531 1021.6781,451.7188 Q1021.9125,451.9688 1021.9125,452.5781 L1021.9125,453.8594 Q1021.9125,454.4688 1021.6781,454.7344 Q1021.4438,454.9844 1021.0688,454.9844 Q1020.7563,454.9844 1020.5219,454.7969 Q1020.3344,454.6563 1020.2406,454.2344 Q1020.1625,453.8125 1020.0219,453.625 Q1019.7719,453.3125 1019.2875,453.1094 Q1018.8188,452.8906 1018.1781,452.8906 Q1017.2563,452.8906 1016.725,453.3125 Q1016.1938,453.7344 1016.1938,454.2031 Q1016.1938,454.5156 1016.4125,454.8125 Q1016.6313,455.1094 1017.0531,455.2813 Q1017.3344,455.3906 1018.6313,455.6563 Q1019.9438,455.9063 1020.6469,456.2188 Q1021.35,456.5156 1021.8188,457.1719 Q1022.2875,457.8281 1022.2875,458.7344 Q1022.2875,460 1021.3969,460.75 Q1020.2094,461.75 1018.3813,461.75 Q1017.6781,461.75 1017.0063,461.5781 Q1016.35,461.4063 1015.7094,461.0625 Z " fill="#000000"/><text fill="#000000" font-family="sans-serif" font-size="14" lengthAdjust="spacing" textLength="63" x="1033.4" y="462.2285">PointLight</text><line style="stroke:#181818;stroke-width:0.5;" x1="995.5" x2="1106.5" y1="472.5" y2="472.5"/><ellipse cx="1005.5" cy="486.8047" fill="none" rx="3" ry="3" style="stroke:#038048;stroke-width:1.0;"/><text fill="#000000" font-family="sans-serif" font-size="14" lengthAdjust="spacing" textLength="87" x="1014.5" y="491.0332">vec4 position;</text><ellipse cx="1005.5" cy="504.4141" fill="none" rx="3" ry="3" style="stroke:#038048;stroke-width:1.0;"/><text fill="#000000" font-family="sans-serif" font-size="14" lengthAdjust="spacing" textLength="69" x="1014.5" y="508.6426">vec4 color;</text><ellipse cx="1005.5" cy="522.0234" fill="none" rx="3" ry="3" style="stroke:#038048;stroke-width:1.0;"/><text fill="#000000" font-family="sans-serif" font-size="14" lengthAdjust="spacing" textLength="87" x="1014.5" y="526.252">float intensity;</text><line style="stroke:#181818;stroke-width:0.5;" x1="995.5" x2="1106.5" y1="533.3281" y2="533.3281"/></g><!--class RenderObject--><g id="elem_RenderObject"><rect codeLine="16" fill="#F1F1F1" height="100.8281" id="RenderObject" rx="2.5" ry="2.5" style="stroke:#181818;stroke-width:0.5;" width="140" x="1174" y="174"/><ellipse cx="1198" cy="190" fill="#F1F1F1" rx="11" ry="11" style="stroke:#181818;stroke-width:1.0;"/><path d="M1196.1094,194.5625 Q1195.8906,194.8281 1195.75,194.9063 Q1195.6094,194.9844 1195.4219,194.9844 Q1195.0313,194.9844 1194.7813,194.7188 Q1194.5469,194.4531 1194.5469,193.8594 L1194.5469,192.7031 Q1194.5469,192.0938 1194.7813,191.8438 Q1195.0313,191.5781 1195.4219,191.5781 Q1195.7188,191.5781 1195.9219,191.7344 Q1196.125,191.8906 1196.2344,192.2656 Q1196.3438,192.625 1196.4531,192.7656 Q1196.7031,193.0156 1197.3125,193.2813 Q1197.9219,193.5469 1198.6563,193.5469 Q1199.7969,193.5469 1200.5156,193.0156 Q1200.9844,192.6875 1200.9844,192.2188 Q1200.9844,191.9063 1200.7656,191.625 Q1200.5469,191.3438 1200.0313,191.1719 Q1199.7031,191.0469 1198.5469,190.8281 Q1197.1563,190.5625 1196.4375,190.2031 Q1195.7188,189.8438 1195.2969,189.1875 Q1194.8906,188.5156 1194.8906,187.7344 Q1194.8906,186.5156 1195.9063,185.6094 Q1196.9375,184.6875 1198.5781,184.6875 Q1199.2344,184.6875 1199.7813,184.8281 Q1200.3438,184.9688 1200.8125,185.2656 Q1201.1406,184.9531 1201.4688,184.9531 Q1201.8438,184.9531 1202.0781,185.2188 Q1202.3125,185.4688 1202.3125,186.0781 L1202.3125,187.3594 Q1202.3125,187.9688 1202.0781,188.2344 Q1201.8438,188.4844 1201.4688,188.4844 Q1201.1563,188.4844 1200.9219,188.2969 Q1200.7344,188.1563 1200.6406,187.7344 Q1200.5625,187.3125 1200.4219,187.125 Q1200.1719,186.8125 1199.6875,186.6094 Q1199.2188,186.3906 1198.5781,186.3906 Q1197.6563,186.3906 1197.125,186.8125 Q1196.5938,187.2344 1196.5938,187.7031 Q1196.5938,188.0156 1196.8125,188.3125 Q1197.0313,188.6094 1197.4531,188.7813 Q1197.7344,188.8906 1199.0313,189.1563 Q1200.3438,189.4063 1201.0469,189.7188 Q1201.75,190.0156 1202.2188,190.6719 Q1202.6875,191.3281 1202.6875,192.2344 Q1202.6875,193.5 1201.7969,194.25 Q1200.6094,195.25 1198.7813,195.25 Q1198.0781,195.25 1197.4063,195.0781 Q1196.75,194.9063 1196.1094,194.5625 Z " fill="#000000"/><text fill="#000000" font-family="sans-serif" font-size="14" lengthAdjust="spacing" textLength="88" x="1214" y="195.7285">RenderObject</text><line style="stroke:#181818;stroke-width:0.5;" x1="1175" x2="1313" y1="206" y2="206"/><ellipse cx="1185" cy="220.3047" fill="none" rx="3" ry="3" style="stroke:#038048;stroke-width:1.0;"/><text fill="#000000" font-family="sans-serif" font-size="14" lengthAdjust="spacing" textLength="114" x="1194" y="224.5332">mat4 modelMatrix;</text><ellipse cx="1185" cy="237.9141" fill="none" rx="3" ry="3" style="stroke:#038048;stroke-width:1.0;"/><text fill="#000000" font-family="sans-serif" font-size="14" lengthAdjust="spacing" textLength="86" x="1194" y="242.1426">bool isVisible;</text><ellipse cx="1185" cy="255.5234" fill="none" rx="3" ry="3" style="stroke:#038048;stroke-width:1.0;"/><text fill="#000000" font-family="sans-serif" font-size="14" lengthAdjust="spacing" textLength="101" x="1194" y="259.752">int renderLayer;</text><line style="stroke:#181818;stroke-width:0.5;" x1="1175" x2="1313" y1="266.8281" y2="266.8281"/></g><!--class RenderPassType--><g id="elem_RenderPassType"><rect codeLine="23" fill="#F1F1F1" height="136.0469" id="RenderPassType" rx="2.5" ry="2.5" style="stroke:#181818;stroke-width:0.5;" width="142" x="338" y="423"/><ellipse cx="353" cy="439" fill="#EB937F" rx="11" ry="11" style="stroke:#181818;stroke-width:1.0;"/><path d="M351.8594,439.7969 L351.8594,442.2969 L356.1875,442.2969 L356.1875,441.375 Q356.1875,440.7656 356.4219,440.5 Q356.6719,440.2344 357.0469,440.2344 Q357.4219,440.2344 357.6563,440.5 Q357.8906,440.7656 357.8906,441.375 L357.8906,444 L349.8906,444 Q349.2656,444 349,443.7656 Q348.75,443.5313 348.75,443.1406 Q348.75,442.7656 349.0156,442.5313 Q349.2813,442.2969 349.8906,442.2969 L350.1563,442.2969 L350.1563,435.6406 L349.8906,435.6406 Q349.2656,435.6406 349,435.4063 Q348.75,435.1719 348.75,434.7813 Q348.75,434.4063 349,434.1719 Q349.2656,433.9375 349.8906,433.9375 L357.5156,433.9375 L357.5156,436.5313 Q357.5156,437.1406 357.2813,437.4063 Q357.0625,437.6563 356.6719,437.6563 Q356.2969,437.6563 356.0625,437.4063 Q355.8281,437.1406 355.8281,436.5313 L355.8281,435.6406 L351.8594,435.6406 L351.8594,438.0938 L353.3438,438.0938 Q353.3438,437.4375 353.4688,437.25 Q353.7344,436.8438 354.2031,436.8438 Q354.5781,436.8438 354.8125,437.1094 Q355.0469,437.3594 355.0469,437.9688 L355.0469,439.9375 Q355.0469,440.4844 354.9219,440.6719 Q354.6563,441.0625 354.2031,441.0625 Q353.7344,441.0625 353.4688,440.6563 Q353.3438,440.4688 353.3438,439.7969 L351.8594,439.7969 Z " fill="#000000"/><text fill="#000000" font-family="sans-serif" font-size="14" lengthAdjust="spacing" textLength="110" x="367" y="444.7285">RenderPassType</text><line style="stroke:#181818;stroke-width:0.5;" x1="339" x2="479" y1="455" y2="455"/><text fill="#000000" font-family="sans-serif" font-size="14" lengthAdjust="spacing" textLength="65" x="344" y="473.5332">SHADOW,</text><text fill="#000000" font-family="sans-serif" font-size="14" lengthAdjust="spacing" textLength="91" x="344" y="491.1426">REFLECTION,</text><text fill="#000000" font-family="sans-serif" font-size="14" lengthAdjust="spacing" textLength="44" x="344" y="508.752">LIGHT,</text><text fill="#000000" font-family="sans-serif" font-size="14" lengthAdjust="spacing" textLength="42" x="344" y="526.3613">FINAL,</text><text fill="#000000" font-family="sans-serif" font-size="14" lengthAdjust="spacing" textLength="59" x="344" y="543.9707">CUSTOM</text><line style="stroke:#181818;stroke-width:0.5;" x1="339" x2="479" y1="551.0469" y2="551.0469"/></g><!--class RenderPassData--><g id="elem_RenderPassData"><rect codeLine="32" fill="#F1F1F1" height="100.8281" id="RenderPassData" rx="2.5" ry="2.5" style="stroke:#181818;stroke-width:0.5;" width="725" x="46.5" y="174"/><ellipse cx="350.75" cy="190" fill="#F1F1F1" rx="11" ry="11" style="stroke:#181818;stroke-width:1.0;"/><path d="M348.8594,194.5625 Q348.6406,194.8281 348.5,194.9063 Q348.3594,194.9844 348.1719,194.9844 Q347.7813,194.9844 347.5313,194.7188 Q347.2969,194.4531 347.2969,193.8594 L347.2969,192.7031 Q347.2969,192.0938 347.5313,191.8438 Q347.7813,191.5781 348.1719,191.5781 Q348.4688,191.5781 348.6719,191.7344 Q348.875,191.8906 348.9844,192.2656 Q349.0938,192.625 349.2031,192.7656 Q349.4531,193.0156 350.0625,193.2813 Q350.6719,193.5469 351.4063,193.5469 Q352.5469,193.5469 353.2656,193.0156 Q353.7344,192.6875 353.7344,192.2188 Q353.7344,191.9063 353.5156,191.625 Q353.2969,191.3438 352.7813,191.1719 Q352.4531,191.0469 351.2969,190.8281 Q349.9063,190.5625 349.1875,190.2031 Q348.4688,189.8438 348.0469,189.1875 Q347.6406,188.5156 347.6406,187.7344 Q347.6406,186.5156 348.6563,185.6094 Q349.6875,184.6875 351.3281,184.6875 Q351.9844,184.6875 352.5313,184.8281 Q353.0938,184.9688 353.5625,185.2656 Q353.8906,184.9531 354.2188,184.9531 Q354.5938,184.9531 354.8281,185.2188 Q355.0625,185.4688 355.0625,186.0781 L355.0625,187.3594 Q355.0625,187.9688 354.8281,188.2344 Q354.5938,188.4844 354.2188,188.4844 Q353.9063,188.4844 353.6719,188.2969 Q353.4844,188.1563 353.3906,187.7344 Q353.3125,187.3125 353.1719,187.125 Q352.9219,186.8125 352.4375,186.6094 Q351.9688,186.3906 351.3281,186.3906 Q350.4063,186.3906 349.875,186.8125 Q349.3438,187.2344 349.3438,187.7031 Q349.3438,188.0156 349.5625,188.3125 Q349.7813,188.6094 350.2031,188.7813 Q350.4844,188.8906 351.7813,189.1563 Q353.0938,189.4063 353.7969,189.7188 Q354.5,190.0156 354.9688,190.6719 Q355.4375,191.3281 355.4375,192.2344 Q355.4375,193.5 354.5469,194.25 Q353.3594,195.25 351.5313,195.25 Q350.8281,195.25 350.1563,195.0781 Q349.5,194.9063 348.8594,194.5625 Z " fill="#000000"/><text fill="#000000" font-family="sans-serif" font-size="14" lengthAdjust="spacing" textLength="108" x="371.25" y="195.7285">RenderPassData</text><line style="stroke:#181818;stroke-width:0.5;" x1="47.5" x2="770.5" y1="206" y2="206"/><ellipse cx="57.5" cy="220.3047" fill="none" rx="3" ry="3" style="stroke:#038048;stroke-width:1.0;"/><text fill="#000000" font-family="sans-serif" font-size="14" lengthAdjust="spacing" textLength="223" x="66.5" y="224.5332">RenderPassType renderPassType;</text><ellipse cx="57.5" cy="237.9141" fill="none" rx="3" ry="3" style="stroke:#038048;stroke-width:1.0;"/><text fill="#000000" font-family="sans-serif" font-size="14" lengthAdjust="spacing" textLength="699" x="66.5" y="242.1426">unordered_map&lt;shared_ptr&lt;IShader&gt;,unordered_map&lt;shared_ptr&lt;IMesh&gt;,vector&lt;RenderObject&gt;&gt;&gt; batches;</text><line style="stroke:#181818;stroke-width:0.5;" x1="47.5" x2="770.5" y1="249.2188" y2="249.2188"/><ellipse cx="57.5" cy="263.5234" fill="#84BE84" rx="3" ry="3" style="stroke:#038048;stroke-width:1.0;"/><text fill="#000000" font-family="sans-serif" font-size="14" lengthAdjust="spacing" textLength="75" x="66.5" y="267.752">void clear();</text></g><!--class RenderPipelineData--><g id="elem_RenderPipelineData"><rect codeLine="39" fill="#F1F1F1" height="276.9219" id="RenderPipelineData" rx="2.5" ry="2.5" style="stroke:#181818;stroke-width:0.5;" width="332" x="807" y="86"/><ellipse cx="905.25" cy="102" fill="#F1F1F1" rx="11" ry="11" style="stroke:#181818;stroke-width:1.0;"/><path d="M903.3594,106.5625 Q903.1406,106.8281 903,106.9063 Q902.8594,106.9844 902.6719,106.9844 Q902.2813,106.9844 902.0313,106.7188 Q901.7969,106.4531 901.7969,105.8594 L901.7969,104.7031 Q901.7969,104.0938 902.0313,103.8438 Q902.2813,103.5781 902.6719,103.5781 Q902.9688,103.5781 903.1719,103.7344 Q903.375,103.8906 903.4844,104.2656 Q903.5938,104.625 903.7031,104.7656 Q903.9531,105.0156 904.5625,105.2813 Q905.1719,105.5469 905.9063,105.5469 Q907.0469,105.5469 907.7656,105.0156 Q908.2344,104.6875 908.2344,104.2188 Q908.2344,103.9063 908.0156,103.625 Q907.7969,103.3438 907.2813,103.1719 Q906.9531,103.0469 905.7969,102.8281 Q904.4063,102.5625 903.6875,102.2031 Q902.9688,101.8438 902.5469,101.1875 Q902.1406,100.5156 902.1406,99.7344 Q902.1406,98.5156 903.1563,97.6094 Q904.1875,96.6875 905.8281,96.6875 Q906.4844,96.6875 907.0313,96.8281 Q907.5938,96.9688 908.0625,97.2656 Q908.3906,96.9531 908.7188,96.9531 Q909.0938,96.9531 909.3281,97.2188 Q909.5625,97.4688 909.5625,98.0781 L909.5625,99.3594 Q909.5625,99.9688 909.3281,100.2344 Q909.0938,100.4844 908.7188,100.4844 Q908.4063,100.4844 908.1719,100.2969 Q907.9844,100.1563 907.8906,99.7344 Q907.8125,99.3125 907.6719,99.125 Q907.4219,98.8125 906.9375,98.6094 Q906.4688,98.3906 905.8281,98.3906 Q904.9063,98.3906 904.375,98.8125 Q903.8438,99.2344 903.8438,99.7031 Q903.8438,100.0156 904.0625,100.3125 Q904.2813,100.6094 904.7031,100.7813 Q904.9844,100.8906 906.2813,101.1563 Q907.5938,101.4063 908.2969,101.7188 Q909,102.0156 909.4688,102.6719 Q909.9375,103.3281 909.9375,104.2344 Q909.9375,105.5 909.0469,106.25 Q907.8594,107.25 906.0313,107.25 Q905.3281,107.25 904.6563,107.0781 Q904,106.9063 903.3594,106.5625 Z " fill="#000000"/><text fill="#000000" font-family="sans-serif" font-size="14" lengthAdjust="spacing" textLength="127" x="925.75" y="107.7285">RenderPipelineData</text><line style="stroke:#181818;stroke-width:0.5;" x1="808" x2="1138" y1="118" y2="118"/><ellipse cx="818" cy="132.3047" fill="none" rx="3" ry="3" style="stroke:#038048;stroke-width:1.0;"/><text fill="#000000" font-family="sans-serif" font-size="14" lengthAdjust="spacing" textLength="100" x="827" y="136.5332">mat4 projMatrix;</text><ellipse cx="818" cy="149.9141" fill="none" rx="3" ry="3" style="stroke:#038048;stroke-width:1.0;"/><text fill="#000000" font-family="sans-serif" font-size="14" lengthAdjust="spacing" textLength="103" x="827" y="154.1426">mat4 viewMatrix;</text><ellipse cx="818" cy="167.5234" fill="none" rx="3" ry="3" style="stroke:#038048;stroke-width:1.0;"/><text fill="#000000" font-family="sans-serif" font-size="14" lengthAdjust="spacing" textLength="135" x="827" y="171.752">vec4 cameraPosition;</text><text fill="#000000" font-family="sans-serif" font-size="14" lengthAdjust="spacing" textLength="4" x="827" y="189.3613">&#160;</text><ellipse cx="818" cy="202.7422" fill="none" rx="3" ry="3" style="stroke:#038048;stroke-width:1.0;"/><text fill="#000000" font-family="sans-serif" font-size="14" lengthAdjust="spacing" textLength="202" x="827" y="206.9707">DirectionalLight directionalLight;</text><ellipse cx="818" cy="220.3516" fill="none" rx="3" ry="3" style="stroke:#038048;stroke-width:1.0;"/><text fill="#000000" font-family="sans-serif" font-size="14" lengthAdjust="spacing" textLength="195" x="827" y="224.5801">vector&lt;PointLight&gt; pointLights;</text><text fill="#000000" font-family="sans-serif" font-size="14" lengthAdjust="spacing" textLength="4" x="827" y="242.1895">&#160;</text><ellipse cx="818" cy="255.5703" fill="none" rx="3" ry="3" style="stroke:#038048;stroke-width:1.0;"/><text fill="#000000" font-family="sans-serif" font-size="14" lengthAdjust="spacing" textLength="270" x="827" y="259.7988">RenderPassData shadowPass {SHADOW};</text><ellipse cx="818" cy="273.1797" fill="none" rx="3" ry="3" style="stroke:#038048;stroke-width:1.0;"/><text fill="#000000" font-family="sans-serif" font-size="14" lengthAdjust="spacing" textLength="306" x="827" y="277.4082">RenderPassData reflectionPass {REFLECTION};</text><ellipse cx="818" cy="290.7891" fill="none" rx="3" ry="3" style="stroke:#038048;stroke-width:1.0;"/><text fill="#000000" font-family="sans-serif" font-size="14" lengthAdjust="spacing" textLength="227" x="827" y="295.0176">RenderPassData lightPass {LIGHT};</text><ellipse cx="818" cy="308.3984" fill="none" rx="3" ry="3" style="stroke:#038048;stroke-width:1.0;"/><text fill="#000000" font-family="sans-serif" font-size="14" lengthAdjust="spacing" textLength="225" x="827" y="312.627">RenderPassData finalPass {FINAL};</text><ellipse cx="818" cy="326.0078" fill="none" rx="3" ry="3" style="stroke:#038048;stroke-width:1.0;"/><text fill="#000000" font-family="sans-serif" font-size="14" lengthAdjust="spacing" textLength="265" x="827" y="330.2363">RenderPassData customPass {CUSTOM};</text><line style="stroke:#181818;stroke-width:0.5;" x1="808" x2="1138" y1="337.3125" y2="337.3125"/><ellipse cx="818" cy="351.6172" fill="#84BE84" rx="3" ry="3" style="stroke:#038048;stroke-width:1.0;"/><text fill="#000000" font-family="sans-serif" font-size="14" lengthAdjust="spacing" textLength="75" x="827" y="355.8457">void clear();</text></g><!--link RenderPassData to RenderPassType--><g id="link_RenderPassData_RenderPassType"><path codeLine="57" d="M409,275.25 C409,317 409,371.02 409,417 " fill="none" id="RenderPassData-to-RenderPassType" style="stroke:#181818;stroke-width:1.0;"/><polygon fill="#181818" points="409,423,413,414,409,418,405,414,409,423" style="stroke:#181818;stroke-width:1.0;"/></g><!--link RenderPipelineData to RenderObject--><g id="link_RenderPipelineData_RenderObject"><path codeLine="59" d="M1139.2,224.5 C1150.8,224.5 1156.4,224.5 1168,224.5 " fill="none" id="RenderPipelineData-to-RenderObject" style="stroke:#181818;stroke-width:1.0;"/><polygon fill="#181818" points="1174,224.5,1165,220.5,1169,224.5,1165,228.5,1174,224.5" style="stroke:#181818;stroke-width:1.0;"/></g><!--link RenderPipelineData to DirectionalLight--><g id="link_RenderPipelineData_DirectionalLight"><path codeLine="60" d="M931.88,363.17 C923.63,390.79 917.1981,412.3413 910.5781,434.4913 " fill="none" id="RenderPipelineData-to-DirectionalLight" style="stroke:#181818;stroke-width:1.0;"/><polygon fill="#181818" points="908.86,440.24,915.2697,432.7623,910.2918,435.4494,907.6047,430.4715,908.86,440.24" style="stroke:#181818;stroke-width:1.0;"/></g><!--link RenderPipelineData to PointLight--><g id="link_RenderPipelineData_PointLight"><path codeLine="61" d="M1013.6,363.17 C1021.74,390.79 1028.091,412.3356 1034.631,434.4856 " fill="none" id="RenderPipelineData-to-PointLight" style="stroke:#181818;stroke-width:1.0;"/><polygon fill="#181818" points="1036.33,440.24,1037.6177,430.4757,1034.9141,435.4447,1029.9452,432.7411,1036.33,440.24" style="stroke:#181818;stroke-width:1.0;"/></g><!--reverse link RenderPassData to RenderPipelineData--><g id="link_RenderPassData_RenderPipelineData"><path codeLine="62" d="M777.69,224.5 C789.35,224.5 795.02,224.5 806.68,224.5 " fill="none" id="RenderPassData-backto-RenderPipelineData" style="stroke:#181818;stroke-width:1.0;"/><polygon fill="#181818" points="771.69,224.5,780.69,228.5,776.69,224.5,780.69,220.5,771.69,224.5" style="stroke:#181818;stroke-width:1.0;"/></g><!--SRC=[hLH1Jy8m6BtlL_Ie4JrvWomne48oX03gqNpRFbYrMvUsGmdPVxTRWTMoSNA7PL_VQr-_ljVb47t11ia2inZ5iWZbJYfCxqmzfpaock4i_CH8IRBtY7wa4aMao8WAFKXv1YoWcqIH6ZIKwhdPOdHFuYEhxm0HPrnOWsl6GH6QASmaLJk3b9wjEESQhhLQfNAk9_wFacdVjErgfQ3kISfZP5DGWlvOAuUSCqBb6vKqP6W1Meo8Uiq0TdZOJ5czZ2ncHNeGdOEKgrsEZkno_32QlVTEzUBnANWShYQpbsOic3oFLqtvD7bv29fo-BfSpQQTpLQw8r1mPkFVRHtQE9PMZqN6XKOm_aWX7yW4gizSYS5acO06_5utOueoyNlQBSN5m3vyt_T922fAKDgsSXgJY268g-jk-uxfhRfgDJ4N_FFCmnhPKlm-GqoO84K1yrFK6lZiFiJEmD-bgawRGFiwlSTlsITUs_7NxkXJY_btLPAzoKJPxoGBN3Ep1JEX2Ss5IQpQW-7NWRf0NLFTcw7MORj0ZGgfU6gu9ecbVNYTZZhBtDxwxZsnQPRZvCIqhd4RJVDSwovndPzG6ulXMldEphtI-mK0]--></g></svg>