<?xml version="1.0" encoding="us-ascii" standalone="no"?><svg xmlns="http://www.w3.org/2000/svg" xmlns:xlink="http://www.w3.org/1999/xlink" contentStyleType="text/css" height="148px" preserveAspectRatio="none" style="width:345px;height:148px;background:#FFFFFF;" version="1.1" viewBox="0 0 345 148" width="345px" zoomAndPan="magnify"><defs/><g><!--cluster ProjectBrowser--><g id="cluster_ProjectBrowser"><path d="M8.5,6 L118.5,6 A3.75,3.75 0 0 1 121,8.5 L128,29.6094 L335.5,29.6094 A2.5,2.5 0 0 1 338,32.1094 L338,138.5 A2.5,2.5 0 0 1 335.5,141 L8.5,141 A2.5,2.5 0 0 1 6,138.5 L6,8.5 A2.5,2.5 0 0 1 8.5,6 " fill="none" style="stroke:#000000;stroke-width:1.5;"/><line style="stroke:#000000;stroke-width:1.5;" x1="6" x2="128" y1="29.6094" y2="29.6094"/><text fill="#000000" font-family="sans-serif" font-size="14" font-weight="bold" lengthAdjust="spacing" textLength="109" x="10" y="22.5332">ProjectBrowser</text></g><!--class ProjectGeneratorExecutable--><g id="elem_ProjectGeneratorExecutable"><rect codeLine="3" fill="#F1F1F1" height="83.2188" id="ProjectGeneratorExecutable" rx="2.5" ry="2.5" style="stroke:#181818;stroke-width:0.5;" width="300" x="22" y="42"/><ellipse cx="78.75" cy="58" fill="#ADD1B2" rx="11" ry="11" style="stroke:#181818;stroke-width:1.0;"/><path d="M81.5156,53.875 Q81.6719,53.6563 81.8594,53.5469 Q82.0469,53.4375 82.2656,53.4375 Q82.6406,53.4375 82.875,53.7031 Q83.1094,53.9531 83.1094,54.5625 L83.1094,56.0156 Q83.1094,56.625 82.875,56.8906 Q82.6406,57.1563 82.2656,57.1563 Q81.9219,57.1563 81.7188,56.9531 Q81.5156,56.7656 81.4063,56.25 Q81.3594,55.8906 81.1719,55.7031 Q80.8438,55.3281 80.2344,55.1094 Q79.625,54.8906 79,54.8906 Q78.2344,54.8906 77.5938,55.2188 Q76.9688,55.5469 76.4688,56.2969 Q75.9844,57.0469 75.9844,58.0781 L75.9844,59.1719 Q75.9844,60.4063 76.875,61.2344 Q77.7656,62.0469 79.3594,62.0469 Q80.2969,62.0469 80.9531,61.7969 Q81.3438,61.6406 81.7656,61.2031 Q82.0313,60.9375 82.1719,60.8594 Q82.3281,60.7813 82.5313,60.7813 Q82.8594,60.7813 83.1094,61.0469 Q83.375,61.2969 83.375,61.6406 Q83.375,61.9844 83.0313,62.3906 Q82.5313,62.9688 81.7344,63.2969 Q80.6563,63.75 79.3594,63.75 Q77.8438,63.75 76.6406,63.125 Q75.6563,62.625 74.9688,61.5625 Q74.2813,60.4844 74.2813,59.2031 L74.2813,58.0469 Q74.2813,56.7188 74.8906,55.5781 Q75.5156,54.4219 76.6094,53.8125 Q77.7031,53.1875 78.9375,53.1875 Q79.6719,53.1875 80.3125,53.3594 Q80.9688,53.5156 81.5156,53.875 Z " fill="#000000"/><text fill="#000000" font-family="sans-serif" font-size="14" lengthAdjust="spacing" textLength="178" x="99.25" y="63.7285">ProjectGeneratorExecutable</text><line style="stroke:#181818;stroke-width:0.5;" x1="23" x2="321" y1="74" y2="74"/><line style="stroke:#181818;stroke-width:0.5;" x1="23" x2="321" y1="82" y2="82"/><ellipse cx="33" cy="96.3047" fill="#84BE84" rx="3" ry="3" style="stroke:#038048;stroke-width:1.0;"/><text fill="#000000" font-family="sans-serif" font-size="14" lengthAdjust="spacing" textLength="234" x="42" y="100.5332">void openProject(const string&amp; path);</text><ellipse cx="33" cy="113.9141" fill="#84BE84" rx="3" ry="3" style="stroke:#038048;stroke-width:1.0;"/><text fill="#000000" font-family="sans-serif" font-size="14" lengthAdjust="spacing" textLength="274" x="42" y="118.1426">void createProjectFolder(const string path);</text></g><!--SRC=[NSjD2i903CNn_PmYAr4yWZj1tNg5c3xQwZ0PalW1qhjRjOBwjk__gomdRa5xqoCargPNXwLxed6IsVrpxL1W76gR6-GSVCXuHU_qkUL5-uQqeanaBbeyoCFwqiweSdIBrLyk1WvCOAkvWVsmRpMauG40]--></g></svg>