<?xml version="1.0" encoding="us-ascii" standalone="no"?><svg xmlns="http://www.w3.org/2000/svg" xmlns:xlink="http://www.w3.org/1999/xlink" contentStyleType="text/css" height="835px" preserveAspectRatio="none" style="width:2374px;height:835px;background:#FFFFFF;" version="1.1" viewBox="0 0 2374 835" width="2374px" zoomAndPan="magnify"><defs/><g><!--cluster ResourceModule--><g id="cluster_ResourceModule"><path d="M8.5,6 L130.5,6 A3.75,3.75 0 0 1 133,8.5 L140,29.6094 L2364.5,29.6094 A2.5,2.5 0 0 1 2367,32.1094 L2367,825.5 A2.5,2.5 0 0 1 2364.5,828 L8.5,828 A2.5,2.5 0 0 1 6,825.5 L6,8.5 A2.5,2.5 0 0 1 8.5,6 " fill="none" style="stroke:#000000;stroke-width:1.5;"/><line style="stroke:#000000;stroke-width:1.5;" x1="6" x2="140" y1="29.6094" y2="29.6094"/><text fill="#000000" font-family="sans-serif" font-size="14" font-weight="bold" lengthAdjust="spacing" textLength="121" x="10" y="22.5332">ResourceModule</text></g><!--cluster Resources--><g id="cluster_Resources"><path d="M40.5,58 L117.5,58 A3.75,3.75 0 0 1 120,60.5 L127,81.6094 L1380.5,81.6094 A2.5,2.5 0 0 1 1383,84.1094 L1383,793.5 A2.5,2.5 0 0 1 1380.5,796 L40.5,796 A2.5,2.5 0 0 1 38,793.5 L38,60.5 A2.5,2.5 0 0 1 40.5,58 " fill="none" style="stroke:#000000;stroke-width:1.5;"/><line style="stroke:#000000;stroke-width:1.5;" x1="38" x2="127" y1="81.6094" y2="81.6094"/><text fill="#000000" font-family="sans-serif" font-size="14" font-weight="bold" lengthAdjust="spacing" textLength="76" x="42" y="74.5332">Resources</text></g><!--cluster ResourceManagement--><g id="cluster_ResourceManagement"><path d="M1425.5,244 L1585.5,244 A3.75,3.75 0 0 1 1588,246.5 L1595,267.6094 L2332.5,267.6094 A2.5,2.5 0 0 1 2335,270.1094 L2335,793.5 A2.5,2.5 0 0 1 2332.5,796 L1425.5,796 A2.5,2.5 0 0 1 1423,793.5 L1423,246.5 A2.5,2.5 0 0 1 1425.5,244 " fill="none" style="stroke:#000000;stroke-width:1.5;"/><line style="stroke:#000000;stroke-width:1.5;" x1="1423" x2="1595" y1="267.6094" y2="267.6094"/><text fill="#000000" font-family="sans-serif" font-size="14" font-weight="bold" lengthAdjust="spacing" textLength="159" x="1427" y="260.5332">ResourceManagement</text></g><!--class BaseResource--><g id="elem_BaseResource"><rect codeLine="5" fill="#F1F1F1" height="118.4375" id="BaseResource" rx="2.5" ry="2.5" style="stroke:#181818;stroke-width:0.5;" width="247" x="595.5" y="102"/><ellipse cx="668.25" cy="118" fill="#ADD1B2" rx="11" ry="11" style="stroke:#181818;stroke-width:1.0;"/><path d="M671.0156,113.875 Q671.1719,113.6563 671.3594,113.5469 Q671.5469,113.4375 671.7656,113.4375 Q672.1406,113.4375 672.375,113.7031 Q672.6094,113.9531 672.6094,114.5625 L672.6094,116.0156 Q672.6094,116.625 672.375,116.8906 Q672.1406,117.1563 671.7656,117.1563 Q671.4219,117.1563 671.2188,116.9531 Q671.0156,116.7656 670.9063,116.25 Q670.8594,115.8906 670.6719,115.7031 Q670.3438,115.3281 669.7344,115.1094 Q669.125,114.8906 668.5,114.8906 Q667.7344,114.8906 667.0938,115.2188 Q666.4688,115.5469 665.9688,116.2969 Q665.4844,117.0469 665.4844,118.0781 L665.4844,119.1719 Q665.4844,120.4063 666.375,121.2344 Q667.2656,122.0469 668.8594,122.0469 Q669.7969,122.0469 670.4531,121.7969 Q670.8438,121.6406 671.2656,121.2031 Q671.5313,120.9375 671.6719,120.8594 Q671.8281,120.7813 672.0313,120.7813 Q672.3594,120.7813 672.6094,121.0469 Q672.875,121.2969 672.875,121.6406 Q672.875,121.9844 672.5313,122.3906 Q672.0313,122.9688 671.2344,123.2969 Q670.1563,123.75 668.8594,123.75 Q667.3438,123.75 666.1406,123.125 Q665.1563,122.625 664.4688,121.5625 Q663.7813,120.4844 663.7813,119.2031 L663.7813,118.0469 Q663.7813,116.7188 664.3906,115.5781 Q665.0156,114.4219 666.1094,113.8125 Q667.2031,113.1875 668.4375,113.1875 Q669.1719,113.1875 669.8125,113.3594 Q670.4688,113.5156 671.0156,113.875 Z " fill="#000000"/><text fill="#000000" font-family="sans-serif" font-size="14" lengthAdjust="spacing" textLength="93" x="688.75" y="123.7285">BaseResource</text><line style="stroke:#181818;stroke-width:0.5;" x1="596.5" x2="841.5" y1="134" y2="134"/><polygon fill="none" points="606.5,144.3047,602.5,150.3047,610.5,150.3047" style="stroke:#1963A0;stroke-width:1.0;"/><text fill="#000000" font-family="sans-serif" font-size="14" lengthAdjust="spacing" textLength="76" x="615.5" y="152.5332">string GUID;</text><line style="stroke:#181818;stroke-width:0.5;" x1="596.5" x2="841.5" y1="159.6094" y2="159.6094"/><ellipse cx="606.5" cy="173.9141" fill="#84BE84" rx="3" ry="3" style="stroke:#038048;stroke-width:1.0;"/><text fill="#000000" font-family="sans-serif" font-size="14" lengthAdjust="spacing" textLength="221" x="615.5" y="178.1426">BaseResource(const string&amp; path);</text><ellipse cx="606.5" cy="191.5234" fill="#84BE84" rx="3" ry="3" style="stroke:#038048;stroke-width:1.0;"/><text fill="#000000" font-family="sans-serif" font-size="14" lengthAdjust="spacing" textLength="144" x="615.5" y="195.752">string getGUID() const;</text><ellipse cx="606.5" cy="209.1328" fill="#84BE84" rx="3" ry="3" style="stroke:#038048;stroke-width:1.0;"/><text fill="#000000" font-family="sans-serif" font-size="14" lengthAdjust="spacing" textLength="202" x="615.5" y="213.3613">void setGUID(string&amp; newGUID);</text></g><!--class MeshVertex--><g id="elem_MeshVertex"><rect codeLine="13" fill="#F1F1F1" height="118.4375" id="MeshVertex" rx="2.5" ry="2.5" style="stroke:#181818;stroke-width:0.5;" width="337" x="62.5" y="645"/><ellipse cx="189.75" cy="661" fill="#F1F1F1" rx="11" ry="11" style="stroke:#181818;stroke-width:1.0;"/><path d="M187.8594,665.5625 Q187.6406,665.8281 187.5,665.9063 Q187.3594,665.9844 187.1719,665.9844 Q186.7813,665.9844 186.5313,665.7188 Q186.2969,665.4531 186.2969,664.8594 L186.2969,663.7031 Q186.2969,663.0938 186.5313,662.8438 Q186.7813,662.5781 187.1719,662.5781 Q187.4688,662.5781 187.6719,662.7344 Q187.875,662.8906 187.9844,663.2656 Q188.0938,663.625 188.2031,663.7656 Q188.4531,664.0156 189.0625,664.2813 Q189.6719,664.5469 190.4063,664.5469 Q191.5469,664.5469 192.2656,664.0156 Q192.7344,663.6875 192.7344,663.2188 Q192.7344,662.9063 192.5156,662.625 Q192.2969,662.3438 191.7813,662.1719 Q191.4531,662.0469 190.2969,661.8281 Q188.9063,661.5625 188.1875,661.2031 Q187.4688,660.8438 187.0469,660.1875 Q186.6406,659.5156 186.6406,658.7344 Q186.6406,657.5156 187.6563,656.6094 Q188.6875,655.6875 190.3281,655.6875 Q190.9844,655.6875 191.5313,655.8281 Q192.0938,655.9688 192.5625,656.2656 Q192.8906,655.9531 193.2188,655.9531 Q193.5938,655.9531 193.8281,656.2188 Q194.0625,656.4688 194.0625,657.0781 L194.0625,658.3594 Q194.0625,658.9688 193.8281,659.2344 Q193.5938,659.4844 193.2188,659.4844 Q192.9063,659.4844 192.6719,659.2969 Q192.4844,659.1563 192.3906,658.7344 Q192.3125,658.3125 192.1719,658.125 Q191.9219,657.8125 191.4375,657.6094 Q190.9688,657.3906 190.3281,657.3906 Q189.4063,657.3906 188.875,657.8125 Q188.3438,658.2344 188.3438,658.7031 Q188.3438,659.0156 188.5625,659.3125 Q188.7813,659.6094 189.2031,659.7813 Q189.4844,659.8906 190.7813,660.1563 Q192.0938,660.4063 192.7969,660.7188 Q193.5,661.0156 193.9688,661.6719 Q194.4375,662.3281 194.4375,663.2344 Q194.4375,664.5 193.5469,665.25 Q192.3594,666.25 190.5313,666.25 Q189.8281,666.25 189.1563,666.0781 Q188.5,665.9063 187.8594,665.5625 Z " fill="#000000"/><text fill="#000000" font-family="sans-serif" font-size="14" lengthAdjust="spacing" textLength="74" x="210.25" y="666.7285">MeshVertex</text><line style="stroke:#181818;stroke-width:0.5;" x1="63.5" x2="398.5" y1="677" y2="677"/><ellipse cx="73.5" cy="691.3047" fill="none" rx="3" ry="3" style="stroke:#038048;stroke-width:1.0;"/><text fill="#000000" font-family="sans-serif" font-size="14" lengthAdjust="spacing" textLength="61" x="82.5" y="695.5332">vec3 pos;</text><ellipse cx="73.5" cy="708.9141" fill="none" rx="3" ry="3" style="stroke:#038048;stroke-width:1.0;"/><text fill="#000000" font-family="sans-serif" font-size="14" lengthAdjust="spacing" textLength="53" x="82.5" y="713.1426">vec2 uv;</text><ellipse cx="73.5" cy="726.5234" fill="none" rx="3" ry="3" style="stroke:#038048;stroke-width:1.0;"/><text fill="#000000" font-family="sans-serif" font-size="14" lengthAdjust="spacing" textLength="81" x="82.5" y="730.752">vec3 normal;</text><line style="stroke:#181818;stroke-width:0.5;" x1="63.5" x2="398.5" y1="737.8281" y2="737.8281"/><ellipse cx="73.5" cy="752.1328" fill="#84BE84" rx="3" ry="3" style="stroke:#038048;stroke-width:1.0;"/><text fill="#000000" font-family="sans-serif" font-size="14" lengthAdjust="spacing" textLength="311" x="82.5" y="756.3613">bool operator==(const MeshVertex&amp; other) const;</text></g><!--class RMesh--><g id="elem_RMesh"><rect codeLine="21" fill="#F1F1F1" height="188.875" id="RMesh" rx="2.5" ry="2.5" style="stroke:#181818;stroke-width:0.5;" width="310" x="62" y="337.5"/><ellipse cx="190.75" cy="353.5" fill="#ADD1B2" rx="11" ry="11" style="stroke:#181818;stroke-width:1.0;"/><path d="M193.5156,349.375 Q193.6719,349.1563 193.8594,349.0469 Q194.0469,348.9375 194.2656,348.9375 Q194.6406,348.9375 194.875,349.2031 Q195.1094,349.4531 195.1094,350.0625 L195.1094,351.5156 Q195.1094,352.125 194.875,352.3906 Q194.6406,352.6563 194.2656,352.6563 Q193.9219,352.6563 193.7188,352.4531 Q193.5156,352.2656 193.4063,351.75 Q193.3594,351.3906 193.1719,351.2031 Q192.8438,350.8281 192.2344,350.6094 Q191.625,350.3906 191,350.3906 Q190.2344,350.3906 189.5938,350.7188 Q188.9688,351.0469 188.4688,351.7969 Q187.9844,352.5469 187.9844,353.5781 L187.9844,354.6719 Q187.9844,355.9063 188.875,356.7344 Q189.7656,357.5469 191.3594,357.5469 Q192.2969,357.5469 192.9531,357.2969 Q193.3438,357.1406 193.7656,356.7031 Q194.0313,356.4375 194.1719,356.3594 Q194.3281,356.2813 194.5313,356.2813 Q194.8594,356.2813 195.1094,356.5469 Q195.375,356.7969 195.375,357.1406 Q195.375,357.4844 195.0313,357.8906 Q194.5313,358.4688 193.7344,358.7969 Q192.6563,359.25 191.3594,359.25 Q189.8438,359.25 188.6406,358.625 Q187.6563,358.125 186.9688,357.0625 Q186.2813,355.9844 186.2813,354.7031 L186.2813,353.5469 Q186.2813,352.2188 186.8906,351.0781 Q187.5156,349.9219 188.6094,349.3125 Q189.7031,348.6875 190.9375,348.6875 Q191.6719,348.6875 192.3125,348.8594 Q192.9688,349.0156 193.5156,349.375 Z " fill="#000000"/><text fill="#000000" font-family="sans-serif" font-size="14" lengthAdjust="spacing" textLength="44" x="211.25" y="359.2285">RMesh</text><line style="stroke:#181818;stroke-width:0.5;" x1="63" x2="371" y1="369.5" y2="369.5"/><rect fill="none" height="6" style="stroke:#C82930;stroke-width:1.0;" width="6" x="70" y="380.8047"/><text fill="#000000" font-family="sans-serif" font-size="14" lengthAdjust="spacing" textLength="224" x="82" y="388.0332">vector&lt;MeshVertex&gt; m_vertexData;</text><rect fill="none" height="6" style="stroke:#C82930;stroke-width:1.0;" width="6" x="70" y="398.4141"/><text fill="#000000" font-family="sans-serif" font-size="14" lengthAdjust="spacing" textLength="207" x="82" y="405.6426">vector&lt;uint32_t&gt; m_indicesData;</text><rect fill="none" height="6" style="stroke:#C82930;stroke-width:1.0;" width="6" x="70" y="416.0234"/><text fill="#000000" font-family="sans-serif" font-size="14" lengthAdjust="spacing" textLength="204" x="82" y="423.252">vector&lt;RMaterial*&gt; m_materials;</text><ellipse cx="73" cy="436.6328" fill="none" rx="3" ry="3" style="stroke:#038048;stroke-width:1.0;"/><text fill="#000000" font-family="sans-serif" font-size="14" lengthAdjust="spacing" textLength="96" x="82" y="440.8613">string vertPath;</text><ellipse cx="73" cy="454.2422" fill="none" rx="3" ry="3" style="stroke:#038048;stroke-width:1.0;"/><text fill="#000000" font-family="sans-serif" font-size="14" lengthAdjust="spacing" textLength="97" x="82" y="458.4707">string fragPath;</text><line style="stroke:#181818;stroke-width:0.5;" x1="63" x2="371" y1="465.5469" y2="465.5469"/><ellipse cx="73" cy="479.8516" fill="#84BE84" rx="3" ry="3" style="stroke:#038048;stroke-width:1.0;"/><text fill="#000000" font-family="sans-serif" font-size="14" lengthAdjust="spacing" textLength="172" x="82" y="484.0801">RMesh(const string&amp; path);</text><ellipse cx="73" cy="497.4609" fill="#84BE84" rx="3" ry="3" style="stroke:#038048;stroke-width:1.0;"/><text fill="#000000" font-family="sans-serif" font-size="14" lengthAdjust="spacing" textLength="284" x="82" y="501.6895">const vector&lt;MeshVertex&gt;&amp; getVertexData();</text><ellipse cx="73" cy="515.0703" fill="#84BE84" rx="3" ry="3" style="stroke:#038048;stroke-width:1.0;"/><text fill="#000000" font-family="sans-serif" font-size="14" lengthAdjust="spacing" textLength="265" x="82" y="519.2988">const vector&lt;uint32_t&gt;&amp; getIndicesData();</text></g><!--class MaterialInfo--><g id="elem_MaterialInfo"><rect codeLine="35" fill="#F1F1F1" height="136.0469" id="MaterialInfo" rx="2.5" ry="2.5" style="stroke:#181818;stroke-width:0.5;" width="135" x="487.5" y="636"/><ellipse cx="516" cy="652" fill="#F1F1F1" rx="11" ry="11" style="stroke:#181818;stroke-width:1.0;"/><path d="M514.1094,656.5625 Q513.8906,656.8281 513.75,656.9063 Q513.6094,656.9844 513.4219,656.9844 Q513.0313,656.9844 512.7813,656.7188 Q512.5469,656.4531 512.5469,655.8594 L512.5469,654.7031 Q512.5469,654.0938 512.7813,653.8438 Q513.0313,653.5781 513.4219,653.5781 Q513.7188,653.5781 513.9219,653.7344 Q514.125,653.8906 514.2344,654.2656 Q514.3438,654.625 514.4531,654.7656 Q514.7031,655.0156 515.3125,655.2813 Q515.9219,655.5469 516.6563,655.5469 Q517.7969,655.5469 518.5156,655.0156 Q518.9844,654.6875 518.9844,654.2188 Q518.9844,653.9063 518.7656,653.625 Q518.5469,653.3438 518.0313,653.1719 Q517.7031,653.0469 516.5469,652.8281 Q515.1563,652.5625 514.4375,652.2031 Q513.7188,651.8438 513.2969,651.1875 Q512.8906,650.5156 512.8906,649.7344 Q512.8906,648.5156 513.9063,647.6094 Q514.9375,646.6875 516.5781,646.6875 Q517.2344,646.6875 517.7813,646.8281 Q518.3438,646.9688 518.8125,647.2656 Q519.1406,646.9531 519.4688,646.9531 Q519.8438,646.9531 520.0781,647.2188 Q520.3125,647.4688 520.3125,648.0781 L520.3125,649.3594 Q520.3125,649.9688 520.0781,650.2344 Q519.8438,650.4844 519.4688,650.4844 Q519.1563,650.4844 518.9219,650.2969 Q518.7344,650.1563 518.6406,649.7344 Q518.5625,649.3125 518.4219,649.125 Q518.1719,648.8125 517.6875,648.6094 Q517.2188,648.3906 516.5781,648.3906 Q515.6563,648.3906 515.125,648.8125 Q514.5938,649.2344 514.5938,649.7031 Q514.5938,650.0156 514.8125,650.3125 Q515.0313,650.6094 515.4531,650.7813 Q515.7344,650.8906 517.0313,651.1563 Q518.3438,651.4063 519.0469,651.7188 Q519.75,652.0156 520.2188,652.6719 Q520.6875,653.3281 520.6875,654.2344 Q520.6875,655.5 519.7969,656.25 Q518.6094,657.25 516.7813,657.25 Q516.0781,657.25 515.4063,657.0781 Q514.75,656.9063 514.1094,656.5625 Z " fill="#000000"/><text fill="#000000" font-family="sans-serif" font-size="14" lengthAdjust="spacing" textLength="73" x="533" y="657.7285">MaterialInfo</text><line style="stroke:#181818;stroke-width:0.5;" x1="488.5" x2="621.5" y1="668" y2="668"/><ellipse cx="498.5" cy="682.3047" fill="none" rx="3" ry="3" style="stroke:#038048;stroke-width:1.0;"/><text fill="#000000" font-family="sans-serif" font-size="14" lengthAdjust="spacing" textLength="82" x="507.5" y="686.5332">void* albedo;</text><ellipse cx="498.5" cy="699.9141" fill="none" rx="3" ry="3" style="stroke:#038048;stroke-width:1.0;"/><text fill="#000000" font-family="sans-serif" font-size="14" lengthAdjust="spacing" textLength="83" x="507.5" y="704.1426">void* metalic;</text><ellipse cx="498.5" cy="717.5234" fill="none" rx="3" ry="3" style="stroke:#038048;stroke-width:1.0;"/><text fill="#000000" font-family="sans-serif" font-size="14" lengthAdjust="spacing" textLength="96" x="507.5" y="721.752">void* reflective;</text><ellipse cx="498.5" cy="735.1328" fill="none" rx="3" ry="3" style="stroke:#038048;stroke-width:1.0;"/><text fill="#000000" font-family="sans-serif" font-size="14" lengthAdjust="spacing" textLength="93" x="507.5" y="739.3613">void* emissive;</text><ellipse cx="498.5" cy="752.7422" fill="none" rx="3" ry="3" style="stroke:#038048;stroke-width:1.0;"/><text fill="#000000" font-family="sans-serif" font-size="14" lengthAdjust="spacing" textLength="109" x="507.5" y="756.9707">void* normalMap;</text><line style="stroke:#181818;stroke-width:0.5;" x1="488.5" x2="621.5" y1="764.0469" y2="764.0469"/></g><!--class RMaterial--><g id="elem_RMaterial"><rect codeLine="44" fill="#F1F1F1" height="100.8281" id="RMaterial" rx="2.5" ry="2.5" style="stroke:#181818;stroke-width:0.5;" width="295" x="407.5" y="381.5"/><ellipse cx="520.75" cy="397.5" fill="#ADD1B2" rx="11" ry="11" style="stroke:#181818;stroke-width:1.0;"/><path d="M523.5156,393.375 Q523.6719,393.1563 523.8594,393.0469 Q524.0469,392.9375 524.2656,392.9375 Q524.6406,392.9375 524.875,393.2031 Q525.1094,393.4531 525.1094,394.0625 L525.1094,395.5156 Q525.1094,396.125 524.875,396.3906 Q524.6406,396.6563 524.2656,396.6563 Q523.9219,396.6563 523.7188,396.4531 Q523.5156,396.2656 523.4063,395.75 Q523.3594,395.3906 523.1719,395.2031 Q522.8438,394.8281 522.2344,394.6094 Q521.625,394.3906 521,394.3906 Q520.2344,394.3906 519.5938,394.7188 Q518.9688,395.0469 518.4688,395.7969 Q517.9844,396.5469 517.9844,397.5781 L517.9844,398.6719 Q517.9844,399.9063 518.875,400.7344 Q519.7656,401.5469 521.3594,401.5469 Q522.2969,401.5469 522.9531,401.2969 Q523.3438,401.1406 523.7656,400.7031 Q524.0313,400.4375 524.1719,400.3594 Q524.3281,400.2813 524.5313,400.2813 Q524.8594,400.2813 525.1094,400.5469 Q525.375,400.7969 525.375,401.1406 Q525.375,401.4844 525.0313,401.8906 Q524.5313,402.4688 523.7344,402.7969 Q522.6563,403.25 521.3594,403.25 Q519.8438,403.25 518.6406,402.625 Q517.6563,402.125 516.9688,401.0625 Q516.2813,399.9844 516.2813,398.7031 L516.2813,397.5469 Q516.2813,396.2188 516.8906,395.0781 Q517.5156,393.9219 518.6094,393.3125 Q519.7031,392.6875 520.9375,392.6875 Q521.6719,392.6875 522.3125,392.8594 Q522.9688,393.0156 523.5156,393.375 Z " fill="#000000"/><text fill="#000000" font-family="sans-serif" font-size="14" lengthAdjust="spacing" textLength="60" x="541.25" y="403.2285">RMaterial</text><line style="stroke:#181818;stroke-width:0.5;" x1="408.5" x2="701.5" y1="413.5" y2="413.5"/><rect fill="none" height="6" style="stroke:#C82930;stroke-width:1.0;" width="6" x="415.5" y="424.8047"/><text fill="#000000" font-family="sans-serif" font-size="14" lengthAdjust="spacing" textLength="173" x="427.5" y="432.0332">MaterialInfo m_materialInfo;</text><line style="stroke:#181818;stroke-width:0.5;" x1="408.5" x2="701.5" y1="439.1094" y2="439.1094"/><ellipse cx="418.5" cy="453.4141" fill="#84BE84" rx="3" ry="3" style="stroke:#038048;stroke-width:1.0;"/><text fill="#000000" font-family="sans-serif" font-size="14" lengthAdjust="spacing" textLength="188" x="427.5" y="457.6426">RMaterial(const string&amp; path);</text><ellipse cx="418.5" cy="471.0234" fill="#84BE84" rx="3" ry="3" style="stroke:#038048;stroke-width:1.0;"/><text fill="#000000" font-family="sans-serif" font-size="14" lengthAdjust="spacing" textLength="269" x="427.5" y="475.252">const MaterialInfo&amp; getMaterialInfo() const;</text></g><!--class TextureInfo--><g id="elem_TextureInfo"><rect codeLine="53" fill="#F1F1F1" height="118.4375" id="TextureInfo" rx="2.5" ry="2.5" style="stroke:#181818;stroke-width:0.5;" width="167" x="799.5" y="645"/><ellipse cx="843.3" cy="661" fill="#F1F1F1" rx="11" ry="11" style="stroke:#181818;stroke-width:1.0;"/><path d="M841.4094,665.5625 Q841.1906,665.8281 841.05,665.9063 Q840.9094,665.9844 840.7219,665.9844 Q840.3313,665.9844 840.0813,665.7188 Q839.8469,665.4531 839.8469,664.8594 L839.8469,663.7031 Q839.8469,663.0938 840.0813,662.8438 Q840.3313,662.5781 840.7219,662.5781 Q841.0188,662.5781 841.2219,662.7344 Q841.425,662.8906 841.5344,663.2656 Q841.6438,663.625 841.7531,663.7656 Q842.0031,664.0156 842.6125,664.2813 Q843.2219,664.5469 843.9563,664.5469 Q845.0969,664.5469 845.8156,664.0156 Q846.2844,663.6875 846.2844,663.2188 Q846.2844,662.9063 846.0656,662.625 Q845.8469,662.3438 845.3313,662.1719 Q845.0031,662.0469 843.8469,661.8281 Q842.4563,661.5625 841.7375,661.2031 Q841.0188,660.8438 840.5969,660.1875 Q840.1906,659.5156 840.1906,658.7344 Q840.1906,657.5156 841.2063,656.6094 Q842.2375,655.6875 843.8781,655.6875 Q844.5344,655.6875 845.0813,655.8281 Q845.6438,655.9688 846.1125,656.2656 Q846.4406,655.9531 846.7688,655.9531 Q847.1438,655.9531 847.3781,656.2188 Q847.6125,656.4688 847.6125,657.0781 L847.6125,658.3594 Q847.6125,658.9688 847.3781,659.2344 Q847.1438,659.4844 846.7688,659.4844 Q846.4563,659.4844 846.2219,659.2969 Q846.0344,659.1563 845.9406,658.7344 Q845.8625,658.3125 845.7219,658.125 Q845.4719,657.8125 844.9875,657.6094 Q844.5188,657.3906 843.8781,657.3906 Q842.9563,657.3906 842.425,657.8125 Q841.8938,658.2344 841.8938,658.7031 Q841.8938,659.0156 842.1125,659.3125 Q842.3313,659.6094 842.7531,659.7813 Q843.0344,659.8906 844.3313,660.1563 Q845.6438,660.4063 846.3469,660.7188 Q847.05,661.0156 847.5188,661.6719 Q847.9875,662.3281 847.9875,663.2344 Q847.9875,664.5 847.0969,665.25 Q845.9094,666.25 844.0813,666.25 Q843.3781,666.25 842.7063,666.0781 Q842.05,665.9063 841.4094,665.5625 Z " fill="#000000"/><text fill="#000000" font-family="sans-serif" font-size="14" lengthAdjust="spacing" textLength="71" x="863.7" y="666.7285">TextureInfo</text><line style="stroke:#181818;stroke-width:0.5;" x1="800.5" x2="965.5" y1="677" y2="677"/><ellipse cx="810.5" cy="691.3047" fill="none" rx="3" ry="3" style="stroke:#038048;stroke-width:1.0;"/><text fill="#000000" font-family="sans-serif" font-size="14" lengthAdjust="spacing" textLength="141" x="819.5" y="695.5332">vector&lt;uint8_t&gt; pixels;</text><ellipse cx="810.5" cy="708.9141" fill="none" rx="3" ry="3" style="stroke:#038048;stroke-width:1.0;"/><text fill="#000000" font-family="sans-serif" font-size="14" lengthAdjust="spacing" textLength="77" x="819.5" y="713.1426">int texWidth;</text><ellipse cx="810.5" cy="726.5234" fill="none" rx="3" ry="3" style="stroke:#038048;stroke-width:1.0;"/><text fill="#000000" font-family="sans-serif" font-size="14" lengthAdjust="spacing" textLength="81" x="819.5" y="730.752">int texHeight;</text><ellipse cx="810.5" cy="744.1328" fill="none" rx="3" ry="3" style="stroke:#038048;stroke-width:1.0;"/><text fill="#000000" font-family="sans-serif" font-size="14" lengthAdjust="spacing" textLength="101" x="819.5" y="748.3613">int texChannels;</text><line style="stroke:#181818;stroke-width:0.5;" x1="800.5" x2="965.5" y1="755.4375" y2="755.4375"/></g><!--class RTexture--><g id="elem_RTexture"><rect codeLine="61" fill="#F1F1F1" height="118.4375" id="RTexture" rx="2.5" ry="2.5" style="stroke:#181818;stroke-width:0.5;" width="291" x="737.5" y="373"/><ellipse cx="849.75" cy="389" fill="#ADD1B2" rx="11" ry="11" style="stroke:#181818;stroke-width:1.0;"/><path d="M852.5156,384.875 Q852.6719,384.6563 852.8594,384.5469 Q853.0469,384.4375 853.2656,384.4375 Q853.6406,384.4375 853.875,384.7031 Q854.1094,384.9531 854.1094,385.5625 L854.1094,387.0156 Q854.1094,387.625 853.875,387.8906 Q853.6406,388.1563 853.2656,388.1563 Q852.9219,388.1563 852.7188,387.9531 Q852.5156,387.7656 852.4063,387.25 Q852.3594,386.8906 852.1719,386.7031 Q851.8438,386.3281 851.2344,386.1094 Q850.625,385.8906 850,385.8906 Q849.2344,385.8906 848.5938,386.2188 Q847.9688,386.5469 847.4688,387.2969 Q846.9844,388.0469 846.9844,389.0781 L846.9844,390.1719 Q846.9844,391.4063 847.875,392.2344 Q848.7656,393.0469 850.3594,393.0469 Q851.2969,393.0469 851.9531,392.7969 Q852.3438,392.6406 852.7656,392.2031 Q853.0313,391.9375 853.1719,391.8594 Q853.3281,391.7813 853.5313,391.7813 Q853.8594,391.7813 854.1094,392.0469 Q854.375,392.2969 854.375,392.6406 Q854.375,392.9844 854.0313,393.3906 Q853.5313,393.9688 852.7344,394.2969 Q851.6563,394.75 850.3594,394.75 Q848.8438,394.75 847.6406,394.125 Q846.6563,393.625 845.9688,392.5625 Q845.2813,391.4844 845.2813,390.2031 L845.2813,389.0469 Q845.2813,387.7188 845.8906,386.5781 Q846.5156,385.4219 847.6094,384.8125 Q848.7031,384.1875 849.9375,384.1875 Q850.6719,384.1875 851.3125,384.3594 Q851.9688,384.5156 852.5156,384.875 Z " fill="#000000"/><text fill="#000000" font-family="sans-serif" font-size="14" lengthAdjust="spacing" textLength="58" x="870.25" y="394.7285">RTexture</text><line style="stroke:#181818;stroke-width:0.5;" x1="738.5" x2="1027.5" y1="405" y2="405"/><rect fill="none" height="6" style="stroke:#C82930;stroke-width:1.0;" width="6" x="745.5" y="416.3047"/><text fill="#000000" font-family="sans-serif" font-size="14" lengthAdjust="spacing" textLength="164" x="757.5" y="423.5332">TextureInfo m_textureInfo;</text><line style="stroke:#181818;stroke-width:0.5;" x1="738.5" x2="1027.5" y1="430.6094" y2="430.6094"/><ellipse cx="748.5" cy="444.9141" fill="#84BE84" rx="3" ry="3" style="stroke:#038048;stroke-width:1.0;"/><text fill="#000000" font-family="sans-serif" font-size="14" lengthAdjust="spacing" textLength="186" x="757.5" y="449.1426">RTexture(const string&amp; path);</text><ellipse cx="748.5" cy="462.5234" fill="#84BE84" rx="3" ry="3" style="stroke:#038048;stroke-width:1.0;"/><text fill="#000000" font-family="sans-serif" font-size="14" lengthAdjust="spacing" textLength="80" x="757.5" y="466.752">~RTexture();</text><ellipse cx="748.5" cy="480.1328" fill="#84BE84" rx="3" ry="3" style="stroke:#038048;stroke-width:1.0;"/><text fill="#000000" font-family="sans-serif" font-size="14" lengthAdjust="spacing" textLength="265" x="757.5" y="484.3613">const TextureInfo&amp; getTextureInfo() const;</text></g><!--class ShaderInfo--><g id="elem_ShaderInfo"><rect codeLine="71" fill="#F1F1F1" height="83.2188" id="ShaderInfo" rx="2.5" ry="2.5" style="stroke:#181818;stroke-width:0.5;" width="169" x="1122.5" y="662.5"/><ellipse cx="1168.25" cy="678.5" fill="#F1F1F1" rx="11" ry="11" style="stroke:#181818;stroke-width:1.0;"/><path d="M1166.3594,683.0625 Q1166.1406,683.3281 1166,683.4063 Q1165.8594,683.4844 1165.6719,683.4844 Q1165.2813,683.4844 1165.0313,683.2188 Q1164.7969,682.9531 1164.7969,682.3594 L1164.7969,681.2031 Q1164.7969,680.5938 1165.0313,680.3438 Q1165.2813,680.0781 1165.6719,680.0781 Q1165.9688,680.0781 1166.1719,680.2344 Q1166.375,680.3906 1166.4844,680.7656 Q1166.5938,681.125 1166.7031,681.2656 Q1166.9531,681.5156 1167.5625,681.7813 Q1168.1719,682.0469 1168.9063,682.0469 Q1170.0469,682.0469 1170.7656,681.5156 Q1171.2344,681.1875 1171.2344,680.7188 Q1171.2344,680.4063 1171.0156,680.125 Q1170.7969,679.8438 1170.2813,679.6719 Q1169.9531,679.5469 1168.7969,679.3281 Q1167.4063,679.0625 1166.6875,678.7031 Q1165.9688,678.3438 1165.5469,677.6875 Q1165.1406,677.0156 1165.1406,676.2344 Q1165.1406,675.0156 1166.1563,674.1094 Q1167.1875,673.1875 1168.8281,673.1875 Q1169.4844,673.1875 1170.0313,673.3281 Q1170.5938,673.4688 1171.0625,673.7656 Q1171.3906,673.4531 1171.7188,673.4531 Q1172.0938,673.4531 1172.3281,673.7188 Q1172.5625,673.9688 1172.5625,674.5781 L1172.5625,675.8594 Q1172.5625,676.4688 1172.3281,676.7344 Q1172.0938,676.9844 1171.7188,676.9844 Q1171.4063,676.9844 1171.1719,676.7969 Q1170.9844,676.6563 1170.8906,676.2344 Q1170.8125,675.8125 1170.6719,675.625 Q1170.4219,675.3125 1169.9375,675.1094 Q1169.4688,674.8906 1168.8281,674.8906 Q1167.9063,674.8906 1167.375,675.3125 Q1166.8438,675.7344 1166.8438,676.2031 Q1166.8438,676.5156 1167.0625,676.8125 Q1167.2813,677.1094 1167.7031,677.2813 Q1167.9844,677.3906 1169.2813,677.6563 Q1170.5938,677.9063 1171.2969,678.2188 Q1172,678.5156 1172.4688,679.1719 Q1172.9375,679.8281 1172.9375,680.7344 Q1172.9375,682 1172.0469,682.75 Q1170.8594,683.75 1169.0313,683.75 Q1168.3281,683.75 1167.6563,683.5781 Q1167,683.4063 1166.3594,683.0625 Z " fill="#000000"/><text fill="#000000" font-family="sans-serif" font-size="14" lengthAdjust="spacing" textLength="69" x="1188.75" y="684.2285">ShaderInfo</text><line style="stroke:#181818;stroke-width:0.5;" x1="1123.5" x2="1290.5" y1="694.5" y2="694.5"/><ellipse cx="1133.5" cy="708.8047" fill="none" rx="3" ry="3" style="stroke:#038048;stroke-width:1.0;"/><text fill="#000000" font-family="sans-serif" font-size="14" lengthAdjust="spacing" textLength="143" x="1142.5" y="713.0332">vector&lt;uint8_t&gt; buffer;</text><ellipse cx="1133.5" cy="726.4141" fill="none" rx="3" ry="3" style="stroke:#038048;stroke-width:1.0;"/><text fill="#000000" font-family="sans-serif" font-size="14" lengthAdjust="spacing" textLength="88" x="1142.5" y="730.6426">size_t fileSize;</text><line style="stroke:#181818;stroke-width:0.5;" x1="1123.5" x2="1290.5" y1="737.7188" y2="737.7188"/></g><!--class RShader--><g id="elem_RShader"><rect codeLine="77" fill="#F1F1F1" height="100.8281" id="RShader" rx="2.5" ry="2.5" style="stroke:#181818;stroke-width:0.5;" width="287" x="1063.5" y="381.5"/><ellipse cx="1174.75" cy="397.5" fill="#ADD1B2" rx="11" ry="11" style="stroke:#181818;stroke-width:1.0;"/><path d="M1177.5156,393.375 Q1177.6719,393.1563 1177.8594,393.0469 Q1178.0469,392.9375 1178.2656,392.9375 Q1178.6406,392.9375 1178.875,393.2031 Q1179.1094,393.4531 1179.1094,394.0625 L1179.1094,395.5156 Q1179.1094,396.125 1178.875,396.3906 Q1178.6406,396.6563 1178.2656,396.6563 Q1177.9219,396.6563 1177.7188,396.4531 Q1177.5156,396.2656 1177.4063,395.75 Q1177.3594,395.3906 1177.1719,395.2031 Q1176.8438,394.8281 1176.2344,394.6094 Q1175.625,394.3906 1175,394.3906 Q1174.2344,394.3906 1173.5938,394.7188 Q1172.9688,395.0469 1172.4688,395.7969 Q1171.9844,396.5469 1171.9844,397.5781 L1171.9844,398.6719 Q1171.9844,399.9063 1172.875,400.7344 Q1173.7656,401.5469 1175.3594,401.5469 Q1176.2969,401.5469 1176.9531,401.2969 Q1177.3438,401.1406 1177.7656,400.7031 Q1178.0313,400.4375 1178.1719,400.3594 Q1178.3281,400.2813 1178.5313,400.2813 Q1178.8594,400.2813 1179.1094,400.5469 Q1179.375,400.7969 1179.375,401.1406 Q1179.375,401.4844 1179.0313,401.8906 Q1178.5313,402.4688 1177.7344,402.7969 Q1176.6563,403.25 1175.3594,403.25 Q1173.8438,403.25 1172.6406,402.625 Q1171.6563,402.125 1170.9688,401.0625 Q1170.2813,399.9844 1170.2813,398.7031 L1170.2813,397.5469 Q1170.2813,396.2188 1170.8906,395.0781 Q1171.5156,393.9219 1172.6094,393.3125 Q1173.7031,392.6875 1174.9375,392.6875 Q1175.6719,392.6875 1176.3125,392.8594 Q1176.9688,393.0156 1177.5156,393.375 Z " fill="#000000"/><text fill="#000000" font-family="sans-serif" font-size="14" lengthAdjust="spacing" textLength="56" x="1195.25" y="403.2285">RShader</text><line style="stroke:#181818;stroke-width:0.5;" x1="1064.5" x2="1349.5" y1="413.5" y2="413.5"/><rect fill="none" height="6" style="stroke:#C82930;stroke-width:1.0;" width="6" x="1071.5" y="424.8047"/><text fill="#000000" font-family="sans-serif" font-size="14" lengthAdjust="spacing" textLength="163" x="1083.5" y="432.0332">ShaderInfo m_shaderInfo;</text><line style="stroke:#181818;stroke-width:0.5;" x1="1064.5" x2="1349.5" y1="439.1094" y2="439.1094"/><ellipse cx="1074.5" cy="453.4141" fill="#84BE84" rx="3" ry="3" style="stroke:#038048;stroke-width:1.0;"/><text fill="#000000" font-family="sans-serif" font-size="14" lengthAdjust="spacing" textLength="184" x="1083.5" y="457.6426">RShader(const string&amp; path);</text><ellipse cx="1074.5" cy="471.0234" fill="#84BE84" rx="3" ry="3" style="stroke:#038048;stroke-width:1.0;"/><text fill="#000000" font-family="sans-serif" font-size="14" lengthAdjust="spacing" textLength="261" x="1083.5" y="475.252">const ShaderInfo&amp; getShaderInfo() const;</text></g><!--class ResourceCache--><g id="elem_ResourceCache"><rect codeLine="90" fill="#F1F1F1" height="136.0469" id="ResourceCache" rx="2.5" ry="2.5" style="stroke:#181818;stroke-width:0.5;" width="345" x="1466.5" y="636"/><ellipse cx="1578.25" cy="652" fill="#ADD1B2" rx="11" ry="11" style="stroke:#181818;stroke-width:1.0;"/><path d="M1581.0156,647.875 Q1581.1719,647.6563 1581.3594,647.5469 Q1581.5469,647.4375 1581.7656,647.4375 Q1582.1406,647.4375 1582.375,647.7031 Q1582.6094,647.9531 1582.6094,648.5625 L1582.6094,650.0156 Q1582.6094,650.625 1582.375,650.8906 Q1582.1406,651.1563 1581.7656,651.1563 Q1581.4219,651.1563 1581.2188,650.9531 Q1581.0156,650.7656 1580.9063,650.25 Q1580.8594,649.8906 1580.6719,649.7031 Q1580.3438,649.3281 1579.7344,649.1094 Q1579.125,648.8906 1578.5,648.8906 Q1577.7344,648.8906 1577.0938,649.2188 Q1576.4688,649.5469 1575.9688,650.2969 Q1575.4844,651.0469 1575.4844,652.0781 L1575.4844,653.1719 Q1575.4844,654.4063 1576.375,655.2344 Q1577.2656,656.0469 1578.8594,656.0469 Q1579.7969,656.0469 1580.4531,655.7969 Q1580.8438,655.6406 1581.2656,655.2031 Q1581.5313,654.9375 1581.6719,654.8594 Q1581.8281,654.7813 1582.0313,654.7813 Q1582.3594,654.7813 1582.6094,655.0469 Q1582.875,655.2969 1582.875,655.6406 Q1582.875,655.9844 1582.5313,656.3906 Q1582.0313,656.9688 1581.2344,657.2969 Q1580.1563,657.75 1578.8594,657.75 Q1577.3438,657.75 1576.1406,657.125 Q1575.1563,656.625 1574.4688,655.5625 Q1573.7813,654.4844 1573.7813,653.2031 L1573.7813,652.0469 Q1573.7813,650.7188 1574.3906,649.5781 Q1575.0156,648.4219 1576.1094,647.8125 Q1577.2031,647.1875 1578.4375,647.1875 Q1579.1719,647.1875 1579.8125,647.3594 Q1580.4688,647.5156 1581.0156,647.875 Z " fill="#000000"/><text fill="#000000" font-family="sans-serif" font-size="14" lengthAdjust="spacing" textLength="102" x="1598.75" y="657.7285">ResourceCache</text><rect fill="#FFFFFF" height="17.0938" style="stroke:#181818;stroke-width:1.0;stroke-dasharray:2.0,2.0;" width="9" x="1805.5" y="633"/><text fill="#000000" font-family="sans-serif" font-size="12" font-style="italic" lengthAdjust="spacing" textLength="7" x="1806.5" y="646.457">T</text><line style="stroke:#181818;stroke-width:0.5;" x1="1467.5" x2="1810.5" y1="668" y2="668"/><rect fill="none" height="6" style="stroke:#C82930;stroke-width:1.0;" width="6" x="1474.5" y="679.3047"/><text fill="#000000" font-family="sans-serif" font-size="14" lengthAdjust="spacing" textLength="319" x="1486.5" y="686.5332">unordered_map&lt;string, shared_ptr&lt;T&gt;&gt; m_cache;</text><line style="stroke:#181818;stroke-width:0.5;" x1="1467.5" x2="1810.5" y1="693.6094" y2="693.6094"/><ellipse cx="1477.5" cy="707.9141" fill="#84BE84" rx="3" ry="3" style="stroke:#038048;stroke-width:1.0;"/><text fill="#000000" font-family="sans-serif" font-size="14" lengthAdjust="spacing" textLength="253" x="1486.5" y="712.1426">shared_ptr&lt;T&gt; load(const string&amp; path);</text><ellipse cx="1477.5" cy="725.5234" fill="#84BE84" rx="3" ry="3" style="stroke:#038048;stroke-width:1.0;"/><text fill="#000000" font-family="sans-serif" font-size="14" lengthAdjust="spacing" textLength="171" x="1486.5" y="729.752">unload(const string&amp; path);</text><ellipse cx="1477.5" cy="743.1328" fill="#84BE84" rx="3" ry="3" style="stroke:#038048;stroke-width:1.0;"/><text fill="#000000" font-family="sans-serif" font-size="14" lengthAdjust="spacing" textLength="75" x="1486.5" y="747.3613">void clear();</text><ellipse cx="1477.5" cy="760.7422" fill="#84BE84" rx="3" ry="3" style="stroke:#038048;stroke-width:1.0;"/><text fill="#000000" font-family="sans-serif" font-size="14" lengthAdjust="spacing" textLength="139" x="1486.5" y="764.9707">void removeUnused();</text></g><!--class ResourceRegistry--><g id="elem_ResourceRegistry"><rect codeLine="99" fill="#F1F1F1" height="118.4375" id="ResourceRegistry" rx="2.5" ry="2.5" style="stroke:#181818;stroke-width:0.5;" width="543" x="1767.5" y="373"/><ellipse cx="1978.25" cy="389" fill="#ADD1B2" rx="11" ry="11" style="stroke:#181818;stroke-width:1.0;"/><path d="M1981.0156,384.875 Q1981.1719,384.6563 1981.3594,384.5469 Q1981.5469,384.4375 1981.7656,384.4375 Q1982.1406,384.4375 1982.375,384.7031 Q1982.6094,384.9531 1982.6094,385.5625 L1982.6094,387.0156 Q1982.6094,387.625 1982.375,387.8906 Q1982.1406,388.1563 1981.7656,388.1563 Q1981.4219,388.1563 1981.2188,387.9531 Q1981.0156,387.7656 1980.9063,387.25 Q1980.8594,386.8906 1980.6719,386.7031 Q1980.3438,386.3281 1979.7344,386.1094 Q1979.125,385.8906 1978.5,385.8906 Q1977.7344,385.8906 1977.0938,386.2188 Q1976.4688,386.5469 1975.9688,387.2969 Q1975.4844,388.0469 1975.4844,389.0781 L1975.4844,390.1719 Q1975.4844,391.4063 1976.375,392.2344 Q1977.2656,393.0469 1978.8594,393.0469 Q1979.7969,393.0469 1980.4531,392.7969 Q1980.8438,392.6406 1981.2656,392.2031 Q1981.5313,391.9375 1981.6719,391.8594 Q1981.8281,391.7813 1982.0313,391.7813 Q1982.3594,391.7813 1982.6094,392.0469 Q1982.875,392.2969 1982.875,392.6406 Q1982.875,392.9844 1982.5313,393.3906 Q1982.0313,393.9688 1981.2344,394.2969 Q1980.1563,394.75 1978.8594,394.75 Q1977.3438,394.75 1976.1406,394.125 Q1975.1563,393.625 1974.4688,392.5625 Q1973.7813,391.4844 1973.7813,390.2031 L1973.7813,389.0469 Q1973.7813,387.7188 1974.3906,386.5781 Q1975.0156,385.4219 1976.1094,384.8125 Q1977.2031,384.1875 1978.4375,384.1875 Q1979.1719,384.1875 1979.8125,384.3594 Q1980.4688,384.5156 1981.0156,384.875 Z " fill="#000000"/><text fill="#000000" font-family="sans-serif" font-size="14" lengthAdjust="spacing" textLength="113" x="1998.75" y="394.7285">ResourceRegistry</text><line style="stroke:#181818;stroke-width:0.5;" x1="1768.5" x2="2309.5" y1="405" y2="405"/><rect fill="none" height="6" style="stroke:#C82930;stroke-width:1.0;" width="6" x="1775.5" y="416.3047"/><text fill="#000000" font-family="sans-serif" font-size="14" lengthAdjust="spacing" textLength="393" x="1787.5" y="423.5332">unordered_map&lt;string, shared_ptr&lt;BaseResource&gt;&gt; registry;</text><line style="stroke:#181818;stroke-width:0.5;" x1="1768.5" x2="2309.5" y1="430.6094" y2="430.6094"/><ellipse cx="1778.5" cy="444.9141" fill="#84BE84" rx="3" ry="3" style="stroke:#038048;stroke-width:1.0;"/><text fill="#000000" font-family="sans-serif" font-size="14" lengthAdjust="spacing" textLength="517" x="1787.5" y="449.1426">void registrerResource(const string&amp; guid, shared_ptr&lt;BaseResource&gt; resource);</text><ellipse cx="1778.5" cy="462.5234" fill="#84BE84" rx="3" ry="3" style="stroke:#038048;stroke-width:1.0;"/><text fill="#000000" font-family="sans-serif" font-size="14" lengthAdjust="spacing" textLength="331" x="1787.5" y="466.752">void unregisterResourceByGUID(const string&amp; guid);</text><ellipse cx="1778.5" cy="480.1328" fill="#84BE84" rx="3" ry="3" style="stroke:#038048;stroke-width:1.0;"/><text fill="#000000" font-family="sans-serif" font-size="14" lengthAdjust="spacing" textLength="424" x="1787.5" y="484.3613">shared_ptr&lt;BaseResource&gt; getResource(const string&amp; guid)const;</text></g><!--class ResourceModule--><g id="elem_ResourceModule"><rect codeLine="107" fill="#F1F1F1" height="287.625" id="ResourceModule" rx="2.5" ry="2.5" style="stroke:#181818;stroke-width:0.5;" width="266" x="1466" y="288"/><ellipse cx="1541.25" cy="309.3516" fill="#ADD1B2" rx="11" ry="11" style="stroke:#181818;stroke-width:1.0;"/><path d="M1544.0156,305.2266 Q1544.1719,305.0078 1544.3594,304.8984 Q1544.5469,304.7891 1544.7656,304.7891 Q1545.1406,304.7891 1545.375,305.0547 Q1545.6094,305.3047 1545.6094,305.9141 L1545.6094,307.3672 Q1545.6094,307.9766 1545.375,308.2422 Q1545.1406,308.5078 1544.7656,308.5078 Q1544.4219,308.5078 1544.2188,308.3047 Q1544.0156,308.1172 1543.9063,307.6016 Q1543.8594,307.2422 1543.6719,307.0547 Q1543.3438,306.6797 1542.7344,306.4609 Q1542.125,306.2422 1541.5,306.2422 Q1540.7344,306.2422 1540.0938,306.5703 Q1539.4688,306.8984 1538.9688,307.6484 Q1538.4844,308.3984 1538.4844,309.4297 L1538.4844,310.5234 Q1538.4844,311.7578 1539.375,312.5859 Q1540.2656,313.3984 1541.8594,313.3984 Q1542.7969,313.3984 1543.4531,313.1484 Q1543.8438,312.9922 1544.2656,312.5547 Q1544.5313,312.2891 1544.6719,312.2109 Q1544.8281,312.1328 1545.0313,312.1328 Q1545.3594,312.1328 1545.6094,312.3984 Q1545.875,312.6484 1545.875,312.9922 Q1545.875,313.3359 1545.5313,313.7422 Q1545.0313,314.3203 1544.2344,314.6484 Q1543.1563,315.1016 1541.8594,315.1016 Q1540.3438,315.1016 1539.1406,314.4766 Q1538.1563,313.9766 1537.4688,312.9141 Q1536.7813,311.8359 1536.7813,310.5547 L1536.7813,309.3984 Q1536.7813,308.0703 1537.3906,306.9297 Q1538.0156,305.7734 1539.1094,305.1641 Q1540.2031,304.5391 1541.4375,304.5391 Q1542.1719,304.5391 1542.8125,304.7109 Q1543.4688,304.8672 1544.0156,305.2266 Z " fill="#000000"/><text fill="#000000" font-family="sans-serif" font-size="12" font-style="italic" lengthAdjust="spacing" textLength="71" x="1579.75" y="305.457">&#171;singletone&#187;</text><text fill="#000000" font-family="sans-serif" font-size="14" lengthAdjust="spacing" textLength="107" x="1561.75" y="322.627">ResourceModule</text><line style="stroke:#181818;stroke-width:0.5;" x1="1467" x2="1731" y1="330.7031" y2="330.7031"/><rect fill="none" height="6" style="stroke:#C82930;stroke-width:1.0;" width="6" x="1474" y="342.0078"/><text fill="#000000" font-family="sans-serif" font-size="14" lengthAdjust="spacing" textLength="177" x="1486" y="349.2363">MeshCache m_meshCache;</text><rect fill="none" height="6" style="stroke:#C82930;stroke-width:1.0;" width="6" x="1474" y="359.6172"/><text fill="#000000" font-family="sans-serif" font-size="14" lengthAdjust="spacing" textLength="199" x="1486" y="366.8457">ShaderCache m_shaderCache;</text><rect fill="none" height="6" style="stroke:#C82930;stroke-width:1.0;" width="6" x="1474" y="377.2266"/><text fill="#000000" font-family="sans-serif" font-size="14" lengthAdjust="spacing" textLength="200" x="1486" y="384.4551">TextureCache m_textureCache;</text><rect fill="none" height="6" style="stroke:#C82930;stroke-width:1.0;" width="6" x="1474" y="394.8359"/><text fill="#000000" font-family="sans-serif" font-size="14" lengthAdjust="spacing" textLength="209" x="1486" y="402.0645">MaterialCache m_materialCache;</text><text fill="#000000" font-family="sans-serif" font-size="14" lengthAdjust="spacing" textLength="119" x="1486" y="419.6738">&#171;template class T&#187;</text><ellipse cx="1477" cy="433.0547" fill="none" rx="3" ry="3" style="stroke:#038048;stroke-width:1.0;"/><text fill="#000000" font-family="sans-serif" font-size="14" lengthAdjust="spacing" textLength="131" x="1486" y="437.2832">static shared_ptr&lt;T&gt;</text><line style="stroke:#181818;stroke-width:0.5;" x1="1467" x2="1731" y1="444.3594" y2="444.3594"/><rect fill="#F24D5C" height="6" style="stroke:#C82930;stroke-width:1.0;" width="6" x="1474" y="455.6641"/><text fill="#000000" font-family="sans-serif" font-size="14" lengthAdjust="spacing" textLength="121" x="1486" y="462.8926">ResourceModule();</text><ellipse cx="1477" cy="476.2734" fill="#84BE84" rx="3" ry="3" style="stroke:#038048;stroke-width:1.0;"/><text fill="#000000" font-family="sans-serif" font-size="14" lengthAdjust="spacing" textLength="240" x="1486" y="480.502">static ResourceModule&amp; getInstance()</text><ellipse cx="1477" cy="493.8828" fill="#84BE84" rx="3" ry="3" style="stroke:#038048;stroke-width:1.0;"/><text fill="#000000" font-family="sans-serif" font-size="14" lengthAdjust="spacing" textLength="131" x="1486" y="498.1113">void clearAllCache();</text><ellipse cx="1477" cy="511.4922" fill="#84BE84" rx="3" ry="3" style="stroke:#038048;stroke-width:1.0;"/><text fill="#000000" font-family="sans-serif" font-size="14" lengthAdjust="spacing" textLength="88" x="1486" y="515.7207">void startup();</text><ellipse cx="1477" cy="529.1016" fill="#84BE84" rx="3" ry="3" style="stroke:#038048;stroke-width:1.0;"/><text fill="#000000" font-family="sans-serif" font-size="14" lengthAdjust="spacing" textLength="106" x="1486" y="533.3301">void shutDown();</text><ellipse cx="1477" cy="546.7109" fill="#84BE84" rx="3" ry="3" style="stroke:#038048;stroke-width:1.0;"/><text fill="#000000" font-family="sans-serif" font-size="14" lengthAdjust="spacing" textLength="197" x="1486" y="550.9395">void OnLoadInitialWorldState();</text><rect fill="#F24D5C" height="6" style="stroke:#C82930;stroke-width:1.0;" width="6" x="1474" y="561.3203"/><text fill="#000000" font-family="sans-serif" font-size="14" lengthAdjust="spacing" textLength="164" x="1486" y="568.5488">void checkAllResources();</text></g><!--reverse link BaseResource to RMesh--><g id="link_BaseResource_RMesh"><path codeLine="32" d="M577.3986,169.5431 C512.5686,177.0231 451.9,191.61 390,228 C344.59,254.7 305.38,297.75 275.83,337.35 " fill="none" id="BaseResource-backto-RMesh" style="stroke:#181818;stroke-width:1.0;"/><polygon fill="none" points="595.28,167.48,576.7109,163.5827,578.0863,175.5036,595.28,167.48" style="stroke:#181818;stroke-width:1.0;"/></g><!--reverse link RMesh to MeshVertex--><g id="link_RMesh_MeshVertex"><path codeLine="33" d="M222.4792,538.664 C224.5092,577.954 226.2,610.44 227.99,644.88 " fill="none" id="RMesh-backto-MeshVertex" style="stroke:#181818;stroke-width:1.0;"/><polygon fill="none" points="221.86,526.68,218.1749,532.8784,222.4792,538.664,226.1643,532.4656,221.86,526.68" style="stroke:#181818;stroke-width:1.0;"/></g><!--reverse link BaseResource to RMaterial--><g id="link_BaseResource_RMaterial"><path codeLine="50" d="M674.2483,235.4078 C644.9583,283.4378 613.17,335.59 585.36,381.2 " fill="none" id="BaseResource-backto-RMaterial" style="stroke:#181818;stroke-width:1.0;"/><polygon fill="none" points="683.62,220.04,669.1257,232.2839,679.3709,238.5318,683.62,220.04" style="stroke:#181818;stroke-width:1.0;"/></g><!--reverse link RMaterial to MaterialInfo--><g id="link_RMaterial_MaterialInfo"><path codeLine="51" d="M555,494.52 C555,537.61 555,588.42 555,635.99 " fill="none" id="RMaterial-backto-MaterialInfo" style="stroke:#181818;stroke-width:1.0;"/><polygon fill="none" points="555,482.52,551,488.52,555,494.52,559,488.52,555,482.52" style="stroke:#181818;stroke-width:1.0;"/></g><!--reverse link BaseResource to RTexture--><g id="link_BaseResource_RTexture"><path codeLine="68" d="M763.7509,235.4083 C791.2509,280.5083 819.85,327.41 847.4,372.6 " fill="none" id="BaseResource-backto-RTexture" style="stroke:#181818;stroke-width:1.0;"/><polygon fill="none" points="754.38,220.04,758.6282,238.532,768.8737,232.2847,754.38,220.04" style="stroke:#181818;stroke-width:1.0;"/></g><!--reverse link RTexture to TextureInfo--><g id="link_RTexture_TextureInfo"><path codeLine="69" d="M883,503.25 C883,548.68 883,599.46 883,644.85 " fill="none" id="RTexture-backto-TextureInfo" style="stroke:#181818;stroke-width:1.0;"/><polygon fill="none" points="883,491.25,879,497.25,883,503.25,887,497.25,883,491.25" style="stroke:#181818;stroke-width:1.0;"/></g><!--reverse link BaseResource to RShader--><g id="link_BaseResource_RShader"><path codeLine="84" d="M860.2629,223.614 C881.8929,228.774 1026.17,217.93 1046,228 C1110.56,260.81 1157.6,332.64 1183.61,381.44 " fill="none" id="BaseResource-backto-RShader" style="stroke:#181818;stroke-width:1.0;"/><polygon fill="none" points="842.81,219.21,858.7949,229.4317,861.7309,217.7964,842.81,219.21" style="stroke:#181818;stroke-width:1.0;"/></g><!--reverse link RShader to ShaderInfo--><g id="link_RShader_ShaderInfo"><path codeLine="85" d="M1207,494.52 C1207,546.13 1207,614.05 1207,662.17 " fill="none" id="RShader-backto-ShaderInfo" style="stroke:#181818;stroke-width:1.0;"/><polygon fill="none" points="1207,482.52,1203,488.52,1207,494.52,1211,488.52,1207,482.52" style="stroke:#181818;stroke-width:1.0;"/></g><!--reverse link ResourceModule to ResourceRegistry--><g id="link_ResourceModule_ResourceRegistry"><path codeLine="123" d="M1744.2,432 C1755.89,432 1755.57,432 1767.26,432 " fill="none" id="ResourceModule-backto-ResourceRegistry" style="stroke:#181818;stroke-width:1.0;"/><polygon fill="none" points="1732.2,432,1738.2,436,1744.2,432,1738.2,428,1732.2,432" style="stroke:#181818;stroke-width:1.0;"/></g><!--reverse link ResourceModule to ResourceCache--><g id="link_ResourceModule_ResourceCache"><path codeLine="124" d="M1621.9909,588.1701 C1625.0809,609.0001 1626.36,617.69 1629.07,635.99 " fill="none" id="ResourceModule-backto-ResourceCache" style="stroke:#181818;stroke-width:1.0;"/><polygon fill="none" points="1620.23,576.3,1617.1537,582.822,1621.9909,588.1701,1625.0671,581.6481,1620.23,576.3" style="stroke:#181818;stroke-width:1.0;"/></g><!--link Resources to ResourceManagement--><g id="link_Resources_ResourceManagement"><path codeLine="126" d="M1383.0369,200.6157 C1383.3498,202.1188 1383.6696,203.6552 1383.9959,205.223 C1389.2175,230.3066 1396.1087,263.4094 1403,296.5112 C1409.8913,329.6131 1416.7825,362.7141 1422.0041,387.7939 C1422.3304,389.3614 1420.2043,379.1495 1420.5172,380.6523 " fill="none" id="Resources-to-ResourceManagement" style="stroke:#181818;stroke-width:1.0;"/><polygon fill="none" points="1422.9631,392.4004,1425.6562,385.7111,1420.5172,380.6523,1417.8241,387.3417,1422.9631,392.4004" style="stroke:#181818;stroke-width:1.0;"/></g><!--SRC=[dLTDRzim3BtdL-XK9DroQIy3uXLOMs0Bi613-dKCL9k9XTgI8SbfkwtzxQDisPPjASYMawX7KYGVAIi5ZP_e3iWQb2Xb32kHb1cGoUy9mLynG1MfjclG_EACAaKkgO96fOKw9VFxuEfCOy6L9afBndSdU8fEPuk-UesH7UYlTylhwOnK9WEblM09KLQbySRXsSW3X-_MeO4wv6tIBX4lOqrMeD9xa1fUGedi8JudXL2BqVOPAVSBZp8NCgVP07aK8YEY04cra9y_sv9qnvyGeLEGeyJVgjM0WBMn8u68vnW4dX5rlYz8ljbNgskgwSAhNJAkpyysskWodZ0aFwoyNb4Daj7irAZdLXYMg8ho2EvhZN7K9wOTxjkufmVjslWhgsMNmJJGQgOWFp4QFxgLTDT7tzgLszea-ZEVrtoqUCsEm7sdkqQDPuksv5iHR3tizrD2iqT8nC87vQ1fnc8l9c6ROMdO7hmmv4of45Xty8eMtj5fUj1c4En3DqMdJOmuwXIB7Tqjhk-ASNTZ6fYY47dMr26mIQqYqMLgIECjlEXIma4MkmRzPEQhO2ymcXK42RR90qj67McXRy1sgVPZLodblETqJ9UDDCYMamcIfJjfo9LLF8AgzrRNJw9pPCMX8_yZXTQoOx39rX3eSZJaxoQb2SWgwMFvUootMv33QuFzWeqcMvR13IuF4L4V6QB12IZVg5OOab2h7JqkdTUgq9teg_EXGW-2jt9LvixfnF4pV5AiA4Sn1wwzJuj6xOh6AKIt5w4obNX5uMcGuBLIH7K1FXAibzagj4HJyscAZPiXLQuIoGHDZYXZoOzKhDueSGPKJhsGX5piuOwN2X9NOzmdjX9hs34yyFM_A-6oY4MHrfy_k0e36NYvxKgMX7sZURto9bxosdld_FArUiYDZvY56UiVYAry8D9PkBFx9RQFu2XIQ9k15XmB5QfttsX8yjnyyglcDL-yPhtmpNYZfJffuRsI6qNjY0l_fxOzsPL7BnogMJn8thwQ4EDOordF8eeqv4M6BctTRftgk2vxanKQYozP7PL_FD2Jr6KH0DDINujdxaT_yEyuealED2R-86IMt61OOuRgK5A8dp2KzfzEVnRR-wtV8M8U7ikHwhn_cKqwp-Ex4DNBeZDGaxU_]--></g></svg>