<?xml version="1.0" encoding="us-ascii" standalone="no"?><svg xmlns="http://www.w3.org/2000/svg" xmlns:xlink="http://www.w3.org/1999/xlink" contentStyleType="text/css" height="441px" preserveAspectRatio="none" style="width:475px;height:441px;background:#FFFFFF;" version="1.1" viewBox="0 0 475 441" width="475px" zoomAndPan="magnify"><defs/><g><!--cluster LuaScriptModule--><g id="cluster_LuaScriptModule"><path d="M8.5,6 L128.5,6 A3.75,3.75 0 0 1 131,8.5 L138,29.6094 L465.5,29.6094 A2.5,2.5 0 0 1 468,32.1094 L468,431.5 A2.5,2.5 0 0 1 465.5,434 L8.5,434 A2.5,2.5 0 0 1 6,431.5 L6,8.5 A2.5,2.5 0 0 1 8.5,6 " fill="none" style="stroke:#000000;stroke-width:1.5;"/><line style="stroke:#000000;stroke-width:1.5;" x1="6" x2="138" y1="29.6094" y2="29.6094"/><text fill="#000000" font-family="sans-serif" font-size="14" font-weight="bold" lengthAdjust="spacing" textLength="119" x="10" y="22.5332">LuaScriptModule</text></g><!--class LuaScriptModule--><g id="elem_LuaScriptModule"><rect codeLine="3" fill="#F1F1F1" height="375.6719" id="LuaScriptModule" rx="2.5" ry="2.5" style="stroke:#181818;stroke-width:0.5;" width="429" x="22.5" y="42"/><ellipse cx="179.75" cy="63.3516" fill="#ADD1B2" rx="11" ry="11" style="stroke:#181818;stroke-width:1.0;"/><path d="M182.5156,59.2266 Q182.6719,59.0078 182.8594,58.8984 Q183.0469,58.7891 183.2656,58.7891 Q183.6406,58.7891 183.875,59.0547 Q184.1094,59.3047 184.1094,59.9141 L184.1094,61.3672 Q184.1094,61.9766 183.875,62.2422 Q183.6406,62.5078 183.2656,62.5078 Q182.9219,62.5078 182.7188,62.3047 Q182.5156,62.1172 182.4063,61.6016 Q182.3594,61.2422 182.1719,61.0547 Q181.8438,60.6797 181.2344,60.4609 Q180.625,60.2422 180,60.2422 Q179.2344,60.2422 178.5938,60.5703 Q177.9688,60.8984 177.4688,61.6484 Q176.9844,62.3984 176.9844,63.4297 L176.9844,64.5234 Q176.9844,65.7578 177.875,66.5859 Q178.7656,67.3984 180.3594,67.3984 Q181.2969,67.3984 181.9531,67.1484 Q182.3438,66.9922 182.7656,66.5547 Q183.0313,66.2891 183.1719,66.2109 Q183.3281,66.1328 183.5313,66.1328 Q183.8594,66.1328 184.1094,66.3984 Q184.375,66.6484 184.375,66.9922 Q184.375,67.3359 184.0313,67.7422 Q183.5313,68.3203 182.7344,68.6484 Q181.6563,69.1016 180.3594,69.1016 Q178.8438,69.1016 177.6406,68.4766 Q176.6563,67.9766 175.9688,66.9141 Q175.2813,65.8359 175.2813,64.5547 L175.2813,63.3984 Q175.2813,62.0703 175.8906,60.9297 Q176.5156,59.7734 177.6094,59.1641 Q178.7031,58.5391 179.9375,58.5391 Q180.6719,58.5391 181.3125,58.7109 Q181.9688,58.8672 182.5156,59.2266 Z " fill="#000000"/><text fill="#000000" font-family="sans-serif" font-size="12" font-style="italic" lengthAdjust="spacing" textLength="71" x="217.75" y="59.457">&#171;singletone&#187;</text><text fill="#000000" font-family="sans-serif" font-size="14" lengthAdjust="spacing" textLength="106" x="200.25" y="76.627">LuaScriptModule</text><line style="stroke:#181818;stroke-width:0.5;" x1="23.5" x2="450.5" y1="84.7031" y2="84.7031"/><rect fill="none" height="6" style="stroke:#C82930;stroke-width:1.0;" width="6" x="30.5" y="96.0078"/><text fill="#000000" font-family="sans-serif" font-size="14" lengthAdjust="spacing" textLength="136" x="42.5" y="103.2363">sol::state m_luaState;</text><line style="stroke:#181818;stroke-width:0.5;" x1="23.5" x2="450.5" y1="110.3125" y2="110.3125"/><rect fill="#F24D5C" height="6" style="stroke:#C82930;stroke-width:1.0;" width="6" x="30.5" y="121.6172"/><text fill="#000000" font-family="sans-serif" font-size="14" lengthAdjust="spacing" textLength="179" x="42.5" y="128.8457">LuaScriptModule() = default;</text><rect fill="#F24D5C" height="6" style="stroke:#C82930;stroke-width:1.0;" width="6" x="30.5" y="139.2266"/><text fill="#000000" font-family="sans-serif" font-size="14" lengthAdjust="spacing" textLength="403" x="42.5" y="146.4551">LuaScriptModule&amp; operator=(const LuaScriptModule&amp;) = delete;</text><rect fill="#F24D5C" height="6" style="stroke:#C82930;stroke-width:1.0;" width="6" x="30.5" y="156.8359"/><text fill="#000000" font-family="sans-serif" font-size="14" lengthAdjust="spacing" textLength="328" x="42.5" y="164.0645">LuaScriptModule(const LuaScriptModule&amp;) = delete;</text><ellipse cx="33.5" cy="177.4453" fill="#84BE84" rx="3" ry="3" style="stroke:#038048;stroke-width:1.0;"/><text fill="#000000" font-family="sans-serif" font-size="14" lengthAdjust="spacing" textLength="243" x="42.5" y="181.6738">static LuaScriptModule&amp; getInstance();</text><text fill="#000000" font-family="sans-serif" font-size="14" lengthAdjust="spacing" textLength="4" x="42.5" y="199.2832">&#160;</text><ellipse cx="33.5" cy="212.6641" fill="#84BE84" rx="3" ry="3" style="stroke:#038048;stroke-width:1.0;"/><text fill="#000000" font-family="sans-serif" font-size="14" lengthAdjust="spacing" textLength="88" x="42.5" y="216.8926">void startup();</text><ellipse cx="33.5" cy="230.2734" fill="#84BE84" rx="3" ry="3" style="stroke:#038048;stroke-width:1.0;"/><text fill="#000000" font-family="sans-serif" font-size="14" lengthAdjust="spacing" textLength="104" x="42.5" y="234.502">void shutdown();</text><text fill="#000000" font-family="sans-serif" font-size="14" lengthAdjust="spacing" textLength="4" x="42.5" y="252.1113">&#160;</text><ellipse cx="33.5" cy="265.4922" fill="#84BE84" rx="3" ry="3" style="stroke:#038048;stroke-width:1.0;"/><text fill="#000000" font-family="sans-serif" font-size="14" lengthAdjust="spacing" textLength="305" x="42.5" y="269.7207">void processCommand(const string&amp; command);</text><ellipse cx="33.5" cy="283.1016" fill="#84BE84" rx="3" ry="3" style="stroke:#038048;stroke-width:1.0;"/><text fill="#000000" font-family="sans-serif" font-size="14" lengthAdjust="spacing" textLength="153" x="42.5" y="287.3301">solstate&amp; getLuaState();</text><text fill="#000000" font-family="sans-serif" font-size="14" lengthAdjust="spacing" textLength="4" x="42.5" y="304.9395">&#160;</text><rect fill="#F24D5C" height="6" style="stroke:#C82930;stroke-width:1.0;" width="6" x="30.5" y="315.3203"/><text fill="#000000" font-family="sans-serif" font-size="14" lengthAdjust="spacing" textLength="179" x="42.5" y="322.5488">void registerLoggerModule()</text><rect fill="#F24D5C" height="6" style="stroke:#C82930;stroke-width:1.0;" width="6" x="30.5" y="332.9297"/><text fill="#000000" font-family="sans-serif" font-size="14" lengthAdjust="spacing" textLength="174" x="42.5" y="340.1582">void registerEventModule();</text><rect fill="#F24D5C" height="6" style="stroke:#C82930;stroke-width:1.0;" width="6" x="30.5" y="350.5391"/><text fill="#000000" font-family="sans-serif" font-size="14" lengthAdjust="spacing" textLength="169" x="42.5" y="357.7676">void registerInputModule();</text><rect fill="#F24D5C" height="6" style="stroke:#C82930;stroke-width:1.0;" width="6" x="30.5" y="368.1484"/><text fill="#000000" font-family="sans-serif" font-size="14" lengthAdjust="spacing" textLength="162" x="42.5" y="375.377">void registerMathTypes();</text><rect fill="#F24D5C" height="6" style="stroke:#C82930;stroke-width:1.0;" width="6" x="30.5" y="385.7578"/><text fill="#000000" font-family="sans-serif" font-size="14" lengthAdjust="spacing" textLength="166" x="42.5" y="392.9863">void registerECSModule();</text><rect fill="#F24D5C" height="6" style="stroke:#C82930;stroke-width:1.0;" width="6" x="30.5" y="403.3672"/><text fill="#000000" font-family="sans-serif" font-size="14" lengthAdjust="spacing" textLength="207" x="42.5" y="410.5957">void registerResourceModule(0;)</text></g><!--SRC=[ZP7DRi8m48JlUGgV8geAYJC1BeW3KhWKxfNbR4rKnsjvrrIeujth_BHDqrhK9ylppUpOTbAzIWsY3FAeVEtuW5KmaBrd8Yvb9D5K4wiLrLOROBImsNHWZxThFg5d3s8jAdYHmN2Hf7A13hnazEkPGaiy7PhtCN4ef5F-OVts4fhbabWoYERPH4kx7G6FhLQhNsb20-_Z66bLlDpOSC6w4b7m75ohJ8Hpu0hVx1yUvr41qHQRHjfgk0MnZw-S2zMVZlDYzQvurwKSgl_8dNUv7dHD3Bv4hS5__aS2sbt0VlrPaO3sreMxq47o-NHrG6bajptUIta2mk0L3DoYw8lViji7]--></g></svg>