<?xml version="1.0" encoding="us-ascii" standalone="no"?><svg xmlns="http://www.w3.org/2000/svg" xmlns:xlink="http://www.w3.org/1999/xlink" contentStyleType="text/css" height="834px" preserveAspectRatio="none" style="width:1651px;height:834px;background:#FFFFFF;" version="1.1" viewBox="0 0 1651 834" width="1651px" zoomAndPan="magnify"><defs/><g><!--cluster RenderSubsystem--><g id="cluster_RenderSubsystem"><path d="M8.5,6 L137.5,6 A3.75,3.75 0 0 1 140,8.5 L147,29.6094 L1641.5,29.6094 A2.5,2.5 0 0 1 1644,32.1094 L1644,824.5 A2.5,2.5 0 0 1 1641.5,827 L8.5,827 A2.5,2.5 0 0 1 6,824.5 L6,8.5 A2.5,2.5 0 0 1 8.5,6 " fill="none" style="stroke:#000000;stroke-width:1.5;"/><line style="stroke:#000000;stroke-width:1.5;" x1="6" x2="147" y1="29.6094" y2="29.6094"/><text fill="#000000" font-family="sans-serif" font-size="14" font-weight="bold" lengthAdjust="spacing" textLength="128" x="10" y="22.5332">RenderSubsystem</text></g><!--cluster OpenGLRendererObjects--><g id="cluster_OpenGLRendererObjects"><path d="M32.5,50 L211.5,50 A3.75,3.75 0 0 1 214,52.5 L221,73.6094 L1617.5,73.6094 A2.5,2.5 0 0 1 1620,76.1094 L1620,800.5 A2.5,2.5 0 0 1 1617.5,803 L32.5,803 A2.5,2.5 0 0 1 30,800.5 L30,52.5 A2.5,2.5 0 0 1 32.5,50 " fill="none" style="stroke:#000000;stroke-width:1.5;"/><line style="stroke:#000000;stroke-width:1.5;" x1="30" x2="221" y1="73.6094" y2="73.6094"/><text fill="#000000" font-family="sans-serif" font-size="14" font-weight="bold" lengthAdjust="spacing" textLength="178" x="34" y="66.5332">OpenGLRendererObjects</text></g><!--class OpenGLFramebuffer--><g id="elem_OpenGLFramebuffer"><rect codeLine="3" fill="#F1F1F1" height="435.4063" id="OpenGLFramebuffer" rx="2.5" ry="2.5" style="stroke:#181818;stroke-width:0.5;" width="430" x="46" y="86"/><ellipse cx="190.75" cy="102" fill="#ADD1B2" rx="11" ry="11" style="stroke:#181818;stroke-width:1.0;"/><path d="M193.5156,97.875 Q193.6719,97.6563 193.8594,97.5469 Q194.0469,97.4375 194.2656,97.4375 Q194.6406,97.4375 194.875,97.7031 Q195.1094,97.9531 195.1094,98.5625 L195.1094,100.0156 Q195.1094,100.625 194.875,100.8906 Q194.6406,101.1563 194.2656,101.1563 Q193.9219,101.1563 193.7188,100.9531 Q193.5156,100.7656 193.4063,100.25 Q193.3594,99.8906 193.1719,99.7031 Q192.8438,99.3281 192.2344,99.1094 Q191.625,98.8906 191,98.8906 Q190.2344,98.8906 189.5938,99.2188 Q188.9688,99.5469 188.4688,100.2969 Q187.9844,101.0469 187.9844,102.0781 L187.9844,103.1719 Q187.9844,104.4063 188.875,105.2344 Q189.7656,106.0469 191.3594,106.0469 Q192.2969,106.0469 192.9531,105.7969 Q193.3438,105.6406 193.7656,105.2031 Q194.0313,104.9375 194.1719,104.8594 Q194.3281,104.7813 194.5313,104.7813 Q194.8594,104.7813 195.1094,105.0469 Q195.375,105.2969 195.375,105.6406 Q195.375,105.9844 195.0313,106.3906 Q194.5313,106.9688 193.7344,107.2969 Q192.6563,107.75 191.3594,107.75 Q189.8438,107.75 188.6406,107.125 Q187.6563,106.625 186.9688,105.5625 Q186.2813,104.4844 186.2813,103.2031 L186.2813,102.0469 Q186.2813,100.7188 186.8906,99.5781 Q187.5156,98.4219 188.6094,97.8125 Q189.7031,97.1875 190.9375,97.1875 Q191.6719,97.1875 192.3125,97.3594 Q192.9688,97.5156 193.5156,97.875 Z " fill="#000000"/><text fill="#000000" font-family="sans-serif" font-size="14" lengthAdjust="spacing" textLength="132" x="211.25" y="107.7285">OpenGLFramebuffer</text><line style="stroke:#181818;stroke-width:0.5;" x1="47" x2="475" y1="118" y2="118"/><rect fill="none" height="6" style="stroke:#C82930;stroke-width:1.0;" width="6" x="54" y="129.3047"/><text fill="#000000" font-family="sans-serif" font-size="14" lengthAdjust="spacing" textLength="70" x="66" y="136.5332">GLuint fbo;</text><rect fill="none" height="6" style="stroke:#C82930;stroke-width:1.0;" width="6" x="54" y="146.9141"/><text fill="#000000" font-family="sans-serif" font-size="14" lengthAdjust="spacing" textLength="74" x="66" y="154.1426">int m_width;</text><rect fill="none" height="6" style="stroke:#C82930;stroke-width:1.0;" width="6" x="54" y="164.5234"/><text fill="#000000" font-family="sans-serif" font-size="14" lengthAdjust="spacing" textLength="81" x="66" y="171.752">int m_height;</text><text fill="#000000" font-family="sans-serif" font-size="14" lengthAdjust="spacing" textLength="4" x="66" y="189.3613">&#160;</text><rect fill="none" height="6" style="stroke:#C82930;stroke-width:1.0;" width="6" x="54" y="199.7422"/><text fill="#000000" font-family="sans-serif" font-size="14" lengthAdjust="spacing" textLength="148" x="66" y="206.9707">GLuint m_colorTexture;</text><rect fill="none" height="6" style="stroke:#C82930;stroke-width:1.0;" width="6" x="54" y="217.3516"/><text fill="#000000" font-family="sans-serif" font-size="14" lengthAdjust="spacing" textLength="153" x="66" y="224.5801">GLuint m_depthTexture;</text><rect fill="none" height="6" style="stroke:#C82930;stroke-width:1.0;" width="6" x="54" y="234.9609"/><text fill="#000000" font-family="sans-serif" font-size="14" lengthAdjust="spacing" textLength="71" x="66" y="242.1895">GLuint rbo;</text><text fill="#000000" font-family="sans-serif" font-size="14" lengthAdjust="spacing" textLength="4" x="66" y="259.7988">&#160;</text><rect fill="none" height="6" style="stroke:#C82930;stroke-width:1.0;" width="6" x="54" y="270.1797"/><text fill="#000000" font-family="sans-serif" font-size="14" lengthAdjust="spacing" textLength="90" x="66" y="277.4082">bool m_depth;</text><line style="stroke:#181818;stroke-width:0.5;" x1="47" x2="475" y1="284.4844" y2="284.4844"/><ellipse cx="57" cy="298.7891" fill="#84BE84" rx="3" ry="3" style="stroke:#038048;stroke-width:1.0;"/><text fill="#000000" font-family="sans-serif" font-size="14" lengthAdjust="spacing" textLength="404" x="66" y="303.0176">OpenGLFramebuffer(int width, int height, bool useDepth = true);</text><ellipse cx="57" cy="316.3984" fill="#84BE84" rx="3" ry="3" style="stroke:#038048;stroke-width:1.0;"/><text fill="#000000" font-family="sans-serif" font-size="14" lengthAdjust="spacing" textLength="154" x="66" y="320.627">~OpenGLFramebuffer();</text><text fill="#000000" font-family="sans-serif" font-size="14" lengthAdjust="spacing" textLength="4" x="66" y="338.2363">&#160;</text><ellipse cx="57" cy="351.6172" fill="#84BE84" rx="3" ry="3" style="stroke:#038048;stroke-width:1.0;"/><text fill="#000000" font-family="sans-serif" font-size="14" lengthAdjust="spacing" textLength="71" x="66" y="355.8457">void bind();</text><ellipse cx="57" cy="369.2266" fill="#84BE84" rx="3" ry="3" style="stroke:#038048;stroke-width:1.0;"/><text fill="#000000" font-family="sans-serif" font-size="14" lengthAdjust="spacing" textLength="87" x="66" y="373.4551">void unbind();</text><ellipse cx="57" cy="386.8359" fill="#84BE84" rx="3" ry="3" style="stroke:#038048;stroke-width:1.0;"/><text fill="#000000" font-family="sans-serif" font-size="14" lengthAdjust="spacing" textLength="253" x="66" y="391.0645">void resize(int newWidth, int newHeight);</text><text fill="#000000" font-family="sans-serif" font-size="14" lengthAdjust="spacing" textLength="4" x="66" y="408.6738">&#160;</text><ellipse cx="57" cy="422.0547" fill="#84BE84" rx="3" ry="3" style="stroke:#038048;stroke-width:1.0;"/><text fill="#000000" font-family="sans-serif" font-size="14" lengthAdjust="spacing" textLength="364" x="66" y="426.2832">void addColorAttachment(GLenum format, GLenum type);</text><ellipse cx="57" cy="439.6641" fill="#84BE84" rx="3" ry="3" style="stroke:#038048;stroke-width:1.0;"/><text fill="#000000" font-family="sans-serif" font-size="14" lengthAdjust="spacing" textLength="271" x="66" y="443.8926">void addDepthAttachment(bool asTexture);</text><text fill="#000000" font-family="sans-serif" font-size="14" lengthAdjust="spacing" textLength="4" x="66" y="461.502">&#160;</text><ellipse cx="57" cy="474.8828" fill="#84BE84" rx="3" ry="3" style="stroke:#038048;stroke-width:1.0;"/><text fill="#000000" font-family="sans-serif" font-size="14" lengthAdjust="spacing" textLength="200" x="66" y="479.1113">GLuint getColorTexture() const;</text><ellipse cx="57" cy="492.4922" fill="#84BE84" rx="3" ry="3" style="stroke:#038048;stroke-width:1.0;"/><text fill="#000000" font-family="sans-serif" font-size="14" lengthAdjust="spacing" textLength="204" x="66" y="496.7207">GLuint getDepthTexture() const;</text><ellipse cx="57" cy="510.1016" fill="#84BE84" rx="3" ry="3" style="stroke:#038048;stroke-width:1.0;"/><text fill="#000000" font-family="sans-serif" font-size="14" lengthAdjust="spacing" textLength="147" x="66" y="514.3301">GLuint getFBO() const;</text></g><!--class OpenGLMesh--><g id="elem_OpenGLMesh"><rect codeLine="30" fill="#F1F1F1" height="294.5313" id="OpenGLMesh" rx="2.5" ry="2.5" style="stroke:#181818;stroke-width:0.5;" width="384" x="511" y="156"/><ellipse cx="654.75" cy="172" fill="#ADD1B2" rx="11" ry="11" style="stroke:#181818;stroke-width:1.0;"/><path d="M657.5156,167.875 Q657.6719,167.6563 657.8594,167.5469 Q658.0469,167.4375 658.2656,167.4375 Q658.6406,167.4375 658.875,167.7031 Q659.1094,167.9531 659.1094,168.5625 L659.1094,170.0156 Q659.1094,170.625 658.875,170.8906 Q658.6406,171.1563 658.2656,171.1563 Q657.9219,171.1563 657.7188,170.9531 Q657.5156,170.7656 657.4063,170.25 Q657.3594,169.8906 657.1719,169.7031 Q656.8438,169.3281 656.2344,169.1094 Q655.625,168.8906 655,168.8906 Q654.2344,168.8906 653.5938,169.2188 Q652.9688,169.5469 652.4688,170.2969 Q651.9844,171.0469 651.9844,172.0781 L651.9844,173.1719 Q651.9844,174.4063 652.875,175.2344 Q653.7656,176.0469 655.3594,176.0469 Q656.2969,176.0469 656.9531,175.7969 Q657.3438,175.6406 657.7656,175.2031 Q658.0313,174.9375 658.1719,174.8594 Q658.3281,174.7813 658.5313,174.7813 Q658.8594,174.7813 659.1094,175.0469 Q659.375,175.2969 659.375,175.6406 Q659.375,175.9844 659.0313,176.3906 Q658.5313,176.9688 657.7344,177.2969 Q656.6563,177.75 655.3594,177.75 Q653.8438,177.75 652.6406,177.125 Q651.6563,176.625 650.9688,175.5625 Q650.2813,174.4844 650.2813,173.2031 L650.2813,172.0469 Q650.2813,170.7188 650.8906,169.5781 Q651.5156,168.4219 652.6094,167.8125 Q653.7031,167.1875 654.9375,167.1875 Q655.6719,167.1875 656.3125,167.3594 Q656.9688,167.5156 657.5156,167.875 Z " fill="#000000"/><text fill="#000000" font-family="sans-serif" font-size="14" lengthAdjust="spacing" textLength="88" x="675.25" y="177.7285">OpenGLMesh</text><line style="stroke:#181818;stroke-width:0.5;" x1="512" x2="894" y1="188" y2="188"/><rect fill="none" height="6" style="stroke:#C82930;stroke-width:1.0;" width="6" x="519" y="199.3047"/><text fill="#000000" font-family="sans-serif" font-size="14" lengthAdjust="spacing" textLength="98" x="531" y="206.5332">GLuint m_VAO;</text><rect fill="none" height="6" style="stroke:#C82930;stroke-width:1.0;" width="6" x="519" y="216.9141"/><text fill="#000000" font-family="sans-serif" font-size="14" lengthAdjust="spacing" textLength="98" x="531" y="224.1426">GLuint m_VBO;</text><rect fill="none" height="6" style="stroke:#C82930;stroke-width:1.0;" width="6" x="519" y="234.5234"/><text fill="#000000" font-family="sans-serif" font-size="14" lengthAdjust="spacing" textLength="92" x="531" y="241.752">GLuint m_IBO;</text><rect fill="none" height="6" style="stroke:#C82930;stroke-width:1.0;" width="6" x="519" y="252.1328"/><text fill="#000000" font-family="sans-serif" font-size="14" lengthAdjust="spacing" textLength="144" x="531" y="259.3613">GLsizei m_indexCount;</text><line style="stroke:#181818;stroke-width:0.5;" x1="512" x2="894" y1="266.4375" y2="266.4375"/><rect fill="#F24D5C" height="6" style="stroke:#C82930;stroke-width:1.0;" width="6" x="519" y="277.7422"/><text fill="#000000" font-family="sans-serif" font-size="14" lengthAdjust="spacing" textLength="165" x="531" y="284.9707">void bind() const override;</text><rect fill="#F24D5C" height="6" style="stroke:#C82930;stroke-width:1.0;" width="6" x="519" y="295.3516"/><text fill="#000000" font-family="sans-serif" font-size="14" lengthAdjust="spacing" textLength="168" x="531" y="302.5801">void draw() const override;</text><rect fill="#F24D5C" height="6" style="stroke:#C82930;stroke-width:1.0;" width="6" x="519" y="312.9609"/><text fill="#000000" font-family="sans-serif" font-size="14" lengthAdjust="spacing" textLength="358" x="531" y="320.1895">void drawIndexed(GLsizei instanceCount) const override;</text><ellipse cx="522" cy="333.5703" fill="#84BE84" rx="3" ry="3" style="stroke:#038048;stroke-width:1.0;"/><text fill="#000000" font-family="sans-serif" font-size="14" lengthAdjust="spacing" textLength="316" x="531" y="337.7988">OpenGLMesh(const shared_ptr&lt;RMesh&gt;&amp; mesh);</text><ellipse cx="522" cy="351.1797" fill="#84BE84" rx="3" ry="3" style="stroke:#038048;stroke-width:1.0;"/><text fill="#000000" font-family="sans-serif" font-size="14" lengthAdjust="spacing" textLength="152" x="531" y="355.4082">virtual ~OpenGLMesh();</text><text fill="#000000" font-family="sans-serif" font-size="14" lengthAdjust="spacing" textLength="4" x="531" y="373.0176">&#160;</text><ellipse cx="522" cy="386.3984" fill="#84BE84" rx="3" ry="3" style="stroke:#038048;stroke-width:1.0;"/><text fill="#000000" font-family="sans-serif" font-size="14" lengthAdjust="spacing" textLength="147" x="531" y="390.627">GLuint getVAO() const;</text><ellipse cx="522" cy="404.0078" fill="#84BE84" rx="3" ry="3" style="stroke:#038048;stroke-width:1.0;"/><text fill="#000000" font-family="sans-serif" font-size="14" lengthAdjust="spacing" textLength="147" x="531" y="408.2363">GLuint getVBO() const;</text><ellipse cx="522" cy="421.6172" fill="#84BE84" rx="3" ry="3" style="stroke:#038048;stroke-width:1.0;"/><text fill="#000000" font-family="sans-serif" font-size="14" lengthAdjust="spacing" textLength="141" x="531" y="425.8457">GLuint getIBO() const;</text><ellipse cx="522" cy="439.2266" fill="#84BE84" rx="3" ry="3" style="stroke:#038048;stroke-width:1.0;"/><text fill="#000000" font-family="sans-serif" font-size="14" lengthAdjust="spacing" textLength="189" x="531" y="443.4551">GLuint getIndexCount() const;</text></g><!--class OpenGLShader--><g id="elem_OpenGLShader"><rect codeLine="50" fill="#F1F1F1" height="276.9219" id="OpenGLShader" rx="2.5" ry="2.5" style="stroke:#181818;stroke-width:0.5;" width="673" x="930.5" y="165"/><ellipse cx="1212.75" cy="181" fill="#ADD1B2" rx="11" ry="11" style="stroke:#181818;stroke-width:1.0;"/><path d="M1215.5156,176.875 Q1215.6719,176.6563 1215.8594,176.5469 Q1216.0469,176.4375 1216.2656,176.4375 Q1216.6406,176.4375 1216.875,176.7031 Q1217.1094,176.9531 1217.1094,177.5625 L1217.1094,179.0156 Q1217.1094,179.625 1216.875,179.8906 Q1216.6406,180.1563 1216.2656,180.1563 Q1215.9219,180.1563 1215.7188,179.9531 Q1215.5156,179.7656 1215.4063,179.25 Q1215.3594,178.8906 1215.1719,178.7031 Q1214.8438,178.3281 1214.2344,178.1094 Q1213.625,177.8906 1213,177.8906 Q1212.2344,177.8906 1211.5938,178.2188 Q1210.9688,178.5469 1210.4688,179.2969 Q1209.9844,180.0469 1209.9844,181.0781 L1209.9844,182.1719 Q1209.9844,183.4063 1210.875,184.2344 Q1211.7656,185.0469 1213.3594,185.0469 Q1214.2969,185.0469 1214.9531,184.7969 Q1215.3438,184.6406 1215.7656,184.2031 Q1216.0313,183.9375 1216.1719,183.8594 Q1216.3281,183.7813 1216.5313,183.7813 Q1216.8594,183.7813 1217.1094,184.0469 Q1217.375,184.2969 1217.375,184.6406 Q1217.375,184.9844 1217.0313,185.3906 Q1216.5313,185.9688 1215.7344,186.2969 Q1214.6563,186.75 1213.3594,186.75 Q1211.8438,186.75 1210.6406,186.125 Q1209.6563,185.625 1208.9688,184.5625 Q1208.2813,183.4844 1208.2813,182.2031 L1208.2813,181.0469 Q1208.2813,179.7188 1208.8906,178.5781 Q1209.5156,177.4219 1210.6094,176.8125 Q1211.7031,176.1875 1212.9375,176.1875 Q1213.6719,176.1875 1214.3125,176.3594 Q1214.9688,176.5156 1215.5156,176.875 Z " fill="#000000"/><text fill="#000000" font-family="sans-serif" font-size="14" lengthAdjust="spacing" textLength="100" x="1233.25" y="186.7285">OpenGLShader</text><line style="stroke:#181818;stroke-width:0.5;" x1="931.5" x2="1602.5" y1="197" y2="197"/><rect fill="none" height="6" style="stroke:#C82930;stroke-width:1.0;" width="6" x="938.5" y="208.3047"/><text fill="#000000" font-family="sans-serif" font-size="14" lengthAdjust="spacing" textLength="135" x="950.5" y="215.5332">GLuint m_programID;</text><rect fill="none" height="6" style="stroke:#C82930;stroke-width:1.0;" width="6" x="938.5" y="225.9141"/><text fill="#000000" font-family="sans-serif" font-size="14" lengthAdjust="spacing" textLength="145" x="950.5" y="233.1426">GLuint m_cameraUBO;</text><rect fill="none" height="6" style="stroke:#C82930;stroke-width:1.0;" width="6" x="938.5" y="243.5234"/><text fill="#000000" font-family="sans-serif" font-size="14" lengthAdjust="spacing" textLength="194" x="950.5" y="250.752">GLuint m_directionalLightUBO;</text><rect fill="none" height="6" style="stroke:#C82930;stroke-width:1.0;" width="6" x="938.5" y="261.1328"/><text fill="#000000" font-family="sans-serif" font-size="14" lengthAdjust="spacing" textLength="160" x="950.5" y="268.3613">GLuint m_pointLightUBO;</text><text fill="#000000" font-family="sans-serif" font-size="14" lengthAdjust="spacing" textLength="4" x="950.5" y="285.9707">&#160;</text><rect fill="none" height="6" style="stroke:#C82930;stroke-width:1.0;" width="6" x="938.5" y="296.3516"/><text fill="#000000" font-family="sans-serif" font-size="14" lengthAdjust="spacing" textLength="317" x="950.5" y="303.5801">unordered_map&lt;string, GLuint&gt; m_uniformBlocks;</text><rect fill="none" height="6" style="stroke:#C82930;stroke-width:1.0;" width="6" x="938.5" y="313.9609"/><text fill="#000000" font-family="sans-serif" font-size="14" lengthAdjust="spacing" textLength="260" x="950.5" y="321.1895">unordered_map&lt;string, GLuint&gt; m_ubos;</text><rect fill="none" height="6" style="stroke:#C82930;stroke-width:1.0;" width="6" x="938.5" y="331.5703"/><text fill="#000000" font-family="sans-serif" font-size="14" lengthAdjust="spacing" textLength="326" x="950.5" y="338.7988">unordered_map&lt;string, GLuint&gt; m_textureBindings;</text><line style="stroke:#181818;stroke-width:0.5;" x1="931.5" x2="1602.5" y1="345.875" y2="345.875"/><ellipse cx="941.5" cy="360.1797" fill="#84BE84" rx="3" ry="3" style="stroke:#038048;stroke-width:1.0;"/><text fill="#000000" font-family="sans-serif" font-size="14" lengthAdjust="spacing" textLength="647" x="950.5" y="364.4082">OpenGLShader(const shared_ptr&lt;RShader&gt;&amp; vertShader, const shared_ptr&lt;RShader&gt;&amp; fragShader);</text><ellipse cx="941.5" cy="377.7891" fill="#84BE84" rx="3" ry="3" style="stroke:#038048;stroke-width:1.0;"/><text fill="#000000" font-family="sans-serif" font-size="14" lengthAdjust="spacing" textLength="122" x="950.5" y="382.0176">~OpenGLShader();</text><text fill="#000000" font-family="sans-serif" font-size="14" lengthAdjust="spacing" textLength="4" x="950.5" y="399.627">&#160;</text><ellipse cx="941.5" cy="413.0078" fill="#84BE84" rx="3" ry="3" style="stroke:#038048;stroke-width:1.0;"/><text fill="#000000" font-family="sans-serif" font-size="14" lengthAdjust="spacing" textLength="185" x="950.5" y="417.2363">GLuint getProgramID() const;</text><ellipse cx="941.5" cy="430.6172" fill="#84BE84" rx="3" ry="3" style="stroke:#038048;stroke-width:1.0;"/><text fill="#000000" font-family="sans-serif" font-size="14" lengthAdjust="spacing" textLength="127" x="950.5" y="434.8457">void bind() override;</text></g><!--class OpenGLTexture--><g id="elem_OpenGLTexture"><rect codeLine="69" fill="#F1F1F1" height="188.875" id="OpenGLTexture" rx="2.5" ry="2.5" style="stroke:#181818;stroke-width:0.5;" width="379" x="71.5" y="589.5"/><ellipse cx="205.75" cy="605.5" fill="#ADD1B2" rx="11" ry="11" style="stroke:#181818;stroke-width:1.0;"/><path d="M208.5156,601.375 Q208.6719,601.1563 208.8594,601.0469 Q209.0469,600.9375 209.2656,600.9375 Q209.6406,600.9375 209.875,601.2031 Q210.1094,601.4531 210.1094,602.0625 L210.1094,603.5156 Q210.1094,604.125 209.875,604.3906 Q209.6406,604.6563 209.2656,604.6563 Q208.9219,604.6563 208.7188,604.4531 Q208.5156,604.2656 208.4063,603.75 Q208.3594,603.3906 208.1719,603.2031 Q207.8438,602.8281 207.2344,602.6094 Q206.625,602.3906 206,602.3906 Q205.2344,602.3906 204.5938,602.7188 Q203.9688,603.0469 203.4688,603.7969 Q202.9844,604.5469 202.9844,605.5781 L202.9844,606.6719 Q202.9844,607.9063 203.875,608.7344 Q204.7656,609.5469 206.3594,609.5469 Q207.2969,609.5469 207.9531,609.2969 Q208.3438,609.1406 208.7656,608.7031 Q209.0313,608.4375 209.1719,608.3594 Q209.3281,608.2813 209.5313,608.2813 Q209.8594,608.2813 210.1094,608.5469 Q210.375,608.7969 210.375,609.1406 Q210.375,609.4844 210.0313,609.8906 Q209.5313,610.4688 208.7344,610.7969 Q207.6563,611.25 206.3594,611.25 Q204.8438,611.25 203.6406,610.625 Q202.6563,610.125 201.9688,609.0625 Q201.2813,607.9844 201.2813,606.7031 L201.2813,605.5469 Q201.2813,604.2188 201.8906,603.0781 Q202.5156,601.9219 203.6094,601.3125 Q204.7031,600.6875 205.9375,600.6875 Q206.6719,600.6875 207.3125,600.8594 Q207.9688,601.0156 208.5156,601.375 Z " fill="#000000"/><text fill="#000000" font-family="sans-serif" font-size="14" lengthAdjust="spacing" textLength="102" x="226.25" y="611.2285">OpenGLTexture</text><line style="stroke:#181818;stroke-width:0.5;" x1="72.5" x2="449.5" y1="621.5" y2="621.5"/><rect fill="none" height="6" style="stroke:#C82930;stroke-width:1.0;" width="6" x="79.5" y="632.8047"/><text fill="#000000" font-family="sans-serif" font-size="14" lengthAdjust="spacing" textLength="125" x="91.5" y="640.0332">GLuint m_textureID;</text><line style="stroke:#181818;stroke-width:0.5;" x1="72.5" x2="449.5" y1="647.1094" y2="647.1094"/><ellipse cx="82.5" cy="661.4141" fill="#84BE84" rx="3" ry="3" style="stroke:#038048;stroke-width:1.0;"/><text fill="#000000" font-family="sans-serif" font-size="14" lengthAdjust="spacing" textLength="353" x="91.5" y="665.6426">OpenGLTexture(const shared_ptr&lt;RTexture&gt;&amp; texture);</text><ellipse cx="82.5" cy="679.0234" fill="#84BE84" rx="3" ry="3" style="stroke:#038048;stroke-width:1.0;"/><text fill="#000000" font-family="sans-serif" font-size="14" lengthAdjust="spacing" textLength="166" x="91.5" y="683.252">virtual ~OpenGLTexture();</text><text fill="#000000" font-family="sans-serif" font-size="14" lengthAdjust="spacing" textLength="4" x="91.5" y="700.8613">&#160;</text><ellipse cx="82.5" cy="714.2422" fill="#84BE84" rx="3" ry="3" style="stroke:#038048;stroke-width:1.0;"/><text fill="#000000" font-family="sans-serif" font-size="14" lengthAdjust="spacing" textLength="165" x="91.5" y="718.4707">void bind() const override;</text><ellipse cx="82.5" cy="731.8516" fill="#84BE84" rx="3" ry="3" style="stroke:#038048;stroke-width:1.0;"/><text fill="#000000" font-family="sans-serif" font-size="14" lengthAdjust="spacing" textLength="181" x="91.5" y="736.0801">void unbind() const override;</text><text fill="#000000" font-family="sans-serif" font-size="14" lengthAdjust="spacing" textLength="4" x="91.5" y="753.6895">&#160;</text><ellipse cx="82.5" cy="767.0703" fill="#84BE84" rx="3" ry="3" style="stroke:#038048;stroke-width:1.0;"/><text fill="#000000" font-family="sans-serif" font-size="14" lengthAdjust="spacing" textLength="206" x="91.5" y="771.2988">uint32_t getTextureID() override;</text></g><!--class OpenGLVertexBuffer--><g id="elem_OpenGLVertexBuffer"><rect codeLine="82" fill="#F1F1F1" height="206.4844" id="OpenGLVertexBuffer" rx="2.5" ry="2.5" style="stroke:#181818;stroke-width:0.5;" width="367" x="485.5" y="581"/><ellipse cx="598.75" cy="597" fill="#ADD1B2" rx="11" ry="11" style="stroke:#181818;stroke-width:1.0;"/><path d="M601.5156,592.875 Q601.6719,592.6563 601.8594,592.5469 Q602.0469,592.4375 602.2656,592.4375 Q602.6406,592.4375 602.875,592.7031 Q603.1094,592.9531 603.1094,593.5625 L603.1094,595.0156 Q603.1094,595.625 602.875,595.8906 Q602.6406,596.1563 602.2656,596.1563 Q601.9219,596.1563 601.7188,595.9531 Q601.5156,595.7656 601.4063,595.25 Q601.3594,594.8906 601.1719,594.7031 Q600.8438,594.3281 600.2344,594.1094 Q599.625,593.8906 599,593.8906 Q598.2344,593.8906 597.5938,594.2188 Q596.9688,594.5469 596.4688,595.2969 Q595.9844,596.0469 595.9844,597.0781 L595.9844,598.1719 Q595.9844,599.4063 596.875,600.2344 Q597.7656,601.0469 599.3594,601.0469 Q600.2969,601.0469 600.9531,600.7969 Q601.3438,600.6406 601.7656,600.2031 Q602.0313,599.9375 602.1719,599.8594 Q602.3281,599.7813 602.5313,599.7813 Q602.8594,599.7813 603.1094,600.0469 Q603.375,600.2969 603.375,600.6406 Q603.375,600.9844 603.0313,601.3906 Q602.5313,601.9688 601.7344,602.2969 Q600.6563,602.75 599.3594,602.75 Q597.8438,602.75 596.6406,602.125 Q595.6563,601.625 594.9688,600.5625 Q594.2813,599.4844 594.2813,598.2031 L594.2813,597.0469 Q594.2813,595.7188 594.8906,594.5781 Q595.5156,593.4219 596.6094,592.8125 Q597.7031,592.1875 598.9375,592.1875 Q599.6719,592.1875 600.3125,592.3594 Q600.9688,592.5156 601.5156,592.875 Z " fill="#000000"/><text fill="#000000" font-family="sans-serif" font-size="14" lengthAdjust="spacing" textLength="132" x="619.25" y="602.7285">OpenGLVertexBuffer</text><line style="stroke:#181818;stroke-width:0.5;" x1="486.5" x2="851.5" y1="613" y2="613"/><rect fill="none" height="6" style="stroke:#C82930;stroke-width:1.0;" width="6" x="493.5" y="624.3047"/><text fill="#000000" font-family="sans-serif" font-size="14" lengthAdjust="spacing" textLength="98" x="505.5" y="631.5332">GLuint m_VAO;</text><rect fill="none" height="6" style="stroke:#C82930;stroke-width:1.0;" width="6" x="493.5" y="641.9141"/><text fill="#000000" font-family="sans-serif" font-size="14" lengthAdjust="spacing" textLength="98" x="505.5" y="649.1426">GLuint m_VBO;</text><rect fill="none" height="6" style="stroke:#C82930;stroke-width:1.0;" width="6" x="493.5" y="659.5234"/><text fill="#000000" font-family="sans-serif" font-size="14" lengthAdjust="spacing" textLength="149" x="505.5" y="666.752">GLsizei m_vertexCount;</text><line style="stroke:#181818;stroke-width:0.5;" x1="486.5" x2="851.5" y1="673.8281" y2="673.8281"/><ellipse cx="496.5" cy="688.1328" fill="#84BE84" rx="3" ry="3" style="stroke:#038048;stroke-width:1.0;"/><text fill="#000000" font-family="sans-serif" font-size="14" lengthAdjust="spacing" textLength="341" x="505.5" y="692.3613">OpenGLVertexBuffer(const vector&lt;Vertex&gt;&amp; vertices);</text><ellipse cx="496.5" cy="705.7422" fill="#84BE84" rx="3" ry="3" style="stroke:#038048;stroke-width:1.0;"/><text fill="#000000" font-family="sans-serif" font-size="14" lengthAdjust="spacing" textLength="154" x="505.5" y="709.9707">~OpenGLVertexBuffer();</text><text fill="#000000" font-family="sans-serif" font-size="14" lengthAdjust="spacing" textLength="4" x="505.5" y="727.5801">&#160;</text><ellipse cx="496.5" cy="740.9609" fill="#84BE84" rx="3" ry="3" style="stroke:#038048;stroke-width:1.0;"/><text fill="#000000" font-family="sans-serif" font-size="14" lengthAdjust="spacing" textLength="109" x="505.5" y="745.1895">void bind() const;</text><ellipse cx="496.5" cy="758.5703" fill="#84BE84" rx="3" ry="3" style="stroke:#038048;stroke-width:1.0;"/><text fill="#000000" font-family="sans-serif" font-size="14" lengthAdjust="spacing" textLength="125" x="505.5" y="762.7988">void unbind() const;</text><ellipse cx="496.5" cy="776.1797" fill="#84BE84" rx="3" ry="3" style="stroke:#038048;stroke-width:1.0;"/><text fill="#000000" font-family="sans-serif" font-size="14" lengthAdjust="spacing" textLength="205" x="505.5" y="780.4082">void draw(GLenum mode) const;</text></g><!--SRC=[bLLHRvim47xFh_3JH9Hk3zjZiaebKRD8cJArNVQ83Bw0rs0ZsoJfflQtppOG81YMveLmzvtl_DrtHuQZPnm3UW16G3pceNoH2j9FcmpOSbrOGMp2tn0fEVexGleNxR6Kg43S2vn2cEzs8AolG9ZVn-KwfqoXNSYdjT5Oqk18YKewrWHedAZfg7D46aHypyKJd5GkOEhm4yXKqkiNfeJQ6dA-hs8QzaddHfu9jhNU8FEtAF06sGDo2Gjp0lgAbCXXNAUTl7LF6ZSJ7JWbAAICUCqeQysPsov0qZzW2s9m_5NNfD- -sRAw6J0XSyFRdL8uIb9WobkkWUKfsd6HOdsHybMzPD39gAFj_HhHzjvObZot4fPCnw3cZLPvOnHn9jNK1LmqUZO8lFStRV_hgAF3xo2J7W6cmVPkunBDrdUQLnTcGppLTjqNECrvpXfLrhX6JujI4J-049GqzMX1HE3ZLQ2LIGZ4gqgWEW2p26mD_GTCQaQy0YCJB804cHAp1sE-_O1I_MYrd0gLuprwQmJtD5YpETYkhJ_iN_tFV-QvXlMr_J71f7Vpf44cUAo7SBLmzJdIqodmJxS821Lwur7Ey7vjfgi7bd7zh04r8cTScDL9WXHdCwa4PR6PDnDtgmDpHiqG-diUFSlfE-92_XwuAiRBrxhK7XtPMNS5WmwX50uj5IqmLRpSe07OJk2uU76imZ9BZw9-L6rowA8vLssjE-HGRfDUFPHq63rSyb0jekuDIu- -eZellhwvEQ-pddNVFxIjxT-1rJXpao-V0ylRKtMTQxZPwZR2oH_wL5-zAQkLUB1dbZlnaj5cmfBMWvufBcQ5fvGMZK0w5DEA7gPpcCLBhrs_vOSlvGGklYol_m00]--></g></svg>