<?xml version="1.0" encoding="us-ascii" standalone="no"?><svg xmlns="http://www.w3.org/2000/svg" xmlns:xlink="http://www.w3.org/1999/xlink" contentStyleType="text/css" height="357px" preserveAspectRatio="none" style="width:333px;height:357px;background:#FFFFFF;" version="1.1" viewBox="0 0 333 357" width="333px" zoomAndPan="magnify"><defs/><g><!--cluster GameSystem--><g id="cluster_GameSystem"><path d="M8.5,6 L99.5,6 A3.75,3.75 0 0 1 102,8.5 L109,29.6094 L323.5,29.6094 A2.5,2.5 0 0 1 326,32.1094 L326,347.5 A2.5,2.5 0 0 1 323.5,350 L8.5,350 A2.5,2.5 0 0 1 6,347.5 L6,8.5 A2.5,2.5 0 0 1 8.5,6 " fill="none" style="stroke:#000000;stroke-width:1.5;"/><line style="stroke:#000000;stroke-width:1.5;" x1="6" x2="109" y1="29.6094" y2="29.6094"/><text fill="#000000" font-family="sans-serif" font-size="14" font-weight="bold" lengthAdjust="spacing" textLength="90" x="10" y="22.5332">GameSystem</text></g><!--cluster GameModule--><g id="cluster_GameModule"><path d="M32.5,50 L126.5,50 A3.75,3.75 0 0 1 129,52.5 L136,73.6094 L299.5,73.6094 A2.5,2.5 0 0 1 302,76.1094 L302,323.5 A2.5,2.5 0 0 1 299.5,326 L32.5,326 A2.5,2.5 0 0 1 30,323.5 L30,52.5 A2.5,2.5 0 0 1 32.5,50 " fill="none" style="stroke:#000000;stroke-width:1.5;"/><line style="stroke:#000000;stroke-width:1.5;" x1="30" x2="136" y1="73.6094" y2="73.6094"/><text fill="#000000" font-family="sans-serif" font-size="14" font-weight="bold" lengthAdjust="spacing" textLength="93" x="34" y="66.5332">GameModule</text></g><!--class Game--><g id="elem_Game"><rect codeLine="5" fill="#F1F1F1" height="224.0938" id="Game" rx="2.5" ry="2.5" style="stroke:#181818;stroke-width:0.5;" width="240" x="46" y="86"/><ellipse cx="67.3" cy="102" fill="#ADD1B2" rx="11" ry="11" style="stroke:#181818;stroke-width:1.0;"/><path d="M70.0656,97.875 Q70.2219,97.6563 70.4094,97.5469 Q70.5969,97.4375 70.8156,97.4375 Q71.1906,97.4375 71.425,97.7031 Q71.6594,97.9531 71.6594,98.5625 L71.6594,100.0156 Q71.6594,100.625 71.425,100.8906 Q71.1906,101.1563 70.8156,101.1563 Q70.4719,101.1563 70.2688,100.9531 Q70.0656,100.7656 69.9563,100.25 Q69.9094,99.8906 69.7219,99.7031 Q69.3938,99.3281 68.7844,99.1094 Q68.175,98.8906 67.55,98.8906 Q66.7844,98.8906 66.1438,99.2188 Q65.5188,99.5469 65.0188,100.2969 Q64.5344,101.0469 64.5344,102.0781 L64.5344,103.1719 Q64.5344,104.4063 65.425,105.2344 Q66.3156,106.0469 67.9094,106.0469 Q68.8469,106.0469 69.5031,105.7969 Q69.8938,105.6406 70.3156,105.2031 Q70.5813,104.9375 70.7219,104.8594 Q70.8781,104.7813 71.0813,104.7813 Q71.4094,104.7813 71.6594,105.0469 Q71.925,105.2969 71.925,105.6406 Q71.925,105.9844 71.5813,106.3906 Q71.0813,106.9688 70.2844,107.2969 Q69.2063,107.75 67.9094,107.75 Q66.3938,107.75 65.1906,107.125 Q64.2063,106.625 63.5188,105.5625 Q62.8313,104.4844 62.8313,103.2031 L62.8313,102.0469 Q62.8313,100.7188 63.4406,99.5781 Q64.0656,98.4219 65.1594,97.8125 Q66.2531,97.1875 67.4875,97.1875 Q68.2219,97.1875 68.8625,97.3594 Q69.5188,97.5156 70.0656,97.875 Z " fill="#000000"/><text fill="#000000" font-family="sans-serif" font-size="14" lengthAdjust="spacing" textLength="38" x="82.7" y="107.7285">Game</text><rect fill="#FFFFFF" height="17.0938" style="stroke:#181818;stroke-width:1.0;stroke-dasharray:2.0,2.0;" width="154" x="135" y="83"/><text fill="#000000" font-family="sans-serif" font-size="12" font-style="italic" lengthAdjust="spacing" textLength="152" x="136" y="96.457">expands by IEngineContext</text><line style="stroke:#181818;stroke-width:0.5;" x1="47" x2="285" y1="118" y2="118"/><line style="stroke:#181818;stroke-width:0.5;" x1="47" x2="285" y1="126" y2="126"/><ellipse cx="57" cy="140.3047" fill="#84BE84" rx="3" ry="3" style="stroke:#038048;stroke-width:1.0;"/><text fill="#000000" font-family="sans-serif" font-size="14" lengthAdjust="spacing" textLength="52" x="66" y="144.5332">Game();</text><ellipse cx="57" cy="157.9141" fill="#84BE84" rx="3" ry="3" style="stroke:#038048;stroke-width:1.0;"/><text fill="#000000" font-family="sans-serif" font-size="14" lengthAdjust="spacing" textLength="102" x="66" y="162.1426">virtual ~Game();</text><text fill="#000000" font-family="sans-serif" font-size="14" lengthAdjust="spacing" textLength="4" x="66" y="179.752">&#160;</text><ellipse cx="57" cy="193.1328" fill="#84BE84" rx="3" ry="3" style="stroke:#038048;stroke-width:1.0;"/><text fill="#000000" font-family="sans-serif" font-size="14" lengthAdjust="spacing" textLength="153" x="66" y="197.3613">void initMinor() override;</text><ellipse cx="57" cy="210.7422" fill="#84BE84" rx="3" ry="3" style="stroke:#038048;stroke-width:1.0;"/><text fill="#000000" font-family="sans-serif" font-size="14" lengthAdjust="spacing" textLength="153" x="66" y="214.9707">void initMajor() override;</text><ellipse cx="57" cy="228.3516" fill="#84BE84" rx="3" ry="3" style="stroke:#038048;stroke-width:1.0;"/><text fill="#000000" font-family="sans-serif" font-size="14" lengthAdjust="spacing" textLength="214" x="66" y="232.5801">void tick(float deltaTime) override;</text><ellipse cx="57" cy="245.9609" fill="#84BE84" rx="3" ry="3" style="stroke:#038048;stroke-width:1.0;"/><text fill="#000000" font-family="sans-serif" font-size="14" lengthAdjust="spacing" textLength="170" x="66" y="250.1895">void shutdown() override();</text><text fill="#000000" font-family="sans-serif" font-size="14" lengthAdjust="spacing" textLength="4" x="66" y="267.7988">&#160;</text><rect fill="#F24D5C" height="6" style="stroke:#C82930;stroke-width:1.0;" width="6" x="54" y="278.1797"/><text fill="#000000" font-family="sans-serif" font-size="14" lengthAdjust="spacing" textLength="179" x="66" y="285.4082">void startupGameModules();</text><rect fill="#F24D5C" height="6" style="stroke:#C82930;stroke-width:1.0;" width="6" x="54" y="295.7891"/><text fill="#000000" font-family="sans-serif" font-size="14" lengthAdjust="spacing" textLength="197" x="66" y="303.0176">void shutDownGameModules();</text></g><!--SRC=[XP113e9034NtdA9BZE4463TgZ0jMUe7ALAmECuGfA35uTa6Ye4RzYrdql__JJeRn4HE29QQqhfnGwbqyQ9GDZCYgGjDzt9cjOetEtMsOq3b3enniArWjJCA6PjO8dMNwnFjWgt6RyqVXwx3aN0hKS7suRxPb1MnO8ZOszqTWIyfpLXH-u_3mbnEEZ_vEMnHGf0KtdDBlXDiNekp938e_TWqwKh0vAEk_qBsV73mRvqtZ5x3skhU-0G00]--></g></svg>