<?xml version="1.0" encoding="us-ascii" standalone="no"?><svg xmlns="http://www.w3.org/2000/svg" xmlns:xlink="http://www.w3.org/1999/xlink" contentStyleType="text/css" height="978px" preserveAspectRatio="none" style="width:1447px;height:978px;background:#FFFFFF;" version="1.1" viewBox="0 0 1447 978" width="1447px" zoomAndPan="magnify"><defs/><g><!--cluster ECSModule--><g id="cluster_ECSModule"><path d="M8.5,6 L90.5,6 A3.75,3.75 0 0 1 93,8.5 L100,29.6094 L1437.5,29.6094 A2.5,2.5 0 0 1 1440,32.1094 L1440,968.5 A2.5,2.5 0 0 1 1437.5,971 L8.5,971 A2.5,2.5 0 0 1 6,968.5 L6,8.5 A2.5,2.5 0 0 1 8.5,6 " fill="none" style="stroke:#000000;stroke-width:1.5;"/><line style="stroke:#000000;stroke-width:1.5;" x1="6" x2="100" y1="29.6094" y2="29.6094"/><text fill="#000000" font-family="sans-serif" font-size="14" font-weight="bold" lengthAdjust="spacing" textLength="81" x="10" y="22.5332">ECSModule</text></g><!--cluster ECSComponents--><g id="cluster_ECSComponents"><path d="M529.5,109 L647.5,109 A3.75,3.75 0 0 1 650,111.5 L657,132.6094 L1405.5,132.6094 A2.5,2.5 0 0 1 1408,135.1094 L1408,936.5 A2.5,2.5 0 0 1 1405.5,939 L529.5,939 A2.5,2.5 0 0 1 527,936.5 L527,111.5 A2.5,2.5 0 0 1 529.5,109 " fill="none" style="stroke:#000000;stroke-width:1.5;"/><line style="stroke:#000000;stroke-width:1.5;" x1="527" x2="657" y1="132.6094" y2="132.6094"/><text fill="#000000" font-family="sans-serif" font-size="14" font-weight="bold" lengthAdjust="spacing" textLength="117" x="531" y="125.5332">ECSComponents</text></g><!--cluster ECSSystems--><g id="cluster_ECSSystems"><path d="M40.5,503.5 L127.5,503.5 A3.75,3.75 0 0 1 130,506 L137,527.1094 L484.5,527.1094 A2.5,2.5 0 0 1 487,529.6094 L487,883.5 A2.5,2.5 0 0 1 484.5,886 L40.5,886 A2.5,2.5 0 0 1 38,883.5 L38,506 A2.5,2.5 0 0 1 40.5,503.5 " fill="none" style="stroke:#000000;stroke-width:1.5;"/><line style="stroke:#000000;stroke-width:1.5;" x1="38" x2="137" y1="527.1094" y2="527.1094"/><text fill="#000000" font-family="sans-serif" font-size="14" font-weight="bold" lengthAdjust="spacing" textLength="86" x="42" y="520.0332">ECSSystems</text></g><!--class ECSModule--><g id="elem_ECSModule"><rect codeLine="96" fill="#F1F1F1" height="393.2813" id="ECSModule" rx="2.5" ry="2.5" style="stroke:#181818;stroke-width:0.5;" width="304" x="109" y="42"/><ellipse cx="219.75" cy="63.3516" fill="#ADD1B2" rx="11" ry="11" style="stroke:#181818;stroke-width:1.0;"/><path d="M222.5156,59.2266 Q222.6719,59.0078 222.8594,58.8984 Q223.0469,58.7891 223.2656,58.7891 Q223.6406,58.7891 223.875,59.0547 Q224.1094,59.3047 224.1094,59.9141 L224.1094,61.3672 Q224.1094,61.9766 223.875,62.2422 Q223.6406,62.5078 223.2656,62.5078 Q222.9219,62.5078 222.7188,62.3047 Q222.5156,62.1172 222.4063,61.6016 Q222.3594,61.2422 222.1719,61.0547 Q221.8438,60.6797 221.2344,60.4609 Q220.625,60.2422 220,60.2422 Q219.2344,60.2422 218.5938,60.5703 Q217.9688,60.8984 217.4688,61.6484 Q216.9844,62.3984 216.9844,63.4297 L216.9844,64.5234 Q216.9844,65.7578 217.875,66.5859 Q218.7656,67.3984 220.3594,67.3984 Q221.2969,67.3984 221.9531,67.1484 Q222.3438,66.9922 222.7656,66.5547 Q223.0313,66.2891 223.1719,66.2109 Q223.3281,66.1328 223.5313,66.1328 Q223.8594,66.1328 224.1094,66.3984 Q224.375,66.6484 224.375,66.9922 Q224.375,67.3359 224.0313,67.7422 Q223.5313,68.3203 222.7344,68.6484 Q221.6563,69.1016 220.3594,69.1016 Q218.8438,69.1016 217.6406,68.4766 Q216.6563,67.9766 215.9688,66.9141 Q215.2813,65.8359 215.2813,64.5547 L215.2813,63.3984 Q215.2813,62.0703 215.8906,60.9297 Q216.5156,59.7734 217.6094,59.1641 Q218.7031,58.5391 219.9375,58.5391 Q220.6719,58.5391 221.3125,58.7109 Q221.9688,58.8672 222.5156,59.2266 Z " fill="#000000"/><text fill="#000000" font-family="sans-serif" font-size="12" font-style="italic" lengthAdjust="spacing" textLength="71" x="241.75" y="59.457">&#171;singletone&#187;</text><text fill="#000000" font-family="sans-serif" font-size="14" lengthAdjust="spacing" textLength="74" x="240.25" y="76.627">ECSModule</text><line style="stroke:#181818;stroke-width:0.5;" x1="110" x2="412" y1="84.7031" y2="84.7031"/><rect fill="none" height="6" style="stroke:#C82930;stroke-width:1.0;" width="6" x="117" y="96.0078"/><text fill="#000000" font-family="sans-serif" font-size="14" lengthAdjust="spacing" textLength="130" x="129" y="103.2363">flecs::world m_world;</text><rect fill="none" height="6" style="stroke:#C82930;stroke-width:1.0;" width="6" x="117" y="113.6172"/><text fill="#000000" font-family="sans-serif" font-size="14" lengthAdjust="spacing" textLength="173" x="129" y="120.8457">bool m_tickEnabled = false;</text><rect fill="none" height="6" style="stroke:#C82930;stroke-width:1.0;" width="6" x="117" y="131.2266"/><text fill="#000000" font-family="sans-serif" font-size="14" lengthAdjust="spacing" textLength="167" x="129" y="138.4551">string m_currentWorldFile;</text><text fill="#000000" font-family="sans-serif" font-size="14" lengthAdjust="spacing" textLength="4" x="129" y="156.0645">&#160;</text><text fill="#000000" font-family="sans-serif" font-size="14" lengthAdjust="spacing" textLength="4" x="129" y="173.6738">&#160;</text><ellipse cx="120" cy="187.0547" fill="none" rx="3" ry="3" style="stroke:#038048;stroke-width:1.0;"/><text fill="#000000" font-family="sans-serif" font-size="14" lengthAdjust="spacing" textLength="213" x="129" y="191.2832">Event&lt;&gt; OnLoadInitialWorldState;</text><ellipse cx="120" cy="204.6641" fill="none" rx="3" ry="3" style="stroke:#038048;stroke-width:1.0;"/><text fill="#000000" font-family="sans-serif" font-size="14" lengthAdjust="spacing" textLength="217" x="129" y="208.8926">Event&lt;&gt; OnComponentsChanged;</text><line style="stroke:#181818;stroke-width:0.5;" x1="110" x2="412" y1="215.9688" y2="215.9688"/><ellipse cx="120" cy="230.2734" fill="#84BE84" rx="3" ry="3" style="stroke:#038048;stroke-width:1.0;"/><text fill="#000000" font-family="sans-serif" font-size="14" lengthAdjust="spacing" textLength="211" x="129" y="234.502">static ECSModule&amp; getInstance();</text><ellipse cx="120" cy="247.8828" fill="#84BE84" rx="3" ry="3" style="stroke:#038048;stroke-width:1.0;"/><text fill="#000000" font-family="sans-serif" font-size="14" lengthAdjust="spacing" textLength="88" x="129" y="252.1113">void startup();</text><ellipse cx="120" cy="265.4922" fill="#84BE84" rx="3" ry="3" style="stroke:#038048;stroke-width:1.0;"/><text fill="#000000" font-family="sans-serif" font-size="14" lengthAdjust="spacing" textLength="104" x="129" y="269.7207">void shutdown();</text><ellipse cx="120" cy="283.1016" fill="#84BE84" rx="3" ry="3" style="stroke:#038048;stroke-width:1.0;"/><text fill="#000000" font-family="sans-serif" font-size="14" lengthAdjust="spacing" textLength="169" x="129" y="287.3301">void loadInitialWorldState()</text><ellipse cx="120" cy="300.7109" fill="#84BE84" rx="3" ry="3" style="stroke:#038048;stroke-width:1.0;"/><text fill="#000000" font-family="sans-serif" font-size="14" lengthAdjust="spacing" textLength="278" x="129" y="304.9395">void loadWorldFromFile(const string&amp; path);</text><ellipse cx="120" cy="318.3203" fill="#84BE84" rx="3" ry="3" style="stroke:#038048;stroke-width:1.0;"/><text fill="#000000" font-family="sans-serif" font-size="14" lengthAdjust="spacing" textLength="137" x="129" y="322.5488">void startSimulation();</text><ellipse cx="120" cy="335.9297" fill="#84BE84" rx="3" ry="3" style="stroke:#038048;stroke-width:1.0;"/><text fill="#000000" font-family="sans-serif" font-size="14" lengthAdjust="spacing" textLength="136" x="129" y="340.1582">void stopSimulation();</text><text fill="#000000" font-family="sans-serif" font-size="14" lengthAdjust="spacing" textLength="4" x="129" y="357.7676">&#160;</text><ellipse cx="120" cy="371.1484" fill="#84BE84" rx="3" ry="3" style="stroke:#038048;stroke-width:1.0;"/><text fill="#000000" font-family="sans-serif" font-size="14" lengthAdjust="spacing" textLength="163" x="129" y="375.377">bool isimulationEnabled();</text><ellipse cx="120" cy="388.7578" fill="#84BE84" rx="3" ry="3" style="stroke:#038048;stroke-width:1.0;"/><text fill="#000000" font-family="sans-serif" font-size="14" lengthAdjust="spacing" textLength="123" x="129" y="392.9863">bool isWorldValid();</text><rect fill="#F24D5C" height="6" style="stroke:#C82930;stroke-width:1.0;" width="6" x="117" y="403.3672"/><text fill="#000000" font-family="sans-serif" font-size="14" lengthAdjust="spacing" textLength="172" x="129" y="410.5957">void registerComponents();</text><rect fill="#F24D5C" height="6" style="stroke:#C82930;stroke-width:1.0;" width="6" x="117" y="420.9766"/><text fill="#000000" font-family="sans-serif" font-size="14" lengthAdjust="spacing" textLength="158" x="129" y="428.2051">void registerObservers();</text></g><!--class PositionComponent--><g id="elem_PositionComponent"><rect codeLine="5" fill="#F1F1F1" height="136.0469" id="PositionComponent" rx="2.5" ry="2.5" style="stroke:#181818;stroke-width:0.5;" width="259" x="570.5" y="170.5"/><ellipse cx="634.25" cy="186.5" fill="#F1F1F1" rx="11" ry="11" style="stroke:#181818;stroke-width:1.0;"/><path d="M632.3594,191.0625 Q632.1406,191.3281 632,191.4063 Q631.8594,191.4844 631.6719,191.4844 Q631.2813,191.4844 631.0313,191.2188 Q630.7969,190.9531 630.7969,190.3594 L630.7969,189.2031 Q630.7969,188.5938 631.0313,188.3438 Q631.2813,188.0781 631.6719,188.0781 Q631.9688,188.0781 632.1719,188.2344 Q632.375,188.3906 632.4844,188.7656 Q632.5938,189.125 632.7031,189.2656 Q632.9531,189.5156 633.5625,189.7813 Q634.1719,190.0469 634.9063,190.0469 Q636.0469,190.0469 636.7656,189.5156 Q637.2344,189.1875 637.2344,188.7188 Q637.2344,188.4063 637.0156,188.125 Q636.7969,187.8438 636.2813,187.6719 Q635.9531,187.5469 634.7969,187.3281 Q633.4063,187.0625 632.6875,186.7031 Q631.9688,186.3438 631.5469,185.6875 Q631.1406,185.0156 631.1406,184.2344 Q631.1406,183.0156 632.1563,182.1094 Q633.1875,181.1875 634.8281,181.1875 Q635.4844,181.1875 636.0313,181.3281 Q636.5938,181.4688 637.0625,181.7656 Q637.3906,181.4531 637.7188,181.4531 Q638.0938,181.4531 638.3281,181.7188 Q638.5625,181.9688 638.5625,182.5781 L638.5625,183.8594 Q638.5625,184.4688 638.3281,184.7344 Q638.0938,184.9844 637.7188,184.9844 Q637.4063,184.9844 637.1719,184.7969 Q636.9844,184.6563 636.8906,184.2344 Q636.8125,183.8125 636.6719,183.625 Q636.4219,183.3125 635.9375,183.1094 Q635.4688,182.8906 634.8281,182.8906 Q633.9063,182.8906 633.375,183.3125 Q632.8438,183.7344 632.8438,184.2031 Q632.8438,184.5156 633.0625,184.8125 Q633.2813,185.1094 633.7031,185.2813 Q633.9844,185.3906 635.2813,185.6563 Q636.5938,185.9063 637.2969,186.2188 Q638,186.5156 638.4688,187.1719 Q638.9375,187.8281 638.9375,188.7344 Q638.9375,190 638.0469,190.75 Q636.8594,191.75 635.0313,191.75 Q634.3281,191.75 633.6563,191.5781 Q633,191.4063 632.3594,191.0625 Z " fill="#000000"/><text fill="#000000" font-family="sans-serif" font-size="14" lengthAdjust="spacing" textLength="123" x="654.75" y="192.2285">PositionComponent</text><line style="stroke:#181818;stroke-width:0.5;" x1="571.5" x2="828.5" y1="202.5" y2="202.5"/><ellipse cx="581.5" cy="216.8047" fill="none" rx="3" ry="3" style="stroke:#038048;stroke-width:1.0;"/><text fill="#000000" font-family="sans-serif" font-size="14" lengthAdjust="spacing" textLength="41" x="590.5" y="221.0332">float x;</text><ellipse cx="581.5" cy="234.4141" fill="none" rx="3" ry="3" style="stroke:#038048;stroke-width:1.0;"/><text fill="#000000" font-family="sans-serif" font-size="14" lengthAdjust="spacing" textLength="42" x="590.5" y="238.6426">float y;</text><ellipse cx="581.5" cy="252.0234" fill="none" rx="3" ry="3" style="stroke:#038048;stroke-width:1.0;"/><text fill="#000000" font-family="sans-serif" font-size="14" lengthAdjust="spacing" textLength="41" x="590.5" y="256.252">float z;</text><line style="stroke:#181818;stroke-width:0.5;" x1="571.5" x2="828.5" y1="263.3281" y2="263.3281"/><ellipse cx="581.5" cy="277.6328" fill="#84BE84" rx="3" ry="3" style="stroke:#038048;stroke-width:1.0;"/><text fill="#000000" font-family="sans-serif" font-size="14" lengthAdjust="spacing" textLength="152" x="590.5" y="281.8613">vec3 toGLMVec() const;</text><ellipse cx="581.5" cy="295.2422" fill="#84BE84" rx="3" ry="3" style="stroke:#038048;stroke-width:1.0;"/><text fill="#000000" font-family="sans-serif" font-size="14" lengthAdjust="spacing" textLength="233" x="590.5" y="299.4707">void fromGLVec(const glm::vec3&amp; v);</text></g><!--class Rotation--><g id="elem_Rotation"><rect codeLine="15" fill="#F1F1F1" height="171.2656" id="Rotation" rx="2.5" ry="2.5" style="stroke:#181818;stroke-width:0.5;" width="244" x="865" y="153"/><ellipse cx="956.25" cy="169" fill="#F1F1F1" rx="11" ry="11" style="stroke:#181818;stroke-width:1.0;"/><path d="M954.3594,173.5625 Q954.1406,173.8281 954,173.9063 Q953.8594,173.9844 953.6719,173.9844 Q953.2813,173.9844 953.0313,173.7188 Q952.7969,173.4531 952.7969,172.8594 L952.7969,171.7031 Q952.7969,171.0938 953.0313,170.8438 Q953.2813,170.5781 953.6719,170.5781 Q953.9688,170.5781 954.1719,170.7344 Q954.375,170.8906 954.4844,171.2656 Q954.5938,171.625 954.7031,171.7656 Q954.9531,172.0156 955.5625,172.2813 Q956.1719,172.5469 956.9063,172.5469 Q958.0469,172.5469 958.7656,172.0156 Q959.2344,171.6875 959.2344,171.2188 Q959.2344,170.9063 959.0156,170.625 Q958.7969,170.3438 958.2813,170.1719 Q957.9531,170.0469 956.7969,169.8281 Q955.4063,169.5625 954.6875,169.2031 Q953.9688,168.8438 953.5469,168.1875 Q953.1406,167.5156 953.1406,166.7344 Q953.1406,165.5156 954.1563,164.6094 Q955.1875,163.6875 956.8281,163.6875 Q957.4844,163.6875 958.0313,163.8281 Q958.5938,163.9688 959.0625,164.2656 Q959.3906,163.9531 959.7188,163.9531 Q960.0938,163.9531 960.3281,164.2188 Q960.5625,164.4688 960.5625,165.0781 L960.5625,166.3594 Q960.5625,166.9688 960.3281,167.2344 Q960.0938,167.4844 959.7188,167.4844 Q959.4063,167.4844 959.1719,167.2969 Q958.9844,167.1563 958.8906,166.7344 Q958.8125,166.3125 958.6719,166.125 Q958.4219,165.8125 957.9375,165.6094 Q957.4688,165.3906 956.8281,165.3906 Q955.9063,165.3906 955.375,165.8125 Q954.8438,166.2344 954.8438,166.7031 Q954.8438,167.0156 955.0625,167.3125 Q955.2813,167.6094 955.7031,167.7813 Q955.9844,167.8906 957.2813,168.1563 Q958.5938,168.4063 959.2969,168.7188 Q960,169.0156 960.4688,169.6719 Q960.9375,170.3281 960.9375,171.2344 Q960.9375,172.5 960.0469,173.25 Q958.8594,174.25 957.0313,174.25 Q956.3281,174.25 955.6563,174.0781 Q955,173.9063 954.3594,173.5625 Z " fill="#000000"/><text fill="#000000" font-family="sans-serif" font-size="14" lengthAdjust="spacing" textLength="53" x="976.75" y="174.7285">Rotation</text><line style="stroke:#181818;stroke-width:0.5;" x1="866" x2="1108" y1="185" y2="185"/><ellipse cx="876" cy="199.3047" fill="none" rx="3" ry="3" style="stroke:#038048;stroke-width:1.0;"/><text fill="#000000" font-family="sans-serif" font-size="14" lengthAdjust="spacing" textLength="41" x="885" y="203.5332">float x;</text><ellipse cx="876" cy="216.9141" fill="none" rx="3" ry="3" style="stroke:#038048;stroke-width:1.0;"/><text fill="#000000" font-family="sans-serif" font-size="14" lengthAdjust="spacing" textLength="42" x="885" y="221.1426">float y;</text><ellipse cx="876" cy="234.5234" fill="none" rx="3" ry="3" style="stroke:#038048;stroke-width:1.0;"/><text fill="#000000" font-family="sans-serif" font-size="14" lengthAdjust="spacing" textLength="41" x="885" y="238.752">float z;</text><line style="stroke:#181818;stroke-width:0.5;" x1="866" x2="1108" y1="245.8281" y2="245.8281"/><ellipse cx="876" cy="260.1328" fill="#84BE84" rx="3" ry="3" style="stroke:#038048;stroke-width:1.0;"/><text fill="#000000" font-family="sans-serif" font-size="14" lengthAdjust="spacing" textLength="127" x="885" y="264.3613">quat toQuat() const;</text><ellipse cx="876" cy="277.7422" fill="#84BE84" rx="3" ry="3" style="stroke:#038048;stroke-width:1.0;"/><text fill="#000000" font-family="sans-serif" font-size="14" lengthAdjust="spacing" textLength="131" x="885" y="281.9707">vec3 toEuler() const;</text><ellipse cx="876" cy="295.3516" fill="#84BE84" rx="3" ry="3" style="stroke:#038048;stroke-width:1.0;"/><text fill="#000000" font-family="sans-serif" font-size="14" lengthAdjust="spacing" textLength="190" x="885" y="299.5801">void fromQuat(const quat&amp; q);</text><ellipse cx="876" cy="312.9609" fill="#84BE84" rx="3" ry="3" style="stroke:#038048;stroke-width:1.0;"/><text fill="#000000" font-family="sans-serif" font-size="14" lengthAdjust="spacing" textLength="218" x="885" y="317.1895">void fromEuler(const vec3&amp; euler);</text></g><!--class ScaleComponent--><g id="elem_ScaleComponent"><rect codeLine="27" fill="#F1F1F1" height="136.0469" id="ScaleComponent" rx="2.5" ry="2.5" style="stroke:#181818;stroke-width:0.5;" width="240" x="1144" y="170.5"/><ellipse cx="1205.75" cy="186.5" fill="#F1F1F1" rx="11" ry="11" style="stroke:#181818;stroke-width:1.0;"/><path d="M1203.8594,191.0625 Q1203.6406,191.3281 1203.5,191.4063 Q1203.3594,191.4844 1203.1719,191.4844 Q1202.7813,191.4844 1202.5313,191.2188 Q1202.2969,190.9531 1202.2969,190.3594 L1202.2969,189.2031 Q1202.2969,188.5938 1202.5313,188.3438 Q1202.7813,188.0781 1203.1719,188.0781 Q1203.4688,188.0781 1203.6719,188.2344 Q1203.875,188.3906 1203.9844,188.7656 Q1204.0938,189.125 1204.2031,189.2656 Q1204.4531,189.5156 1205.0625,189.7813 Q1205.6719,190.0469 1206.4063,190.0469 Q1207.5469,190.0469 1208.2656,189.5156 Q1208.7344,189.1875 1208.7344,188.7188 Q1208.7344,188.4063 1208.5156,188.125 Q1208.2969,187.8438 1207.7813,187.6719 Q1207.4531,187.5469 1206.2969,187.3281 Q1204.9063,187.0625 1204.1875,186.7031 Q1203.4688,186.3438 1203.0469,185.6875 Q1202.6406,185.0156 1202.6406,184.2344 Q1202.6406,183.0156 1203.6563,182.1094 Q1204.6875,181.1875 1206.3281,181.1875 Q1206.9844,181.1875 1207.5313,181.3281 Q1208.0938,181.4688 1208.5625,181.7656 Q1208.8906,181.4531 1209.2188,181.4531 Q1209.5938,181.4531 1209.8281,181.7188 Q1210.0625,181.9688 1210.0625,182.5781 L1210.0625,183.8594 Q1210.0625,184.4688 1209.8281,184.7344 Q1209.5938,184.9844 1209.2188,184.9844 Q1208.9063,184.9844 1208.6719,184.7969 Q1208.4844,184.6563 1208.3906,184.2344 Q1208.3125,183.8125 1208.1719,183.625 Q1207.9219,183.3125 1207.4375,183.1094 Q1206.9688,182.8906 1206.3281,182.8906 Q1205.4063,182.8906 1204.875,183.3125 Q1204.3438,183.7344 1204.3438,184.2031 Q1204.3438,184.5156 1204.5625,184.8125 Q1204.7813,185.1094 1205.2031,185.2813 Q1205.4844,185.3906 1206.7813,185.6563 Q1208.0938,185.9063 1208.7969,186.2188 Q1209.5,186.5156 1209.9688,187.1719 Q1210.4375,187.8281 1210.4375,188.7344 Q1210.4375,190 1209.5469,190.75 Q1208.3594,191.75 1206.5313,191.75 Q1205.8281,191.75 1205.1563,191.5781 Q1204.5,191.4063 1203.8594,191.0625 Z " fill="#000000"/><text fill="#000000" font-family="sans-serif" font-size="14" lengthAdjust="spacing" textLength="108" x="1226.25" y="192.2285">ScaleComponent</text><line style="stroke:#181818;stroke-width:0.5;" x1="1145" x2="1383" y1="202.5" y2="202.5"/><ellipse cx="1155" cy="216.8047" fill="none" rx="3" ry="3" style="stroke:#038048;stroke-width:1.0;"/><text fill="#000000" font-family="sans-serif" font-size="14" lengthAdjust="spacing" textLength="41" x="1164" y="221.0332">float x;</text><ellipse cx="1155" cy="234.4141" fill="none" rx="3" ry="3" style="stroke:#038048;stroke-width:1.0;"/><text fill="#000000" font-family="sans-serif" font-size="14" lengthAdjust="spacing" textLength="42" x="1164" y="238.6426">float y;</text><ellipse cx="1155" cy="252.0234" fill="none" rx="3" ry="3" style="stroke:#038048;stroke-width:1.0;"/><text fill="#000000" font-family="sans-serif" font-size="14" lengthAdjust="spacing" textLength="41" x="1164" y="256.252">float z;</text><line style="stroke:#181818;stroke-width:0.5;" x1="1145" x2="1383" y1="263.3281" y2="263.3281"/><ellipse cx="1155" cy="277.6328" fill="#84BE84" rx="3" ry="3" style="stroke:#038048;stroke-width:1.0;"/><text fill="#000000" font-family="sans-serif" font-size="14" lengthAdjust="spacing" textLength="152" x="1164" y="281.8613">vec3 toGLMVec() const;</text><ellipse cx="1155" cy="295.2422" fill="#84BE84" rx="3" ry="3" style="stroke:#038048;stroke-width:1.0;"/><text fill="#000000" font-family="sans-serif" font-size="14" lengthAdjust="spacing" textLength="214" x="1164" y="299.4707">void fromGLMVec(const vec3&amp; v);</text></g><!--class CameraComponent--><g id="elem_CameraComponent"><rect codeLine="37" fill="#F1F1F1" height="136.0469" id="CameraComponent" rx="2.5" ry="2.5" style="stroke:#181818;stroke-width:0.5;" width="175" x="597.5" y="530"/><ellipse cx="621.5" cy="546" fill="#F1F1F1" rx="11" ry="11" style="stroke:#181818;stroke-width:1.0;"/><path d="M619.6094,550.5625 Q619.3906,550.8281 619.25,550.9063 Q619.1094,550.9844 618.9219,550.9844 Q618.5313,550.9844 618.2813,550.7188 Q618.0469,550.4531 618.0469,549.8594 L618.0469,548.7031 Q618.0469,548.0938 618.2813,547.8438 Q618.5313,547.5781 618.9219,547.5781 Q619.2188,547.5781 619.4219,547.7344 Q619.625,547.8906 619.7344,548.2656 Q619.8438,548.625 619.9531,548.7656 Q620.2031,549.0156 620.8125,549.2813 Q621.4219,549.5469 622.1563,549.5469 Q623.2969,549.5469 624.0156,549.0156 Q624.4844,548.6875 624.4844,548.2188 Q624.4844,547.9063 624.2656,547.625 Q624.0469,547.3438 623.5313,547.1719 Q623.2031,547.0469 622.0469,546.8281 Q620.6563,546.5625 619.9375,546.2031 Q619.2188,545.8438 618.7969,545.1875 Q618.3906,544.5156 618.3906,543.7344 Q618.3906,542.5156 619.4063,541.6094 Q620.4375,540.6875 622.0781,540.6875 Q622.7344,540.6875 623.2813,540.8281 Q623.8438,540.9688 624.3125,541.2656 Q624.6406,540.9531 624.9688,540.9531 Q625.3438,540.9531 625.5781,541.2188 Q625.8125,541.4688 625.8125,542.0781 L625.8125,543.3594 Q625.8125,543.9688 625.5781,544.2344 Q625.3438,544.4844 624.9688,544.4844 Q624.6563,544.4844 624.4219,544.2969 Q624.2344,544.1563 624.1406,543.7344 Q624.0625,543.3125 623.9219,543.125 Q623.6719,542.8125 623.1875,542.6094 Q622.7188,542.3906 622.0781,542.3906 Q621.1563,542.3906 620.625,542.8125 Q620.0938,543.2344 620.0938,543.7031 Q620.0938,544.0156 620.3125,544.3125 Q620.5313,544.6094 620.9531,544.7813 Q621.2344,544.8906 622.5313,545.1563 Q623.8438,545.4063 624.5469,545.7188 Q625.25,546.0156 625.7188,546.6719 Q626.1875,547.3281 626.1875,548.2344 Q626.1875,549.5 625.2969,550.25 Q624.1094,551.25 622.2813,551.25 Q621.5781,551.25 620.9063,551.0781 Q620.25,550.9063 619.6094,550.5625 Z " fill="#000000"/><text fill="#000000" font-family="sans-serif" font-size="14" lengthAdjust="spacing" textLength="123" x="637.5" y="551.7285">CameraComponent</text><line style="stroke:#181818;stroke-width:0.5;" x1="598.5" x2="771.5" y1="562" y2="562"/><ellipse cx="608.5" cy="576.3047" fill="none" rx="3" ry="3" style="stroke:#038048;stroke-width:1.0;"/><text fill="#000000" font-family="sans-serif" font-size="14" lengthAdjust="spacing" textLength="54" x="617.5" y="580.5332">float fov;</text><ellipse cx="608.5" cy="593.9141" fill="none" rx="3" ry="3" style="stroke:#038048;stroke-width:1.0;"/><text fill="#000000" font-family="sans-serif" font-size="14" lengthAdjust="spacing" textLength="77" x="617.5" y="598.1426">float aspect;</text><ellipse cx="608.5" cy="611.5234" fill="none" rx="3" ry="3" style="stroke:#038048;stroke-width:1.0;"/><text fill="#000000" font-family="sans-serif" font-size="14" lengthAdjust="spacing" textLength="88" x="617.5" y="615.752">float nearClip;</text><ellipse cx="608.5" cy="629.1328" fill="none" rx="3" ry="3" style="stroke:#038048;stroke-width:1.0;"/><text fill="#000000" font-family="sans-serif" font-size="14" lengthAdjust="spacing" textLength="76" x="617.5" y="633.3613">float farClip;</text><ellipse cx="608.5" cy="646.7422" fill="none" rx="3" ry="3" style="stroke:#038048;stroke-width:1.0;"/><text fill="#000000" font-family="sans-serif" font-size="14" lengthAdjust="spacing" textLength="149" x="617.5" y="650.9707">bool isViewportCamera;</text><line style="stroke:#181818;stroke-width:0.5;" x1="598.5" x2="771.5" y1="658.0469" y2="658.0469"/></g><!--class MeshComponent--><g id="elem_MeshComponent"><rect codeLine="46" fill="#F1F1F1" height="206.4844" id="MeshComponent" rx="2.5" ry="2.5" style="stroke:#181818;stroke-width:0.5;" width="373" x="807.5" y="495"/><ellipse cx="936.25" cy="511" fill="#F1F1F1" rx="11" ry="11" style="stroke:#181818;stroke-width:1.0;"/><path d="M934.3594,515.5625 Q934.1406,515.8281 934,515.9063 Q933.8594,515.9844 933.6719,515.9844 Q933.2813,515.9844 933.0313,515.7188 Q932.7969,515.4531 932.7969,514.8594 L932.7969,513.7031 Q932.7969,513.0938 933.0313,512.8438 Q933.2813,512.5781 933.6719,512.5781 Q933.9688,512.5781 934.1719,512.7344 Q934.375,512.8906 934.4844,513.2656 Q934.5938,513.625 934.7031,513.7656 Q934.9531,514.0156 935.5625,514.2813 Q936.1719,514.5469 936.9063,514.5469 Q938.0469,514.5469 938.7656,514.0156 Q939.2344,513.6875 939.2344,513.2188 Q939.2344,512.9063 939.0156,512.625 Q938.7969,512.3438 938.2813,512.1719 Q937.9531,512.0469 936.7969,511.8281 Q935.4063,511.5625 934.6875,511.2031 Q933.9688,510.8438 933.5469,510.1875 Q933.1406,509.5156 933.1406,508.7344 Q933.1406,507.5156 934.1563,506.6094 Q935.1875,505.6875 936.8281,505.6875 Q937.4844,505.6875 938.0313,505.8281 Q938.5938,505.9688 939.0625,506.2656 Q939.3906,505.9531 939.7188,505.9531 Q940.0938,505.9531 940.3281,506.2188 Q940.5625,506.4688 940.5625,507.0781 L940.5625,508.3594 Q940.5625,508.9688 940.3281,509.2344 Q940.0938,509.4844 939.7188,509.4844 Q939.4063,509.4844 939.1719,509.2969 Q938.9844,509.1563 938.8906,508.7344 Q938.8125,508.3125 938.6719,508.125 Q938.4219,507.8125 937.9375,507.6094 Q937.4688,507.3906 936.8281,507.3906 Q935.9063,507.3906 935.375,507.8125 Q934.8438,508.2344 934.8438,508.7031 Q934.8438,509.0156 935.0625,509.3125 Q935.2813,509.6094 935.7031,509.7813 Q935.9844,509.8906 937.2813,510.1563 Q938.5938,510.4063 939.2969,510.7188 Q940,511.0156 940.4688,511.6719 Q940.9375,512.3281 940.9375,513.2344 Q940.9375,514.5 940.0469,515.25 Q938.8594,516.25 937.0313,516.25 Q936.3281,516.25 935.6563,516.0781 Q935,515.9063 934.3594,515.5625 Z " fill="#000000"/><text fill="#000000" font-family="sans-serif" font-size="14" lengthAdjust="spacing" textLength="107" x="956.75" y="516.7285">MeshComponent</text><line style="stroke:#181818;stroke-width:0.5;" x1="808.5" x2="1179.5" y1="527" y2="527"/><ellipse cx="818.5" cy="541.3047" fill="none" rx="3" ry="3" style="stroke:#038048;stroke-width:1.0;"/><text fill="#000000" font-family="sans-serif" font-size="14" lengthAdjust="spacing" textLength="192" x="827.5" y="545.5332">char meshResourcePath[256];</text><ellipse cx="818.5" cy="558.9141" fill="none" rx="3" ry="3" style="stroke:#038048;stroke-width:1.0;"/><text fill="#000000" font-family="sans-serif" font-size="14" lengthAdjust="spacing" textLength="167" x="827.5" y="563.1426">char vertShaderPath[256];</text><ellipse cx="818.5" cy="576.5234" fill="none" rx="3" ry="3" style="stroke:#038048;stroke-width:1.0;"/><text fill="#000000" font-family="sans-serif" font-size="14" lengthAdjust="spacing" textLength="168" x="827.5" y="580.752">char fragShaderPath[256];</text><ellipse cx="818.5" cy="594.1328" fill="none" rx="3" ry="3" style="stroke:#038048;stroke-width:1.0;"/><text fill="#000000" font-family="sans-serif" font-size="14" lengthAdjust="spacing" textLength="140" x="827.5" y="598.3613">char texturePath[256];</text><text fill="#000000" font-family="sans-serif" font-size="14" lengthAdjust="spacing" textLength="4" x="827.5" y="615.9707">&#160;</text><ellipse cx="818.5" cy="629.3516" fill="none" rx="3" ry="3" style="stroke:#038048;stroke-width:1.0;"/><text fill="#000000" font-family="sans-serif" font-size="14" lengthAdjust="spacing" textLength="298" x="827.5" y="633.5801">optional&lt;shared_ptr&lt;RMesh&gt;&gt; meshResource;</text><ellipse cx="818.5" cy="646.9609" fill="none" rx="3" ry="3" style="stroke:#038048;stroke-width:1.0;"/><text fill="#000000" font-family="sans-serif" font-size="14" lengthAdjust="spacing" textLength="346" x="827.5" y="651.1895">optional&lt;shared_ptr&lt;RShader&gt;&gt; vertShaderResource;</text><ellipse cx="818.5" cy="664.5703" fill="none" rx="3" ry="3" style="stroke:#038048;stroke-width:1.0;"/><text fill="#000000" font-family="sans-serif" font-size="14" lengthAdjust="spacing" textLength="347" x="827.5" y="668.7988">optional&lt;shared_ptr&lt;RShader&gt; fragSXhaderResource;</text><ellipse cx="818.5" cy="682.1797" fill="none" rx="3" ry="3" style="stroke:#038048;stroke-width:1.0;"/><text fill="#000000" font-family="sans-serif" font-size="14" lengthAdjust="spacing" textLength="321" x="827.5" y="686.4082">optional&lt;shared_ptr&lt;RTexture&gt;&gt; textureResource;</text><line style="stroke:#181818;stroke-width:0.5;" x1="808.5" x2="1179.5" y1="693.4844" y2="693.4844"/></g><!--class PointLightComponent--><g id="elem_PointLightComponent"><rect codeLine="59" fill="#F1F1F1" height="83.2188" id="PointLightComponent" rx="2.5" ry="2.5" style="stroke:#181818;stroke-width:0.5;" width="168" x="1216" y="556.5"/><ellipse cx="1231" cy="572.5" fill="#F1F1F1" rx="11" ry="11" style="stroke:#181818;stroke-width:1.0;"/><path d="M1229.1094,577.0625 Q1228.8906,577.3281 1228.75,577.4063 Q1228.6094,577.4844 1228.4219,577.4844 Q1228.0313,577.4844 1227.7813,577.2188 Q1227.5469,576.9531 1227.5469,576.3594 L1227.5469,575.2031 Q1227.5469,574.5938 1227.7813,574.3438 Q1228.0313,574.0781 1228.4219,574.0781 Q1228.7188,574.0781 1228.9219,574.2344 Q1229.125,574.3906 1229.2344,574.7656 Q1229.3438,575.125 1229.4531,575.2656 Q1229.7031,575.5156 1230.3125,575.7813 Q1230.9219,576.0469 1231.6563,576.0469 Q1232.7969,576.0469 1233.5156,575.5156 Q1233.9844,575.1875 1233.9844,574.7188 Q1233.9844,574.4063 1233.7656,574.125 Q1233.5469,573.8438 1233.0313,573.6719 Q1232.7031,573.5469 1231.5469,573.3281 Q1230.1563,573.0625 1229.4375,572.7031 Q1228.7188,572.3438 1228.2969,571.6875 Q1227.8906,571.0156 1227.8906,570.2344 Q1227.8906,569.0156 1228.9063,568.1094 Q1229.9375,567.1875 1231.5781,567.1875 Q1232.2344,567.1875 1232.7813,567.3281 Q1233.3438,567.4688 1233.8125,567.7656 Q1234.1406,567.4531 1234.4688,567.4531 Q1234.8438,567.4531 1235.0781,567.7188 Q1235.3125,567.9688 1235.3125,568.5781 L1235.3125,569.8594 Q1235.3125,570.4688 1235.0781,570.7344 Q1234.8438,570.9844 1234.4688,570.9844 Q1234.1563,570.9844 1233.9219,570.7969 Q1233.7344,570.6563 1233.6406,570.2344 Q1233.5625,569.8125 1233.4219,569.625 Q1233.1719,569.3125 1232.6875,569.1094 Q1232.2188,568.8906 1231.5781,568.8906 Q1230.6563,568.8906 1230.125,569.3125 Q1229.5938,569.7344 1229.5938,570.2031 Q1229.5938,570.5156 1229.8125,570.8125 Q1230.0313,571.1094 1230.4531,571.2813 Q1230.7344,571.3906 1232.0313,571.6563 Q1233.3438,571.9063 1234.0469,572.2188 Q1234.75,572.5156 1235.2188,573.1719 Q1235.6875,573.8281 1235.6875,574.7344 Q1235.6875,576 1234.7969,576.75 Q1233.6094,577.75 1231.7813,577.75 Q1231.0781,577.75 1230.4063,577.5781 Q1229.75,577.4063 1229.1094,577.0625 Z " fill="#000000"/><text fill="#000000" font-family="sans-serif" font-size="14" lengthAdjust="spacing" textLength="136" x="1245" y="578.2285">PointLightComponent</text><line style="stroke:#181818;stroke-width:0.5;" x1="1217" x2="1383" y1="588.5" y2="588.5"/><ellipse cx="1227" cy="602.8047" fill="none" rx="3" ry="3" style="stroke:#038048;stroke-width:1.0;"/><text fill="#000000" font-family="sans-serif" font-size="14" lengthAdjust="spacing" textLength="74" x="1236" y="607.0332">float radius;</text><ellipse cx="1227" cy="620.4141" fill="none" rx="3" ry="3" style="stroke:#038048;stroke-width:1.0;"/><text fill="#000000" font-family="sans-serif" font-size="14" lengthAdjust="spacing" textLength="87" x="1236" y="624.6426">float intencity;</text><line style="stroke:#181818;stroke-width:0.5;" x1="1217" x2="1383" y1="631.7188" y2="631.7188"/></g><!--class DirectionalLightComponent--><g id="elem_DirectionalLightComponent"><rect codeLine="65" fill="#F1F1F1" height="65.6094" id="DirectionalLightComponent" rx="2.5" ry="2.5" style="stroke:#181818;stroke-width:0.5;" width="203" x="583.5" y="805"/><ellipse cx="598.5" cy="821" fill="#F1F1F1" rx="11" ry="11" style="stroke:#181818;stroke-width:1.0;"/><path d="M596.6094,825.5625 Q596.3906,825.8281 596.25,825.9063 Q596.1094,825.9844 595.9219,825.9844 Q595.5313,825.9844 595.2813,825.7188 Q595.0469,825.4531 595.0469,824.8594 L595.0469,823.7031 Q595.0469,823.0938 595.2813,822.8438 Q595.5313,822.5781 595.9219,822.5781 Q596.2188,822.5781 596.4219,822.7344 Q596.625,822.8906 596.7344,823.2656 Q596.8438,823.625 596.9531,823.7656 Q597.2031,824.0156 597.8125,824.2813 Q598.4219,824.5469 599.1563,824.5469 Q600.2969,824.5469 601.0156,824.0156 Q601.4844,823.6875 601.4844,823.2188 Q601.4844,822.9063 601.2656,822.625 Q601.0469,822.3438 600.5313,822.1719 Q600.2031,822.0469 599.0469,821.8281 Q597.6563,821.5625 596.9375,821.2031 Q596.2188,820.8438 595.7969,820.1875 Q595.3906,819.5156 595.3906,818.7344 Q595.3906,817.5156 596.4063,816.6094 Q597.4375,815.6875 599.0781,815.6875 Q599.7344,815.6875 600.2813,815.8281 Q600.8438,815.9688 601.3125,816.2656 Q601.6406,815.9531 601.9688,815.9531 Q602.3438,815.9531 602.5781,816.2188 Q602.8125,816.4688 602.8125,817.0781 L602.8125,818.3594 Q602.8125,818.9688 602.5781,819.2344 Q602.3438,819.4844 601.9688,819.4844 Q601.6563,819.4844 601.4219,819.2969 Q601.2344,819.1563 601.1406,818.7344 Q601.0625,818.3125 600.9219,818.125 Q600.6719,817.8125 600.1875,817.6094 Q599.7188,817.3906 599.0781,817.3906 Q598.1563,817.3906 597.625,817.8125 Q597.0938,818.2344 597.0938,818.7031 Q597.0938,819.0156 597.3125,819.3125 Q597.5313,819.6094 597.9531,819.7813 Q598.2344,819.8906 599.5313,820.1563 Q600.8438,820.4063 601.5469,820.7188 Q602.25,821.0156 602.7188,821.6719 Q603.1875,822.3281 603.1875,823.2344 Q603.1875,824.5 602.2969,825.25 Q601.1094,826.25 599.2813,826.25 Q598.5781,826.25 597.9063,826.0781 Q597.25,825.9063 596.6094,825.5625 Z " fill="#000000"/><text fill="#000000" font-family="sans-serif" font-size="14" lengthAdjust="spacing" textLength="171" x="612.5" y="826.7285">DirectionalLightComponent</text><line style="stroke:#181818;stroke-width:0.5;" x1="584.5" x2="785.5" y1="837" y2="837"/><ellipse cx="594.5" cy="851.3047" fill="none" rx="3" ry="3" style="stroke:#038048;stroke-width:1.0;"/><text fill="#000000" font-family="sans-serif" font-size="14" lengthAdjust="spacing" textLength="87" x="603.5" y="855.5332">float intencity;</text><line style="stroke:#181818;stroke-width:0.5;" x1="584.5" x2="785.5" y1="862.6094" y2="862.6094"/></g><!--class Script--><g id="elem_Script"><rect codeLine="70" fill="#F1F1F1" height="153.6563" id="Script" rx="2.5" ry="2.5" style="stroke:#181818;stroke-width:0.5;" width="193" x="821.5" y="761"/><ellipse cx="895.75" cy="777" fill="#F1F1F1" rx="11" ry="11" style="stroke:#181818;stroke-width:1.0;"/><path d="M893.8594,781.5625 Q893.6406,781.8281 893.5,781.9063 Q893.3594,781.9844 893.1719,781.9844 Q892.7813,781.9844 892.5313,781.7188 Q892.2969,781.4531 892.2969,780.8594 L892.2969,779.7031 Q892.2969,779.0938 892.5313,778.8438 Q892.7813,778.5781 893.1719,778.5781 Q893.4688,778.5781 893.6719,778.7344 Q893.875,778.8906 893.9844,779.2656 Q894.0938,779.625 894.2031,779.7656 Q894.4531,780.0156 895.0625,780.2813 Q895.6719,780.5469 896.4063,780.5469 Q897.5469,780.5469 898.2656,780.0156 Q898.7344,779.6875 898.7344,779.2188 Q898.7344,778.9063 898.5156,778.625 Q898.2969,778.3438 897.7813,778.1719 Q897.4531,778.0469 896.2969,777.8281 Q894.9063,777.5625 894.1875,777.2031 Q893.4688,776.8438 893.0469,776.1875 Q892.6406,775.5156 892.6406,774.7344 Q892.6406,773.5156 893.6563,772.6094 Q894.6875,771.6875 896.3281,771.6875 Q896.9844,771.6875 897.5313,771.8281 Q898.0938,771.9688 898.5625,772.2656 Q898.8906,771.9531 899.2188,771.9531 Q899.5938,771.9531 899.8281,772.2188 Q900.0625,772.4688 900.0625,773.0781 L900.0625,774.3594 Q900.0625,774.9688 899.8281,775.2344 Q899.5938,775.4844 899.2188,775.4844 Q898.9063,775.4844 898.6719,775.2969 Q898.4844,775.1563 898.3906,774.7344 Q898.3125,774.3125 898.1719,774.125 Q897.9219,773.8125 897.4375,773.6094 Q896.9688,773.3906 896.3281,773.3906 Q895.4063,773.3906 894.875,773.8125 Q894.3438,774.2344 894.3438,774.7031 Q894.3438,775.0156 894.5625,775.3125 Q894.7813,775.6094 895.2031,775.7813 Q895.4844,775.8906 896.7813,776.1563 Q898.0938,776.4063 898.7969,776.7188 Q899.5,777.0156 899.9688,777.6719 Q900.4375,778.3281 900.4375,779.2344 Q900.4375,780.5 899.5469,781.25 Q898.3594,782.25 896.5313,782.25 Q895.8281,782.25 895.1563,782.0781 Q894.5,781.9063 893.8594,781.5625 Z " fill="#000000"/><text fill="#000000" font-family="sans-serif" font-size="14" lengthAdjust="spacing" textLength="36" x="916.25" y="782.7285">Script</text><line style="stroke:#181818;stroke-width:0.5;" x1="822.5" x2="1013.5" y1="793" y2="793"/><text fill="#000000" font-family="sans-serif" font-size="14" lengthAdjust="spacing" textLength="103" x="827.5" y="811.5332">string striptPath;</text><text fill="#000000" font-family="sans-serif" font-size="14" lengthAdjust="spacing" textLength="175" x="827.5" y="829.1426">optional&lt;table&gt; scriptTable;</text><line style="stroke:#181818;stroke-width:0.5;" x1="822.5" x2="1013.5" y1="836.2188" y2="836.2188"/><text fill="#000000" font-family="sans-serif" font-size="14" lengthAdjust="spacing" textLength="93" x="827.5" y="854.752">void initialize();</text><text fill="#000000" font-family="sans-serif" font-size="14" lengthAdjust="spacing" textLength="72" x="827.5" y="872.3613">void start();</text><text fill="#000000" font-family="sans-serif" font-size="14" lengthAdjust="spacing" textLength="181" x="827.5" y="889.9707">void update(float deltaTime);</text><text fill="#000000" font-family="sans-serif" font-size="14" lengthAdjust="spacing" textLength="68" x="827.5" y="907.5801">void end();</text></g><!--class IECSSystem--><g id="elem_IECSSystem"><rect codeLine="84" fill="#F1F1F1" height="100.8281" id="IECSSystem" rx="2.5" ry="2.5" style="stroke:#181818;stroke-width:0.5;" width="346" x="99" y="547.5"/><ellipse cx="228.75" cy="563.5" fill="#A9DCDF" rx="11" ry="11" style="stroke:#181818;stroke-width:1.0;"/><path d="M230.9375,565.2656 L226.7969,565.2656 L226.375,566.2969 L226.7969,566.2969 Q227.4063,566.2969 227.6719,566.5313 Q227.9375,566.7656 227.9375,567.1563 Q227.9375,567.5313 227.6719,567.7656 Q227.4063,568 226.7969,568 L224.5,568 Q223.8906,568 223.6406,567.7656 Q223.375,567.5313 223.375,567.1406 Q223.375,566.7656 223.6563,566.5313 Q223.9219,566.2813 224.5469,566.2969 L227.2188,559.6406 L226.1094,559.6406 Q225.5,559.6406 225.2344,559.4063 Q224.9688,559.1719 224.9688,558.7813 Q224.9688,558.4063 225.2344,558.1719 Q225.5,557.9375 226.1094,557.9375 L229.7813,557.9375 L233.1719,566.2969 Q233.7656,566.2969 233.9531,566.4375 Q234.3438,566.7031 234.3438,567.1563 Q234.3438,567.5313 234.0781,567.7656 Q233.8281,568 233.2188,568 L230.9219,568 Q230.3125,568 230.0469,567.7656 Q229.7813,567.5313 229.7813,567.1406 Q229.7813,566.7656 230.0469,566.5313 Q230.3125,566.2969 230.9219,566.2969 L231.3438,566.2969 L230.9375,565.2656 Z M230.2188,563.5625 L228.8594,560.1875 L227.4844,563.5625 L230.2188,563.5625 Z " fill="#000000"/><text fill="#000000" font-family="sans-serif" font-size="14" font-style="italic" lengthAdjust="spacing" textLength="78" x="249.25" y="569.2285">IECSSystem</text><line style="stroke:#181818;stroke-width:0.5;" x1="100" x2="444" y1="579.5" y2="579.5"/><line style="stroke:#181818;stroke-width:0.5;" x1="100" x2="444" y1="587.5" y2="587.5"/><ellipse cx="110" cy="601.8047" fill="#84BE84" rx="3" ry="3" style="stroke:#038048;stroke-width:1.0;"/><text fill="#000000" font-family="sans-serif" font-size="14" lengthAdjust="spacing" textLength="320" x="119" y="606.0332">virtual void registerSystem(flecs::world&amp; world) = 0;</text><ellipse cx="110" cy="619.4141" fill="#84BE84" rx="3" ry="3" style="stroke:#038048;stroke-width:1.0;"/><text fill="#000000" font-family="sans-serif" font-size="14" lengthAdjust="spacing" textLength="300" x="119" y="623.6426">virtual void startSystem(flecs::world&amp; world) = 0;</text><ellipse cx="110" cy="637.0234" fill="#84BE84" rx="3" ry="3" style="stroke:#038048;stroke-width:1.0;"/><text fill="#000000" font-family="sans-serif" font-size="14" lengthAdjust="spacing" textLength="299" x="119" y="641.252">virtual void stopSystem(flecs::world&amp; world) = 0;</text></g><!--class ECSLuaScriptSystem--><g id="elem_ECSLuaScriptSystem"><rect codeLine="91" fill="#F1F1F1" height="48" id="ECSLuaScriptSystem" rx="2.5" ry="2.5" style="stroke:#181818;stroke-width:0.5;" width="166" x="70" y="814"/><ellipse cx="85" cy="830" fill="#ADD1B2" rx="11" ry="11" style="stroke:#181818;stroke-width:1.0;"/><path d="M87.7656,825.875 Q87.9219,825.6563 88.1094,825.5469 Q88.2969,825.4375 88.5156,825.4375 Q88.8906,825.4375 89.125,825.7031 Q89.3594,825.9531 89.3594,826.5625 L89.3594,828.0156 Q89.3594,828.625 89.125,828.8906 Q88.8906,829.1563 88.5156,829.1563 Q88.1719,829.1563 87.9688,828.9531 Q87.7656,828.7656 87.6563,828.25 Q87.6094,827.8906 87.4219,827.7031 Q87.0938,827.3281 86.4844,827.1094 Q85.875,826.8906 85.25,826.8906 Q84.4844,826.8906 83.8438,827.2188 Q83.2188,827.5469 82.7188,828.2969 Q82.2344,829.0469 82.2344,830.0781 L82.2344,831.1719 Q82.2344,832.4063 83.125,833.2344 Q84.0156,834.0469 85.6094,834.0469 Q86.5469,834.0469 87.2031,833.7969 Q87.5938,833.6406 88.0156,833.2031 Q88.2813,832.9375 88.4219,832.8594 Q88.5781,832.7813 88.7813,832.7813 Q89.1094,832.7813 89.3594,833.0469 Q89.625,833.2969 89.625,833.6406 Q89.625,833.9844 89.2813,834.3906 Q88.7813,834.9688 87.9844,835.2969 Q86.9063,835.75 85.6094,835.75 Q84.0938,835.75 82.8906,835.125 Q81.9063,834.625 81.2188,833.5625 Q80.5313,832.4844 80.5313,831.2031 L80.5313,830.0469 Q80.5313,828.7188 81.1406,827.5781 Q81.7656,826.4219 82.8594,825.8125 Q83.9531,825.1875 85.1875,825.1875 Q85.9219,825.1875 86.5625,825.3594 Q87.2188,825.5156 87.7656,825.875 Z " fill="#000000"/><text fill="#000000" font-family="sans-serif" font-size="14" lengthAdjust="spacing" textLength="134" x="99" y="835.7285">ECSLuaScriptSystem</text><line style="stroke:#181818;stroke-width:0.5;" x1="71" x2="235" y1="846" y2="846"/><line style="stroke:#181818;stroke-width:0.5;" x1="71" x2="235" y1="854" y2="854"/></g><!--class PhysicsSimulationSystem--><g id="elem_PhysicsSimulationSystem"><rect codeLine="93" fill="#F1F1F1" height="48" id="PhysicsSimulationSystem" rx="2.5" ry="2.5" style="stroke:#181818;stroke-width:0.5;" width="191" x="271.5" y="814"/><ellipse cx="286.5" cy="830" fill="#ADD1B2" rx="11" ry="11" style="stroke:#181818;stroke-width:1.0;"/><path d="M289.2656,825.875 Q289.4219,825.6563 289.6094,825.5469 Q289.7969,825.4375 290.0156,825.4375 Q290.3906,825.4375 290.625,825.7031 Q290.8594,825.9531 290.8594,826.5625 L290.8594,828.0156 Q290.8594,828.625 290.625,828.8906 Q290.3906,829.1563 290.0156,829.1563 Q289.6719,829.1563 289.4688,828.9531 Q289.2656,828.7656 289.1563,828.25 Q289.1094,827.8906 288.9219,827.7031 Q288.5938,827.3281 287.9844,827.1094 Q287.375,826.8906 286.75,826.8906 Q285.9844,826.8906 285.3438,827.2188 Q284.7188,827.5469 284.2188,828.2969 Q283.7344,829.0469 283.7344,830.0781 L283.7344,831.1719 Q283.7344,832.4063 284.625,833.2344 Q285.5156,834.0469 287.1094,834.0469 Q288.0469,834.0469 288.7031,833.7969 Q289.0938,833.6406 289.5156,833.2031 Q289.7813,832.9375 289.9219,832.8594 Q290.0781,832.7813 290.2813,832.7813 Q290.6094,832.7813 290.8594,833.0469 Q291.125,833.2969 291.125,833.6406 Q291.125,833.9844 290.7813,834.3906 Q290.2813,834.9688 289.4844,835.2969 Q288.4063,835.75 287.1094,835.75 Q285.5938,835.75 284.3906,835.125 Q283.4063,834.625 282.7188,833.5625 Q282.0313,832.4844 282.0313,831.2031 L282.0313,830.0469 Q282.0313,828.7188 282.6406,827.5781 Q283.2656,826.4219 284.3594,825.8125 Q285.4531,825.1875 286.6875,825.1875 Q287.4219,825.1875 288.0625,825.3594 Q288.7188,825.5156 289.2656,825.875 Z " fill="#000000"/><text fill="#000000" font-family="sans-serif" font-size="14" lengthAdjust="spacing" textLength="159" x="300.5" y="835.7285">PhysicsSimulationSystem</text><line style="stroke:#181818;stroke-width:0.5;" x1="272.5" x2="461.5" y1="846" y2="846"/><line style="stroke:#181818;stroke-width:0.5;" x1="272.5" x2="461.5" y1="854" y2="854"/></g><!--reverse link IECSSystem to ECSLuaScriptSystem--><g id="link_IECSSystem_ECSLuaScriptSystem"><path d="M239.1502,664.6997 C213.8102,715.3797 183.61,775.77 164.59,813.81 " fill="none" id="IECSSystem-backto-ECSLuaScriptSystem" style="stroke:#181818;stroke-width:1.0;stroke-dasharray:7.0,7.0;"/><polygon fill="none" points="247.2,648.6,233.7836,662.0164,244.5167,667.383,247.2,648.6" style="stroke:#181818;stroke-width:1.0;"/></g><!--reverse link IECSSystem to PhysicsSimulationSystem--><g id="link_IECSSystem_PhysicsSimulationSystem"><path d="M298.4731,665.3174 C318.7031,715.9974 342.56,775.77 357.74,813.81 " fill="none" id="IECSSystem-backto-PhysicsSimulationSystem" style="stroke:#181818;stroke-width:1.0;stroke-dasharray:7.0,7.0;"/><polygon fill="none" points="291.8,648.6,292.9006,667.5417,304.0455,663.093,291.8,648.6" style="stroke:#181818;stroke-width:1.0;"/></g><!--reverse link ECSModule to ECSComponents--><g id="link_ECSModule_ECSComponents"><path codeLine="118" d="M419.25,238.5 C439.465,238.5 453.6775,238.5 473.8887,238.5 C483.9944,238.5 494.0997,238.5 504.2048,238.5 C509.2574,238.5 514.31,238.5 519.3625,238.5 C521.8887,238.5 524.415,238.5 526.9412,238.5 " fill="none" id="ECSModule-backto-ECSComponents" style="stroke:#181818;stroke-width:1.0;stroke-dasharray:7.0,7.0;"/><polygon fill="#181818" points="413.25,238.5,422.25,242.5,418.25,238.5,422.25,234.5,413.25,238.5" style="stroke:#181818;stroke-width:1.0;"/></g><!--reverse link ECSModule to ECSSystems--><g id="link_ECSModule_ECSSystems"><path codeLine="119" d="M105.2142,397.758 C83.3942,427.158 67.4,454.35 54,487.5 C52.8744,490.2831 51.857,493.1383 50.9388,496.0461 C50.4797,497.5 50.0454,498.967 49.6347,500.4448 C49.4294,501.1837 49.23,501.9253 49.0364,502.6692 C48.988,502.8552 48.9399,503.0414 48.8922,503.2276 " fill="none" id="ECSModule-backto-ECSSystems" style="stroke:#181818;stroke-width:1.0;stroke-dasharray:7.0,7.0;"/><polygon fill="#181818" points="108.79,392.94,100.2142,397.7832,105.8101,396.955,106.6383,402.5509,108.79,392.94" style="stroke:#181818;stroke-width:1.0;"/></g><!--link ECSComponents to ECSSystems--><g id="link_ECSComponents_ECSSystems"><path codeLine="120" d="M526.4904,439.4055 C526.1705,439.6857 525.8468,439.9633 525.5194,440.2382 C524.8644,440.788 524.1944,441.3272 523.5096,441.856 C520.7704,443.9713 517.7939,445.9202 514.5959,447.7138 C508.1999,451.3009 500.918,454.2667 492.8762,456.6993 C476.7926,461.5646 457.6692,464.2973 436.5141,465.6033 C394.2038,468.2153 343.7663,465.1206 293.265,461.9663 C192.2625,455.6575 91.005,449.11 54,487.5 C37.33,504.79 35.1325,531.5875 37.1988,554.345 C37.3279,555.7673 37.4737,557.1739 37.6336,558.5614 C37.7136,559.2551 37.7971,559.9441 37.8839,560.6279 C37.9056,560.7988 37.1558,555.0193 37.1778,555.1896 " fill="none" id="ECSComponents-to-ECSSystems" style="stroke:#181818;stroke-width:1.0;stroke-dasharray:7.0,7.0;"/><polygon fill="#181818" points="37.9496,561.1397,40.7588,551.7,37.3065,556.1812,32.8252,552.7289,37.9496,561.1397" style="stroke:#181818;stroke-width:1.0;"/></g><!--SRC=[pLPDRnen4BtpAtn2e0XKjMeFGBbG6aK2XOOehLHLo7Y7NIlUzSQU9Q5L_dljDTcl649QLIgN5PututappnwdbDtI4CXqifpB81FG-jKYvfUMwnCPfpA117LkSNRxqwWoXcGXDKSkam9N04ge_PrjXAH87eQ-rPrtzUUmLL_U0dj7K9xFvZV0Ebt2PAAnuRgLF20R9UFpcGNb41AAU32mtcsoxPOEZwqccok9rBBvXoJkChEAyelv7ABWQ4vDFzHBBFCmZgGDt2PttKDG5yzXNIt0hXojnv9H0KLhoV_JstdPt5FwEg4nA7gYHZTowysPwXGOUaq9K3KHFFKQDrxRMaf1kBxXS9zAXIx3OnpceACN6R28AX8Rv1LecIa62uhHzxVlF_mOUe1RKBYCQ03gA6oZQ7W23E41CrNTiGwIgJrQL8oqGKEmIb6DhYohyRYMyl04DvUESImf_86xO_RjrUxNZgdPVi_vkVFp_YqaJt36mmXFrA6Y0S-qLr8c4YICu-xOXf-uCdhDit_DjYV5NZB5qqE138OdOVv9qSgXpg4eATArW37HUQnh-wSXcVp0yyGC62huJ-WqxhRSh94gz5goDA087SSg087qciVWGq8IT6htHuLqPHOkTneXrgGn2UdQCAMcA1S5vb25jrnXHeNRLK783LWv5vCdC3qOt4ibWZR9FrtoaRmP7WcHa_yhVvcUx5vH0HDKQrkIMKQT55mKmkDKG6oV2zLgDFmMqKvpffSypaG-ReywLxOkjdMl5J8QQICq0MXaFHutsjAhCYBnAl-MR7hv1HolaBFRQMB55nYw6ofqvHJtzbAELonJocJsrGRvp4K5SwRjcu6LQRL927XXHXDDM4spPsNFijHZY38Cv7tot68K75ouOv0di4GhxAu7vV8p8zBck1-GZaFRA1aZVpPb9tpf6edKxAtc32ki-phMWkmnUM8tvXW7zH3JhQdgQ4mkavcFvD27BD-aauWc8GILWBtQqIgHrPpgcCkr1cN6I05nnx-YihworsVVynokWcph-fLhuWdmT6kC-bdQZF7u6m00]--></g></svg>