<?xml version="1.0" encoding="us-ascii" standalone="no"?><svg xmlns="http://www.w3.org/2000/svg" xmlns:xlink="http://www.w3.org/1999/xlink" contentStyleType="text/css" height="827px" preserveAspectRatio="none" style="width:1584px;height:827px;background:#FFFFFF;" version="1.1" viewBox="0 0 1584 827" width="1584px" zoomAndPan="magnify"><defs/><g><!--cluster InputInteractionSubsystem--><g id="cluster_InputInteractionSubsystem"><path d="M8.5,6 L197.5,6 A3.75,3.75 0 0 1 200,8.5 L207,29.6094 L1574.5,29.6094 A2.5,2.5 0 0 1 1577,32.1094 L1577,817.5 A2.5,2.5 0 0 1 1574.5,820 L8.5,820 A2.5,2.5 0 0 1 6,817.5 L6,8.5 A2.5,2.5 0 0 1 8.5,6 " fill="none" style="stroke:#000000;stroke-width:1.5;"/><line style="stroke:#000000;stroke-width:1.5;" x1="6" x2="207" y1="29.6094" y2="29.6094"/><text fill="#000000" font-family="sans-serif" font-size="14" font-weight="bold" lengthAdjust="spacing" textLength="188" x="10" y="22.5332">InputInteractionSubsystem</text></g><!--cluster WindowModule--><g id="cluster_WindowModule"><path d="M598.5,74 L707.5,74 A3.75,3.75 0 0 1 710,76.5 L717,97.6094 L1131.5,97.6094 A2.5,2.5 0 0 1 1134,100.1094 L1134,785.5 A2.5,2.5 0 0 1 1131.5,788 L598.5,788 A2.5,2.5 0 0 1 596,785.5 L596,76.5 A2.5,2.5 0 0 1 598.5,74 " fill="none" style="stroke:#000000;stroke-width:1.5;"/><line style="stroke:#000000;stroke-width:1.5;" x1="596" x2="717" y1="97.6094" y2="97.6094"/><text fill="#000000" font-family="sans-serif" font-size="14" font-weight="bold" lengthAdjust="spacing" textLength="108" x="600" y="90.5332">WindowModule</text></g><!--cluster InputModule--><g id="cluster_InputModule"><path d="M1176.5,402.5 L1266.5,402.5 A3.75,3.75 0 0 1 1269,405 L1276,426.1094 L1542.5,426.1094 A2.5,2.5 0 0 1 1545,428.6094 L1545,685 A2.5,2.5 0 0 1 1542.5,687.5 L1176.5,687.5 A2.5,2.5 0 0 1 1174,685 L1174,405 A2.5,2.5 0 0 1 1176.5,402.5 " fill="none" style="stroke:#000000;stroke-width:1.5;"/><line style="stroke:#000000;stroke-width:1.5;" x1="1174" x2="1276" y1="426.1094" y2="426.1094"/><text fill="#000000" font-family="sans-serif" font-size="14" font-weight="bold" lengthAdjust="spacing" textLength="89" x="1178" y="419.0332">InputModule</text></g><!--cluster AudioModule--><g id="cluster_AudioModule"><path d="M32.5,50 L126.5,50 A3.75,3.75 0 0 1 129,52.5 L136,73.6094 L561.5,73.6094 A2.5,2.5 0 0 1 564,76.1094 L564,299.5 A2.5,2.5 0 0 1 561.5,302 L32.5,302 A2.5,2.5 0 0 1 30,299.5 L30,52.5 A2.5,2.5 0 0 1 32.5,50 " fill="none" style="stroke:#000000;stroke-width:1.5;"/><line style="stroke:#000000;stroke-width:1.5;" x1="30" x2="136" y1="73.6094" y2="73.6094"/><text fill="#000000" font-family="sans-serif" font-size="14" font-weight="bold" lengthAdjust="spacing" textLength="93" x="34" y="66.5332">AudioModule</text></g><!--class Window--><g id="elem_Window"><rect codeLine="3" fill="#F1F1F1" height="417.7969" id="Window" rx="2.5" ry="2.5" style="stroke:#181818;stroke-width:0.5;" width="482" x="620" y="346"/><ellipse cx="832.25" cy="362" fill="#ADD1B2" rx="11" ry="11" style="stroke:#181818;stroke-width:1.0;"/><path d="M835.0156,357.875 Q835.1719,357.6563 835.3594,357.5469 Q835.5469,357.4375 835.7656,357.4375 Q836.1406,357.4375 836.375,357.7031 Q836.6094,357.9531 836.6094,358.5625 L836.6094,360.0156 Q836.6094,360.625 836.375,360.8906 Q836.1406,361.1563 835.7656,361.1563 Q835.4219,361.1563 835.2188,360.9531 Q835.0156,360.7656 834.9063,360.25 Q834.8594,359.8906 834.6719,359.7031 Q834.3438,359.3281 833.7344,359.1094 Q833.125,358.8906 832.5,358.8906 Q831.7344,358.8906 831.0938,359.2188 Q830.4688,359.5469 829.9688,360.2969 Q829.4844,361.0469 829.4844,362.0781 L829.4844,363.1719 Q829.4844,364.4063 830.375,365.2344 Q831.2656,366.0469 832.8594,366.0469 Q833.7969,366.0469 834.4531,365.7969 Q834.8438,365.6406 835.2656,365.2031 Q835.5313,364.9375 835.6719,364.8594 Q835.8281,364.7813 836.0313,364.7813 Q836.3594,364.7813 836.6094,365.0469 Q836.875,365.2969 836.875,365.6406 Q836.875,365.9844 836.5313,366.3906 Q836.0313,366.9688 835.2344,367.2969 Q834.1563,367.75 832.8594,367.75 Q831.3438,367.75 830.1406,367.125 Q829.1563,366.625 828.4688,365.5625 Q827.7813,364.4844 827.7813,363.2031 L827.7813,362.0469 Q827.7813,360.7188 828.3906,359.5781 Q829.0156,358.4219 830.1094,357.8125 Q831.2031,357.1875 832.4375,357.1875 Q833.1719,357.1875 833.8125,357.3594 Q834.4688,357.5156 835.0156,357.875 Z " fill="#000000"/><text fill="#000000" font-family="sans-serif" font-size="14" lengthAdjust="spacing" textLength="49" x="852.75" y="367.7285">Window</text><line style="stroke:#181818;stroke-width:0.5;" x1="621" x2="1101" y1="378" y2="378"/><rect fill="none" height="6" style="stroke:#C82930;stroke-width:1.0;" width="6" x="628" y="389.3047"/><text fill="#000000" font-family="sans-serif" font-size="14" lengthAdjust="spacing" textLength="163" x="640" y="396.5332">GLFWwindow* m_window;</text><rect fill="none" height="6" style="stroke:#C82930;stroke-width:1.0;" width="6" x="628" y="406.9141"/><text fill="#000000" font-family="sans-serif" font-size="14" lengthAdjust="spacing" textLength="223" x="640" y="414.1426">bool m_framebufferResized = false;</text><line style="stroke:#181818;stroke-width:0.5;" x1="621" x2="1101" y1="421.2188" y2="421.2188"/><ellipse cx="631" cy="435.5234" fill="#84BE84" rx="3" ry="3" style="stroke:#038048;stroke-width:1.0;"/><text fill="#000000" font-family="sans-serif" font-size="14" lengthAdjust="spacing" textLength="397" x="640" y="439.752">Window(int width, int height, const char* titile, GraphicsAPI api);</text><ellipse cx="631" cy="453.1328" fill="#84BE84" rx="3" ry="3" style="stroke:#038048;stroke-width:1.0;"/><text fill="#000000" font-family="sans-serif" font-size="14" lengthAdjust="spacing" textLength="71" x="640" y="457.3613">~Window();</text><text fill="#000000" font-family="sans-serif" font-size="14" lengthAdjust="spacing" textLength="4" x="640" y="474.9707">&#160;</text><ellipse cx="631" cy="488.3516" fill="#84BE84" rx="3" ry="3" style="stroke:#038048;stroke-width:1.0;"/><text fill="#000000" font-family="sans-serif" font-size="14" lengthAdjust="spacing" textLength="154" x="640" y="492.5801">void resetResizedFlag();</text><ellipse cx="631" cy="505.9609" fill="#84BE84" rx="3" ry="3" style="stroke:#038048;stroke-width:1.0;"/><text fill="#000000" font-family="sans-serif" font-size="14" lengthAdjust="spacing" textLength="109" x="640" y="510.1895">void pollEvents();</text><ellipse cx="631" cy="523.5703" fill="#84BE84" rx="3" ry="3" style="stroke:#038048;stroke-width:1.0;"/><text fill="#000000" font-family="sans-serif" font-size="14" lengthAdjust="spacing" textLength="305" x="640" y="527.7988">void setKeyCallBack(GLFWkeyfun keyCallback);</text><ellipse cx="631" cy="541.1797" fill="#84BE84" rx="3" ry="3" style="stroke:#038048;stroke-width:1.0;"/><text fill="#000000" font-family="sans-serif" font-size="14" lengthAdjust="spacing" textLength="456" x="640" y="545.4082">void setCursorPositionCallback(GLFWcursorposfun cursorPosCallback);</text><ellipse cx="631" cy="558.7891" fill="#84BE84" rx="3" ry="3" style="stroke:#038048;stroke-width:1.0;"/><text fill="#000000" font-family="sans-serif" font-size="14" lengthAdjust="spacing" textLength="336" x="640" y="563.0176">void setScrollBallback(GLFWscrollfun scrollCallback);</text><text fill="#000000" font-family="sans-serif" font-size="14" lengthAdjust="spacing" textLength="4" x="640" y="580.627">&#160;</text><ellipse cx="631" cy="594.0078" fill="#84BE84" rx="3" ry="3" style="stroke:#038048;stroke-width:1.0;"/><text fill="#000000" font-family="sans-serif" font-size="14" lengthAdjust="spacing" textLength="197" x="640" y="598.2363">bool glfwWindowIsValid() const;</text><ellipse cx="631" cy="611.6172" fill="#84BE84" rx="3" ry="3" style="stroke:#038048;stroke-width:1.0;"/><text fill="#000000" font-family="sans-serif" font-size="14" lengthAdjust="spacing" textLength="123" x="640" y="615.8457">bool shouldClose();</text><ellipse cx="631" cy="629.2266" fill="#84BE84" rx="3" ry="3" style="stroke:#038048;stroke-width:1.0;"/><text fill="#000000" font-family="sans-serif" font-size="14" lengthAdjust="spacing" textLength="157" x="640" y="633.4551">bool wasResized() const;</text><text fill="#000000" font-family="sans-serif" font-size="14" lengthAdjust="spacing" textLength="4" x="640" y="651.0645">&#160;</text><ellipse cx="631" cy="664.4453" fill="#84BE84" rx="3" ry="3" style="stroke:#038048;stroke-width:1.0;"/><text fill="#000000" font-family="sans-serif" font-size="14" lengthAdjust="spacing" textLength="185" x="640" y="668.6738">float currentTimeInseconds();</text><text fill="#000000" font-family="sans-serif" font-size="14" lengthAdjust="spacing" textLength="4" x="640" y="686.2832">&#160;</text><ellipse cx="631" cy="699.6641" fill="#84BE84" rx="3" ry="3" style="stroke:#038048;stroke-width:1.0;"/><text fill="#000000" font-family="sans-serif" font-size="14" lengthAdjust="spacing" textLength="219" x="640" y="703.8926">GLFWwindow* getGLFWWindow();</text><ellipse cx="631" cy="717.2734" fill="#84BE84" rx="3" ry="3" style="stroke:#038048;stroke-width:1.0;"/><text fill="#000000" font-family="sans-serif" font-size="14" lengthAdjust="spacing" textLength="150" x="640" y="721.502">VkExtent2D getExtent();</text><ellipse cx="631" cy="734.8828" fill="#84BE84" rx="3" ry="3" style="stroke:#038048;stroke-width:1.0;"/><text fill="#000000" font-family="sans-serif" font-size="14" lengthAdjust="spacing" textLength="355" x="640" y="739.1113">VkSurfaceKHR getWindowSurface(VkInstance instance);</text><ellipse cx="631" cy="752.4922" fill="#84BE84" rx="3" ry="3" style="stroke:#038048;stroke-width:1.0;"/><text fill="#000000" font-family="sans-serif" font-size="14" lengthAdjust="spacing" textLength="352" x="640" y="756.7207">vector&lt;const char*&gt; getRequiredInstancewExtensions();</text></g><!--class WindowModule--><g id="elem_WindowModule"><rect codeLine="29" fill="#F1F1F1" height="136.0469" id="WindowModule" rx="2.5" ry="2.5" style="stroke:#181818;stroke-width:0.5;" width="445" x="638.5" y="118"/><ellipse cx="809.25" cy="134" fill="#ADD1B2" rx="11" ry="11" style="stroke:#181818;stroke-width:1.0;"/><path d="M812.0156,129.875 Q812.1719,129.6563 812.3594,129.5469 Q812.5469,129.4375 812.7656,129.4375 Q813.1406,129.4375 813.375,129.7031 Q813.6094,129.9531 813.6094,130.5625 L813.6094,132.0156 Q813.6094,132.625 813.375,132.8906 Q813.1406,133.1563 812.7656,133.1563 Q812.4219,133.1563 812.2188,132.9531 Q812.0156,132.7656 811.9063,132.25 Q811.8594,131.8906 811.6719,131.7031 Q811.3438,131.3281 810.7344,131.1094 Q810.125,130.8906 809.5,130.8906 Q808.7344,130.8906 808.0938,131.2188 Q807.4688,131.5469 806.9688,132.2969 Q806.4844,133.0469 806.4844,134.0781 L806.4844,135.1719 Q806.4844,136.4063 807.375,137.2344 Q808.2656,138.0469 809.8594,138.0469 Q810.7969,138.0469 811.4531,137.7969 Q811.8438,137.6406 812.2656,137.2031 Q812.5313,136.9375 812.6719,136.8594 Q812.8281,136.7813 813.0313,136.7813 Q813.3594,136.7813 813.6094,137.0469 Q813.875,137.2969 813.875,137.6406 Q813.875,137.9844 813.5313,138.3906 Q813.0313,138.9688 812.2344,139.2969 Q811.1563,139.75 809.8594,139.75 Q808.3438,139.75 807.1406,139.125 Q806.1563,138.625 805.4688,137.5625 Q804.7813,136.4844 804.7813,135.2031 L804.7813,134.0469 Q804.7813,132.7188 805.3906,131.5781 Q806.0156,130.4219 807.1094,129.8125 Q808.2031,129.1875 809.4375,129.1875 Q810.1719,129.1875 810.8125,129.3594 Q811.4688,129.5156 812.0156,129.875 Z " fill="#000000"/><text fill="#000000" font-family="sans-serif" font-size="14" lengthAdjust="spacing" textLength="95" x="829.75" y="139.7285">WindowModule</text><line style="stroke:#181818;stroke-width:0.5;" x1="639.5" x2="1082.5" y1="150" y2="150"/><rect fill="none" height="6" style="stroke:#C82930;stroke-width:1.0;" width="6" x="646.5" y="161.3047"/><text fill="#000000" font-family="sans-serif" font-size="14" lengthAdjust="spacing" textLength="205" x="658.5" y="168.5332">unique_ptr&lt;Window&gt; m_window;</text><line style="stroke:#181818;stroke-width:0.5;" x1="639.5" x2="1082.5" y1="175.6094" y2="175.6094"/><ellipse cx="649.5" cy="189.9141" fill="#84BE84" rx="3" ry="3" style="stroke:#038048;stroke-width:1.0;"/><text fill="#000000" font-family="sans-serif" font-size="14" lengthAdjust="spacing" textLength="232" x="658.5" y="194.1426">static WindowModule&amp; getInstance();</text><ellipse cx="649.5" cy="207.5234" fill="#84BE84" rx="3" ry="3" style="stroke:#038048;stroke-width:1.0;"/><text fill="#000000" font-family="sans-serif" font-size="14" lengthAdjust="spacing" textLength="419" x="658.5" y="211.752">void startup(int width, int height, const char* title, GraphicsAPI api);</text><ellipse cx="649.5" cy="225.1328" fill="#84BE84" rx="3" ry="3" style="stroke:#038048;stroke-width:1.0;"/><text fill="#000000" font-family="sans-serif" font-size="14" lengthAdjust="spacing" textLength="104" x="658.5" y="229.3613">void shutdown();</text><ellipse cx="649.5" cy="242.7422" fill="#84BE84" rx="3" ry="3" style="stroke:#038048;stroke-width:1.0;"/><text fill="#000000" font-family="sans-serif" font-size="14" lengthAdjust="spacing" textLength="141" x="658.5" y="246.9707">Window* getWindow();</text></g><!--class InputModule--><g id="elem_InputModule"><rect codeLine="3" fill="#F1F1F1" height="217.1875" id="InputModule" rx="2.5" ry="2.5" style="stroke:#181818;stroke-width:0.5;" width="304" x="1217" y="446.5"/><ellipse cx="1326.25" cy="467.8516" fill="#ADD1B2" rx="11" ry="11" style="stroke:#181818;stroke-width:1.0;"/><path d="M1329.0156,463.7266 Q1329.1719,463.5078 1329.3594,463.3984 Q1329.5469,463.2891 1329.7656,463.2891 Q1330.1406,463.2891 1330.375,463.5547 Q1330.6094,463.8047 1330.6094,464.4141 L1330.6094,465.8672 Q1330.6094,466.4766 1330.375,466.7422 Q1330.1406,467.0078 1329.7656,467.0078 Q1329.4219,467.0078 1329.2188,466.8047 Q1329.0156,466.6172 1328.9063,466.1016 Q1328.8594,465.7422 1328.6719,465.5547 Q1328.3438,465.1797 1327.7344,464.9609 Q1327.125,464.7422 1326.5,464.7422 Q1325.7344,464.7422 1325.0938,465.0703 Q1324.4688,465.3984 1323.9688,466.1484 Q1323.4844,466.8984 1323.4844,467.9297 L1323.4844,469.0234 Q1323.4844,470.2578 1324.375,471.0859 Q1325.2656,471.8984 1326.8594,471.8984 Q1327.7969,471.8984 1328.4531,471.6484 Q1328.8438,471.4922 1329.2656,471.0547 Q1329.5313,470.7891 1329.6719,470.7109 Q1329.8281,470.6328 1330.0313,470.6328 Q1330.3594,470.6328 1330.6094,470.8984 Q1330.875,471.1484 1330.875,471.4922 Q1330.875,471.8359 1330.5313,472.2422 Q1330.0313,472.8203 1329.2344,473.1484 Q1328.1563,473.6016 1326.8594,473.6016 Q1325.3438,473.6016 1324.1406,472.9766 Q1323.1563,472.4766 1322.4688,471.4141 Q1321.7813,470.3359 1321.7813,469.0547 L1321.7813,467.8984 Q1321.7813,466.5703 1322.3906,465.4297 Q1323.0156,464.2734 1324.1094,463.6641 Q1325.2031,463.0391 1326.4375,463.0391 Q1327.1719,463.0391 1327.8125,463.2109 Q1328.4688,463.3672 1329.0156,463.7266 Z " fill="#000000"/><text fill="#000000" font-family="sans-serif" font-size="12" font-style="italic" lengthAdjust="spacing" textLength="71" x="1349.75" y="463.957">&#171;singletone&#187;</text><text fill="#000000" font-family="sans-serif" font-size="14" lengthAdjust="spacing" textLength="77" x="1346.75" y="481.127">InputModule</text><line style="stroke:#181818;stroke-width:0.5;" x1="1218" x2="1520" y1="489.2031" y2="489.2031"/><ellipse cx="1228" cy="503.5078" fill="none" rx="3" ry="3" style="stroke:#038048;stroke-width:1.0;"/><text fill="#000000" font-family="sans-serif" font-size="14" lengthAdjust="spacing" textLength="226" x="1237" y="507.7363">Event&lt;int, int, int, int&gt; OnKeyAction;</text><ellipse cx="1228" cy="521.1172" fill="none" rx="3" ry="3" style="stroke:#038048;stroke-width:1.0;"/><text fill="#000000" font-family="sans-serif" font-size="14" lengthAdjust="spacing" textLength="247" x="1237" y="525.3457">Event&lt;double, double&gt; OnScrollAction;</text><ellipse cx="1228" cy="538.7266" fill="none" rx="3" ry="3" style="stroke:#038048;stroke-width:1.0;"/><text fill="#000000" font-family="sans-serif" font-size="14" lengthAdjust="spacing" textLength="278" x="1237" y="542.9551">Event&lt;double, double&gt; OnMousePosAction;</text><line style="stroke:#181818;stroke-width:0.5;" x1="1218" x2="1520" y1="550.0313" y2="550.0313"/><ellipse cx="1228" cy="564.3359" fill="#84BE84" rx="3" ry="3" style="stroke:#038048;stroke-width:1.0;"/><text fill="#000000" font-family="sans-serif" font-size="14" lengthAdjust="spacing" textLength="91" x="1237" y="568.5645">InputModule();</text><ellipse cx="1228" cy="581.9453" fill="#84BE84" rx="3" ry="3" style="stroke:#038048;stroke-width:1.0;"/><text fill="#000000" font-family="sans-serif" font-size="14" lengthAdjust="spacing" textLength="99" x="1237" y="586.1738">~InputModule();</text><text fill="#000000" font-family="sans-serif" font-size="14" lengthAdjust="spacing" textLength="4" x="1237" y="603.7832">&#160;</text><ellipse cx="1228" cy="617.1641" fill="#84BE84" rx="3" ry="3" style="stroke:#038048;stroke-width:1.0;"/><text fill="#000000" font-family="sans-serif" font-size="14" lengthAdjust="spacing" textLength="214" x="1237" y="621.3926">static InputModule&amp; getInstance();</text><ellipse cx="1228" cy="634.7734" fill="#84BE84" rx="3" ry="3" style="stroke:#038048;stroke-width:1.0;"/><text fill="#000000" font-family="sans-serif" font-size="14" lengthAdjust="spacing" textLength="191" x="1237" y="639.002">void startup(Window* window);</text><ellipse cx="1228" cy="652.3828" fill="#84BE84" rx="3" ry="3" style="stroke:#038048;stroke-width:1.0;"/><text fill="#000000" font-family="sans-serif" font-size="14" lengthAdjust="spacing" textLength="104" x="1237" y="656.6113">void shutdown();</text></g><!--class AudioModule--><g id="elem_AudioModule"><rect codeLine="3" fill="#F1F1F1" height="199.5781" id="AudioModule" rx="2.5" ry="2.5" style="stroke:#181818;stroke-width:0.5;" width="501" x="46.5" y="86"/><ellipse cx="251.75" cy="107.3516" fill="#ADD1B2" rx="11" ry="11" style="stroke:#181818;stroke-width:1.0;"/><path d="M254.5156,103.2266 Q254.6719,103.0078 254.8594,102.8984 Q255.0469,102.7891 255.2656,102.7891 Q255.6406,102.7891 255.875,103.0547 Q256.1094,103.3047 256.1094,103.9141 L256.1094,105.3672 Q256.1094,105.9766 255.875,106.2422 Q255.6406,106.5078 255.2656,106.5078 Q254.9219,106.5078 254.7188,106.3047 Q254.5156,106.1172 254.4063,105.6016 Q254.3594,105.2422 254.1719,105.0547 Q253.8438,104.6797 253.2344,104.4609 Q252.625,104.2422 252,104.2422 Q251.2344,104.2422 250.5938,104.5703 Q249.9688,104.8984 249.4688,105.6484 Q248.9844,106.3984 248.9844,107.4297 L248.9844,108.5234 Q248.9844,109.7578 249.875,110.5859 Q250.7656,111.3984 252.3594,111.3984 Q253.2969,111.3984 253.9531,111.1484 Q254.3438,110.9922 254.7656,110.5547 Q255.0313,110.2891 255.1719,110.2109 Q255.3281,110.1328 255.5313,110.1328 Q255.8594,110.1328 256.1094,110.3984 Q256.375,110.6484 256.375,110.9922 Q256.375,111.3359 256.0313,111.7422 Q255.5313,112.3203 254.7344,112.6484 Q253.6563,113.1016 252.3594,113.1016 Q250.8438,113.1016 249.6406,112.4766 Q248.6563,111.9766 247.9688,110.9141 Q247.2813,109.8359 247.2813,108.5547 L247.2813,107.3984 Q247.2813,106.0703 247.8906,104.9297 Q248.5156,103.7734 249.6094,103.1641 Q250.7031,102.5391 251.9375,102.5391 Q252.6719,102.5391 253.3125,102.7109 Q253.9688,102.8672 254.5156,103.2266 Z " fill="#000000"/><text fill="#000000" font-family="sans-serif" font-size="12" font-style="italic" lengthAdjust="spacing" textLength="71" x="277.75" y="103.457">&#171;singletone&#187;</text><text fill="#000000" font-family="sans-serif" font-size="14" lengthAdjust="spacing" textLength="82" x="272.25" y="120.627">AudioModule</text><line style="stroke:#181818;stroke-width:0.5;" x1="47.5" x2="546.5" y1="128.7031" y2="128.7031"/><rect fill="none" height="6" style="stroke:#C82930;stroke-width:1.0;" width="6" x="54.5" y="140.0078"/><text fill="#000000" font-family="sans-serif" font-size="14" lengthAdjust="spacing" textLength="141" x="66.5" y="147.2363">ALCdevice* m_device;</text><rect fill="none" height="6" style="stroke:#C82930;stroke-width:1.0;" width="6" x="54.5" y="157.6172"/><text fill="#000000" font-family="sans-serif" font-size="14" lengthAdjust="spacing" textLength="185" x="66.5" y="164.8457">ALCcontext* m_audioThread;</text><line style="stroke:#181818;stroke-width:0.5;" x1="47.5" x2="546.5" y1="171.9219" y2="171.9219"/><ellipse cx="57.5" cy="186.2266" fill="#84BE84" rx="3" ry="3" style="stroke:#038048;stroke-width:1.0;"/><text fill="#000000" font-family="sans-serif" font-size="14" lengthAdjust="spacing" textLength="219" x="66.5" y="190.4551">static AudioModule&amp; getInstance();</text><ellipse cx="57.5" cy="203.8359" fill="#84BE84" rx="3" ry="3" style="stroke:#038048;stroke-width:1.0;"/><text fill="#000000" font-family="sans-serif" font-size="14" lengthAdjust="spacing" textLength="88" x="66.5" y="208.0645">void statrup();</text><ellipse cx="57.5" cy="221.4453" fill="#84BE84" rx="3" ry="3" style="stroke:#038048;stroke-width:1.0;"/><text fill="#000000" font-family="sans-serif" font-size="14" lengthAdjust="spacing" textLength="104" x="66.5" y="225.6738">void shutdown();</text><ellipse cx="57.5" cy="239.0547" fill="#84BE84" rx="3" ry="3" style="stroke:#038048;stroke-width:1.0;"/><text fill="#000000" font-family="sans-serif" font-size="14" lengthAdjust="spacing" textLength="328" x="66.5" y="243.2832">void playSoundAsync(shared_ptr&lt;RSound&gt; sound);</text><ellipse cx="57.5" cy="256.6641" fill="#84BE84" rx="3" ry="3" style="stroke:#038048;stroke-width:1.0;"/><text fill="#000000" font-family="sans-serif" font-size="14" lengthAdjust="spacing" textLength="321" x="66.5" y="260.8926">void playSoundSync(shared_ptr&lt;RSound&gt; sound);</text><ellipse cx="57.5" cy="274.2734" fill="#84BE84" rx="3" ry="3" style="stroke:#038048;stroke-width:1.0;"/><text fill="#000000" font-family="sans-serif" font-size="14" lengthAdjust="spacing" textLength="475" x="66.5" y="278.502">void playSoundAsyncInPos(shared_ptr&lt;RSound&gt; sound, const vec3&amp; pos);</text></g><!--reverse link WindowModule to Window--><g id="link_WindowModule_Window"><path codeLine="39" d="M861,266.31 C861,292.8 861,312.78 861,345.84 " fill="none" id="WindowModule-backto-Window" style="stroke:#181818;stroke-width:1.0;"/><polygon fill="#181818" points="861,254.31,857,260.31,861,266.31,865,260.31,861,254.31" style="stroke:#181818;stroke-width:1.0;"/></g><!--link WindowModule to InputModule--><g id="link_WindowModule_InputModule"><path codeLine="6" d="M1134.0369,239.6882 C1134.3498,241.7389 1134.6696,243.835 1134.9959,245.9739 C1140.2175,280.1959 1147.1087,325.3581 1154,370.5187 C1160.8913,415.6794 1167.7825,460.8384 1173.0041,495.0542 C1173.3304,497.1927 1172.7451,493.3571 1173.058,495.4074 " fill="none" id="WindowModule-to-InputModule" style="stroke:#181818;stroke-width:1.0;stroke-dasharray:7.0,7.0;"/><polygon fill="#181818" points="1173.9631,501.3388,1176.5596,491.8383,1173.2088,496.396,1168.6512,493.0452,1173.9631,501.3388" style="stroke:#181818;stroke-width:1.0;"/></g><!--SRC=[AqXCpavCJrNmp2ieBV7CAqajIamkoSpF2ovDAguiBadDvQhcKW02nSoyv9pIb5I5yCoybFnot_oKqfnKlOBIt1nKQR0vE6KTIrCoyz5baRGesEYL5kYXsC5L2m00]--></g></svg>