<?xml version="1.0" encoding="us-ascii" standalone="no"?><svg xmlns="http://www.w3.org/2000/svg" xmlns:xlink="http://www.w3.org/1999/xlink" contentStyleType="text/css" height="584px" preserveAspectRatio="none" style="width:403px;height:584px;background:#FFFFFF;" version="1.1" viewBox="0 0 403 584" width="403px" zoomAndPan="magnify"><defs/><g><!--cluster ImGuiModule--><g id="cluster_ImGuiModule"><path d="M8.5,6 L102.5,6 A3.75,3.75 0 0 1 105,8.5 L112,29.6094 L393.5,29.6094 A2.5,2.5 0 0 1 396,32.1094 L396,574.5 A2.5,2.5 0 0 1 393.5,577 L8.5,577 A2.5,2.5 0 0 1 6,574.5 L6,8.5 A2.5,2.5 0 0 1 8.5,6 " fill="none" style="stroke:#000000;stroke-width:1.5;"/><line style="stroke:#000000;stroke-width:1.5;" x1="6" x2="112" y1="29.6094" y2="29.6094"/><text fill="#000000" font-family="sans-serif" font-size="14" font-weight="bold" lengthAdjust="spacing" textLength="93" x="10" y="22.5332">ImGuiModule</text></g><!--class GUIObject--><g id="elem_GUIObject"><rect codeLine="4" fill="#F1F1F1" height="188.875" id="GUIObject" rx="2.5" ry="2.5" style="stroke:#181818;stroke-width:0.5;" width="358" x="22" y="372"/><ellipse cx="164.75" cy="388" fill="#ADD1B2" rx="11" ry="11" style="stroke:#181818;stroke-width:1.0;"/><path d="M167.5156,383.875 Q167.6719,383.6563 167.8594,383.5469 Q168.0469,383.4375 168.2656,383.4375 Q168.6406,383.4375 168.875,383.7031 Q169.1094,383.9531 169.1094,384.5625 L169.1094,386.0156 Q169.1094,386.625 168.875,386.8906 Q168.6406,387.1563 168.2656,387.1563 Q167.9219,387.1563 167.7188,386.9531 Q167.5156,386.7656 167.4063,386.25 Q167.3594,385.8906 167.1719,385.7031 Q166.8438,385.3281 166.2344,385.1094 Q165.625,384.8906 165,384.8906 Q164.2344,384.8906 163.5938,385.2188 Q162.9688,385.5469 162.4688,386.2969 Q161.9844,387.0469 161.9844,388.0781 L161.9844,389.1719 Q161.9844,390.4063 162.875,391.2344 Q163.7656,392.0469 165.3594,392.0469 Q166.2969,392.0469 166.9531,391.7969 Q167.3438,391.6406 167.7656,391.2031 Q168.0313,390.9375 168.1719,390.8594 Q168.3281,390.7813 168.5313,390.7813 Q168.8594,390.7813 169.1094,391.0469 Q169.375,391.2969 169.375,391.6406 Q169.375,391.9844 169.0313,392.3906 Q168.5313,392.9688 167.7344,393.2969 Q166.6563,393.75 165.3594,393.75 Q163.8438,393.75 162.6406,393.125 Q161.6563,392.625 160.9688,391.5625 Q160.2813,390.4844 160.2813,389.2031 L160.2813,388.0469 Q160.2813,386.7188 160.8906,385.5781 Q161.5156,384.4219 162.6094,383.8125 Q163.7031,383.1875 164.9375,383.1875 Q165.6719,383.1875 166.3125,383.3594 Q166.9688,383.5156 167.5156,383.875 Z " fill="#000000"/><text fill="#000000" font-family="sans-serif" font-size="14" lengthAdjust="spacing" textLength="64" x="185.25" y="393.7285">GUIObject</text><line style="stroke:#181818;stroke-width:0.5;" x1="23" x2="379" y1="404" y2="404"/><rect fill="none" height="6" style="stroke:#C82930;stroke-width:1.0;" width="6" x="30" y="415.3047"/><text fill="#000000" font-family="sans-serif" font-size="14" lengthAdjust="spacing" textLength="129" x="42" y="422.5332">uint32_t m_objectID;</text><line style="stroke:#181818;stroke-width:0.5;" x1="23" x2="379" y1="429.6094" y2="429.6094"/><ellipse cx="33" cy="443.9141" fill="#84BE84" rx="3" ry="3" style="stroke:#038048;stroke-width:1.0;"/><text fill="#000000" font-family="sans-serif" font-size="14" lengthAdjust="spacing" textLength="78" x="42" y="448.1426">GUIObject();</text><ellipse cx="33" cy="461.5234" fill="#84BE84" rx="3" ry="3" style="stroke:#038048;stroke-width:1.0;"/><text fill="#000000" font-family="sans-serif" font-size="14" lengthAdjust="spacing" textLength="257" x="42" y="465.752">GUIObject(const GUIObject&amp; T) = delete;</text><ellipse cx="33" cy="479.1328" fill="#84BE84" rx="3" ry="3" style="stroke:#038048;stroke-width:1.0;"/><text fill="#000000" font-family="sans-serif" font-size="14" lengthAdjust="spacing" textLength="332" x="42" y="483.3613">GUIObject&amp; operator=(const GUIObject&amp; T) = delete;</text><ellipse cx="33" cy="496.7422" fill="#84BE84" rx="3" ry="3" style="stroke:#038048;stroke-width:1.0;"/><text fill="#000000" font-family="sans-serif" font-size="14" lengthAdjust="spacing" textLength="128" x="42" y="500.9707">virtual ~GUIObject();</text><text fill="#000000" font-family="sans-serif" font-size="14" lengthAdjust="spacing" textLength="4" x="42" y="518.5801">&#160;</text><ellipse cx="33" cy="531.9609" fill="#84BE84" rx="3" ry="3" style="stroke:#038048;stroke-width:1.0;"/><text fill="#000000" font-family="sans-serif" font-size="14" lengthAdjust="spacing" textLength="128" x="42" y="536.1895">virtual void render();</text><ellipse cx="33" cy="549.5703" fill="#84BE84" rx="3" ry="3" style="stroke:#038048;stroke-width:1.0;"/><text fill="#000000" font-family="sans-serif" font-size="14" lengthAdjust="spacing" textLength="140" x="42" y="553.7988">uint32_t getID() const;</text></g><!--class ImGuiModule--><g id="elem_ImGuiModule"><rect codeLine="17" fill="#F1F1F1" height="270.0156" id="ImGuiModule" rx="2.5" ry="2.5" style="stroke:#181818;stroke-width:0.5;" width="247" x="77.5" y="42"/><ellipse cx="155.75" cy="63.3516" fill="#ADD1B2" rx="11" ry="11" style="stroke:#181818;stroke-width:1.0;"/><path d="M158.5156,59.2266 Q158.6719,59.0078 158.8594,58.8984 Q159.0469,58.7891 159.2656,58.7891 Q159.6406,58.7891 159.875,59.0547 Q160.1094,59.3047 160.1094,59.9141 L160.1094,61.3672 Q160.1094,61.9766 159.875,62.2422 Q159.6406,62.5078 159.2656,62.5078 Q158.9219,62.5078 158.7188,62.3047 Q158.5156,62.1172 158.4063,61.6016 Q158.3594,61.2422 158.1719,61.0547 Q157.8438,60.6797 157.2344,60.4609 Q156.625,60.2422 156,60.2422 Q155.2344,60.2422 154.5938,60.5703 Q153.9688,60.8984 153.4688,61.6484 Q152.9844,62.3984 152.9844,63.4297 L152.9844,64.5234 Q152.9844,65.7578 153.875,66.5859 Q154.7656,67.3984 156.3594,67.3984 Q157.2969,67.3984 157.9531,67.1484 Q158.3438,66.9922 158.7656,66.5547 Q159.0313,66.2891 159.1719,66.2109 Q159.3281,66.1328 159.5313,66.1328 Q159.8594,66.1328 160.1094,66.3984 Q160.375,66.6484 160.375,66.9922 Q160.375,67.3359 160.0313,67.7422 Q159.5313,68.3203 158.7344,68.6484 Q157.6563,69.1016 156.3594,69.1016 Q154.8438,69.1016 153.6406,68.4766 Q152.6563,67.9766 151.9688,66.9141 Q151.2813,65.8359 151.2813,64.5547 L151.2813,63.3984 Q151.2813,62.0703 151.8906,60.9297 Q152.5156,59.7734 153.6094,59.1641 Q154.7031,58.5391 155.9375,58.5391 Q156.6719,58.5391 157.3125,58.7109 Q157.9688,58.8672 158.5156,59.2266 Z " fill="#000000"/><text fill="#000000" font-family="sans-serif" font-size="12" font-style="italic" lengthAdjust="spacing" textLength="71" x="181.75" y="59.457">&#171;singletone&#187;</text><text fill="#000000" font-family="sans-serif" font-size="14" lengthAdjust="spacing" textLength="82" x="176.25" y="76.627">ImGuiModule</text><line style="stroke:#181818;stroke-width:0.5;" x1="78.5" x2="323.5" y1="84.7031" y2="84.7031"/><rect fill="none" height="6" style="stroke:#C82930;stroke-width:1.0;" width="6" x="85.5" y="96.0078"/><text fill="#000000" font-family="sans-serif" font-size="14" lengthAdjust="spacing" textLength="221" x="97.5" y="103.2363">vector&lt;GUIObject*&gt; m_GuiObjects;</text><line style="stroke:#181818;stroke-width:0.5;" x1="78.5" x2="323.5" y1="110.3125" y2="110.3125"/><rect fill="#F24D5C" height="6" style="stroke:#C82930;stroke-width:1.0;" width="6" x="85.5" y="121.6172"/><text fill="#000000" font-family="sans-serif" font-size="14" lengthAdjust="spacing" textLength="155" x="97.5" y="128.8457">ImGuiModule() = default;</text><text fill="#000000" font-family="sans-serif" font-size="14" lengthAdjust="spacing" textLength="4" x="97.5" y="146.4551">&#160;</text><ellipse cx="88.5" cy="159.8359" fill="#84BE84" rx="3" ry="3" style="stroke:#038048;stroke-width:1.0;"/><text fill="#000000" font-family="sans-serif" font-size="14" lengthAdjust="spacing" textLength="163" x="97.5" y="164.0645">~ImGuiModule() = default;</text><ellipse cx="88.5" cy="177.4453" fill="#84BE84" rx="3" ry="3" style="stroke:#038048;stroke-width:1.0;"/><text fill="#000000" font-family="sans-serif" font-size="14" lengthAdjust="spacing" textLength="88" x="97.5" y="181.6738">void startup();</text><ellipse cx="88.5" cy="195.0547" fill="#84BE84" rx="3" ry="3" style="stroke:#038048;stroke-width:1.0;"/><text fill="#000000" font-family="sans-serif" font-size="14" lengthAdjust="spacing" textLength="104" x="97.5" y="199.2832">void shutdown();</text><text fill="#000000" font-family="sans-serif" font-size="14" lengthAdjust="spacing" textLength="4" x="97.5" y="216.8926">&#160;</text><ellipse cx="88.5" cy="230.2734" fill="#84BE84" rx="3" ry="3" style="stroke:#038048;stroke-width:1.0;"/><text fill="#000000" font-family="sans-serif" font-size="14" lengthAdjust="spacing" textLength="219" x="97.5" y="234.502">static ImGuiModule&amp; getInstance();</text><ellipse cx="88.5" cy="247.8828" fill="#84BE84" rx="3" ry="3" style="stroke:#038048;stroke-width:1.0;"/><text fill="#000000" font-family="sans-serif" font-size="14" lengthAdjust="spacing" textLength="130" x="97.5" y="252.1113">void setImGuiStyle();</text><ellipse cx="88.5" cy="265.4922" fill="#84BE84" rx="3" ry="3" style="stroke:#038048;stroke-width:1.0;"/><text fill="#000000" font-family="sans-serif" font-size="14" lengthAdjust="spacing" textLength="136" x="97.5" y="269.7207">void renderUI() const;</text><ellipse cx="88.5" cy="283.1016" fill="#84BE84" rx="3" ry="3" style="stroke:#038048;stroke-width:1.0;"/><text fill="#000000" font-family="sans-serif" font-size="14" lengthAdjust="spacing" textLength="220" x="97.5" y="287.3301">void addObject(GUIObject* object);</text><ellipse cx="88.5" cy="300.7109" fill="#84BE84" rx="3" ry="3" style="stroke:#038048;stroke-width:1.0;"/><text fill="#000000" font-family="sans-serif" font-size="14" lengthAdjust="spacing" textLength="198" x="97.5" y="304.9395">void removeObject(uint32_t id);</text></g><!--reverse link ImGuiModule to GUIObject--><g id="link_ImGuiModule_GUIObject"><path codeLine="33" d="M201,324.07 C201,344.27 201,352.73 201,371.84 " fill="none" id="ImGuiModule-backto-GUIObject" style="stroke:#181818;stroke-width:1.0;"/><polygon fill="#181818" points="201,312.07,197,318.07,201,324.07,205,318.07,201,312.07" style="stroke:#181818;stroke-width:1.0;"/></g><!--SRC=[ZLAnJiCm4Dtp5JT5IL4M69jcGgeo80ReN9du20R7Zcmd2A7sst7YAhOXIFLcltTtxxrpJveFqYBKtNvW3v8E79Fl1EnfED4QzeVwyUKT6mFpeuEcKmnCcBlReu7kA6T6VRzD5lXcASpoxTfh8uKsldqAppdiW297Wsi5ASWU5J5IxQwj7Pao0-5mZhJynKV9A2WK55KaTd7OeZMNvJ3FTOHJ4eGKX0TbgPbehH8fiAf-XpPQ4LALYw1DPUEpnUwc_V0Yw9avTwzau2RKV_wNuorErhGXrcWVUNF0ss2e_1HnB9PkM1EQIkS4h7SY6bnfOy69_6I- -0hiaZtKSO0U9vHUjkDZ0VUbLdfrSiGBVTaFetcqbN0VcwBmFoKv_G00]--></g></svg>