<?xml version="1.0" encoding="us-ascii" standalone="no"?><svg xmlns="http://www.w3.org/2000/svg" xmlns:xlink="http://www.w3.org/1999/xlink" contentStyleType="text/css" height="1308px" preserveAspectRatio="none" style="width:2476px;height:1308px;background:#FFFFFF;" version="1.1" viewBox="0 0 2476 1308" width="2476px" zoomAndPan="magnify"><defs/><g><!--cluster EditorUIModule--><g id="cluster_EditorUIModule"><path d="M8.5,6 L118.5,6 A3.75,3.75 0 0 1 121,8.5 L128,29.6094 L2466.5,29.6094 A2.5,2.5 0 0 1 2469,32.1094 L2469,1298.5 A2.5,2.5 0 0 1 2466.5,1301 L8.5,1301 A2.5,2.5 0 0 1 6,1298.5 L6,8.5 A2.5,2.5 0 0 1 8.5,6 " fill="none" style="stroke:#000000;stroke-width:1.5;"/><line style="stroke:#000000;stroke-width:1.5;" x1="6" x2="128" y1="29.6094" y2="29.6094"/><text fill="#000000" font-family="sans-serif" font-size="14" font-weight="bold" lengthAdjust="spacing" textLength="109" x="10" y="22.5332">EditorUIModule</text></g><!--cluster GUIObjects--><g id="cluster_GUIObjects"><path d="M40.5,354 L120.5,354 A3.75,3.75 0 0 1 123,356.5 L130,377.6094 L2434.5,377.6094 A2.5,2.5 0 0 1 2437,380.1094 L2437,1266.5 A2.5,2.5 0 0 1 2434.5,1269 L40.5,1269 A2.5,2.5 0 0 1 38,1266.5 L38,356.5 A2.5,2.5 0 0 1 40.5,354 " fill="none" style="stroke:#000000;stroke-width:1.5;"/><line style="stroke:#000000;stroke-width:1.5;" x1="38" x2="130" y1="377.6094" y2="377.6094"/><text fill="#000000" font-family="sans-serif" font-size="14" font-weight="bold" lengthAdjust="spacing" textLength="79" x="42" y="370.5332">GUIObjects</text></g><!--cluster ImGuiModule--><g id="cluster_ImGuiModule"><path d="M1088.5,406 L1182.5,406 A3.75,3.75 0 0 1 1185,408.5 L1192,429.6094 L1473.5,429.6094 A2.5,2.5 0 0 1 1476,432.1094 L1476,974.5 A2.5,2.5 0 0 1 1473.5,977 L1088.5,977 A2.5,2.5 0 0 1 1086,974.5 L1086,408.5 A2.5,2.5 0 0 1 1088.5,406 " fill="none" style="stroke:#000000;stroke-width:1.5;"/><line style="stroke:#000000;stroke-width:1.5;" x1="1086" x2="1192" y1="429.6094" y2="429.6094"/><text fill="#000000" font-family="sans-serif" font-size="14" font-weight="bold" lengthAdjust="spacing" textLength="93" x="1090" y="422.5332">ImGuiModule</text></g><!--class EditorUIModule--><g id="elem_EditorUIModule"><rect codeLine="87" fill="#F1F1F1" height="287.625" id="EditorUIModule" rx="2.5" ry="2.5" style="stroke:#181818;stroke-width:0.5;" width="359" x="22.5" y="42"/><ellipse cx="150.25" cy="63.3516" fill="#ADD1B2" rx="11" ry="11" style="stroke:#181818;stroke-width:1.0;"/><path d="M153.0156,59.2266 Q153.1719,59.0078 153.3594,58.8984 Q153.5469,58.7891 153.7656,58.7891 Q154.1406,58.7891 154.375,59.0547 Q154.6094,59.3047 154.6094,59.9141 L154.6094,61.3672 Q154.6094,61.9766 154.375,62.2422 Q154.1406,62.5078 153.7656,62.5078 Q153.4219,62.5078 153.2188,62.3047 Q153.0156,62.1172 152.9063,61.6016 Q152.8594,61.2422 152.6719,61.0547 Q152.3438,60.6797 151.7344,60.4609 Q151.125,60.2422 150.5,60.2422 Q149.7344,60.2422 149.0938,60.5703 Q148.4688,60.8984 147.9688,61.6484 Q147.4844,62.3984 147.4844,63.4297 L147.4844,64.5234 Q147.4844,65.7578 148.375,66.5859 Q149.2656,67.3984 150.8594,67.3984 Q151.7969,67.3984 152.4531,67.1484 Q152.8438,66.9922 153.2656,66.5547 Q153.5313,66.2891 153.6719,66.2109 Q153.8281,66.1328 154.0313,66.1328 Q154.3594,66.1328 154.6094,66.3984 Q154.875,66.6484 154.875,66.9922 Q154.875,67.3359 154.5313,67.7422 Q154.0313,68.3203 153.2344,68.6484 Q152.1563,69.1016 150.8594,69.1016 Q149.3438,69.1016 148.1406,68.4766 Q147.1563,67.9766 146.4688,66.9141 Q145.7813,65.8359 145.7813,64.5547 L145.7813,63.3984 Q145.7813,62.0703 146.3906,60.9297 Q147.0156,59.7734 148.1094,59.1641 Q149.2031,58.5391 150.4375,58.5391 Q151.1719,58.5391 151.8125,58.7109 Q152.4688,58.8672 153.0156,59.2266 Z " fill="#000000"/><text fill="#000000" font-family="sans-serif" font-size="12" font-style="italic" lengthAdjust="spacing" textLength="71" x="182.75" y="59.457">&#171;singletone&#187;</text><text fill="#000000" font-family="sans-serif" font-size="14" lengthAdjust="spacing" textLength="95" x="170.75" y="76.627">EditorUIModule</text><line style="stroke:#181818;stroke-width:0.5;" x1="23.5" x2="380.5" y1="84.7031" y2="84.7031"/><rect fill="none" height="6" style="stroke:#C82930;stroke-width:1.0;" width="6" x="30.5" y="96.0078"/><text fill="#000000" font-family="sans-serif" font-size="14" lengthAdjust="spacing" textLength="294" x="42.5" y="103.2363">unique_ptr&lt;GUIEditorToolPanel&gt; m_toolPanel;</text><rect fill="none" height="6" style="stroke:#C82930;stroke-width:1.0;" width="6" x="30.5" y="113.6172"/><text fill="#000000" font-family="sans-serif" font-size="14" lengthAdjust="spacing" textLength="308" x="42.5" y="120.8457">unique_ptr&lt;GUIMainMenuBar&gt; m_mainMenuBar;</text><rect fill="none" height="6" style="stroke:#C82930;stroke-width:1.0;" width="6" x="30.5" y="131.2266"/><text fill="#000000" font-family="sans-serif" font-size="14" lengthAdjust="spacing" textLength="265" x="42.5" y="138.4551">unique_ptr&lt;GUIOutputLog&gt; m_outputLog;</text><rect fill="none" height="6" style="stroke:#C82930;stroke-width:1.0;" width="6" x="30.5" y="148.8359"/><text fill="#000000" font-family="sans-serif" font-size="14" lengthAdjust="spacing" textLength="333" x="42.5" y="156.0645">unique_ptr&lt;GUIContentBrowser&gt; m_contentBrowser;</text><rect fill="none" height="6" style="stroke:#C82930;stroke-width:1.0;" width="6" x="30.5" y="166.4453"/><text fill="#000000" font-family="sans-serif" font-size="14" lengthAdjust="spacing" textLength="320" x="42.5" y="173.6738">unique_ptr&lt;GUIWorldInspector&gt; m_worldInspector;</text><rect fill="none" height="6" style="stroke:#C82930;stroke-width:1.0;" width="6" x="30.5" y="184.0547"/><text fill="#000000" font-family="sans-serif" font-size="14" lengthAdjust="spacing" textLength="315" x="42.5" y="191.2832">unique_ptr&lt;GUIEditorViewport&gt; m_editorViewport;</text><rect fill="none" height="6" style="stroke:#C82930;stroke-width:1.0;" width="6" x="30.5" y="201.6641"/><text fill="#000000" font-family="sans-serif" font-size="14" lengthAdjust="spacing" textLength="272" x="42.5" y="208.8926">unique_ptr&lt;GUIEditorConsole&gt; m_console;</text><line style="stroke:#181818;stroke-width:0.5;" x1="23.5" x2="380.5" y1="215.9688" y2="215.9688"/><ellipse cx="33.5" cy="230.2734" fill="#84BE84" rx="3" ry="3" style="stroke:#038048;stroke-width:1.0;"/><text fill="#000000" font-family="sans-serif" font-size="14" lengthAdjust="spacing" textLength="232" x="42.5" y="234.502">static EditorUIModule&amp; getInstance();</text><ellipse cx="33.5" cy="247.8828" fill="#84BE84" rx="3" ry="3" style="stroke:#038048;stroke-width:1.0;"/><text fill="#000000" font-family="sans-serif" font-size="14" lengthAdjust="spacing" textLength="88" x="42.5" y="252.1113">void startup();</text><ellipse cx="33.5" cy="265.4922" fill="#84BE84" rx="3" ry="3" style="stroke:#038048;stroke-width:1.0;"/><text fill="#000000" font-family="sans-serif" font-size="14" lengthAdjust="spacing" textLength="86" x="42.5" y="269.7207">void render();</text><ellipse cx="33.5" cy="283.1016" fill="#84BE84" rx="3" ry="3" style="stroke:#038048;stroke-width:1.0;"/><text fill="#000000" font-family="sans-serif" font-size="14" lengthAdjust="spacing" textLength="104" x="42.5" y="287.3301">void shutdown();</text><text fill="#000000" font-family="sans-serif" font-size="14" lengthAdjust="spacing" textLength="4" x="42.5" y="304.9395">&#160;</text><ellipse cx="33.5" cy="318.3203" fill="#84BE84" rx="3" ry="3" style="stroke:#038048;stroke-width:1.0;"/><text fill="#000000" font-family="sans-serif" font-size="14" lengthAdjust="spacing" textLength="210" x="42.5" y="322.5488">GUIMainMenuBar* getMenuBar();</text></g><!--class GUIContentBrowser--><g id="elem_GUIContentBrowser"><rect codeLine="6" fill="#F1F1F1" height="224.0938" id="GUIContentBrowser" rx="2.5" ry="2.5" style="stroke:#181818;stroke-width:0.5;" width="287" x="70.5" y="1021"/><ellipse cx="147.75" cy="1037" fill="#ADD1B2" rx="11" ry="11" style="stroke:#181818;stroke-width:1.0;"/><path d="M150.5156,1032.875 Q150.6719,1032.6563 150.8594,1032.5469 Q151.0469,1032.4375 151.2656,1032.4375 Q151.6406,1032.4375 151.875,1032.7031 Q152.1094,1032.9531 152.1094,1033.5625 L152.1094,1035.0156 Q152.1094,1035.625 151.875,1035.8906 Q151.6406,1036.1563 151.2656,1036.1563 Q150.9219,1036.1563 150.7188,1035.9531 Q150.5156,1035.7656 150.4063,1035.25 Q150.3594,1034.8906 150.1719,1034.7031 Q149.8438,1034.3281 149.2344,1034.1094 Q148.625,1033.8906 148,1033.8906 Q147.2344,1033.8906 146.5938,1034.2188 Q145.9688,1034.5469 145.4688,1035.2969 Q144.9844,1036.0469 144.9844,1037.0781 L144.9844,1038.1719 Q144.9844,1039.4063 145.875,1040.2344 Q146.7656,1041.0469 148.3594,1041.0469 Q149.2969,1041.0469 149.9531,1040.7969 Q150.3438,1040.6406 150.7656,1040.2031 Q151.0313,1039.9375 151.1719,1039.8594 Q151.3281,1039.7813 151.5313,1039.7813 Q151.8594,1039.7813 152.1094,1040.0469 Q152.375,1040.2969 152.375,1040.6406 Q152.375,1040.9844 152.0313,1041.3906 Q151.5313,1041.9688 150.7344,1042.2969 Q149.6563,1042.75 148.3594,1042.75 Q146.8438,1042.75 145.6406,1042.125 Q144.6563,1041.625 143.9688,1040.5625 Q143.2813,1039.4844 143.2813,1038.2031 L143.2813,1037.0469 Q143.2813,1035.7188 143.8906,1034.5781 Q144.5156,1033.4219 145.6094,1032.8125 Q146.7031,1032.1875 147.9375,1032.1875 Q148.6719,1032.1875 149.3125,1032.3594 Q149.9688,1032.5156 150.5156,1032.875 Z " fill="#000000"/><text fill="#000000" font-family="sans-serif" font-size="14" lengthAdjust="spacing" textLength="124" x="168.25" y="1042.7285">GUIContentBrowser</text><line style="stroke:#181818;stroke-width:0.5;" x1="71.5" x2="356.5" y1="1053" y2="1053"/><rect fill="none" height="6" style="stroke:#C82930;stroke-width:1.0;" width="6" x="78.5" y="1064.3047"/><text fill="#000000" font-family="sans-serif" font-size="14" lengthAdjust="spacing" textLength="173" x="90.5" y="1071.5332">DirectoryInterator m_dirIter;</text><rect fill="none" height="6" style="stroke:#C82930;stroke-width:1.0;" width="6" x="78.5" y="1081.9141"/><text fill="#000000" font-family="sans-serif" font-size="14" lengthAdjust="spacing" textLength="116" x="90.5" y="1089.1426">string m_rootPath;</text><rect fill="none" height="6" style="stroke:#C82930;stroke-width:1.0;" width="6" x="78.5" y="1099.5234"/><text fill="#000000" font-family="sans-serif" font-size="14" lengthAdjust="spacing" textLength="136" x="90.5" y="1106.752">string m_currentPath;</text><rect fill="none" height="6" style="stroke:#C82930;stroke-width:1.0;" width="6" x="78.5" y="1117.1328"/><text fill="#000000" font-family="sans-serif" font-size="14" lengthAdjust="spacing" textLength="142" x="90.5" y="1124.3613">vector&lt;string&gt; m_files;</text><rect fill="none" height="6" style="stroke:#C82930;stroke-width:1.0;" width="6" x="78.5" y="1134.7422"/><text fill="#000000" font-family="sans-serif" font-size="14" lengthAdjust="spacing" textLength="160" x="90.5" y="1141.9707">vector&lt;string&gt; m_folders;</text><line style="stroke:#181818;stroke-width:0.5;" x1="71.5" x2="356.5" y1="1149.0469" y2="1149.0469"/><ellipse cx="81.5" cy="1163.3516" fill="#84BE84" rx="3" ry="3" style="stroke:#038048;stroke-width:1.0;"/><text fill="#000000" font-family="sans-serif" font-size="14" lengthAdjust="spacing" textLength="138" x="90.5" y="1167.5801">GUIContentBrowser();</text><ellipse cx="81.5" cy="1180.9609" fill="#84BE84" rx="3" ry="3" style="stroke:#038048;stroke-width:1.0;"/><text fill="#000000" font-family="sans-serif" font-size="14" lengthAdjust="spacing" textLength="261" x="90.5" y="1185.1895">~GUIContentBrowser() override = default;</text><ellipse cx="81.5" cy="1198.5703" fill="#84BE84" rx="3" ry="3" style="stroke:#038048;stroke-width:1.0;"/><text fill="#000000" font-family="sans-serif" font-size="14" lengthAdjust="spacing" textLength="142" x="90.5" y="1202.7988">void render() override;</text><text fill="#000000" font-family="sans-serif" font-size="14" lengthAdjust="spacing" textLength="4" x="90.5" y="1220.4082">&#160;</text><rect fill="#F24D5C" height="6" style="stroke:#C82930;stroke-width:1.0;" width="6" x="78.5" y="1230.7891"/><text fill="#000000" font-family="sans-serif" font-size="14" lengthAdjust="spacing" textLength="138" x="90.5" y="1238.0176">void updateContent();</text></g><!--class GUIWorldInspector--><g id="elem_GUIWorldInspector"><rect codeLine="21" fill="#F1F1F1" height="206.4844" id="GUIWorldInspector" rx="2.5" ry="2.5" style="stroke:#181818;stroke-width:0.5;" width="323" x="392.5" y="1030"/><ellipse cx="490.75" cy="1046" fill="#ADD1B2" rx="11" ry="11" style="stroke:#181818;stroke-width:1.0;"/><path d="M493.5156,1041.875 Q493.6719,1041.6563 493.8594,1041.5469 Q494.0469,1041.4375 494.2656,1041.4375 Q494.6406,1041.4375 494.875,1041.7031 Q495.1094,1041.9531 495.1094,1042.5625 L495.1094,1044.0156 Q495.1094,1044.625 494.875,1044.8906 Q494.6406,1045.1563 494.2656,1045.1563 Q493.9219,1045.1563 493.7188,1044.9531 Q493.5156,1044.7656 493.4063,1044.25 Q493.3594,1043.8906 493.1719,1043.7031 Q492.8438,1043.3281 492.2344,1043.1094 Q491.625,1042.8906 491,1042.8906 Q490.2344,1042.8906 489.5938,1043.2188 Q488.9688,1043.5469 488.4688,1044.2969 Q487.9844,1045.0469 487.9844,1046.0781 L487.9844,1047.1719 Q487.9844,1048.4063 488.875,1049.2344 Q489.7656,1050.0469 491.3594,1050.0469 Q492.2969,1050.0469 492.9531,1049.7969 Q493.3438,1049.6406 493.7656,1049.2031 Q494.0313,1048.9375 494.1719,1048.8594 Q494.3281,1048.7813 494.5313,1048.7813 Q494.8594,1048.7813 495.1094,1049.0469 Q495.375,1049.2969 495.375,1049.6406 Q495.375,1049.9844 495.0313,1050.3906 Q494.5313,1050.9688 493.7344,1051.2969 Q492.6563,1051.75 491.3594,1051.75 Q489.8438,1051.75 488.6406,1051.125 Q487.6563,1050.625 486.9688,1049.5625 Q486.2813,1048.4844 486.2813,1047.2031 L486.2813,1046.0469 Q486.2813,1044.7188 486.8906,1043.5781 Q487.5156,1042.4219 488.6094,1041.8125 Q489.7031,1041.1875 490.9375,1041.1875 Q491.6719,1041.1875 492.3125,1041.3594 Q492.9688,1041.5156 493.5156,1041.875 Z " fill="#000000"/><text fill="#000000" font-family="sans-serif" font-size="14" lengthAdjust="spacing" textLength="118" x="511.25" y="1051.7285">GUIWorldInspector</text><line style="stroke:#181818;stroke-width:0.5;" x1="393.5" x2="714.5" y1="1062" y2="1062"/><rect fill="none" height="6" style="stroke:#C82930;stroke-width:1.0;" width="6" x="400.5" y="1073.3047"/><text fill="#000000" font-family="sans-serif" font-size="14" lengthAdjust="spacing" textLength="139" x="412.5" y="1080.5332">flecs::world&amp; m_world;</text><rect fill="none" height="6" style="stroke:#C82930;stroke-width:1.0;" width="6" x="400.5" y="1090.9141"/><text fill="#000000" font-family="sans-serif" font-size="14" lengthAdjust="spacing" textLength="186" x="412.5" y="1098.1426">flecs::entity m_selectedEntity;</text><line style="stroke:#181818;stroke-width:0.5;" x1="393.5" x2="714.5" y1="1105.2188" y2="1105.2188"/><ellipse cx="403.5" cy="1119.5234" fill="#84BE84" rx="3" ry="3" style="stroke:#038048;stroke-width:1.0;"/><text fill="#000000" font-family="sans-serif" font-size="14" lengthAdjust="spacing" textLength="141" x="412.5" y="1123.752">GUIWSorldInspector();</text><ellipse cx="403.5" cy="1137.1328" fill="#84BE84" rx="3" ry="3" style="stroke:#038048;stroke-width:1.0;"/><text fill="#000000" font-family="sans-serif" font-size="14" lengthAdjust="spacing" textLength="297" x="412.5" y="1141.3613">virtual ~GUIWorldInspector() override = default;</text><ellipse cx="403.5" cy="1154.7422" fill="#84BE84" rx="3" ry="3" style="stroke:#038048;stroke-width:1.0;"/><text fill="#000000" font-family="sans-serif" font-size="14" lengthAdjust="spacing" textLength="184" x="412.5" y="1158.9707">virtual void render() override;</text><text fill="#000000" font-family="sans-serif" font-size="14" lengthAdjust="spacing" textLength="4" x="412.5" y="1176.5801">&#160;</text><rect fill="#F24D5C" height="6" style="stroke:#C82930;stroke-width:1.0;" width="6" x="400.5" y="1186.9609"/><text fill="#000000" font-family="sans-serif" font-size="14" lengthAdjust="spacing" textLength="192" x="412.5" y="1194.1895">void renderEntityTreePopup();</text><rect fill="#F24D5C" height="6" style="stroke:#C82930;stroke-width:1.0;" width="6" x="400.5" y="1204.5703"/><text fill="#000000" font-family="sans-serif" font-size="14" lengthAdjust="spacing" textLength="151" x="412.5" y="1211.7988">void renderEntityTree();</text><rect fill="#F24D5C" height="6" style="stroke:#C82930;stroke-width:1.0;" width="6" x="400.5" y="1222.1797"/><text fill="#000000" font-family="sans-serif" font-size="14" lengthAdjust="spacing" textLength="228" x="412.5" y="1229.4082">void renderSelectedEntityDefaults();</text></g><!--class GUIEditorConsole--><g id="elem_GUIEditorConsole"><rect codeLine="35" fill="#F1F1F1" height="153.6563" id="GUIEditorConsole" rx="2.5" ry="2.5" style="stroke:#181818;stroke-width:0.5;" width="331" x="750.5" y="1056"/><ellipse cx="855.75" cy="1072" fill="#ADD1B2" rx="11" ry="11" style="stroke:#181818;stroke-width:1.0;"/><path d="M858.5156,1067.875 Q858.6719,1067.6563 858.8594,1067.5469 Q859.0469,1067.4375 859.2656,1067.4375 Q859.6406,1067.4375 859.875,1067.7031 Q860.1094,1067.9531 860.1094,1068.5625 L860.1094,1070.0156 Q860.1094,1070.625 859.875,1070.8906 Q859.6406,1071.1563 859.2656,1071.1563 Q858.9219,1071.1563 858.7188,1070.9531 Q858.5156,1070.7656 858.4063,1070.25 Q858.3594,1069.8906 858.1719,1069.7031 Q857.8438,1069.3281 857.2344,1069.1094 Q856.625,1068.8906 856,1068.8906 Q855.2344,1068.8906 854.5938,1069.2188 Q853.9688,1069.5469 853.4688,1070.2969 Q852.9844,1071.0469 852.9844,1072.0781 L852.9844,1073.1719 Q852.9844,1074.4063 853.875,1075.2344 Q854.7656,1076.0469 856.3594,1076.0469 Q857.2969,1076.0469 857.9531,1075.7969 Q858.3438,1075.6406 858.7656,1075.2031 Q859.0313,1074.9375 859.1719,1074.8594 Q859.3281,1074.7813 859.5313,1074.7813 Q859.8594,1074.7813 860.1094,1075.0469 Q860.375,1075.2969 860.375,1075.6406 Q860.375,1075.9844 860.0313,1076.3906 Q859.5313,1076.9688 858.7344,1077.2969 Q857.6563,1077.75 856.3594,1077.75 Q854.8438,1077.75 853.6406,1077.125 Q852.6563,1076.625 851.9688,1075.5625 Q851.2813,1074.4844 851.2813,1073.2031 L851.2813,1072.0469 Q851.2813,1070.7188 851.8906,1069.5781 Q852.5156,1068.4219 853.6094,1067.8125 Q854.7031,1067.1875 855.9375,1067.1875 Q856.6719,1067.1875 857.3125,1067.3594 Q857.9688,1067.5156 858.5156,1067.875 Z " fill="#000000"/><text fill="#000000" font-family="sans-serif" font-size="14" lengthAdjust="spacing" textLength="112" x="876.25" y="1077.7285">GUIEditorConsole</text><line style="stroke:#181818;stroke-width:0.5;" x1="751.5" x2="1080.5" y1="1088" y2="1088"/><line style="stroke:#181818;stroke-width:0.5;" x1="751.5" x2="1080.5" y1="1096" y2="1096"/><ellipse cx="761.5" cy="1110.3047" fill="#84BE84" rx="3" ry="3" style="stroke:#038048;stroke-width:1.0;"/><text fill="#000000" font-family="sans-serif" font-size="14" lengthAdjust="spacing" textLength="126" x="770.5" y="1114.5332">GUIEditorConsole();</text><ellipse cx="761.5" cy="1127.9141" fill="#84BE84" rx="3" ry="3" style="stroke:#038048;stroke-width:1.0;"/><text fill="#000000" font-family="sans-serif" font-size="14" lengthAdjust="spacing" textLength="249" x="770.5" y="1132.1426">~GUIEditorConsole() override = default;</text><text fill="#000000" font-family="sans-serif" font-size="14" lengthAdjust="spacing" textLength="4" x="770.5" y="1149.752">&#160;</text><ellipse cx="761.5" cy="1163.1328" fill="#84BE84" rx="3" ry="3" style="stroke:#038048;stroke-width:1.0;"/><text fill="#000000" font-family="sans-serif" font-size="14" lengthAdjust="spacing" textLength="142" x="770.5" y="1167.3613">void render() override;</text><text fill="#000000" font-family="sans-serif" font-size="14" lengthAdjust="spacing" textLength="4" x="770.5" y="1184.9707">&#160;</text><rect fill="#F24D5C" height="6" style="stroke:#C82930;stroke-width:1.0;" width="6" x="758.5" y="1195.3516"/><text fill="#000000" font-family="sans-serif" font-size="14" lengthAdjust="spacing" textLength="305" x="770.5" y="1202.5801">void processCommand(const string&amp; command);</text></g><!--class GUIEditorToolPanel--><g id="elem_GUIEditorToolPanel"><rect codeLine="45" fill="#F1F1F1" height="153.6563" id="GUIEditorToolPanel" rx="2.5" ry="2.5" style="stroke:#181818;stroke-width:0.5;" width="329" x="1116.5" y="1056"/><ellipse cx="1214.75" cy="1072" fill="#ADD1B2" rx="11" ry="11" style="stroke:#181818;stroke-width:1.0;"/><path d="M1217.5156,1067.875 Q1217.6719,1067.6563 1217.8594,1067.5469 Q1218.0469,1067.4375 1218.2656,1067.4375 Q1218.6406,1067.4375 1218.875,1067.7031 Q1219.1094,1067.9531 1219.1094,1068.5625 L1219.1094,1070.0156 Q1219.1094,1070.625 1218.875,1070.8906 Q1218.6406,1071.1563 1218.2656,1071.1563 Q1217.9219,1071.1563 1217.7188,1070.9531 Q1217.5156,1070.7656 1217.4063,1070.25 Q1217.3594,1069.8906 1217.1719,1069.7031 Q1216.8438,1069.3281 1216.2344,1069.1094 Q1215.625,1068.8906 1215,1068.8906 Q1214.2344,1068.8906 1213.5938,1069.2188 Q1212.9688,1069.5469 1212.4688,1070.2969 Q1211.9844,1071.0469 1211.9844,1072.0781 L1211.9844,1073.1719 Q1211.9844,1074.4063 1212.875,1075.2344 Q1213.7656,1076.0469 1215.3594,1076.0469 Q1216.2969,1076.0469 1216.9531,1075.7969 Q1217.3438,1075.6406 1217.7656,1075.2031 Q1218.0313,1074.9375 1218.1719,1074.8594 Q1218.3281,1074.7813 1218.5313,1074.7813 Q1218.8594,1074.7813 1219.1094,1075.0469 Q1219.375,1075.2969 1219.375,1075.6406 Q1219.375,1075.9844 1219.0313,1076.3906 Q1218.5313,1076.9688 1217.7344,1077.2969 Q1216.6563,1077.75 1215.3594,1077.75 Q1213.8438,1077.75 1212.6406,1077.125 Q1211.6563,1076.625 1210.9688,1075.5625 Q1210.2813,1074.4844 1210.2813,1073.2031 L1210.2813,1072.0469 Q1210.2813,1070.7188 1210.8906,1069.5781 Q1211.5156,1068.4219 1212.6094,1067.8125 Q1213.7031,1067.1875 1214.9375,1067.1875 Q1215.6719,1067.1875 1216.3125,1067.3594 Q1216.9688,1067.5156 1217.5156,1067.875 Z " fill="#000000"/><text fill="#000000" font-family="sans-serif" font-size="14" lengthAdjust="spacing" textLength="124" x="1235.25" y="1077.7285">GUIEditorToolPanel</text><line style="stroke:#181818;stroke-width:0.5;" x1="1117.5" x2="1444.5" y1="1088" y2="1088"/><rect fill="none" height="6" style="stroke:#C82930;stroke-width:1.0;" width="6" x="1124.5" y="1099.3047"/><text fill="#000000" font-family="sans-serif" font-size="14" lengthAdjust="spacing" textLength="178" x="1136.5" y="1106.5332">ECSModule&amp; m_ecsModule;</text><line style="stroke:#181818;stroke-width:0.5;" x1="1117.5" x2="1444.5" y1="1113.6094" y2="1113.6094"/><ellipse cx="1127.5" cy="1127.9141" fill="#84BE84" rx="3" ry="3" style="stroke:#038048;stroke-width:1.0;"/><text fill="#000000" font-family="sans-serif" font-size="14" lengthAdjust="spacing" textLength="138" x="1136.5" y="1132.1426">GUIEditorToolPanel();</text><ellipse cx="1127.5" cy="1145.5234" fill="#84BE84" rx="3" ry="3" style="stroke:#038048;stroke-width:1.0;"/><text fill="#000000" font-family="sans-serif" font-size="14" lengthAdjust="spacing" textLength="303" x="1136.5" y="1149.752">virtual ~GUIEditorToolPanel() override = default;</text><ellipse cx="1127.5" cy="1163.1328" fill="#84BE84" rx="3" ry="3" style="stroke:#038048;stroke-width:1.0;"/><text fill="#000000" font-family="sans-serif" font-size="14" lengthAdjust="spacing" textLength="184" x="1136.5" y="1167.3613">virtual void render() override;</text><text fill="#000000" font-family="sans-serif" font-size="14" lengthAdjust="spacing" textLength="4" x="1136.5" y="1184.9707">&#160;</text><rect fill="#F24D5C" height="6" style="stroke:#C82930;stroke-width:1.0;" width="6" x="1124.5" y="1195.3516"/><text fill="#000000" font-family="sans-serif" font-size="14" lengthAdjust="spacing" textLength="196" x="1136.5" y="1202.5801">void renderSaveWorldPopup();</text></g><!--class GUIEditorViewport--><g id="elem_GUIEditorViewport"><rect codeLine="56" fill="#F1F1F1" height="118.4375" id="GUIEditorViewport" rx="2.5" ry="2.5" style="stroke:#181818;stroke-width:0.5;" width="260" x="1481" y="1074"/><ellipse cx="1549.75" cy="1090" fill="#ADD1B2" rx="11" ry="11" style="stroke:#181818;stroke-width:1.0;"/><path d="M1552.5156,1085.875 Q1552.6719,1085.6563 1552.8594,1085.5469 Q1553.0469,1085.4375 1553.2656,1085.4375 Q1553.6406,1085.4375 1553.875,1085.7031 Q1554.1094,1085.9531 1554.1094,1086.5625 L1554.1094,1088.0156 Q1554.1094,1088.625 1553.875,1088.8906 Q1553.6406,1089.1563 1553.2656,1089.1563 Q1552.9219,1089.1563 1552.7188,1088.9531 Q1552.5156,1088.7656 1552.4063,1088.25 Q1552.3594,1087.8906 1552.1719,1087.7031 Q1551.8438,1087.3281 1551.2344,1087.1094 Q1550.625,1086.8906 1550,1086.8906 Q1549.2344,1086.8906 1548.5938,1087.2188 Q1547.9688,1087.5469 1547.4688,1088.2969 Q1546.9844,1089.0469 1546.9844,1090.0781 L1546.9844,1091.1719 Q1546.9844,1092.4063 1547.875,1093.2344 Q1548.7656,1094.0469 1550.3594,1094.0469 Q1551.2969,1094.0469 1551.9531,1093.7969 Q1552.3438,1093.6406 1552.7656,1093.2031 Q1553.0313,1092.9375 1553.1719,1092.8594 Q1553.3281,1092.7813 1553.5313,1092.7813 Q1553.8594,1092.7813 1554.1094,1093.0469 Q1554.375,1093.2969 1554.375,1093.6406 Q1554.375,1093.9844 1554.0313,1094.3906 Q1553.5313,1094.9688 1552.7344,1095.2969 Q1551.6563,1095.75 1550.3594,1095.75 Q1548.8438,1095.75 1547.6406,1095.125 Q1546.6563,1094.625 1545.9688,1093.5625 Q1545.2813,1092.4844 1545.2813,1091.2031 L1545.2813,1090.0469 Q1545.2813,1088.7188 1545.8906,1087.5781 Q1546.5156,1086.4219 1547.6094,1085.8125 Q1548.7031,1085.1875 1549.9375,1085.1875 Q1550.6719,1085.1875 1551.3125,1085.3594 Q1551.9688,1085.5156 1552.5156,1085.875 Z " fill="#000000"/><text fill="#000000" font-family="sans-serif" font-size="14" lengthAdjust="spacing" textLength="114" x="1570.25" y="1095.7285">GUIEditorViewport</text><line style="stroke:#181818;stroke-width:0.5;" x1="1482" x2="1740" y1="1106" y2="1106"/><rect fill="none" height="6" style="stroke:#C82930;stroke-width:1.0;" width="6" x="1489" y="1117.3047"/><text fill="#000000" font-family="sans-serif" font-size="14" lengthAdjust="spacing" textLength="220" x="1501" y="1124.5332">void* m_offscreenImageDescriptor;</text><line style="stroke:#181818;stroke-width:0.5;" x1="1482" x2="1740" y1="1131.6094" y2="1131.6094"/><ellipse cx="1492" cy="1145.9141" fill="#84BE84" rx="3" ry="3" style="stroke:#038048;stroke-width:1.0;"/><text fill="#000000" font-family="sans-serif" font-size="14" lengthAdjust="spacing" textLength="128" x="1501" y="1150.1426">GUIEditorViewport();</text><ellipse cx="1492" cy="1163.5234" fill="#84BE84" rx="3" ry="3" style="stroke:#038048;stroke-width:1.0;"/><text fill="#000000" font-family="sans-serif" font-size="14" lengthAdjust="spacing" textLength="234" x="1501" y="1167.752">virtual ~GUIEditorViewport() override;</text><ellipse cx="1492" cy="1181.1328" fill="#84BE84" rx="3" ry="3" style="stroke:#038048;stroke-width:1.0;"/><text fill="#000000" font-family="sans-serif" font-size="14" lengthAdjust="spacing" textLength="184" x="1501" y="1185.3613">virtual void render() override;</text></g><!--class GUIMainMenuBar--><g id="elem_GUIMainMenuBar"><rect codeLine="65" fill="#F1F1F1" height="118.4375" id="GUIMainMenuBar" rx="2.5" ry="2.5" style="stroke:#181818;stroke-width:0.5;" width="262" x="1776" y="1074"/><ellipse cx="1847.75" cy="1090" fill="#ADD1B2" rx="11" ry="11" style="stroke:#181818;stroke-width:1.0;"/><path d="M1850.5156,1085.875 Q1850.6719,1085.6563 1850.8594,1085.5469 Q1851.0469,1085.4375 1851.2656,1085.4375 Q1851.6406,1085.4375 1851.875,1085.7031 Q1852.1094,1085.9531 1852.1094,1086.5625 L1852.1094,1088.0156 Q1852.1094,1088.625 1851.875,1088.8906 Q1851.6406,1089.1563 1851.2656,1089.1563 Q1850.9219,1089.1563 1850.7188,1088.9531 Q1850.5156,1088.7656 1850.4063,1088.25 Q1850.3594,1087.8906 1850.1719,1087.7031 Q1849.8438,1087.3281 1849.2344,1087.1094 Q1848.625,1086.8906 1848,1086.8906 Q1847.2344,1086.8906 1846.5938,1087.2188 Q1845.9688,1087.5469 1845.4688,1088.2969 Q1844.9844,1089.0469 1844.9844,1090.0781 L1844.9844,1091.1719 Q1844.9844,1092.4063 1845.875,1093.2344 Q1846.7656,1094.0469 1848.3594,1094.0469 Q1849.2969,1094.0469 1849.9531,1093.7969 Q1850.3438,1093.6406 1850.7656,1093.2031 Q1851.0313,1092.9375 1851.1719,1092.8594 Q1851.3281,1092.7813 1851.5313,1092.7813 Q1851.8594,1092.7813 1852.1094,1093.0469 Q1852.375,1093.2969 1852.375,1093.6406 Q1852.375,1093.9844 1852.0313,1094.3906 Q1851.5313,1094.9688 1850.7344,1095.2969 Q1849.6563,1095.75 1848.3594,1095.75 Q1846.8438,1095.75 1845.6406,1095.125 Q1844.6563,1094.625 1843.9688,1093.5625 Q1843.2813,1092.4844 1843.2813,1091.2031 L1843.2813,1090.0469 Q1843.2813,1088.7188 1843.8906,1087.5781 Q1844.5156,1086.4219 1845.6094,1085.8125 Q1846.7031,1085.1875 1847.9375,1085.1875 Q1848.6719,1085.1875 1849.3125,1085.3594 Q1849.9688,1085.5156 1850.5156,1085.875 Z " fill="#000000"/><text fill="#000000" font-family="sans-serif" font-size="14" lengthAdjust="spacing" textLength="110" x="1868.25" y="1095.7285">GUIMainMenuBar</text><line style="stroke:#181818;stroke-width:0.5;" x1="1777" x2="2037" y1="1106" y2="1106"/><ellipse cx="1787" cy="1120.3047" fill="none" rx="3" ry="3" style="stroke:#038048;stroke-width:1.0;"/><text fill="#000000" font-family="sans-serif" font-size="14" lengthAdjust="spacing" textLength="236" x="1796" y="1124.5332">Event&lt;string&gt; OnOpenButtonClicked;</text><line style="stroke:#181818;stroke-width:0.5;" x1="1777" x2="2037" y1="1131.6094" y2="1131.6094"/><ellipse cx="1787" cy="1145.9141" fill="#84BE84" rx="3" ry="3" style="stroke:#038048;stroke-width:1.0;"/><text fill="#000000" font-family="sans-serif" font-size="14" lengthAdjust="spacing" textLength="124" x="1796" y="1150.1426">GUIMainMenuBar();</text><ellipse cx="1787" cy="1163.5234" fill="#84BE84" rx="3" ry="3" style="stroke:#038048;stroke-width:1.0;"/><text fill="#000000" font-family="sans-serif" font-size="14" lengthAdjust="spacing" textLength="233" x="1796" y="1167.752">virtual ~GUIMainMenuBar() = default;</text><ellipse cx="1787" cy="1181.1328" fill="#84BE84" rx="3" ry="3" style="stroke:#038048;stroke-width:1.0;"/><text fill="#000000" font-family="sans-serif" font-size="14" lengthAdjust="spacing" textLength="184" x="1796" y="1185.3613">virtual void render() override;</text></g><!--class GUIOutputLog--><g id="elem_GUIOutputLog"><rect codeLine="73" fill="#F1F1F1" height="206.4844" id="GUIOutputLog" rx="2.5" ry="2.5" style="stroke:#181818;stroke-width:0.5;" width="340" x="2073" y="1030"/><ellipse cx="2193.75" cy="1046" fill="#ADD1B2" rx="11" ry="11" style="stroke:#181818;stroke-width:1.0;"/><path d="M2196.5156,1041.875 Q2196.6719,1041.6563 2196.8594,1041.5469 Q2197.0469,1041.4375 2197.2656,1041.4375 Q2197.6406,1041.4375 2197.875,1041.7031 Q2198.1094,1041.9531 2198.1094,1042.5625 L2198.1094,1044.0156 Q2198.1094,1044.625 2197.875,1044.8906 Q2197.6406,1045.1563 2197.2656,1045.1563 Q2196.9219,1045.1563 2196.7188,1044.9531 Q2196.5156,1044.7656 2196.4063,1044.25 Q2196.3594,1043.8906 2196.1719,1043.7031 Q2195.8438,1043.3281 2195.2344,1043.1094 Q2194.625,1042.8906 2194,1042.8906 Q2193.2344,1042.8906 2192.5938,1043.2188 Q2191.9688,1043.5469 2191.4688,1044.2969 Q2190.9844,1045.0469 2190.9844,1046.0781 L2190.9844,1047.1719 Q2190.9844,1048.4063 2191.875,1049.2344 Q2192.7656,1050.0469 2194.3594,1050.0469 Q2195.2969,1050.0469 2195.9531,1049.7969 Q2196.3438,1049.6406 2196.7656,1049.2031 Q2197.0313,1048.9375 2197.1719,1048.8594 Q2197.3281,1048.7813 2197.5313,1048.7813 Q2197.8594,1048.7813 2198.1094,1049.0469 Q2198.375,1049.2969 2198.375,1049.6406 Q2198.375,1049.9844 2198.0313,1050.3906 Q2197.5313,1050.9688 2196.7344,1051.2969 Q2195.6563,1051.75 2194.3594,1051.75 Q2192.8438,1051.75 2191.6406,1051.125 Q2190.6563,1050.625 2189.9688,1049.5625 Q2189.2813,1048.4844 2189.2813,1047.2031 L2189.2813,1046.0469 Q2189.2813,1044.7188 2189.8906,1043.5781 Q2190.5156,1042.4219 2191.6094,1041.8125 Q2192.7031,1041.1875 2193.9375,1041.1875 Q2194.6719,1041.1875 2195.3125,1041.3594 Q2195.9688,1041.5156 2196.5156,1041.875 Z " fill="#000000"/><text fill="#000000" font-family="sans-serif" font-size="14" lengthAdjust="spacing" textLength="90" x="2214.25" y="1051.7285">GUIOutputLog</text><line style="stroke:#181818;stroke-width:0.5;" x1="2074" x2="2412" y1="1062" y2="1062"/><rect fill="none" height="6" style="stroke:#C82930;stroke-width:1.0;" width="6" x="2081" y="1073.3047"/><text fill="#000000" font-family="sans-serif" font-size="14" lengthAdjust="spacing" textLength="181" x="2093" y="1080.5332">vector&lt;string&gt; m_messages;</text><rect fill="none" height="6" style="stroke:#C82930;stroke-width:1.0;" width="6" x="2081" y="1090.9141"/><text fill="#000000" font-family="sans-serif" font-size="14" lengthAdjust="spacing" textLength="163" x="2093" y="1098.1426">int m_loggerSubscriberID;</text><line style="stroke:#181818;stroke-width:0.5;" x1="2074" x2="2412" y1="1105.2188" y2="1105.2188"/><ellipse cx="2084" cy="1119.5234" fill="#84BE84" rx="3" ry="3" style="stroke:#038048;stroke-width:1.0;"/><text fill="#000000" font-family="sans-serif" font-size="14" lengthAdjust="spacing" textLength="104" x="2093" y="1123.752">GUIOutputLog();</text><ellipse cx="2084" cy="1137.1328" fill="#84BE84" rx="3" ry="3" style="stroke:#038048;stroke-width:1.0;"/><text fill="#000000" font-family="sans-serif" font-size="14" lengthAdjust="spacing" textLength="112" x="2093" y="1141.3613">~GUIOutputLog();</text><text fill="#000000" font-family="sans-serif" font-size="14" lengthAdjust="spacing" textLength="4" x="2093" y="1158.9707">&#160;</text><ellipse cx="2084" cy="1172.3516" fill="#84BE84" rx="3" ry="3" style="stroke:#038048;stroke-width:1.0;"/><text fill="#000000" font-family="sans-serif" font-size="14" lengthAdjust="spacing" textLength="142" x="2093" y="1176.5801">void render() override;</text><ellipse cx="2084" cy="1189.9609" fill="#84BE84" rx="3" ry="3" style="stroke:#038048;stroke-width:1.0;"/><text fill="#000000" font-family="sans-serif" font-size="14" lengthAdjust="spacing" textLength="75" x="2093" y="1194.1895">void clear();</text><text fill="#000000" font-family="sans-serif" font-size="14" lengthAdjust="spacing" textLength="4" x="2093" y="1211.7988">&#160;</text><rect fill="#F24D5C" height="6" style="stroke:#C82930;stroke-width:1.0;" width="6" x="2081" y="1222.1797"/><text fill="#000000" font-family="sans-serif" font-size="14" lengthAdjust="spacing" textLength="314" x="2093" y="1229.4082">void receiveLogMessage(const string&amp; message);</text></g><!--class GUIObject--><g id="elem_GUIObject"><rect codeLine="4" fill="#F1F1F1" height="188.875" id="GUIObject" rx="2.5" ry="2.5" style="stroke:#181818;stroke-width:0.5;" width="358" x="1102" y="772"/><ellipse cx="1244.75" cy="788" fill="#ADD1B2" rx="11" ry="11" style="stroke:#181818;stroke-width:1.0;"/><path d="M1247.5156,783.875 Q1247.6719,783.6563 1247.8594,783.5469 Q1248.0469,783.4375 1248.2656,783.4375 Q1248.6406,783.4375 1248.875,783.7031 Q1249.1094,783.9531 1249.1094,784.5625 L1249.1094,786.0156 Q1249.1094,786.625 1248.875,786.8906 Q1248.6406,787.1563 1248.2656,787.1563 Q1247.9219,787.1563 1247.7188,786.9531 Q1247.5156,786.7656 1247.4063,786.25 Q1247.3594,785.8906 1247.1719,785.7031 Q1246.8438,785.3281 1246.2344,785.1094 Q1245.625,784.8906 1245,784.8906 Q1244.2344,784.8906 1243.5938,785.2188 Q1242.9688,785.5469 1242.4688,786.2969 Q1241.9844,787.0469 1241.9844,788.0781 L1241.9844,789.1719 Q1241.9844,790.4063 1242.875,791.2344 Q1243.7656,792.0469 1245.3594,792.0469 Q1246.2969,792.0469 1246.9531,791.7969 Q1247.3438,791.6406 1247.7656,791.2031 Q1248.0313,790.9375 1248.1719,790.8594 Q1248.3281,790.7813 1248.5313,790.7813 Q1248.8594,790.7813 1249.1094,791.0469 Q1249.375,791.2969 1249.375,791.6406 Q1249.375,791.9844 1249.0313,792.3906 Q1248.5313,792.9688 1247.7344,793.2969 Q1246.6563,793.75 1245.3594,793.75 Q1243.8438,793.75 1242.6406,793.125 Q1241.6563,792.625 1240.9688,791.5625 Q1240.2813,790.4844 1240.2813,789.2031 L1240.2813,788.0469 Q1240.2813,786.7188 1240.8906,785.5781 Q1241.5156,784.4219 1242.6094,783.8125 Q1243.7031,783.1875 1244.9375,783.1875 Q1245.6719,783.1875 1246.3125,783.3594 Q1246.9688,783.5156 1247.5156,783.875 Z " fill="#000000"/><text fill="#000000" font-family="sans-serif" font-size="14" lengthAdjust="spacing" textLength="64" x="1265.25" y="793.7285">GUIObject</text><line style="stroke:#181818;stroke-width:0.5;" x1="1103" x2="1459" y1="804" y2="804"/><rect fill="none" height="6" style="stroke:#C82930;stroke-width:1.0;" width="6" x="1110" y="815.3047"/><text fill="#000000" font-family="sans-serif" font-size="14" lengthAdjust="spacing" textLength="129" x="1122" y="822.5332">uint32_t m_objectID;</text><line style="stroke:#181818;stroke-width:0.5;" x1="1103" x2="1459" y1="829.6094" y2="829.6094"/><ellipse cx="1113" cy="843.9141" fill="#84BE84" rx="3" ry="3" style="stroke:#038048;stroke-width:1.0;"/><text fill="#000000" font-family="sans-serif" font-size="14" lengthAdjust="spacing" textLength="78" x="1122" y="848.1426">GUIObject();</text><ellipse cx="1113" cy="861.5234" fill="#84BE84" rx="3" ry="3" style="stroke:#038048;stroke-width:1.0;"/><text fill="#000000" font-family="sans-serif" font-size="14" lengthAdjust="spacing" textLength="257" x="1122" y="865.752">GUIObject(const GUIObject&amp; T) = delete;</text><ellipse cx="1113" cy="879.1328" fill="#84BE84" rx="3" ry="3" style="stroke:#038048;stroke-width:1.0;"/><text fill="#000000" font-family="sans-serif" font-size="14" lengthAdjust="spacing" textLength="332" x="1122" y="883.3613">GUIObject&amp; operator=(const GUIObject&amp; T) = delete;</text><ellipse cx="1113" cy="896.7422" fill="#84BE84" rx="3" ry="3" style="stroke:#038048;stroke-width:1.0;"/><text fill="#000000" font-family="sans-serif" font-size="14" lengthAdjust="spacing" textLength="128" x="1122" y="900.9707">virtual ~GUIObject();</text><text fill="#000000" font-family="sans-serif" font-size="14" lengthAdjust="spacing" textLength="4" x="1122" y="918.5801">&#160;</text><ellipse cx="1113" cy="931.9609" fill="#84BE84" rx="3" ry="3" style="stroke:#038048;stroke-width:1.0;"/><text fill="#000000" font-family="sans-serif" font-size="14" lengthAdjust="spacing" textLength="128" x="1122" y="936.1895">virtual void render();</text><ellipse cx="1113" cy="949.5703" fill="#84BE84" rx="3" ry="3" style="stroke:#038048;stroke-width:1.0;"/><text fill="#000000" font-family="sans-serif" font-size="14" lengthAdjust="spacing" textLength="140" x="1122" y="953.7988">uint32_t getID() const;</text></g><!--class ImGuiModule--><g id="elem_ImGuiModule"><rect codeLine="17" fill="#F1F1F1" height="270.0156" id="ImGuiModule" rx="2.5" ry="2.5" style="stroke:#181818;stroke-width:0.5;" width="247" x="1157.5" y="442"/><ellipse cx="1235.75" cy="463.3516" fill="#ADD1B2" rx="11" ry="11" style="stroke:#181818;stroke-width:1.0;"/><path d="M1238.5156,459.2266 Q1238.6719,459.0078 1238.8594,458.8984 Q1239.0469,458.7891 1239.2656,458.7891 Q1239.6406,458.7891 1239.875,459.0547 Q1240.1094,459.3047 1240.1094,459.9141 L1240.1094,461.3672 Q1240.1094,461.9766 1239.875,462.2422 Q1239.6406,462.5078 1239.2656,462.5078 Q1238.9219,462.5078 1238.7188,462.3047 Q1238.5156,462.1172 1238.4063,461.6016 Q1238.3594,461.2422 1238.1719,461.0547 Q1237.8438,460.6797 1237.2344,460.4609 Q1236.625,460.2422 1236,460.2422 Q1235.2344,460.2422 1234.5938,460.5703 Q1233.9688,460.8984 1233.4688,461.6484 Q1232.9844,462.3984 1232.9844,463.4297 L1232.9844,464.5234 Q1232.9844,465.7578 1233.875,466.5859 Q1234.7656,467.3984 1236.3594,467.3984 Q1237.2969,467.3984 1237.9531,467.1484 Q1238.3438,466.9922 1238.7656,466.5547 Q1239.0313,466.2891 1239.1719,466.2109 Q1239.3281,466.1328 1239.5313,466.1328 Q1239.8594,466.1328 1240.1094,466.3984 Q1240.375,466.6484 1240.375,466.9922 Q1240.375,467.3359 1240.0313,467.7422 Q1239.5313,468.3203 1238.7344,468.6484 Q1237.6563,469.1016 1236.3594,469.1016 Q1234.8438,469.1016 1233.6406,468.4766 Q1232.6563,467.9766 1231.9688,466.9141 Q1231.2813,465.8359 1231.2813,464.5547 L1231.2813,463.3984 Q1231.2813,462.0703 1231.8906,460.9297 Q1232.5156,459.7734 1233.6094,459.1641 Q1234.7031,458.5391 1235.9375,458.5391 Q1236.6719,458.5391 1237.3125,458.7109 Q1237.9688,458.8672 1238.5156,459.2266 Z " fill="#000000"/><text fill="#000000" font-family="sans-serif" font-size="12" font-style="italic" lengthAdjust="spacing" textLength="71" x="1261.75" y="459.457">&#171;singletone&#187;</text><text fill="#000000" font-family="sans-serif" font-size="14" lengthAdjust="spacing" textLength="82" x="1256.25" y="476.627">ImGuiModule</text><line style="stroke:#181818;stroke-width:0.5;" x1="1158.5" x2="1403.5" y1="484.7031" y2="484.7031"/><rect fill="none" height="6" style="stroke:#C82930;stroke-width:1.0;" width="6" x="1165.5" y="496.0078"/><text fill="#000000" font-family="sans-serif" font-size="14" lengthAdjust="spacing" textLength="221" x="1177.5" y="503.2363">vector&lt;GUIObject*&gt; m_GuiObjects;</text><line style="stroke:#181818;stroke-width:0.5;" x1="1158.5" x2="1403.5" y1="510.3125" y2="510.3125"/><rect fill="#F24D5C" height="6" style="stroke:#C82930;stroke-width:1.0;" width="6" x="1165.5" y="521.6172"/><text fill="#000000" font-family="sans-serif" font-size="14" lengthAdjust="spacing" textLength="155" x="1177.5" y="528.8457">ImGuiModule() = default;</text><text fill="#000000" font-family="sans-serif" font-size="14" lengthAdjust="spacing" textLength="4" x="1177.5" y="546.4551">&#160;</text><ellipse cx="1168.5" cy="559.8359" fill="#84BE84" rx="3" ry="3" style="stroke:#038048;stroke-width:1.0;"/><text fill="#000000" font-family="sans-serif" font-size="14" lengthAdjust="spacing" textLength="163" x="1177.5" y="564.0645">~ImGuiModule() = default;</text><ellipse cx="1168.5" cy="577.4453" fill="#84BE84" rx="3" ry="3" style="stroke:#038048;stroke-width:1.0;"/><text fill="#000000" font-family="sans-serif" font-size="14" lengthAdjust="spacing" textLength="88" x="1177.5" y="581.6738">void startup();</text><ellipse cx="1168.5" cy="595.0547" fill="#84BE84" rx="3" ry="3" style="stroke:#038048;stroke-width:1.0;"/><text fill="#000000" font-family="sans-serif" font-size="14" lengthAdjust="spacing" textLength="104" x="1177.5" y="599.2832">void shutdown();</text><text fill="#000000" font-family="sans-serif" font-size="14" lengthAdjust="spacing" textLength="4" x="1177.5" y="616.8926">&#160;</text><ellipse cx="1168.5" cy="630.2734" fill="#84BE84" rx="3" ry="3" style="stroke:#038048;stroke-width:1.0;"/><text fill="#000000" font-family="sans-serif" font-size="14" lengthAdjust="spacing" textLength="219" x="1177.5" y="634.502">static ImGuiModule&amp; getInstance();</text><ellipse cx="1168.5" cy="647.8828" fill="#84BE84" rx="3" ry="3" style="stroke:#038048;stroke-width:1.0;"/><text fill="#000000" font-family="sans-serif" font-size="14" lengthAdjust="spacing" textLength="130" x="1177.5" y="652.1113">void setImGuiStyle();</text><ellipse cx="1168.5" cy="665.4922" fill="#84BE84" rx="3" ry="3" style="stroke:#038048;stroke-width:1.0;"/><text fill="#000000" font-family="sans-serif" font-size="14" lengthAdjust="spacing" textLength="136" x="1177.5" y="669.7207">void renderUI() const;</text><ellipse cx="1168.5" cy="683.1016" fill="#84BE84" rx="3" ry="3" style="stroke:#038048;stroke-width:1.0;"/><text fill="#000000" font-family="sans-serif" font-size="14" lengthAdjust="spacing" textLength="220" x="1177.5" y="687.3301">void addObject(GUIObject* object);</text><ellipse cx="1168.5" cy="700.7109" fill="#84BE84" rx="3" ry="3" style="stroke:#038048;stroke-width:1.0;"/><text fill="#000000" font-family="sans-serif" font-size="14" lengthAdjust="spacing" textLength="198" x="1177.5" y="704.9395">void removeObject(uint32_t id);</text></g><!--reverse link ImGuiModule to GUIObject--><g id="link_ImGuiModule_GUIObject"><path codeLine="33" d="M1281,724.07 C1281,744.27 1281,752.73 1281,771.84 " fill="none" id="ImGuiModule-backto-GUIObject" style="stroke:#181818;stroke-width:1.0;"/><polygon fill="#181818" points="1281,712.07,1277,718.07,1281,724.07,1285,718.07,1281,712.07" style="stroke:#181818;stroke-width:1.0;"/></g><!--reverse link GUIObject to GUIContentBrowser--><g id="link_GUIObject_GUIContentBrowser"><path d="M1084.0133,876.2476 C896.6233,889.2676 614.83,923.62 375,1021 C369.18,1023.36 363.36,1025.96 357.57,1028.76 " fill="none" id="GUIObject-backto-GUIContentBrowser" style="stroke:#181818;stroke-width:1.0;"/><polygon fill="none" points="1101.97,875,1083.5974,870.2621,1084.4292,882.2332,1101.97,875" style="stroke:#181818;stroke-width:1.0;"/></g><!--reverse link GUIObject to GUIWorldInspector--><g id="link_GUIObject_GUIWorldInspector"><path d="M1084.1665,908.3441 C974.9565,933.9841 851.6,968.87 733,1021 C726.64,1023.8 720.24,1026.79 713.83,1029.93 " fill="none" id="GUIObject-backto-GUIWorldInspector" style="stroke:#181818;stroke-width:1.0;"/><polygon fill="none" points="1101.69,904.23,1082.7951,902.5029,1085.5378,914.1853,1101.69,904.23" style="stroke:#181818;stroke-width:1.0;"/></g><!--reverse link GUIObject to GUIEditorConsole--><g id="link_GUIObject_GUIEditorConsole"><path d="M1137.2232,971.6902 C1094.3632,1002.7402 1061.78,1026.36 1020.97,1055.93 " fill="none" id="GUIObject-backto-GUIEditorConsole" style="stroke:#181818;stroke-width:1.0;"/><polygon fill="none" points="1151.8,961.13,1133.7032,966.8312,1140.7433,976.5491,1151.8,961.13" style="stroke:#181818;stroke-width:1.0;"/></g><!--reverse link GUIObject to GUIEditorToolPanel--><g id="link_GUIObject_GUIEditorToolPanel"><path d="M1281,979.13 C1281,1010.18 1281,1026.36 1281,1055.93 " fill="none" id="GUIObject-backto-GUIEditorToolPanel" style="stroke:#181818;stroke-width:1.0;"/><polygon fill="none" points="1281,961.13,1275,979.13,1287,979.13,1281,961.13" style="stroke:#181818;stroke-width:1.0;"/></g><!--reverse link GUIObject to GUIEditorViewport--><g id="link_GUIObject_GUIEditorViewport"><path d="M1411.8566,972.3858 C1458.7666,1009.9758 1497.32,1040.89 1538.54,1073.92 " fill="none" id="GUIObject-backto-GUIEditorViewport" style="stroke:#181818;stroke-width:1.0;"/><polygon fill="none" points="1397.81,961.13,1408.1046,977.068,1415.6085,967.7036,1397.81,961.13" style="stroke:#181818;stroke-width:1.0;"/></g><!--reverse link GUIObject to GUIMainMenuBar--><g id="link_GUIObject_GUIMainMenuBar"><path d="M1477.3489,914.5375 C1569.5989,940.0475 1664.83,972.32 1759,1021 C1786.96,1035.45 1815.2,1055.11 1839.41,1073.86 " fill="none" id="GUIObject-backto-GUIMainMenuBar" style="stroke:#181818;stroke-width:1.0;"/><polygon fill="none" points="1460,909.74,1475.7497,920.3205,1478.9481,908.7545,1460,909.74" style="stroke:#181818;stroke-width:1.0;"/></g><!--reverse link GUIObject to GUIOutputLog--><g id="link_GUIObject_GUIOutputLog"><path d="M1477.9196,887.7136 C1638.1596,907.8436 1859.53,945.79 2056,1021 C2063.14,1023.73 2070.32,1026.73 2077.49,1029.93 " fill="none" id="GUIObject-backto-GUIOutputLog" style="stroke:#181818;stroke-width:1.0;"/><polygon fill="none" points="1460.06,885.47,1477.1718,893.6668,1478.6675,881.7604,1460.06,885.47" style="stroke:#181818;stroke-width:1.0;"/></g><!--reverse link EditorUIModule to GUIObjects--><g id="link_EditorUIModule_GUIObjects"><path codeLine="104" d="M142.3466,335.7589 C139.6098,342.5832 139.0699,343.9295 136.2751,350.8982 C135.9258,351.7693 135.5761,352.6413 135.2261,353.514 " fill="none" id="EditorUIModule-backto-GUIObjects" style="stroke:#181818;stroke-width:1.0;stroke-dasharray:7.0,7.0;"/><polygon fill="#181818" points="144.58,330.19,137.5174,337.0544,142.7189,334.8307,144.9425,340.0322,144.58,330.19" style="stroke:#181818;stroke-width:1.0;"/></g><!--SRC=[jLRRJkCm47tlLtXV4Bi8Fe1s-q1ReKXR5QcmF29ZJuiNnyxwaYv2yEqxIPeqpeKIhRPFySoPySoPOxi9PSzq2sJ1XTFcBbfgxYMCNaV9td5z5wqUVm5pbhoE2Fw-2CMavq2Y-DgB0d-H-5ZcNYQfjLdGJ2i7obqPlRDW2Fp15RT1K9KwZoooPx_pkJ1erUObmXo6uXU97xWm4Qx61vXrHgWjkepMxeQwfouVyyPW7GrtckUV5AWfmZP2WlqGe2K7Wv0ASzRgylJh8SFPUuURw1IC4KZUTy9XGxrqjOXK2qwmM1v0QpkUvmYVSEfWdxhSycqKqd-lZUIHiadUnp3wDnAOlRpSPIbEiFNyOzpou-x2lQ3V0XeSy4LkQ31qlmug2IXAXN6UIlBUAlWeLVl8Jr9M88hwRWt0ZKvyKY-b6zQ7M0SDpulgRDyeYgE5yx9Qmg19d3MZMm9hU3j96oomn6W6rivq75F5JnbcTwGu2IU45TOFUxtLMjvG1NAOxXQpTG79H8SIAnODFJLswDLJ2_SV1BMcAUIw3VJKpSbF0Rj46pUCacopRyY6tcmiGqMgACPBUGwu40bcxIIdtEe8DmTOhSzF4zBLwP8AjGJbhwWPhFDQR6_T0QPpZ8iKRwNgrbwfLGBgoZkdrKmAzWpy7pjSUPTuzqDl1uwn-Ph4UBvmaFKNHoY73gctMnIMVymc_0WccZT6N5NGkWi2p_537mAOX9nuqbOw0v42fbqMDJVkWtqdbVRVQeI5Voh8P68nH09E0wRJ9aTUYTyU7X9d9ktZct7coiMuBwYcZvpamx8tf28j2z3beXSUFkXP30iilO7XypOjNzNAClwOYFAiPe4GM8u4xf-6VQNPPrqRrb4dM6DE9sGB3WjpLB7mnSa5WNOyDqdRKMgi5V3a7TSx5Seo7DUtRC_6yI-KrDJGnKNjB-dexIy0]--></g></svg>