<?xml version="1.0" encoding="us-ascii" standalone="no"?><svg xmlns="http://www.w3.org/2000/svg" xmlns:xlink="http://www.w3.org/1999/xlink" contentStyleType="text/css" height="705px" preserveAspectRatio="none" style="width:1819px;height:705px;background:#FFFFFF;" version="1.1" viewBox="0 0 1819 705" width="1819px" zoomAndPan="magnify"><defs/><g><!--cluster CoreModules--><g id="cluster_CoreModules"><path d="M8.5,6 L104.5,6 A3.75,3.75 0 0 1 107,8.5 L114,29.6094 L1809.5,29.6094 A2.5,2.5 0 0 1 1812,32.1094 L1812,695.5 A2.5,2.5 0 0 1 1809.5,698 L8.5,698 A2.5,2.5 0 0 1 6,695.5 L6,8.5 A2.5,2.5 0 0 1 8.5,6 " fill="none" style="stroke:#000000;stroke-width:1.5;"/><line style="stroke:#000000;stroke-width:1.5;" x1="6" x2="114" y1="29.6094" y2="29.6094"/><text fill="#000000" font-family="sans-serif" font-size="14" font-weight="bold" lengthAdjust="spacing" textLength="95" x="10" y="22.5332">CoreModules</text></g><!--cluster EngineContextModule--><g id="cluster_EngineContextModule"><path d="M1081.5,76.5 L1239.5,76.5 A3.75,3.75 0 0 1 1242,79 L1249,100.1094 L1785.5,100.1094 A2.5,2.5 0 0 1 1788,102.6094 L1788,671.5 A2.5,2.5 0 0 1 1785.5,674 L1081.5,674 A2.5,2.5 0 0 1 1079,671.5 L1079,79 A2.5,2.5 0 0 1 1081.5,76.5 " fill="none" style="stroke:#000000;stroke-width:1.5;"/><line style="stroke:#000000;stroke-width:1.5;" x1="1079" x2="1249" y1="100.1094" y2="100.1094"/><text fill="#000000" font-family="sans-serif" font-size="14" font-weight="bold" lengthAdjust="spacing" textLength="157" x="1083" y="93.0332">EngineContextModule</text></g><!--cluster EventModule--><g id="cluster_EventModule"><path d="M32.5,50 L127.5,50 A3.75,3.75 0 0 1 130,52.5 L137,73.6094 L415.5,73.6094 A2.5,2.5 0 0 1 418,76.1094 L418,411.5 A2.5,2.5 0 0 1 415.5,414 L32.5,414 A2.5,2.5 0 0 1 30,411.5 L30,52.5 A2.5,2.5 0 0 1 32.5,50 " fill="none" style="stroke:#000000;stroke-width:1.5;"/><line style="stroke:#000000;stroke-width:1.5;" x1="30" x2="137" y1="73.6094" y2="73.6094"/><text fill="#000000" font-family="sans-serif" font-size="14" font-weight="bold" lengthAdjust="spacing" textLength="94" x="34" y="66.5332">EventModule</text></g><!--cluster LoggerModule--><g id="cluster_LoggerModule"><path d="M444.5,71 L548.5,71 A3.75,3.75 0 0 1 551,73.5 L558,94.6094 L1052.5,94.6094 A2.5,2.5 0 0 1 1055,97.1094 L1055,648.5 A2.5,2.5 0 0 1 1052.5,651 L444.5,651 A2.5,2.5 0 0 1 442,648.5 L442,73.5 A2.5,2.5 0 0 1 444.5,71 " fill="none" style="stroke:#000000;stroke-width:1.5;"/><line style="stroke:#000000;stroke-width:1.5;" x1="442" x2="558" y1="94.6094" y2="94.6094"/><text fill="#000000" font-family="sans-serif" font-size="14" font-weight="bold" lengthAdjust="spacing" textLength="103" x="446" y="87.5332">LoggerModule</text></g><!--class IEngineContext--><g id="elem_IEngineContext"><rect codeLine="4" fill="#F1F1F1" height="171.2656" id="IEngineContext" rx="2.5" ry="2.5" style="stroke:#181818;stroke-width:0.5;" width="250" x="1095" y="472.5"/><ellipse cx="1168.25" cy="488.5" fill="#ADD1B2" rx="11" ry="11" style="stroke:#181818;stroke-width:1.0;"/><path d="M1171.0156,484.375 Q1171.1719,484.1563 1171.3594,484.0469 Q1171.5469,483.9375 1171.7656,483.9375 Q1172.1406,483.9375 1172.375,484.2031 Q1172.6094,484.4531 1172.6094,485.0625 L1172.6094,486.5156 Q1172.6094,487.125 1172.375,487.3906 Q1172.1406,487.6563 1171.7656,487.6563 Q1171.4219,487.6563 1171.2188,487.4531 Q1171.0156,487.2656 1170.9063,486.75 Q1170.8594,486.3906 1170.6719,486.2031 Q1170.3438,485.8281 1169.7344,485.6094 Q1169.125,485.3906 1168.5,485.3906 Q1167.7344,485.3906 1167.0938,485.7188 Q1166.4688,486.0469 1165.9688,486.7969 Q1165.4844,487.5469 1165.4844,488.5781 L1165.4844,489.6719 Q1165.4844,490.9063 1166.375,491.7344 Q1167.2656,492.5469 1168.8594,492.5469 Q1169.7969,492.5469 1170.4531,492.2969 Q1170.8438,492.1406 1171.2656,491.7031 Q1171.5313,491.4375 1171.6719,491.3594 Q1171.8281,491.2813 1172.0313,491.2813 Q1172.3594,491.2813 1172.6094,491.5469 Q1172.875,491.7969 1172.875,492.1406 Q1172.875,492.4844 1172.5313,492.8906 Q1172.0313,493.4688 1171.2344,493.7969 Q1170.1563,494.25 1168.8594,494.25 Q1167.3438,494.25 1166.1406,493.625 Q1165.1563,493.125 1164.4688,492.0625 Q1163.7813,490.9844 1163.7813,489.7031 L1163.7813,488.5469 Q1163.7813,487.2188 1164.3906,486.0781 Q1165.0156,484.9219 1166.1094,484.3125 Q1167.2031,483.6875 1168.4375,483.6875 Q1169.1719,483.6875 1169.8125,483.8594 Q1170.4688,484.0156 1171.0156,484.375 Z " fill="#000000"/><text fill="#000000" font-family="sans-serif" font-size="14" lengthAdjust="spacing" textLength="95" x="1188.75" y="494.2285">IEngineContext</text><line style="stroke:#181818;stroke-width:0.5;" x1="1096" x2="1344" y1="504.5" y2="504.5"/><line style="stroke:#181818;stroke-width:0.5;" x1="1096" x2="1344" y1="512.5" y2="512.5"/><ellipse cx="1106" cy="526.8047" fill="#84BE84" rx="3" ry="3" style="stroke:#038048;stroke-width:1.0;"/><text fill="#000000" font-family="sans-serif" font-size="14" lengthAdjust="spacing" textLength="109" x="1115" y="531.0332">IEngineContext();</text><ellipse cx="1106" cy="544.4141" fill="#84BE84" rx="3" ry="3" style="stroke:#038048;stroke-width:1.0;"/><text fill="#000000" font-family="sans-serif" font-size="14" lengthAdjust="spacing" textLength="155" x="1115" y="548.6426">virtual ~IEngineConext();</text><text fill="#000000" font-family="sans-serif" font-size="14" lengthAdjust="spacing" textLength="4" x="1115" y="566.252">&#160;</text><ellipse cx="1106" cy="579.6328" fill="#84BE84" rx="3" ry="3" style="stroke:#038048;stroke-width:1.0;"/><text fill="#000000" font-family="sans-serif" font-size="14" lengthAdjust="spacing" textLength="163" x="1115" y="583.8613">virtual void initMinor() = 0;</text><ellipse cx="1106" cy="597.2422" fill="#84BE84" rx="3" ry="3" style="stroke:#038048;stroke-width:1.0;"/><text fill="#000000" font-family="sans-serif" font-size="14" lengthAdjust="spacing" textLength="163" x="1115" y="601.4707">virtual void initMajor() = 0;</text><ellipse cx="1106" cy="614.8516" fill="#84BE84" rx="3" ry="3" style="stroke:#038048;stroke-width:1.0;"/><text fill="#000000" font-family="sans-serif" font-size="14" lengthAdjust="spacing" textLength="224" x="1115" y="619.0801">virtual void tick(float deltaTime) = 0;</text><ellipse cx="1106" cy="632.4609" fill="#84BE84" rx="3" ry="3" style="stroke:#038048;stroke-width:1.0;"/><text fill="#000000" font-family="sans-serif" font-size="14" lengthAdjust="spacing" textLength="172" x="1115" y="636.6895">virtual void shutDown() = 0;</text></g><!--class EngineConfig--><g id="elem_EngineConfig"><rect codeLine="15" fill="#F1F1F1" height="199.5781" id="EngineConfig" rx="2.5" ry="2.5" style="stroke:#181818;stroke-width:0.5;" width="392" x="1380" y="458"/><ellipse cx="1529.25" cy="479.3516" fill="#ADD1B2" rx="11" ry="11" style="stroke:#181818;stroke-width:1.0;"/><path d="M1532.0156,475.2266 Q1532.1719,475.0078 1532.3594,474.8984 Q1532.5469,474.7891 1532.7656,474.7891 Q1533.1406,474.7891 1533.375,475.0547 Q1533.6094,475.3047 1533.6094,475.9141 L1533.6094,477.3672 Q1533.6094,477.9766 1533.375,478.2422 Q1533.1406,478.5078 1532.7656,478.5078 Q1532.4219,478.5078 1532.2188,478.3047 Q1532.0156,478.1172 1531.9063,477.6016 Q1531.8594,477.2422 1531.6719,477.0547 Q1531.3438,476.6797 1530.7344,476.4609 Q1530.125,476.2422 1529.5,476.2422 Q1528.7344,476.2422 1528.0938,476.5703 Q1527.4688,476.8984 1526.9688,477.6484 Q1526.4844,478.3984 1526.4844,479.4297 L1526.4844,480.5234 Q1526.4844,481.7578 1527.375,482.5859 Q1528.2656,483.3984 1529.8594,483.3984 Q1530.7969,483.3984 1531.4531,483.1484 Q1531.8438,482.9922 1532.2656,482.5547 Q1532.5313,482.2891 1532.6719,482.2109 Q1532.8281,482.1328 1533.0313,482.1328 Q1533.3594,482.1328 1533.6094,482.3984 Q1533.875,482.6484 1533.875,482.9922 Q1533.875,483.3359 1533.5313,483.7422 Q1533.0313,484.3203 1532.2344,484.6484 Q1531.1563,485.1016 1529.8594,485.1016 Q1528.3438,485.1016 1527.1406,484.4766 Q1526.1563,483.9766 1525.4688,482.9141 Q1524.7813,481.8359 1524.7813,480.5547 L1524.7813,479.3984 Q1524.7813,478.0703 1525.3906,476.9297 Q1526.0156,475.7734 1527.1094,475.1641 Q1528.2031,474.5391 1529.4375,474.5391 Q1530.1719,474.5391 1530.8125,474.7109 Q1531.4688,474.8672 1532.0156,475.2266 Z " fill="#000000"/><text fill="#000000" font-family="sans-serif" font-size="12" font-style="italic" lengthAdjust="spacing" textLength="71" x="1556.75" y="475.457">&#171;singletone&#187;</text><text fill="#000000" font-family="sans-serif" font-size="14" lengthAdjust="spacing" textLength="85" x="1549.75" y="492.627">EngineConfig</text><line style="stroke:#181818;stroke-width:0.5;" x1="1381" x2="1771" y1="500.7031" y2="500.7031"/><rect fill="none" height="6" style="stroke:#C82930;stroke-width:1.0;" width="6" x="1388" y="512.0078"/><text fill="#000000" font-family="sans-serif" font-size="14" lengthAdjust="spacing" textLength="126" x="1400" y="519.2363">void* m_configData;</text><line style="stroke:#181818;stroke-width:0.5;" x1="1381" x2="1771" y1="526.3125" y2="526.3125"/><rect fill="#F24D5C" height="6" style="stroke:#C82930;stroke-width:1.0;" width="6" x="1388" y="537.6172"/><text fill="#000000" font-family="sans-serif" font-size="14" lengthAdjust="spacing" textLength="158" x="1400" y="544.8457">EngineConfig() = default;</text><rect fill="#F24D5C" height="6" style="stroke:#C82930;stroke-width:1.0;" width="6" x="1388" y="555.2266"/><text fill="#000000" font-family="sans-serif" font-size="14" lengthAdjust="spacing" textLength="166" x="1400" y="562.4551">~EngineConfig() = default;</text><rect fill="#F24D5C" height="6" style="stroke:#C82930;stroke-width:1.0;" width="6" x="1388" y="572.8359"/><text fill="#000000" font-family="sans-serif" font-size="14" lengthAdjust="spacing" textLength="286" x="1400" y="580.0645">EngineConfig(const EngineConfig&amp;) = delete;</text><rect fill="#F24D5C" height="6" style="stroke:#C82930;stroke-width:1.0;" width="6" x="1388" y="590.4453"/><text fill="#000000" font-family="sans-serif" font-size="14" lengthAdjust="spacing" textLength="361" x="1400" y="597.6738">EngineConfig&amp; operator=(const EngineConfig&amp;) = delete;</text><text fill="#000000" font-family="sans-serif" font-size="14" lengthAdjust="spacing" textLength="4" x="1400" y="615.2832">&#160;</text><ellipse cx="1391" cy="628.6641" fill="#84BE84" rx="3" ry="3" style="stroke:#038048;stroke-width:1.0;"/><text fill="#000000" font-family="sans-serif" font-size="14" lengthAdjust="spacing" textLength="222" x="1400" y="632.8926">static EngineConfig&amp; getInstance();</text><ellipse cx="1391" cy="646.2734" fill="#84BE84" rx="3" ry="3" style="stroke:#038048;stroke-width:1.0;"/><text fill="#000000" font-family="sans-serif" font-size="14" lengthAdjust="spacing" textLength="366" x="1400" y="650.502">uint32_t getFieldFromConfig(const string&amp; fieldName) = 0;</text></g><!--class Engine--><g id="elem_Engine"><rect codeLine="27" fill="#F1F1F1" height="259.3125" id="Engine" rx="2.5" ry="2.5" style="stroke:#181818;stroke-width:0.5;" width="358" x="1246" y="112.5"/><ellipse cx="1398.75" cy="128.5" fill="#ADD1B2" rx="11" ry="11" style="stroke:#181818;stroke-width:1.0;"/><path d="M1401.5156,124.375 Q1401.6719,124.1563 1401.8594,124.0469 Q1402.0469,123.9375 1402.2656,123.9375 Q1402.6406,123.9375 1402.875,124.2031 Q1403.1094,124.4531 1403.1094,125.0625 L1403.1094,126.5156 Q1403.1094,127.125 1402.875,127.3906 Q1402.6406,127.6563 1402.2656,127.6563 Q1401.9219,127.6563 1401.7188,127.4531 Q1401.5156,127.2656 1401.4063,126.75 Q1401.3594,126.3906 1401.1719,126.2031 Q1400.8438,125.8281 1400.2344,125.6094 Q1399.625,125.3906 1399,125.3906 Q1398.2344,125.3906 1397.5938,125.7188 Q1396.9688,126.0469 1396.4688,126.7969 Q1395.9844,127.5469 1395.9844,128.5781 L1395.9844,129.6719 Q1395.9844,130.9063 1396.875,131.7344 Q1397.7656,132.5469 1399.3594,132.5469 Q1400.2969,132.5469 1400.9531,132.2969 Q1401.3438,132.1406 1401.7656,131.7031 Q1402.0313,131.4375 1402.1719,131.3594 Q1402.3281,131.2813 1402.5313,131.2813 Q1402.8594,131.2813 1403.1094,131.5469 Q1403.375,131.7969 1403.375,132.1406 Q1403.375,132.4844 1403.0313,132.8906 Q1402.5313,133.4688 1401.7344,133.7969 Q1400.6563,134.25 1399.3594,134.25 Q1397.8438,134.25 1396.6406,133.625 Q1395.6563,133.125 1394.9688,132.0625 Q1394.2813,130.9844 1394.2813,129.7031 L1394.2813,128.5469 Q1394.2813,127.2188 1394.8906,126.0781 Q1395.5156,124.9219 1396.6094,124.3125 Q1397.7031,123.6875 1398.9375,123.6875 Q1399.6719,123.6875 1400.3125,123.8594 Q1400.9688,124.0156 1401.5156,124.375 Z " fill="#000000"/><text fill="#000000" font-family="sans-serif" font-size="14" lengthAdjust="spacing" textLength="44" x="1419.25" y="134.2285">Engine</text><line style="stroke:#181818;stroke-width:0.5;" x1="1247" x2="1603" y1="144.5" y2="144.5"/><rect fill="none" height="6" style="stroke:#C82930;stroke-width:1.0;" width="6" x="1254" y="155.8047"/><text fill="#000000" font-family="sans-serif" font-size="14" lengthAdjust="spacing" textLength="297" x="1266" y="163.0332">unique_ptr&lt;IEngineContext&gt; m_engineContext;</text><line style="stroke:#181818;stroke-width:0.5;" x1="1247" x2="1603" y1="170.1094" y2="170.1094"/><ellipse cx="1257" cy="184.4141" fill="#84BE84" rx="3" ry="3" style="stroke:#038048;stroke-width:1.0;"/><text fill="#000000" font-family="sans-serif" font-size="14" lengthAdjust="spacing" textLength="58" x="1266" y="188.6426">Engine();</text><ellipse cx="1257" cy="202.0234" fill="#84BE84" rx="3" ry="3" style="stroke:#038048;stroke-width:1.0;"/><text fill="#000000" font-family="sans-serif" font-size="14" lengthAdjust="spacing" textLength="66" x="1266" y="206.252">~Engine();</text><ellipse cx="1257" cy="219.6328" fill="#84BE84" rx="3" ry="3" style="stroke:#038048;stroke-width:1.0;"/><text fill="#000000" font-family="sans-serif" font-size="14" lengthAdjust="spacing" textLength="232" x="1266" y="223.8613">Engine(const Engine&amp; app) = delete;</text><ellipse cx="1257" cy="237.2422" fill="#84BE84" rx="3" ry="3" style="stroke:#038048;stroke-width:1.0;"/><text fill="#000000" font-family="sans-serif" font-size="14" lengthAdjust="spacing" textLength="332" x="1266" y="241.4707">const Engine&amp; operator=(const Engine rhs) = delete;</text><ellipse cx="1257" cy="254.8516" fill="#84BE84" rx="3" ry="3" style="stroke:#038048;stroke-width:1.0;"/><text fill="#000000" font-family="sans-serif" font-size="14" lengthAdjust="spacing" textLength="65" x="1266" y="259.0801">void run();</text><text fill="#000000" font-family="sans-serif" font-size="14" lengthAdjust="spacing" textLength="4" x="1266" y="276.6895">&#160;</text><rect fill="#F24D5C" height="6" style="stroke:#C82930;stroke-width:1.0;" width="6" x="1254" y="287.0703"/><text fill="#000000" font-family="sans-serif" font-size="14" lengthAdjust="spacing" textLength="141" x="1266" y="294.2988">void startupModules();</text><rect fill="#F24D5C" height="6" style="stroke:#C82930;stroke-width:1.0;" width="6" x="1254" y="304.6797"/><text fill="#000000" font-family="sans-serif" font-size="14" lengthAdjust="spacing" textLength="221" x="1266" y="311.9082">void startupEngineContextObject();</text><rect fill="#F24D5C" height="6" style="stroke:#C82930;stroke-width:1.0;" width="6" x="1254" y="322.2891"/><text fill="#000000" font-family="sans-serif" font-size="14" lengthAdjust="spacing" textLength="189" x="1266" y="329.5176">void initMajorEngineContext();</text><rect fill="#F24D5C" height="6" style="stroke:#C82930;stroke-width:1.0;" width="6" x="1254" y="339.8984"/><text fill="#000000" font-family="sans-serif" font-size="14" lengthAdjust="spacing" textLength="113" x="1266" y="347.127">void engineTick();</text><rect fill="#F24D5C" height="6" style="stroke:#C82930;stroke-width:1.0;" width="6" x="1254" y="357.5078"/><text fill="#000000" font-family="sans-serif" font-size="14" lengthAdjust="spacing" textLength="159" x="1266" y="364.7363">void shutDownModules();</text></g><!--class Event--><g id="elem_Event"><rect codeLine="3" fill="#F1F1F1" height="312.1406" id="Event" rx="2.5" ry="2.5" style="stroke:#181818;stroke-width:0.5;" width="356" x="46" y="86"/><ellipse cx="182.75" cy="102" fill="#ADD1B2" rx="11" ry="11" style="stroke:#181818;stroke-width:1.0;"/><path d="M185.5156,97.875 Q185.6719,97.6563 185.8594,97.5469 Q186.0469,97.4375 186.2656,97.4375 Q186.6406,97.4375 186.875,97.7031 Q187.1094,97.9531 187.1094,98.5625 L187.1094,100.0156 Q187.1094,100.625 186.875,100.8906 Q186.6406,101.1563 186.2656,101.1563 Q185.9219,101.1563 185.7188,100.9531 Q185.5156,100.7656 185.4063,100.25 Q185.3594,99.8906 185.1719,99.7031 Q184.8438,99.3281 184.2344,99.1094 Q183.625,98.8906 183,98.8906 Q182.2344,98.8906 181.5938,99.2188 Q180.9688,99.5469 180.4688,100.2969 Q179.9844,101.0469 179.9844,102.0781 L179.9844,103.1719 Q179.9844,104.4063 180.875,105.2344 Q181.7656,106.0469 183.3594,106.0469 Q184.2969,106.0469 184.9531,105.7969 Q185.3438,105.6406 185.7656,105.2031 Q186.0313,104.9375 186.1719,104.8594 Q186.3281,104.7813 186.5313,104.7813 Q186.8594,104.7813 187.1094,105.0469 Q187.375,105.2969 187.375,105.6406 Q187.375,105.9844 187.0313,106.3906 Q186.5313,106.9688 185.7344,107.2969 Q184.6563,107.75 183.3594,107.75 Q181.8438,107.75 180.6406,107.125 Q179.6563,106.625 178.9688,105.5625 Q178.2813,104.4844 178.2813,103.2031 L178.2813,102.0469 Q178.2813,100.7188 178.8906,99.5781 Q179.5156,98.4219 180.6094,97.8125 Q181.7031,97.1875 182.9375,97.1875 Q183.6719,97.1875 184.3125,97.3594 Q184.9688,97.5156 185.5156,97.875 Z " fill="#000000"/><text fill="#000000" font-family="sans-serif" font-size="14" lengthAdjust="spacing" textLength="36" x="203.25" y="107.7285">Event</text><rect fill="#FFFFFF" height="17.0938" style="stroke:#181818;stroke-width:1.0;stroke-dasharray:2.0,2.0;" width="36" x="369" y="83"/><text fill="#000000" font-family="sans-serif" font-size="12" font-style="italic" lengthAdjust="spacing" textLength="34" x="370" y="96.457">Args...</text><line style="stroke:#181818;stroke-width:0.5;" x1="47" x2="401" y1="118" y2="118"/><rect fill="none" height="6" style="stroke:#C82930;stroke-width:1.0;" width="6" x="54" y="129.3047"/><text fill="#000000" font-family="sans-serif" font-size="14" lengthAdjust="spacing" textLength="101" x="66" y="136.5332">mutex m_mutex;</text><rect fill="none" height="6" style="stroke:#C82930;stroke-width:1.0;" width="6" x="54" y="146.9141"/><text fill="#000000" font-family="sans-serif" font-size="14" lengthAdjust="spacing" textLength="86" x="66" y="154.1426">int nextId_{0};</text><rect fill="none" height="6" style="stroke:#C82930;stroke-width:1.0;" width="6" x="54" y="164.5234"/><text fill="#000000" font-family="sans-serif" font-size="14" lengthAdjust="spacing" textLength="253" x="66" y="171.752">vector&lt;pair&lt;int&lt; Handler&gt;&gt; m_handlers;</text><line style="stroke:#181818;stroke-width:0.5;" x1="47" x2="401" y1="178.8281" y2="178.8281"/><ellipse cx="57" cy="193.1328" fill="#84BE84" rx="3" ry="3" style="stroke:#038048;stroke-width:1.0;"/><text fill="#000000" font-family="sans-serif" font-size="14" lengthAdjust="spacing" textLength="188" x="66" y="197.3613">Event(const Event&amp;) = delete;</text><ellipse cx="57" cy="210.7422" fill="#84BE84" rx="3" ry="3" style="stroke:#038048;stroke-width:1.0;"/><text fill="#000000" font-family="sans-serif" font-size="14" lengthAdjust="spacing" textLength="263" x="66" y="214.9707">Event&amp; operator=(const Event&amp;) = delete;</text><ellipse cx="57" cy="228.3516" fill="#84BE84" rx="3" ry="3" style="stroke:#038048;stroke-width:1.0;"/><text fill="#000000" font-family="sans-serif" font-size="14" lengthAdjust="spacing" textLength="159" x="66" y="232.5801">Event(Event&amp;&amp;) = delete;</text><ellipse cx="57" cy="245.9609" fill="#84BE84" rx="3" ry="3" style="stroke:#038048;stroke-width:1.0;"/><text fill="#000000" font-family="sans-serif" font-size="14" lengthAdjust="spacing" textLength="234" x="66" y="250.1895">Event&amp; operator=(Event&amp;&amp;) = delete;</text><ellipse cx="57" cy="263.5703" fill="#84BE84" rx="3" ry="3" style="stroke:#038048;stroke-width:1.0;"/><text fill="#000000" font-family="sans-serif" font-size="14" lengthAdjust="spacing" textLength="109" x="66" y="267.7988">Event() = default;</text><ellipse cx="57" cy="281.1797" fill="#84BE84" rx="3" ry="3" style="stroke:#038048;stroke-width:1.0;"/><text fill="#000000" font-family="sans-serif" font-size="14" lengthAdjust="spacing" textLength="117" x="66" y="285.4082">~Event() = default;</text><text fill="#000000" font-family="sans-serif" font-size="14" lengthAdjust="spacing" textLength="4" x="66" y="303.0176">&#160;</text><ellipse cx="57" cy="316.3984" fill="#84BE84" rx="3" ry="3" style="stroke:#038048;stroke-width:1.0;"/><text fill="#000000" font-family="sans-serif" font-size="14" lengthAdjust="spacing" textLength="330" x="66" y="320.627">using Handler = function&lt;void(Args...)&gt;; &#171;type alias&#187;</text><text fill="#000000" font-family="sans-serif" font-size="14" lengthAdjust="spacing" textLength="4" x="66" y="338.2363">&#160;</text><ellipse cx="57" cy="351.6172" fill="#84BE84" rx="3" ry="3" style="stroke:#038048;stroke-width:1.0;"/><text fill="#000000" font-family="sans-serif" font-size="14" lengthAdjust="spacing" textLength="242" x="66" y="355.8457">int subscribe(const Handler&amp; handler);</text><ellipse cx="57" cy="369.2266" fill="#84BE84" rx="3" ry="3" style="stroke:#038048;stroke-width:1.0;"/><text fill="#000000" font-family="sans-serif" font-size="14" lengthAdjust="spacing" textLength="151" x="66" y="373.4551">void unsubscribe(int id);</text><ellipse cx="57" cy="386.8359" fill="#84BE84" rx="3" ry="3" style="stroke:#038048;stroke-width:1.0;"/><text fill="#000000" font-family="sans-serif" font-size="14" lengthAdjust="spacing" textLength="181" x="66" y="391.0645">void operator()(Args... args);</text></g><!--class LogVerbosity--><g id="elem_LogVerbosity"><rect codeLine="3" fill="#F1F1F1" height="153.6563" id="LogVerbosity" rx="2.5" ry="2.5" style="stroke:#181818;stroke-width:0.5;" width="115" x="593.5" y="481"/><ellipse cx="608.5" cy="497" fill="#EB937F" rx="11" ry="11" style="stroke:#181818;stroke-width:1.0;"/><path d="M607.3594,497.7969 L607.3594,500.2969 L611.6875,500.2969 L611.6875,499.375 Q611.6875,498.7656 611.9219,498.5 Q612.1719,498.2344 612.5469,498.2344 Q612.9219,498.2344 613.1563,498.5 Q613.3906,498.7656 613.3906,499.375 L613.3906,502 L605.3906,502 Q604.7656,502 604.5,501.7656 Q604.25,501.5313 604.25,501.1406 Q604.25,500.7656 604.5156,500.5313 Q604.7813,500.2969 605.3906,500.2969 L605.6563,500.2969 L605.6563,493.6406 L605.3906,493.6406 Q604.7656,493.6406 604.5,493.4063 Q604.25,493.1719 604.25,492.7813 Q604.25,492.4063 604.5,492.1719 Q604.7656,491.9375 605.3906,491.9375 L613.0156,491.9375 L613.0156,494.5313 Q613.0156,495.1406 612.7813,495.4063 Q612.5625,495.6563 612.1719,495.6563 Q611.7969,495.6563 611.5625,495.4063 Q611.3281,495.1406 611.3281,494.5313 L611.3281,493.6406 L607.3594,493.6406 L607.3594,496.0938 L608.8438,496.0938 Q608.8438,495.4375 608.9688,495.25 Q609.2344,494.8438 609.7031,494.8438 Q610.0781,494.8438 610.3125,495.1094 Q610.5469,495.3594 610.5469,495.9688 L610.5469,497.9375 Q610.5469,498.4844 610.4219,498.6719 Q610.1563,499.0625 609.7031,499.0625 Q609.2344,499.0625 608.9688,498.6563 Q608.8438,498.4688 608.8438,497.7969 L607.3594,497.7969 Z " fill="#000000"/><text fill="#000000" font-family="sans-serif" font-size="14" lengthAdjust="spacing" textLength="83" x="622.5" y="502.7285">LogVerbosity</text><line style="stroke:#181818;stroke-width:0.5;" x1="594.5" x2="707.5" y1="513" y2="513"/><text fill="#000000" font-family="sans-serif" font-size="14" lengthAdjust="spacing" textLength="57" x="599.5" y="531.5332">Verbose,</text><text fill="#000000" font-family="sans-serif" font-size="14" lengthAdjust="spacing" textLength="46" x="599.5" y="549.1426">Debug,</text><text fill="#000000" font-family="sans-serif" font-size="14" lengthAdjust="spacing" textLength="27" x="599.5" y="566.752">Info,</text><text fill="#000000" font-family="sans-serif" font-size="14" lengthAdjust="spacing" textLength="57" x="599.5" y="584.3613">Warning,</text><text fill="#000000" font-family="sans-serif" font-size="14" lengthAdjust="spacing" textLength="36" x="599.5" y="601.9707">Error,</text><text fill="#000000" font-family="sans-serif" font-size="14" lengthAdjust="spacing" textLength="32" x="599.5" y="619.5801">Fatal</text><line style="stroke:#181818;stroke-width:0.5;" x1="594.5" x2="707.5" y1="626.6563" y2="626.6563"/></g><!--class Logger--><g id="elem_Logger"><rect codeLine="13" fill="#F1F1F1" height="270.0156" id="Logger" rx="2.5" ry="2.5" style="stroke:#181818;stroke-width:0.5;" width="385" x="458.5" y="107"/><ellipse cx="613.25" cy="128.3516" fill="#ADD1B2" rx="11" ry="11" style="stroke:#181818;stroke-width:1.0;"/><path d="M616.0156,124.2266 Q616.1719,124.0078 616.3594,123.8984 Q616.5469,123.7891 616.7656,123.7891 Q617.1406,123.7891 617.375,124.0547 Q617.6094,124.3047 617.6094,124.9141 L617.6094,126.3672 Q617.6094,126.9766 617.375,127.2422 Q617.1406,127.5078 616.7656,127.5078 Q616.4219,127.5078 616.2188,127.3047 Q616.0156,127.1172 615.9063,126.6016 Q615.8594,126.2422 615.6719,126.0547 Q615.3438,125.6797 614.7344,125.4609 Q614.125,125.2422 613.5,125.2422 Q612.7344,125.2422 612.0938,125.5703 Q611.4688,125.8984 610.9688,126.6484 Q610.4844,127.3984 610.4844,128.4297 L610.4844,129.5234 Q610.4844,130.7578 611.375,131.5859 Q612.2656,132.3984 613.8594,132.3984 Q614.7969,132.3984 615.4531,132.1484 Q615.8438,131.9922 616.2656,131.5547 Q616.5313,131.2891 616.6719,131.2109 Q616.8281,131.1328 617.0313,131.1328 Q617.3594,131.1328 617.6094,131.3984 Q617.875,131.6484 617.875,131.9922 Q617.875,132.3359 617.5313,132.7422 Q617.0313,133.3203 616.2344,133.6484 Q615.1563,134.1016 613.8594,134.1016 Q612.3438,134.1016 611.1406,133.4766 Q610.1563,132.9766 609.4688,131.9141 Q608.7813,130.8359 608.7813,129.5547 L608.7813,128.3984 Q608.7813,127.0703 609.3906,125.9297 Q610.0156,124.7734 611.1094,124.1641 Q612.2031,123.5391 613.4375,123.5391 Q614.1719,123.5391 614.8125,123.7109 Q615.4688,123.8672 616.0156,124.2266 Z " fill="#000000"/><text fill="#000000" font-family="sans-serif" font-size="12" font-style="italic" lengthAdjust="spacing" textLength="71" x="631.75" y="124.457">&#171;singletone&#187;</text><text fill="#000000" font-family="sans-serif" font-size="14" lengthAdjust="spacing" textLength="45" x="644.75" y="141.627">Logger</text><line style="stroke:#181818;stroke-width:0.5;" x1="459.5" x2="842.5" y1="149.7031" y2="149.7031"/><rect fill="none" height="6" style="stroke:#C82930;stroke-width:1.0;" width="6" x="466.5" y="161.0078"/><text fill="#000000" font-family="sans-serif" font-size="14" lengthAdjust="spacing" textLength="101" x="478.5" y="168.2363">mutex m_mutex;</text><text fill="#000000" font-family="sans-serif" font-size="14" lengthAdjust="spacing" textLength="4" x="478.5" y="185.8457">&#160;</text><ellipse cx="469.5" cy="199.2266" fill="none" rx="3" ry="3" style="stroke:#038048;stroke-width:1.0;"/><text fill="#000000" font-family="sans-serif" font-size="14" lengthAdjust="spacing" textLength="219" x="478.5" y="203.4551">Event&lt;string&gt; OnMessagePushed;</text><line style="stroke:#181818;stroke-width:0.5;" x1="459.5" x2="842.5" y1="210.5313" y2="210.5313"/><rect fill="#F24D5C" height="6" style="stroke:#C82930;stroke-width:1.0;" width="6" x="466.5" y="221.8359"/><text fill="#000000" font-family="sans-serif" font-size="14" lengthAdjust="spacing" textLength="118" x="478.5" y="229.0645">Logger() = default;</text><rect fill="#F24D5C" height="6" style="stroke:#C82930;stroke-width:1.0;" width="6" x="466.5" y="239.4453"/><text fill="#000000" font-family="sans-serif" font-size="14" lengthAdjust="spacing" textLength="126" x="478.5" y="246.6738">~Logger() = default;</text><rect fill="#F24D5C" height="6" style="stroke:#C82930;stroke-width:1.0;" width="6" x="466.5" y="257.0547"/><text fill="#000000" font-family="sans-serif" font-size="14" lengthAdjust="spacing" textLength="206" x="478.5" y="264.2832">Logger(const Logger&amp;) = delete;</text><rect fill="#F24D5C" height="6" style="stroke:#C82930;stroke-width:1.0;" width="6" x="466.5" y="274.6641"/><text fill="#000000" font-family="sans-serif" font-size="14" lengthAdjust="spacing" textLength="281" x="478.5" y="281.8926">Logger&amp; operator=(const Logger&amp;) = delete;</text><text fill="#000000" font-family="sans-serif" font-size="14" lengthAdjust="spacing" textLength="4" x="478.5" y="299.502">&#160;</text><rect fill="#F24D5C" height="6" style="stroke:#C82930;stroke-width:1.0;" width="6" x="466.5" y="309.8828"/><text fill="#000000" font-family="sans-serif" font-size="14" lengthAdjust="spacing" textLength="284" x="478.5" y="317.1113">string toString(LogVerbosity verbosity) const;</text><ellipse cx="469.5" cy="330.4922" fill="#84BE84" rx="3" ry="3" style="stroke:#038048;stroke-width:1.0;"/><text fill="#000000" font-family="sans-serif" font-size="14" lengthAdjust="spacing" textLength="132" x="478.5" y="334.7207">static Logger&amp; Get();</text><text fill="#000000" font-family="sans-serif" font-size="14" lengthAdjust="spacing" textLength="4" x="478.5" y="352.3301">&#160;</text><ellipse cx="469.5" cy="365.7109" fill="#84BE84" rx="3" ry="3" style="stroke:#038048;stroke-width:1.0;"/><text fill="#000000" font-family="sans-serif" font-size="14" lengthAdjust="spacing" textLength="359" x="478.5" y="369.9395">void Log(LogVerbosity verbosity, const string&amp; message)</text></g><g id="elem_GMN15"><path d="M879,180 L879,238 L843.8,242 L879,246 L879,304.4609 A0,0 0 0 0 879,304.4609 L1039,304.4609 A0,0 0 0 0 1039,304.4609 L1039,190 L1029,180 L879,180 A0,0 0 0 0 879,180 " fill="#FEFFDD" style="stroke:#181818;stroke-width:0.5;"/><path d="M1029,180 L1029,190 L1039,190 L1029,180 " fill="#FEFFDD" style="stroke:#181818;stroke-width:0.5;"/><text fill="#000000" font-family="sans-serif" font-size="13" lengthAdjust="spacing" textLength="47" x="885" y="198.4951">Macros:</text><text fill="#000000" font-family="sans-serif" font-size="13" lengthAdjust="spacing" textLength="139" x="885" y="214.8467">- LOG_VERBOSE(msg)</text><text fill="#000000" font-family="sans-serif" font-size="13" lengthAdjust="spacing" textLength="121" x="885" y="231.1982">- LOG_DEBUG(msg)</text><text fill="#000000" font-family="sans-serif" font-size="13" lengthAdjust="spacing" textLength="105" x="885" y="247.5498">- LOG_INFO(msg)</text><text fill="#000000" font-family="sans-serif" font-size="13" lengthAdjust="spacing" textLength="137" x="885" y="263.9014">- LOG_WARNING(msg)</text><text fill="#000000" font-family="sans-serif" font-size="13" lengthAdjust="spacing" textLength="121" x="885" y="280.2529">- LOG_ERROR(msg)</text><text fill="#000000" font-family="sans-serif" font-size="13" lengthAdjust="spacing" textLength="115" x="885" y="296.6045">- LOG_FATAL(msg)</text></g><!--reverse link Engine to IEngineContext--><g id="link_Engine_IEngineContext"><path codeLine="44" d="M1334.4697,381.668 C1312.3497,415.548 1295.61,441.19 1275.42,472.12 " fill="none" id="Engine-backto-IEngineContext" style="stroke:#181818;stroke-width:1.0;"/><polygon fill="#181818" points="1341.03,371.62,1334.4005,374.4573,1334.4697,381.668,1341.0992,378.8308,1341.03,371.62" style="stroke:#181818;stroke-width:1.0;"/></g><!--reverse link Engine to EngineConfig--><g id="link_Engine_EngineConfig"><path codeLine="45" d="M1489.4511,377.0269 C1503.3011,405.8169 1515.18,430.52 1528.34,457.9 " fill="none" id="Engine-backto-EngineConfig" style="stroke:#181818;stroke-width:1.0;stroke-dasharray:7.0,7.0;"/><polygon fill="#181818" points="1486.85,371.62,1487.147,381.4644,1489.0176,376.1257,1494.3562,377.9963,1486.85,371.62" style="stroke:#181818;stroke-width:1.0;"/></g><!--reverse link Logger to LogVerbosity--><g id="link_Logger_LogVerbosity"><path codeLine="29" d="M651,389.08 C651,424.58 651,449.68 651,480.91 " fill="none" id="Logger-backto-LogVerbosity" style="stroke:#181818;stroke-width:1.0;"/><polygon fill="#181818" points="651,377.08,647,383.08,651,389.08,655,383.08,651,377.08" style="stroke:#181818;stroke-width:1.0;"/></g><!--SRC=[AqXCpavCJrLmpYzAzSrFASr9BUQgvb800iNClEISqfHK1TUyzCoyLEVyl9BKYXA86hs2qjmSD5LbgNcuPNtoqzDJYv2bQm40]--></g></svg>