<?xml version="1.0" encoding="us-ascii" standalone="no"?><svg xmlns="http://www.w3.org/2000/svg" xmlns:xlink="http://www.w3.org/1999/xlink" contentStyleType="text/css" height="549px" preserveAspectRatio="none" style="width:626px;height:549px;background:#FFFFFF;" version="1.1" viewBox="0 0 626 549" width="626px" zoomAndPan="magnify"><defs/><g><!--cluster LoggerModule--><g id="cluster_LoggerModule"><path d="M8.5,6 L112.5,6 A3.75,3.75 0 0 1 115,8.5 L122,29.6094 L616.5,29.6094 A2.5,2.5 0 0 1 619,32.1094 L619,539.5 A2.5,2.5 0 0 1 616.5,542 L8.5,542 A2.5,2.5 0 0 1 6,539.5 L6,8.5 A2.5,2.5 0 0 1 8.5,6 " fill="none" style="stroke:#000000;stroke-width:1.5;"/><line style="stroke:#000000;stroke-width:1.5;" x1="6" x2="122" y1="29.6094" y2="29.6094"/><text fill="#000000" font-family="sans-serif" font-size="14" font-weight="bold" lengthAdjust="spacing" textLength="103" x="10" y="22.5332">LoggerModule</text></g><!--class LogVerbosity--><g id="elem_LogVerbosity"><rect codeLine="3" fill="#F1F1F1" height="153.6563" id="LogVerbosity" rx="2.5" ry="2.5" style="stroke:#181818;stroke-width:0.5;" width="115" x="157.5" y="372"/><ellipse cx="172.5" cy="388" fill="#EB937F" rx="11" ry="11" style="stroke:#181818;stroke-width:1.0;"/><path d="M171.3594,388.7969 L171.3594,391.2969 L175.6875,391.2969 L175.6875,390.375 Q175.6875,389.7656 175.9219,389.5 Q176.1719,389.2344 176.5469,389.2344 Q176.9219,389.2344 177.1563,389.5 Q177.3906,389.7656 177.3906,390.375 L177.3906,393 L169.3906,393 Q168.7656,393 168.5,392.7656 Q168.25,392.5313 168.25,392.1406 Q168.25,391.7656 168.5156,391.5313 Q168.7813,391.2969 169.3906,391.2969 L169.6563,391.2969 L169.6563,384.6406 L169.3906,384.6406 Q168.7656,384.6406 168.5,384.4063 Q168.25,384.1719 168.25,383.7813 Q168.25,383.4063 168.5,383.1719 Q168.7656,382.9375 169.3906,382.9375 L177.0156,382.9375 L177.0156,385.5313 Q177.0156,386.1406 176.7813,386.4063 Q176.5625,386.6563 176.1719,386.6563 Q175.7969,386.6563 175.5625,386.4063 Q175.3281,386.1406 175.3281,385.5313 L175.3281,384.6406 L171.3594,384.6406 L171.3594,387.0938 L172.8438,387.0938 Q172.8438,386.4375 172.9688,386.25 Q173.2344,385.8438 173.7031,385.8438 Q174.0781,385.8438 174.3125,386.1094 Q174.5469,386.3594 174.5469,386.9688 L174.5469,388.9375 Q174.5469,389.4844 174.4219,389.6719 Q174.1563,390.0625 173.7031,390.0625 Q173.2344,390.0625 172.9688,389.6563 Q172.8438,389.4688 172.8438,388.7969 L171.3594,388.7969 Z " fill="#000000"/><text fill="#000000" font-family="sans-serif" font-size="14" lengthAdjust="spacing" textLength="83" x="186.5" y="393.7285">LogVerbosity</text><line style="stroke:#181818;stroke-width:0.5;" x1="158.5" x2="271.5" y1="404" y2="404"/><text fill="#000000" font-family="sans-serif" font-size="14" lengthAdjust="spacing" textLength="57" x="163.5" y="422.5332">Verbose,</text><text fill="#000000" font-family="sans-serif" font-size="14" lengthAdjust="spacing" textLength="46" x="163.5" y="440.1426">Debug,</text><text fill="#000000" font-family="sans-serif" font-size="14" lengthAdjust="spacing" textLength="27" x="163.5" y="457.752">Info,</text><text fill="#000000" font-family="sans-serif" font-size="14" lengthAdjust="spacing" textLength="57" x="163.5" y="475.3613">Warning,</text><text fill="#000000" font-family="sans-serif" font-size="14" lengthAdjust="spacing" textLength="36" x="163.5" y="492.9707">Error,</text><text fill="#000000" font-family="sans-serif" font-size="14" lengthAdjust="spacing" textLength="32" x="163.5" y="510.5801">Fatal</text><line style="stroke:#181818;stroke-width:0.5;" x1="158.5" x2="271.5" y1="517.6563" y2="517.6563"/></g><!--class Logger--><g id="elem_Logger"><rect codeLine="13" fill="#F1F1F1" height="270.0156" id="Logger" rx="2.5" ry="2.5" style="stroke:#181818;stroke-width:0.5;" width="385" x="22.5" y="42"/><ellipse cx="177.25" cy="63.3516" fill="#ADD1B2" rx="11" ry="11" style="stroke:#181818;stroke-width:1.0;"/><path d="M180.0156,59.2266 Q180.1719,59.0078 180.3594,58.8984 Q180.5469,58.7891 180.7656,58.7891 Q181.1406,58.7891 181.375,59.0547 Q181.6094,59.3047 181.6094,59.9141 L181.6094,61.3672 Q181.6094,61.9766 181.375,62.2422 Q181.1406,62.5078 180.7656,62.5078 Q180.4219,62.5078 180.2188,62.3047 Q180.0156,62.1172 179.9063,61.6016 Q179.8594,61.2422 179.6719,61.0547 Q179.3438,60.6797 178.7344,60.4609 Q178.125,60.2422 177.5,60.2422 Q176.7344,60.2422 176.0938,60.5703 Q175.4688,60.8984 174.9688,61.6484 Q174.4844,62.3984 174.4844,63.4297 L174.4844,64.5234 Q174.4844,65.7578 175.375,66.5859 Q176.2656,67.3984 177.8594,67.3984 Q178.7969,67.3984 179.4531,67.1484 Q179.8438,66.9922 180.2656,66.5547 Q180.5313,66.2891 180.6719,66.2109 Q180.8281,66.1328 181.0313,66.1328 Q181.3594,66.1328 181.6094,66.3984 Q181.875,66.6484 181.875,66.9922 Q181.875,67.3359 181.5313,67.7422 Q181.0313,68.3203 180.2344,68.6484 Q179.1563,69.1016 177.8594,69.1016 Q176.3438,69.1016 175.1406,68.4766 Q174.1563,67.9766 173.4688,66.9141 Q172.7813,65.8359 172.7813,64.5547 L172.7813,63.3984 Q172.7813,62.0703 173.3906,60.9297 Q174.0156,59.7734 175.1094,59.1641 Q176.2031,58.5391 177.4375,58.5391 Q178.1719,58.5391 178.8125,58.7109 Q179.4688,58.8672 180.0156,59.2266 Z " fill="#000000"/><text fill="#000000" font-family="sans-serif" font-size="12" font-style="italic" lengthAdjust="spacing" textLength="71" x="195.75" y="59.457">&#171;singletone&#187;</text><text fill="#000000" font-family="sans-serif" font-size="14" lengthAdjust="spacing" textLength="45" x="208.75" y="76.627">Logger</text><line style="stroke:#181818;stroke-width:0.5;" x1="23.5" x2="406.5" y1="84.7031" y2="84.7031"/><rect fill="none" height="6" style="stroke:#C82930;stroke-width:1.0;" width="6" x="30.5" y="96.0078"/><text fill="#000000" font-family="sans-serif" font-size="14" lengthAdjust="spacing" textLength="101" x="42.5" y="103.2363">mutex m_mutex;</text><text fill="#000000" font-family="sans-serif" font-size="14" lengthAdjust="spacing" textLength="4" x="42.5" y="120.8457">&#160;</text><ellipse cx="33.5" cy="134.2266" fill="none" rx="3" ry="3" style="stroke:#038048;stroke-width:1.0;"/><text fill="#000000" font-family="sans-serif" font-size="14" lengthAdjust="spacing" textLength="219" x="42.5" y="138.4551">Event&lt;string&gt; OnMessagePushed;</text><line style="stroke:#181818;stroke-width:0.5;" x1="23.5" x2="406.5" y1="145.5313" y2="145.5313"/><rect fill="#F24D5C" height="6" style="stroke:#C82930;stroke-width:1.0;" width="6" x="30.5" y="156.8359"/><text fill="#000000" font-family="sans-serif" font-size="14" lengthAdjust="spacing" textLength="118" x="42.5" y="164.0645">Logger() = default;</text><rect fill="#F24D5C" height="6" style="stroke:#C82930;stroke-width:1.0;" width="6" x="30.5" y="174.4453"/><text fill="#000000" font-family="sans-serif" font-size="14" lengthAdjust="spacing" textLength="126" x="42.5" y="181.6738">~Logger() = default;</text><rect fill="#F24D5C" height="6" style="stroke:#C82930;stroke-width:1.0;" width="6" x="30.5" y="192.0547"/><text fill="#000000" font-family="sans-serif" font-size="14" lengthAdjust="spacing" textLength="206" x="42.5" y="199.2832">Logger(const Logger&amp;) = delete;</text><rect fill="#F24D5C" height="6" style="stroke:#C82930;stroke-width:1.0;" width="6" x="30.5" y="209.6641"/><text fill="#000000" font-family="sans-serif" font-size="14" lengthAdjust="spacing" textLength="281" x="42.5" y="216.8926">Logger&amp; operator=(const Logger&amp;) = delete;</text><text fill="#000000" font-family="sans-serif" font-size="14" lengthAdjust="spacing" textLength="4" x="42.5" y="234.502">&#160;</text><rect fill="#F24D5C" height="6" style="stroke:#C82930;stroke-width:1.0;" width="6" x="30.5" y="244.8828"/><text fill="#000000" font-family="sans-serif" font-size="14" lengthAdjust="spacing" textLength="284" x="42.5" y="252.1113">string toString(LogVerbosity verbosity) const;</text><ellipse cx="33.5" cy="265.4922" fill="#84BE84" rx="3" ry="3" style="stroke:#038048;stroke-width:1.0;"/><text fill="#000000" font-family="sans-serif" font-size="14" lengthAdjust="spacing" textLength="132" x="42.5" y="269.7207">static Logger&amp; Get();</text><text fill="#000000" font-family="sans-serif" font-size="14" lengthAdjust="spacing" textLength="4" x="42.5" y="287.3301">&#160;</text><ellipse cx="33.5" cy="300.7109" fill="#84BE84" rx="3" ry="3" style="stroke:#038048;stroke-width:1.0;"/><text fill="#000000" font-family="sans-serif" font-size="14" lengthAdjust="spacing" textLength="359" x="42.5" y="304.9395">void Log(LogVerbosity verbosity, const string&amp; message)</text></g><g id="elem_GMN6"><path d="M443,115 L443,173 L407.8,177 L443,181 L443,239.4609 A0,0 0 0 0 443,239.4609 L603,239.4609 A0,0 0 0 0 603,239.4609 L603,125 L593,115 L443,115 A0,0 0 0 0 443,115 " fill="#FEFFDD" style="stroke:#181818;stroke-width:0.5;"/><path d="M593,115 L593,125 L603,125 L593,115 " fill="#FEFFDD" style="stroke:#181818;stroke-width:0.5;"/><text fill="#000000" font-family="sans-serif" font-size="13" lengthAdjust="spacing" textLength="47" x="449" y="133.4951">Macros:</text><text fill="#000000" font-family="sans-serif" font-size="13" lengthAdjust="spacing" textLength="139" x="449" y="149.8467">- LOG_VERBOSE(msg)</text><text fill="#000000" font-family="sans-serif" font-size="13" lengthAdjust="spacing" textLength="121" x="449" y="166.1982">- LOG_DEBUG(msg)</text><text fill="#000000" font-family="sans-serif" font-size="13" lengthAdjust="spacing" textLength="105" x="449" y="182.5498">- LOG_INFO(msg)</text><text fill="#000000" font-family="sans-serif" font-size="13" lengthAdjust="spacing" textLength="137" x="449" y="198.9014">- LOG_WARNING(msg)</text><text fill="#000000" font-family="sans-serif" font-size="13" lengthAdjust="spacing" textLength="121" x="449" y="215.2529">- LOG_ERROR(msg)</text><text fill="#000000" font-family="sans-serif" font-size="13" lengthAdjust="spacing" textLength="115" x="449" y="231.6045">- LOG_FATAL(msg)</text></g><!--reverse link Logger to LogVerbosity--><g id="link_Logger_LogVerbosity"><path codeLine="29" d="M215,324.21 C215,344.72 215,353.26 215,371.93 " fill="none" id="Logger-backto-LogVerbosity" style="stroke:#181818;stroke-width:1.0;"/><polygon fill="#181818" points="215,312.21,211,318.21,215,324.21,219,318.21,215,312.21" style="stroke:#181818;stroke-width:1.0;"/></g><!--SRC=[VLBRRi8m37tlL_W9jOF-mBX880f20ZgL3HvHQ4sfrYOeST6cYNtxsgIiNH7BI-npVEoZE6SMlhCOOIdY6ELAH7cArfS5nK6UPoM-HNaGAg5FZHgkF0R7tYymnKCUr-c27qMTxPZa2M_GdfH2rkcC4KjrThNq5QPCgSeN30Qg4AT8WkDer3BYcYBRWI54U6HvIlsQ_FwNhSXGS4NLi8wfB8RXNM47n1ab8o67ZpMrI94iR0E9ZGxivcl2vHOve5irXcKvuGTaUtttRt3TkEjTaDF0j1-1prUeLB76broTCAeRTHKnIiARIPWZsKx3OFSYagXa7pZh6MTW1dKWCsESvfwg3Jsvxj_FOd5123A9JmJYM9LfnOg5KgXd7HSYVxxVUi74ttXsfcAd0K-zoTky3IxMCx-DxSR1Uh6-A_M2m0_Qu6pyEbuQ47a4fKlh-WC0]--></g></svg>