<?xml version="1.0" encoding="us-ascii" standalone="no"?><svg xmlns="http://www.w3.org/2000/svg" xmlns:xlink="http://www.w3.org/1999/xlink" contentStyleType="text/css" height="1562px" preserveAspectRatio="none" style="width:1535px;height:1562px;background:#FFFFFF;" version="1.1" viewBox="0 0 1535 1562" width="1535px" zoomAndPan="magnify"><defs/><g><!--cluster GameLogicSubsystem--><g id="cluster_GameLogicSubsystem"><path d="M8.5,6 L163.5,6 A3.75,3.75 0 0 1 166,8.5 L173,29.6094 L1525.5,29.6094 A2.5,2.5 0 0 1 1528,32.1094 L1528,1552.5 A2.5,2.5 0 0 1 1525.5,1555 L8.5,1555 A2.5,2.5 0 0 1 6,1552.5 L6,8.5 A2.5,2.5 0 0 1 8.5,6 " fill="none" style="stroke:#000000;stroke-width:1.5;"/><line style="stroke:#000000;stroke-width:1.5;" x1="6" x2="173" y1="29.6094" y2="29.6094"/><text fill="#000000" font-family="sans-serif" font-size="14" font-weight="bold" lengthAdjust="spacing" textLength="154" x="10" y="22.5332">GameLogicSubsystem</text></g><!--cluster ECSModule--><g id="cluster_ECSModule"><path d="M40.5,542 L122.5,542 A3.75,3.75 0 0 1 125,544.5 L132,565.6094 L1493.5,565.6094 A2.5,2.5 0 0 1 1496,568.1094 L1496,1520.5 A2.5,2.5 0 0 1 1493.5,1523 L40.5,1523 A2.5,2.5 0 0 1 38,1520.5 L38,544.5 A2.5,2.5 0 0 1 40.5,542 " fill="none" style="stroke:#000000;stroke-width:1.5;"/><line style="stroke:#000000;stroke-width:1.5;" x1="38" x2="132" y1="565.6094" y2="565.6094"/><text fill="#000000" font-family="sans-serif" font-size="14" font-weight="bold" lengthAdjust="spacing" textLength="81" x="42" y="558.5332">ECSModule</text></g><!--cluster ECSComponents--><g id="cluster_ECSComponents"><path d="M577.5,653 L695.5,653 A3.75,3.75 0 0 1 698,655.5 L705,676.6094 L1453.5,676.6094 A2.5,2.5 0 0 1 1456,679.1094 L1456,1480.5 A2.5,2.5 0 0 1 1453.5,1483 L577.5,1483 A2.5,2.5 0 0 1 575,1480.5 L575,655.5 A2.5,2.5 0 0 1 577.5,653 " fill="none" style="stroke:#000000;stroke-width:1.5;"/><line style="stroke:#000000;stroke-width:1.5;" x1="575" x2="705" y1="676.6094" y2="676.6094"/><text fill="#000000" font-family="sans-serif" font-size="14" font-weight="bold" lengthAdjust="spacing" textLength="117" x="579" y="669.5332">ECSComponents</text></g><!--cluster ECSSystems--><g id="cluster_ECSSystems"><path d="M88.5,1047.5 L175.5,1047.5 A3.75,3.75 0 0 1 178,1050 L185,1071.1094 L532.5,1071.1094 A2.5,2.5 0 0 1 535,1073.6094 L535,1427.5 A2.5,2.5 0 0 1 532.5,1430 L88.5,1430 A2.5,2.5 0 0 1 86,1427.5 L86,1050 A2.5,2.5 0 0 1 88.5,1047.5 " fill="none" style="stroke:#000000;stroke-width:1.5;"/><line style="stroke:#000000;stroke-width:1.5;" x1="86" x2="185" y1="1071.1094" y2="1071.1094"/><text fill="#000000" font-family="sans-serif" font-size="14" font-weight="bold" lengthAdjust="spacing" textLength="86" x="90" y="1064.0332">ECSSystems</text></g><!--cluster LuaScriptModule--><g id="cluster_LuaScriptModule"><path d="M343.5,58 L463.5,58 A3.75,3.75 0 0 1 466,60.5 L473,81.6094 L835.5,81.6094 A2.5,2.5 0 0 1 838,84.1094 L838,499.5 A2.5,2.5 0 0 1 835.5,502 L343.5,502 A2.5,2.5 0 0 1 341,499.5 L341,60.5 A2.5,2.5 0 0 1 343.5,58 " fill="none" style="stroke:#000000;stroke-width:1.5;"/><line style="stroke:#000000;stroke-width:1.5;" x1="341" x2="473" y1="81.6094" y2="81.6094"/><text fill="#000000" font-family="sans-serif" font-size="14" font-weight="bold" lengthAdjust="spacing" textLength="119" x="345" y="74.5332">LuaScriptModule</text></g><!--cluster PhysicsModule--><g id="cluster_PhysicsModule"><path d="M40.5,208 L147.5,208 A3.75,3.75 0 0 1 150,210.5 L157,231.6094 L298.5,231.6094 A2.5,2.5 0 0 1 301,234.1094 L301,349.5 A2.5,2.5 0 0 1 298.5,352 L40.5,352 A2.5,2.5 0 0 1 38,349.5 L38,210.5 A2.5,2.5 0 0 1 40.5,208 " fill="none" style="stroke:#000000;stroke-width:1.5;"/><line style="stroke:#000000;stroke-width:1.5;" x1="38" x2="157" y1="231.6094" y2="231.6094"/><text fill="#000000" font-family="sans-serif" font-size="14" font-weight="bold" lengthAdjust="spacing" textLength="106" x="42" y="224.5332">PhysicsModule</text></g><!--class ECSModule--><g id="elem_ECSModule"><rect codeLine="96" fill="#F1F1F1" height="393.2813" id="ECSModule" rx="2.5" ry="2.5" style="stroke:#181818;stroke-width:0.5;" width="304" x="162" y="586"/><ellipse cx="272.75" cy="607.3516" fill="#ADD1B2" rx="11" ry="11" style="stroke:#181818;stroke-width:1.0;"/><path d="M275.5156,603.2266 Q275.6719,603.0078 275.8594,602.8984 Q276.0469,602.7891 276.2656,602.7891 Q276.6406,602.7891 276.875,603.0547 Q277.1094,603.3047 277.1094,603.9141 L277.1094,605.3672 Q277.1094,605.9766 276.875,606.2422 Q276.6406,606.5078 276.2656,606.5078 Q275.9219,606.5078 275.7188,606.3047 Q275.5156,606.1172 275.4063,605.6016 Q275.3594,605.2422 275.1719,605.0547 Q274.8438,604.6797 274.2344,604.4609 Q273.625,604.2422 273,604.2422 Q272.2344,604.2422 271.5938,604.5703 Q270.9688,604.8984 270.4688,605.6484 Q269.9844,606.3984 269.9844,607.4297 L269.9844,608.5234 Q269.9844,609.7578 270.875,610.5859 Q271.7656,611.3984 273.3594,611.3984 Q274.2969,611.3984 274.9531,611.1484 Q275.3438,610.9922 275.7656,610.5547 Q276.0313,610.2891 276.1719,610.2109 Q276.3281,610.1328 276.5313,610.1328 Q276.8594,610.1328 277.1094,610.3984 Q277.375,610.6484 277.375,610.9922 Q277.375,611.3359 277.0313,611.7422 Q276.5313,612.3203 275.7344,612.6484 Q274.6563,613.1016 273.3594,613.1016 Q271.8438,613.1016 270.6406,612.4766 Q269.6563,611.9766 268.9688,610.9141 Q268.2813,609.8359 268.2813,608.5547 L268.2813,607.3984 Q268.2813,606.0703 268.8906,604.9297 Q269.5156,603.7734 270.6094,603.1641 Q271.7031,602.5391 272.9375,602.5391 Q273.6719,602.5391 274.3125,602.7109 Q274.9688,602.8672 275.5156,603.2266 Z " fill="#000000"/><text fill="#000000" font-family="sans-serif" font-size="12" font-style="italic" lengthAdjust="spacing" textLength="71" x="294.75" y="603.457">&#171;singletone&#187;</text><text fill="#000000" font-family="sans-serif" font-size="14" lengthAdjust="spacing" textLength="74" x="293.25" y="620.627">ECSModule</text><line style="stroke:#181818;stroke-width:0.5;" x1="163" x2="465" y1="628.7031" y2="628.7031"/><rect fill="none" height="6" style="stroke:#C82930;stroke-width:1.0;" width="6" x="170" y="640.0078"/><text fill="#000000" font-family="sans-serif" font-size="14" lengthAdjust="spacing" textLength="130" x="182" y="647.2363">flecs::world m_world;</text><rect fill="none" height="6" style="stroke:#C82930;stroke-width:1.0;" width="6" x="170" y="657.6172"/><text fill="#000000" font-family="sans-serif" font-size="14" lengthAdjust="spacing" textLength="173" x="182" y="664.8457">bool m_tickEnabled = false;</text><rect fill="none" height="6" style="stroke:#C82930;stroke-width:1.0;" width="6" x="170" y="675.2266"/><text fill="#000000" font-family="sans-serif" font-size="14" lengthAdjust="spacing" textLength="167" x="182" y="682.4551">string m_currentWorldFile;</text><text fill="#000000" font-family="sans-serif" font-size="14" lengthAdjust="spacing" textLength="4" x="182" y="700.0645">&#160;</text><text fill="#000000" font-family="sans-serif" font-size="14" lengthAdjust="spacing" textLength="4" x="182" y="717.6738">&#160;</text><ellipse cx="173" cy="731.0547" fill="none" rx="3" ry="3" style="stroke:#038048;stroke-width:1.0;"/><text fill="#000000" font-family="sans-serif" font-size="14" lengthAdjust="spacing" textLength="213" x="182" y="735.2832">Event&lt;&gt; OnLoadInitialWorldState;</text><ellipse cx="173" cy="748.6641" fill="none" rx="3" ry="3" style="stroke:#038048;stroke-width:1.0;"/><text fill="#000000" font-family="sans-serif" font-size="14" lengthAdjust="spacing" textLength="217" x="182" y="752.8926">Event&lt;&gt; OnComponentsChanged;</text><line style="stroke:#181818;stroke-width:0.5;" x1="163" x2="465" y1="759.9688" y2="759.9688"/><ellipse cx="173" cy="774.2734" fill="#84BE84" rx="3" ry="3" style="stroke:#038048;stroke-width:1.0;"/><text fill="#000000" font-family="sans-serif" font-size="14" lengthAdjust="spacing" textLength="211" x="182" y="778.502">static ECSModule&amp; getInstance();</text><ellipse cx="173" cy="791.8828" fill="#84BE84" rx="3" ry="3" style="stroke:#038048;stroke-width:1.0;"/><text fill="#000000" font-family="sans-serif" font-size="14" lengthAdjust="spacing" textLength="88" x="182" y="796.1113">void startup();</text><ellipse cx="173" cy="809.4922" fill="#84BE84" rx="3" ry="3" style="stroke:#038048;stroke-width:1.0;"/><text fill="#000000" font-family="sans-serif" font-size="14" lengthAdjust="spacing" textLength="104" x="182" y="813.7207">void shutdown();</text><ellipse cx="173" cy="827.1016" fill="#84BE84" rx="3" ry="3" style="stroke:#038048;stroke-width:1.0;"/><text fill="#000000" font-family="sans-serif" font-size="14" lengthAdjust="spacing" textLength="169" x="182" y="831.3301">void loadInitialWorldState()</text><ellipse cx="173" cy="844.7109" fill="#84BE84" rx="3" ry="3" style="stroke:#038048;stroke-width:1.0;"/><text fill="#000000" font-family="sans-serif" font-size="14" lengthAdjust="spacing" textLength="278" x="182" y="848.9395">void loadWorldFromFile(const string&amp; path);</text><ellipse cx="173" cy="862.3203" fill="#84BE84" rx="3" ry="3" style="stroke:#038048;stroke-width:1.0;"/><text fill="#000000" font-family="sans-serif" font-size="14" lengthAdjust="spacing" textLength="137" x="182" y="866.5488">void startSimulation();</text><ellipse cx="173" cy="879.9297" fill="#84BE84" rx="3" ry="3" style="stroke:#038048;stroke-width:1.0;"/><text fill="#000000" font-family="sans-serif" font-size="14" lengthAdjust="spacing" textLength="136" x="182" y="884.1582">void stopSimulation();</text><text fill="#000000" font-family="sans-serif" font-size="14" lengthAdjust="spacing" textLength="4" x="182" y="901.7676">&#160;</text><ellipse cx="173" cy="915.1484" fill="#84BE84" rx="3" ry="3" style="stroke:#038048;stroke-width:1.0;"/><text fill="#000000" font-family="sans-serif" font-size="14" lengthAdjust="spacing" textLength="163" x="182" y="919.377">bool isimulationEnabled();</text><ellipse cx="173" cy="932.7578" fill="#84BE84" rx="3" ry="3" style="stroke:#038048;stroke-width:1.0;"/><text fill="#000000" font-family="sans-serif" font-size="14" lengthAdjust="spacing" textLength="123" x="182" y="936.9863">bool isWorldValid();</text><rect fill="#F24D5C" height="6" style="stroke:#C82930;stroke-width:1.0;" width="6" x="170" y="947.3672"/><text fill="#000000" font-family="sans-serif" font-size="14" lengthAdjust="spacing" textLength="172" x="182" y="954.5957">void registerComponents();</text><rect fill="#F24D5C" height="6" style="stroke:#C82930;stroke-width:1.0;" width="6" x="170" y="964.9766"/><text fill="#000000" font-family="sans-serif" font-size="14" lengthAdjust="spacing" textLength="158" x="182" y="972.2051">void registerObservers();</text></g><!--class PositionComponent--><g id="elem_PositionComponent"><rect codeLine="5" fill="#F1F1F1" height="136.0469" id="PositionComponent" rx="2.5" ry="2.5" style="stroke:#181818;stroke-width:0.5;" width="259" x="618.5" y="714.5"/><ellipse cx="682.25" cy="730.5" fill="#F1F1F1" rx="11" ry="11" style="stroke:#181818;stroke-width:1.0;"/><path d="M680.3594,735.0625 Q680.1406,735.3281 680,735.4063 Q679.8594,735.4844 679.6719,735.4844 Q679.2813,735.4844 679.0313,735.2188 Q678.7969,734.9531 678.7969,734.3594 L678.7969,733.2031 Q678.7969,732.5938 679.0313,732.3438 Q679.2813,732.0781 679.6719,732.0781 Q679.9688,732.0781 680.1719,732.2344 Q680.375,732.3906 680.4844,732.7656 Q680.5938,733.125 680.7031,733.2656 Q680.9531,733.5156 681.5625,733.7813 Q682.1719,734.0469 682.9063,734.0469 Q684.0469,734.0469 684.7656,733.5156 Q685.2344,733.1875 685.2344,732.7188 Q685.2344,732.4063 685.0156,732.125 Q684.7969,731.8438 684.2813,731.6719 Q683.9531,731.5469 682.7969,731.3281 Q681.4063,731.0625 680.6875,730.7031 Q679.9688,730.3438 679.5469,729.6875 Q679.1406,729.0156 679.1406,728.2344 Q679.1406,727.0156 680.1563,726.1094 Q681.1875,725.1875 682.8281,725.1875 Q683.4844,725.1875 684.0313,725.3281 Q684.5938,725.4688 685.0625,725.7656 Q685.3906,725.4531 685.7188,725.4531 Q686.0938,725.4531 686.3281,725.7188 Q686.5625,725.9688 686.5625,726.5781 L686.5625,727.8594 Q686.5625,728.4688 686.3281,728.7344 Q686.0938,728.9844 685.7188,728.9844 Q685.4063,728.9844 685.1719,728.7969 Q684.9844,728.6563 684.8906,728.2344 Q684.8125,727.8125 684.6719,727.625 Q684.4219,727.3125 683.9375,727.1094 Q683.4688,726.8906 682.8281,726.8906 Q681.9063,726.8906 681.375,727.3125 Q680.8438,727.7344 680.8438,728.2031 Q680.8438,728.5156 681.0625,728.8125 Q681.2813,729.1094 681.7031,729.2813 Q681.9844,729.3906 683.2813,729.6563 Q684.5938,729.9063 685.2969,730.2188 Q686,730.5156 686.4688,731.1719 Q686.9375,731.8281 686.9375,732.7344 Q686.9375,734 686.0469,734.75 Q684.8594,735.75 683.0313,735.75 Q682.3281,735.75 681.6563,735.5781 Q681,735.4063 680.3594,735.0625 Z " fill="#000000"/><text fill="#000000" font-family="sans-serif" font-size="14" lengthAdjust="spacing" textLength="123" x="702.75" y="736.2285">PositionComponent</text><line style="stroke:#181818;stroke-width:0.5;" x1="619.5" x2="876.5" y1="746.5" y2="746.5"/><ellipse cx="629.5" cy="760.8047" fill="none" rx="3" ry="3" style="stroke:#038048;stroke-width:1.0;"/><text fill="#000000" font-family="sans-serif" font-size="14" lengthAdjust="spacing" textLength="41" x="638.5" y="765.0332">float x;</text><ellipse cx="629.5" cy="778.4141" fill="none" rx="3" ry="3" style="stroke:#038048;stroke-width:1.0;"/><text fill="#000000" font-family="sans-serif" font-size="14" lengthAdjust="spacing" textLength="42" x="638.5" y="782.6426">float y;</text><ellipse cx="629.5" cy="796.0234" fill="none" rx="3" ry="3" style="stroke:#038048;stroke-width:1.0;"/><text fill="#000000" font-family="sans-serif" font-size="14" lengthAdjust="spacing" textLength="41" x="638.5" y="800.252">float z;</text><line style="stroke:#181818;stroke-width:0.5;" x1="619.5" x2="876.5" y1="807.3281" y2="807.3281"/><ellipse cx="629.5" cy="821.6328" fill="#84BE84" rx="3" ry="3" style="stroke:#038048;stroke-width:1.0;"/><text fill="#000000" font-family="sans-serif" font-size="14" lengthAdjust="spacing" textLength="152" x="638.5" y="825.8613">vec3 toGLMVec() const;</text><ellipse cx="629.5" cy="839.2422" fill="#84BE84" rx="3" ry="3" style="stroke:#038048;stroke-width:1.0;"/><text fill="#000000" font-family="sans-serif" font-size="14" lengthAdjust="spacing" textLength="233" x="638.5" y="843.4707">void fromGLVec(const glm::vec3&amp; v);</text></g><!--class Rotation--><g id="elem_Rotation"><rect codeLine="15" fill="#F1F1F1" height="171.2656" id="Rotation" rx="2.5" ry="2.5" style="stroke:#181818;stroke-width:0.5;" width="244" x="913" y="697"/><ellipse cx="1004.25" cy="713" fill="#F1F1F1" rx="11" ry="11" style="stroke:#181818;stroke-width:1.0;"/><path d="M1002.3594,717.5625 Q1002.1406,717.8281 1002,717.9063 Q1001.8594,717.9844 1001.6719,717.9844 Q1001.2813,717.9844 1001.0313,717.7188 Q1000.7969,717.4531 1000.7969,716.8594 L1000.7969,715.7031 Q1000.7969,715.0938 1001.0313,714.8438 Q1001.2813,714.5781 1001.6719,714.5781 Q1001.9688,714.5781 1002.1719,714.7344 Q1002.375,714.8906 1002.4844,715.2656 Q1002.5938,715.625 1002.7031,715.7656 Q1002.9531,716.0156 1003.5625,716.2813 Q1004.1719,716.5469 1004.9063,716.5469 Q1006.0469,716.5469 1006.7656,716.0156 Q1007.2344,715.6875 1007.2344,715.2188 Q1007.2344,714.9063 1007.0156,714.625 Q1006.7969,714.3438 1006.2813,714.1719 Q1005.9531,714.0469 1004.7969,713.8281 Q1003.4063,713.5625 1002.6875,713.2031 Q1001.9688,712.8438 1001.5469,712.1875 Q1001.1406,711.5156 1001.1406,710.7344 Q1001.1406,709.5156 1002.1563,708.6094 Q1003.1875,707.6875 1004.8281,707.6875 Q1005.4844,707.6875 1006.0313,707.8281 Q1006.5938,707.9688 1007.0625,708.2656 Q1007.3906,707.9531 1007.7188,707.9531 Q1008.0938,707.9531 1008.3281,708.2188 Q1008.5625,708.4688 1008.5625,709.0781 L1008.5625,710.3594 Q1008.5625,710.9688 1008.3281,711.2344 Q1008.0938,711.4844 1007.7188,711.4844 Q1007.4063,711.4844 1007.1719,711.2969 Q1006.9844,711.1563 1006.8906,710.7344 Q1006.8125,710.3125 1006.6719,710.125 Q1006.4219,709.8125 1005.9375,709.6094 Q1005.4688,709.3906 1004.8281,709.3906 Q1003.9063,709.3906 1003.375,709.8125 Q1002.8438,710.2344 1002.8438,710.7031 Q1002.8438,711.0156 1003.0625,711.3125 Q1003.2813,711.6094 1003.7031,711.7813 Q1003.9844,711.8906 1005.2813,712.1563 Q1006.5938,712.4063 1007.2969,712.7188 Q1008,713.0156 1008.4688,713.6719 Q1008.9375,714.3281 1008.9375,715.2344 Q1008.9375,716.5 1008.0469,717.25 Q1006.8594,718.25 1005.0313,718.25 Q1004.3281,718.25 1003.6563,718.0781 Q1003,717.9063 1002.3594,717.5625 Z " fill="#000000"/><text fill="#000000" font-family="sans-serif" font-size="14" lengthAdjust="spacing" textLength="53" x="1024.75" y="718.7285">Rotation</text><line style="stroke:#181818;stroke-width:0.5;" x1="914" x2="1156" y1="729" y2="729"/><ellipse cx="924" cy="743.3047" fill="none" rx="3" ry="3" style="stroke:#038048;stroke-width:1.0;"/><text fill="#000000" font-family="sans-serif" font-size="14" lengthAdjust="spacing" textLength="41" x="933" y="747.5332">float x;</text><ellipse cx="924" cy="760.9141" fill="none" rx="3" ry="3" style="stroke:#038048;stroke-width:1.0;"/><text fill="#000000" font-family="sans-serif" font-size="14" lengthAdjust="spacing" textLength="42" x="933" y="765.1426">float y;</text><ellipse cx="924" cy="778.5234" fill="none" rx="3" ry="3" style="stroke:#038048;stroke-width:1.0;"/><text fill="#000000" font-family="sans-serif" font-size="14" lengthAdjust="spacing" textLength="41" x="933" y="782.752">float z;</text><line style="stroke:#181818;stroke-width:0.5;" x1="914" x2="1156" y1="789.8281" y2="789.8281"/><ellipse cx="924" cy="804.1328" fill="#84BE84" rx="3" ry="3" style="stroke:#038048;stroke-width:1.0;"/><text fill="#000000" font-family="sans-serif" font-size="14" lengthAdjust="spacing" textLength="127" x="933" y="808.3613">quat toQuat() const;</text><ellipse cx="924" cy="821.7422" fill="#84BE84" rx="3" ry="3" style="stroke:#038048;stroke-width:1.0;"/><text fill="#000000" font-family="sans-serif" font-size="14" lengthAdjust="spacing" textLength="131" x="933" y="825.9707">vec3 toEuler() const;</text><ellipse cx="924" cy="839.3516" fill="#84BE84" rx="3" ry="3" style="stroke:#038048;stroke-width:1.0;"/><text fill="#000000" font-family="sans-serif" font-size="14" lengthAdjust="spacing" textLength="190" x="933" y="843.5801">void fromQuat(const quat&amp; q);</text><ellipse cx="924" cy="856.9609" fill="#84BE84" rx="3" ry="3" style="stroke:#038048;stroke-width:1.0;"/><text fill="#000000" font-family="sans-serif" font-size="14" lengthAdjust="spacing" textLength="218" x="933" y="861.1895">void fromEuler(const vec3&amp; euler);</text></g><!--class ScaleComponent--><g id="elem_ScaleComponent"><rect codeLine="27" fill="#F1F1F1" height="136.0469" id="ScaleComponent" rx="2.5" ry="2.5" style="stroke:#181818;stroke-width:0.5;" width="240" x="1192" y="714.5"/><ellipse cx="1253.75" cy="730.5" fill="#F1F1F1" rx="11" ry="11" style="stroke:#181818;stroke-width:1.0;"/><path d="M1251.8594,735.0625 Q1251.6406,735.3281 1251.5,735.4063 Q1251.3594,735.4844 1251.1719,735.4844 Q1250.7813,735.4844 1250.5313,735.2188 Q1250.2969,734.9531 1250.2969,734.3594 L1250.2969,733.2031 Q1250.2969,732.5938 1250.5313,732.3438 Q1250.7813,732.0781 1251.1719,732.0781 Q1251.4688,732.0781 1251.6719,732.2344 Q1251.875,732.3906 1251.9844,732.7656 Q1252.0938,733.125 1252.2031,733.2656 Q1252.4531,733.5156 1253.0625,733.7813 Q1253.6719,734.0469 1254.4063,734.0469 Q1255.5469,734.0469 1256.2656,733.5156 Q1256.7344,733.1875 1256.7344,732.7188 Q1256.7344,732.4063 1256.5156,732.125 Q1256.2969,731.8438 1255.7813,731.6719 Q1255.4531,731.5469 1254.2969,731.3281 Q1252.9063,731.0625 1252.1875,730.7031 Q1251.4688,730.3438 1251.0469,729.6875 Q1250.6406,729.0156 1250.6406,728.2344 Q1250.6406,727.0156 1251.6563,726.1094 Q1252.6875,725.1875 1254.3281,725.1875 Q1254.9844,725.1875 1255.5313,725.3281 Q1256.0938,725.4688 1256.5625,725.7656 Q1256.8906,725.4531 1257.2188,725.4531 Q1257.5938,725.4531 1257.8281,725.7188 Q1258.0625,725.9688 1258.0625,726.5781 L1258.0625,727.8594 Q1258.0625,728.4688 1257.8281,728.7344 Q1257.5938,728.9844 1257.2188,728.9844 Q1256.9063,728.9844 1256.6719,728.7969 Q1256.4844,728.6563 1256.3906,728.2344 Q1256.3125,727.8125 1256.1719,727.625 Q1255.9219,727.3125 1255.4375,727.1094 Q1254.9688,726.8906 1254.3281,726.8906 Q1253.4063,726.8906 1252.875,727.3125 Q1252.3438,727.7344 1252.3438,728.2031 Q1252.3438,728.5156 1252.5625,728.8125 Q1252.7813,729.1094 1253.2031,729.2813 Q1253.4844,729.3906 1254.7813,729.6563 Q1256.0938,729.9063 1256.7969,730.2188 Q1257.5,730.5156 1257.9688,731.1719 Q1258.4375,731.8281 1258.4375,732.7344 Q1258.4375,734 1257.5469,734.75 Q1256.3594,735.75 1254.5313,735.75 Q1253.8281,735.75 1253.1563,735.5781 Q1252.5,735.4063 1251.8594,735.0625 Z " fill="#000000"/><text fill="#000000" font-family="sans-serif" font-size="14" lengthAdjust="spacing" textLength="108" x="1274.25" y="736.2285">ScaleComponent</text><line style="stroke:#181818;stroke-width:0.5;" x1="1193" x2="1431" y1="746.5" y2="746.5"/><ellipse cx="1203" cy="760.8047" fill="none" rx="3" ry="3" style="stroke:#038048;stroke-width:1.0;"/><text fill="#000000" font-family="sans-serif" font-size="14" lengthAdjust="spacing" textLength="41" x="1212" y="765.0332">float x;</text><ellipse cx="1203" cy="778.4141" fill="none" rx="3" ry="3" style="stroke:#038048;stroke-width:1.0;"/><text fill="#000000" font-family="sans-serif" font-size="14" lengthAdjust="spacing" textLength="42" x="1212" y="782.6426">float y;</text><ellipse cx="1203" cy="796.0234" fill="none" rx="3" ry="3" style="stroke:#038048;stroke-width:1.0;"/><text fill="#000000" font-family="sans-serif" font-size="14" lengthAdjust="spacing" textLength="41" x="1212" y="800.252">float z;</text><line style="stroke:#181818;stroke-width:0.5;" x1="1193" x2="1431" y1="807.3281" y2="807.3281"/><ellipse cx="1203" cy="821.6328" fill="#84BE84" rx="3" ry="3" style="stroke:#038048;stroke-width:1.0;"/><text fill="#000000" font-family="sans-serif" font-size="14" lengthAdjust="spacing" textLength="152" x="1212" y="825.8613">vec3 toGLMVec() const;</text><ellipse cx="1203" cy="839.2422" fill="#84BE84" rx="3" ry="3" style="stroke:#038048;stroke-width:1.0;"/><text fill="#000000" font-family="sans-serif" font-size="14" lengthAdjust="spacing" textLength="214" x="1212" y="843.4707">void fromGLMVec(const vec3&amp; v);</text></g><!--class CameraComponent--><g id="elem_CameraComponent"><rect codeLine="37" fill="#F1F1F1" height="136.0469" id="CameraComponent" rx="2.5" ry="2.5" style="stroke:#181818;stroke-width:0.5;" width="175" x="645.5" y="1074"/><ellipse cx="669.5" cy="1090" fill="#F1F1F1" rx="11" ry="11" style="stroke:#181818;stroke-width:1.0;"/><path d="M667.6094,1094.5625 Q667.3906,1094.8281 667.25,1094.9063 Q667.1094,1094.9844 666.9219,1094.9844 Q666.5313,1094.9844 666.2813,1094.7188 Q666.0469,1094.4531 666.0469,1093.8594 L666.0469,1092.7031 Q666.0469,1092.0938 666.2813,1091.8438 Q666.5313,1091.5781 666.9219,1091.5781 Q667.2188,1091.5781 667.4219,1091.7344 Q667.625,1091.8906 667.7344,1092.2656 Q667.8438,1092.625 667.9531,1092.7656 Q668.2031,1093.0156 668.8125,1093.2813 Q669.4219,1093.5469 670.1563,1093.5469 Q671.2969,1093.5469 672.0156,1093.0156 Q672.4844,1092.6875 672.4844,1092.2188 Q672.4844,1091.9063 672.2656,1091.625 Q672.0469,1091.3438 671.5313,1091.1719 Q671.2031,1091.0469 670.0469,1090.8281 Q668.6563,1090.5625 667.9375,1090.2031 Q667.2188,1089.8438 666.7969,1089.1875 Q666.3906,1088.5156 666.3906,1087.7344 Q666.3906,1086.5156 667.4063,1085.6094 Q668.4375,1084.6875 670.0781,1084.6875 Q670.7344,1084.6875 671.2813,1084.8281 Q671.8438,1084.9688 672.3125,1085.2656 Q672.6406,1084.9531 672.9688,1084.9531 Q673.3438,1084.9531 673.5781,1085.2188 Q673.8125,1085.4688 673.8125,1086.0781 L673.8125,1087.3594 Q673.8125,1087.9688 673.5781,1088.2344 Q673.3438,1088.4844 672.9688,1088.4844 Q672.6563,1088.4844 672.4219,1088.2969 Q672.2344,1088.1563 672.1406,1087.7344 Q672.0625,1087.3125 671.9219,1087.125 Q671.6719,1086.8125 671.1875,1086.6094 Q670.7188,1086.3906 670.0781,1086.3906 Q669.1563,1086.3906 668.625,1086.8125 Q668.0938,1087.2344 668.0938,1087.7031 Q668.0938,1088.0156 668.3125,1088.3125 Q668.5313,1088.6094 668.9531,1088.7813 Q669.2344,1088.8906 670.5313,1089.1563 Q671.8438,1089.4063 672.5469,1089.7188 Q673.25,1090.0156 673.7188,1090.6719 Q674.1875,1091.3281 674.1875,1092.2344 Q674.1875,1093.5 673.2969,1094.25 Q672.1094,1095.25 670.2813,1095.25 Q669.5781,1095.25 668.9063,1095.0781 Q668.25,1094.9063 667.6094,1094.5625 Z " fill="#000000"/><text fill="#000000" font-family="sans-serif" font-size="14" lengthAdjust="spacing" textLength="123" x="685.5" y="1095.7285">CameraComponent</text><line style="stroke:#181818;stroke-width:0.5;" x1="646.5" x2="819.5" y1="1106" y2="1106"/><ellipse cx="656.5" cy="1120.3047" fill="none" rx="3" ry="3" style="stroke:#038048;stroke-width:1.0;"/><text fill="#000000" font-family="sans-serif" font-size="14" lengthAdjust="spacing" textLength="54" x="665.5" y="1124.5332">float fov;</text><ellipse cx="656.5" cy="1137.9141" fill="none" rx="3" ry="3" style="stroke:#038048;stroke-width:1.0;"/><text fill="#000000" font-family="sans-serif" font-size="14" lengthAdjust="spacing" textLength="77" x="665.5" y="1142.1426">float aspect;</text><ellipse cx="656.5" cy="1155.5234" fill="none" rx="3" ry="3" style="stroke:#038048;stroke-width:1.0;"/><text fill="#000000" font-family="sans-serif" font-size="14" lengthAdjust="spacing" textLength="88" x="665.5" y="1159.752">float nearClip;</text><ellipse cx="656.5" cy="1173.1328" fill="none" rx="3" ry="3" style="stroke:#038048;stroke-width:1.0;"/><text fill="#000000" font-family="sans-serif" font-size="14" lengthAdjust="spacing" textLength="76" x="665.5" y="1177.3613">float farClip;</text><ellipse cx="656.5" cy="1190.7422" fill="none" rx="3" ry="3" style="stroke:#038048;stroke-width:1.0;"/><text fill="#000000" font-family="sans-serif" font-size="14" lengthAdjust="spacing" textLength="149" x="665.5" y="1194.9707">bool isViewportCamera;</text><line style="stroke:#181818;stroke-width:0.5;" x1="646.5" x2="819.5" y1="1202.0469" y2="1202.0469"/></g><!--class MeshComponent--><g id="elem_MeshComponent"><rect codeLine="46" fill="#F1F1F1" height="206.4844" id="MeshComponent" rx="2.5" ry="2.5" style="stroke:#181818;stroke-width:0.5;" width="373" x="855.5" y="1039"/><ellipse cx="984.25" cy="1055" fill="#F1F1F1" rx="11" ry="11" style="stroke:#181818;stroke-width:1.0;"/><path d="M982.3594,1059.5625 Q982.1406,1059.8281 982,1059.9063 Q981.8594,1059.9844 981.6719,1059.9844 Q981.2813,1059.9844 981.0313,1059.7188 Q980.7969,1059.4531 980.7969,1058.8594 L980.7969,1057.7031 Q980.7969,1057.0938 981.0313,1056.8438 Q981.2813,1056.5781 981.6719,1056.5781 Q981.9688,1056.5781 982.1719,1056.7344 Q982.375,1056.8906 982.4844,1057.2656 Q982.5938,1057.625 982.7031,1057.7656 Q982.9531,1058.0156 983.5625,1058.2813 Q984.1719,1058.5469 984.9063,1058.5469 Q986.0469,1058.5469 986.7656,1058.0156 Q987.2344,1057.6875 987.2344,1057.2188 Q987.2344,1056.9063 987.0156,1056.625 Q986.7969,1056.3438 986.2813,1056.1719 Q985.9531,1056.0469 984.7969,1055.8281 Q983.4063,1055.5625 982.6875,1055.2031 Q981.9688,1054.8438 981.5469,1054.1875 Q981.1406,1053.5156 981.1406,1052.7344 Q981.1406,1051.5156 982.1563,1050.6094 Q983.1875,1049.6875 984.8281,1049.6875 Q985.4844,1049.6875 986.0313,1049.8281 Q986.5938,1049.9688 987.0625,1050.2656 Q987.3906,1049.9531 987.7188,1049.9531 Q988.0938,1049.9531 988.3281,1050.2188 Q988.5625,1050.4688 988.5625,1051.0781 L988.5625,1052.3594 Q988.5625,1052.9688 988.3281,1053.2344 Q988.0938,1053.4844 987.7188,1053.4844 Q987.4063,1053.4844 987.1719,1053.2969 Q986.9844,1053.1563 986.8906,1052.7344 Q986.8125,1052.3125 986.6719,1052.125 Q986.4219,1051.8125 985.9375,1051.6094 Q985.4688,1051.3906 984.8281,1051.3906 Q983.9063,1051.3906 983.375,1051.8125 Q982.8438,1052.2344 982.8438,1052.7031 Q982.8438,1053.0156 983.0625,1053.3125 Q983.2813,1053.6094 983.7031,1053.7813 Q983.9844,1053.8906 985.2813,1054.1563 Q986.5938,1054.4063 987.2969,1054.7188 Q988,1055.0156 988.4688,1055.6719 Q988.9375,1056.3281 988.9375,1057.2344 Q988.9375,1058.5 988.0469,1059.25 Q986.8594,1060.25 985.0313,1060.25 Q984.3281,1060.25 983.6563,1060.0781 Q983,1059.9063 982.3594,1059.5625 Z " fill="#000000"/><text fill="#000000" font-family="sans-serif" font-size="14" lengthAdjust="spacing" textLength="107" x="1004.75" y="1060.7285">MeshComponent</text><line style="stroke:#181818;stroke-width:0.5;" x1="856.5" x2="1227.5" y1="1071" y2="1071"/><ellipse cx="866.5" cy="1085.3047" fill="none" rx="3" ry="3" style="stroke:#038048;stroke-width:1.0;"/><text fill="#000000" font-family="sans-serif" font-size="14" lengthAdjust="spacing" textLength="192" x="875.5" y="1089.5332">char meshResourcePath[256];</text><ellipse cx="866.5" cy="1102.9141" fill="none" rx="3" ry="3" style="stroke:#038048;stroke-width:1.0;"/><text fill="#000000" font-family="sans-serif" font-size="14" lengthAdjust="spacing" textLength="167" x="875.5" y="1107.1426">char vertShaderPath[256];</text><ellipse cx="866.5" cy="1120.5234" fill="none" rx="3" ry="3" style="stroke:#038048;stroke-width:1.0;"/><text fill="#000000" font-family="sans-serif" font-size="14" lengthAdjust="spacing" textLength="168" x="875.5" y="1124.752">char fragShaderPath[256];</text><ellipse cx="866.5" cy="1138.1328" fill="none" rx="3" ry="3" style="stroke:#038048;stroke-width:1.0;"/><text fill="#000000" font-family="sans-serif" font-size="14" lengthAdjust="spacing" textLength="140" x="875.5" y="1142.3613">char texturePath[256];</text><text fill="#000000" font-family="sans-serif" font-size="14" lengthAdjust="spacing" textLength="4" x="875.5" y="1159.9707">&#160;</text><ellipse cx="866.5" cy="1173.3516" fill="none" rx="3" ry="3" style="stroke:#038048;stroke-width:1.0;"/><text fill="#000000" font-family="sans-serif" font-size="14" lengthAdjust="spacing" textLength="298" x="875.5" y="1177.5801">optional&lt;shared_ptr&lt;RMesh&gt;&gt; meshResource;</text><ellipse cx="866.5" cy="1190.9609" fill="none" rx="3" ry="3" style="stroke:#038048;stroke-width:1.0;"/><text fill="#000000" font-family="sans-serif" font-size="14" lengthAdjust="spacing" textLength="346" x="875.5" y="1195.1895">optional&lt;shared_ptr&lt;RShader&gt;&gt; vertShaderResource;</text><ellipse cx="866.5" cy="1208.5703" fill="none" rx="3" ry="3" style="stroke:#038048;stroke-width:1.0;"/><text fill="#000000" font-family="sans-serif" font-size="14" lengthAdjust="spacing" textLength="347" x="875.5" y="1212.7988">optional&lt;shared_ptr&lt;RShader&gt; fragSXhaderResource;</text><ellipse cx="866.5" cy="1226.1797" fill="none" rx="3" ry="3" style="stroke:#038048;stroke-width:1.0;"/><text fill="#000000" font-family="sans-serif" font-size="14" lengthAdjust="spacing" textLength="321" x="875.5" y="1230.4082">optional&lt;shared_ptr&lt;RTexture&gt;&gt; textureResource;</text><line style="stroke:#181818;stroke-width:0.5;" x1="856.5" x2="1227.5" y1="1237.4844" y2="1237.4844"/></g><!--class PointLightComponent--><g id="elem_PointLightComponent"><rect codeLine="59" fill="#F1F1F1" height="83.2188" id="PointLightComponent" rx="2.5" ry="2.5" style="stroke:#181818;stroke-width:0.5;" width="168" x="1264" y="1100.5"/><ellipse cx="1279" cy="1116.5" fill="#F1F1F1" rx="11" ry="11" style="stroke:#181818;stroke-width:1.0;"/><path d="M1277.1094,1121.0625 Q1276.8906,1121.3281 1276.75,1121.4063 Q1276.6094,1121.4844 1276.4219,1121.4844 Q1276.0313,1121.4844 1275.7813,1121.2188 Q1275.5469,1120.9531 1275.5469,1120.3594 L1275.5469,1119.2031 Q1275.5469,1118.5938 1275.7813,1118.3438 Q1276.0313,1118.0781 1276.4219,1118.0781 Q1276.7188,1118.0781 1276.9219,1118.2344 Q1277.125,1118.3906 1277.2344,1118.7656 Q1277.3438,1119.125 1277.4531,1119.2656 Q1277.7031,1119.5156 1278.3125,1119.7813 Q1278.9219,1120.0469 1279.6563,1120.0469 Q1280.7969,1120.0469 1281.5156,1119.5156 Q1281.9844,1119.1875 1281.9844,1118.7188 Q1281.9844,1118.4063 1281.7656,1118.125 Q1281.5469,1117.8438 1281.0313,1117.6719 Q1280.7031,1117.5469 1279.5469,1117.3281 Q1278.1563,1117.0625 1277.4375,1116.7031 Q1276.7188,1116.3438 1276.2969,1115.6875 Q1275.8906,1115.0156 1275.8906,1114.2344 Q1275.8906,1113.0156 1276.9063,1112.1094 Q1277.9375,1111.1875 1279.5781,1111.1875 Q1280.2344,1111.1875 1280.7813,1111.3281 Q1281.3438,1111.4688 1281.8125,1111.7656 Q1282.1406,1111.4531 1282.4688,1111.4531 Q1282.8438,1111.4531 1283.0781,1111.7188 Q1283.3125,1111.9688 1283.3125,1112.5781 L1283.3125,1113.8594 Q1283.3125,1114.4688 1283.0781,1114.7344 Q1282.8438,1114.9844 1282.4688,1114.9844 Q1282.1563,1114.9844 1281.9219,1114.7969 Q1281.7344,1114.6563 1281.6406,1114.2344 Q1281.5625,1113.8125 1281.4219,1113.625 Q1281.1719,1113.3125 1280.6875,1113.1094 Q1280.2188,1112.8906 1279.5781,1112.8906 Q1278.6563,1112.8906 1278.125,1113.3125 Q1277.5938,1113.7344 1277.5938,1114.2031 Q1277.5938,1114.5156 1277.8125,1114.8125 Q1278.0313,1115.1094 1278.4531,1115.2813 Q1278.7344,1115.3906 1280.0313,1115.6563 Q1281.3438,1115.9063 1282.0469,1116.2188 Q1282.75,1116.5156 1283.2188,1117.1719 Q1283.6875,1117.8281 1283.6875,1118.7344 Q1283.6875,1120 1282.7969,1120.75 Q1281.6094,1121.75 1279.7813,1121.75 Q1279.0781,1121.75 1278.4063,1121.5781 Q1277.75,1121.4063 1277.1094,1121.0625 Z " fill="#000000"/><text fill="#000000" font-family="sans-serif" font-size="14" lengthAdjust="spacing" textLength="136" x="1293" y="1122.2285">PointLightComponent</text><line style="stroke:#181818;stroke-width:0.5;" x1="1265" x2="1431" y1="1132.5" y2="1132.5"/><ellipse cx="1275" cy="1146.8047" fill="none" rx="3" ry="3" style="stroke:#038048;stroke-width:1.0;"/><text fill="#000000" font-family="sans-serif" font-size="14" lengthAdjust="spacing" textLength="74" x="1284" y="1151.0332">float radius;</text><ellipse cx="1275" cy="1164.4141" fill="none" rx="3" ry="3" style="stroke:#038048;stroke-width:1.0;"/><text fill="#000000" font-family="sans-serif" font-size="14" lengthAdjust="spacing" textLength="87" x="1284" y="1168.6426">float intencity;</text><line style="stroke:#181818;stroke-width:0.5;" x1="1265" x2="1431" y1="1175.7188" y2="1175.7188"/></g><!--class DirectionalLightComponent--><g id="elem_DirectionalLightComponent"><rect codeLine="65" fill="#F1F1F1" height="65.6094" id="DirectionalLightComponent" rx="2.5" ry="2.5" style="stroke:#181818;stroke-width:0.5;" width="203" x="631.5" y="1349"/><ellipse cx="646.5" cy="1365" fill="#F1F1F1" rx="11" ry="11" style="stroke:#181818;stroke-width:1.0;"/><path d="M644.6094,1369.5625 Q644.3906,1369.8281 644.25,1369.9063 Q644.1094,1369.9844 643.9219,1369.9844 Q643.5313,1369.9844 643.2813,1369.7188 Q643.0469,1369.4531 643.0469,1368.8594 L643.0469,1367.7031 Q643.0469,1367.0938 643.2813,1366.8438 Q643.5313,1366.5781 643.9219,1366.5781 Q644.2188,1366.5781 644.4219,1366.7344 Q644.625,1366.8906 644.7344,1367.2656 Q644.8438,1367.625 644.9531,1367.7656 Q645.2031,1368.0156 645.8125,1368.2813 Q646.4219,1368.5469 647.1563,1368.5469 Q648.2969,1368.5469 649.0156,1368.0156 Q649.4844,1367.6875 649.4844,1367.2188 Q649.4844,1366.9063 649.2656,1366.625 Q649.0469,1366.3438 648.5313,1366.1719 Q648.2031,1366.0469 647.0469,1365.8281 Q645.6563,1365.5625 644.9375,1365.2031 Q644.2188,1364.8438 643.7969,1364.1875 Q643.3906,1363.5156 643.3906,1362.7344 Q643.3906,1361.5156 644.4063,1360.6094 Q645.4375,1359.6875 647.0781,1359.6875 Q647.7344,1359.6875 648.2813,1359.8281 Q648.8438,1359.9688 649.3125,1360.2656 Q649.6406,1359.9531 649.9688,1359.9531 Q650.3438,1359.9531 650.5781,1360.2188 Q650.8125,1360.4688 650.8125,1361.0781 L650.8125,1362.3594 Q650.8125,1362.9688 650.5781,1363.2344 Q650.3438,1363.4844 649.9688,1363.4844 Q649.6563,1363.4844 649.4219,1363.2969 Q649.2344,1363.1563 649.1406,1362.7344 Q649.0625,1362.3125 648.9219,1362.125 Q648.6719,1361.8125 648.1875,1361.6094 Q647.7188,1361.3906 647.0781,1361.3906 Q646.1563,1361.3906 645.625,1361.8125 Q645.0938,1362.2344 645.0938,1362.7031 Q645.0938,1363.0156 645.3125,1363.3125 Q645.5313,1363.6094 645.9531,1363.7813 Q646.2344,1363.8906 647.5313,1364.1563 Q648.8438,1364.4063 649.5469,1364.7188 Q650.25,1365.0156 650.7188,1365.6719 Q651.1875,1366.3281 651.1875,1367.2344 Q651.1875,1368.5 650.2969,1369.25 Q649.1094,1370.25 647.2813,1370.25 Q646.5781,1370.25 645.9063,1370.0781 Q645.25,1369.9063 644.6094,1369.5625 Z " fill="#000000"/><text fill="#000000" font-family="sans-serif" font-size="14" lengthAdjust="spacing" textLength="171" x="660.5" y="1370.7285">DirectionalLightComponent</text><line style="stroke:#181818;stroke-width:0.5;" x1="632.5" x2="833.5" y1="1381" y2="1381"/><ellipse cx="642.5" cy="1395.3047" fill="none" rx="3" ry="3" style="stroke:#038048;stroke-width:1.0;"/><text fill="#000000" font-family="sans-serif" font-size="14" lengthAdjust="spacing" textLength="87" x="651.5" y="1399.5332">float intencity;</text><line style="stroke:#181818;stroke-width:0.5;" x1="632.5" x2="833.5" y1="1406.6094" y2="1406.6094"/></g><!--class Script--><g id="elem_Script"><rect codeLine="70" fill="#F1F1F1" height="153.6563" id="Script" rx="2.5" ry="2.5" style="stroke:#181818;stroke-width:0.5;" width="193" x="869.5" y="1305"/><ellipse cx="943.75" cy="1321" fill="#F1F1F1" rx="11" ry="11" style="stroke:#181818;stroke-width:1.0;"/><path d="M941.8594,1325.5625 Q941.6406,1325.8281 941.5,1325.9063 Q941.3594,1325.9844 941.1719,1325.9844 Q940.7813,1325.9844 940.5313,1325.7188 Q940.2969,1325.4531 940.2969,1324.8594 L940.2969,1323.7031 Q940.2969,1323.0938 940.5313,1322.8438 Q940.7813,1322.5781 941.1719,1322.5781 Q941.4688,1322.5781 941.6719,1322.7344 Q941.875,1322.8906 941.9844,1323.2656 Q942.0938,1323.625 942.2031,1323.7656 Q942.4531,1324.0156 943.0625,1324.2813 Q943.6719,1324.5469 944.4063,1324.5469 Q945.5469,1324.5469 946.2656,1324.0156 Q946.7344,1323.6875 946.7344,1323.2188 Q946.7344,1322.9063 946.5156,1322.625 Q946.2969,1322.3438 945.7813,1322.1719 Q945.4531,1322.0469 944.2969,1321.8281 Q942.9063,1321.5625 942.1875,1321.2031 Q941.4688,1320.8438 941.0469,1320.1875 Q940.6406,1319.5156 940.6406,1318.7344 Q940.6406,1317.5156 941.6563,1316.6094 Q942.6875,1315.6875 944.3281,1315.6875 Q944.9844,1315.6875 945.5313,1315.8281 Q946.0938,1315.9688 946.5625,1316.2656 Q946.8906,1315.9531 947.2188,1315.9531 Q947.5938,1315.9531 947.8281,1316.2188 Q948.0625,1316.4688 948.0625,1317.0781 L948.0625,1318.3594 Q948.0625,1318.9688 947.8281,1319.2344 Q947.5938,1319.4844 947.2188,1319.4844 Q946.9063,1319.4844 946.6719,1319.2969 Q946.4844,1319.1563 946.3906,1318.7344 Q946.3125,1318.3125 946.1719,1318.125 Q945.9219,1317.8125 945.4375,1317.6094 Q944.9688,1317.3906 944.3281,1317.3906 Q943.4063,1317.3906 942.875,1317.8125 Q942.3438,1318.2344 942.3438,1318.7031 Q942.3438,1319.0156 942.5625,1319.3125 Q942.7813,1319.6094 943.2031,1319.7813 Q943.4844,1319.8906 944.7813,1320.1563 Q946.0938,1320.4063 946.7969,1320.7188 Q947.5,1321.0156 947.9688,1321.6719 Q948.4375,1322.3281 948.4375,1323.2344 Q948.4375,1324.5 947.5469,1325.25 Q946.3594,1326.25 944.5313,1326.25 Q943.8281,1326.25 943.1563,1326.0781 Q942.5,1325.9063 941.8594,1325.5625 Z " fill="#000000"/><text fill="#000000" font-family="sans-serif" font-size="14" lengthAdjust="spacing" textLength="36" x="964.25" y="1326.7285">Script</text><line style="stroke:#181818;stroke-width:0.5;" x1="870.5" x2="1061.5" y1="1337" y2="1337"/><text fill="#000000" font-family="sans-serif" font-size="14" lengthAdjust="spacing" textLength="103" x="875.5" y="1355.5332">string striptPath;</text><text fill="#000000" font-family="sans-serif" font-size="14" lengthAdjust="spacing" textLength="175" x="875.5" y="1373.1426">optional&lt;table&gt; scriptTable;</text><line style="stroke:#181818;stroke-width:0.5;" x1="870.5" x2="1061.5" y1="1380.2188" y2="1380.2188"/><text fill="#000000" font-family="sans-serif" font-size="14" lengthAdjust="spacing" textLength="93" x="875.5" y="1398.752">void initialize();</text><text fill="#000000" font-family="sans-serif" font-size="14" lengthAdjust="spacing" textLength="72" x="875.5" y="1416.3613">void start();</text><text fill="#000000" font-family="sans-serif" font-size="14" lengthAdjust="spacing" textLength="181" x="875.5" y="1433.9707">void update(float deltaTime);</text><text fill="#000000" font-family="sans-serif" font-size="14" lengthAdjust="spacing" textLength="68" x="875.5" y="1451.5801">void end();</text></g><!--class IECSSystem--><g id="elem_IECSSystem"><rect codeLine="84" fill="#F1F1F1" height="100.8281" id="IECSSystem" rx="2.5" ry="2.5" style="stroke:#181818;stroke-width:0.5;" width="346" x="147" y="1091.5"/><ellipse cx="276.75" cy="1107.5" fill="#A9DCDF" rx="11" ry="11" style="stroke:#181818;stroke-width:1.0;"/><path d="M278.9375,1109.2656 L274.7969,1109.2656 L274.375,1110.2969 L274.7969,1110.2969 Q275.4063,1110.2969 275.6719,1110.5313 Q275.9375,1110.7656 275.9375,1111.1563 Q275.9375,1111.5313 275.6719,1111.7656 Q275.4063,1112 274.7969,1112 L272.5,1112 Q271.8906,1112 271.6406,1111.7656 Q271.375,1111.5313 271.375,1111.1406 Q271.375,1110.7656 271.6563,1110.5313 Q271.9219,1110.2813 272.5469,1110.2969 L275.2188,1103.6406 L274.1094,1103.6406 Q273.5,1103.6406 273.2344,1103.4063 Q272.9688,1103.1719 272.9688,1102.7813 Q272.9688,1102.4063 273.2344,1102.1719 Q273.5,1101.9375 274.1094,1101.9375 L277.7813,1101.9375 L281.1719,1110.2969 Q281.7656,1110.2969 281.9531,1110.4375 Q282.3438,1110.7031 282.3438,1111.1563 Q282.3438,1111.5313 282.0781,1111.7656 Q281.8281,1112 281.2188,1112 L278.9219,1112 Q278.3125,1112 278.0469,1111.7656 Q277.7813,1111.5313 277.7813,1111.1406 Q277.7813,1110.7656 278.0469,1110.5313 Q278.3125,1110.2969 278.9219,1110.2969 L279.3438,1110.2969 L278.9375,1109.2656 Z M278.2188,1107.5625 L276.8594,1104.1875 L275.4844,1107.5625 L278.2188,1107.5625 Z " fill="#000000"/><text fill="#000000" font-family="sans-serif" font-size="14" font-style="italic" lengthAdjust="spacing" textLength="78" x="297.25" y="1113.2285">IECSSystem</text><line style="stroke:#181818;stroke-width:0.5;" x1="148" x2="492" y1="1123.5" y2="1123.5"/><line style="stroke:#181818;stroke-width:0.5;" x1="148" x2="492" y1="1131.5" y2="1131.5"/><ellipse cx="158" cy="1145.8047" fill="#84BE84" rx="3" ry="3" style="stroke:#038048;stroke-width:1.0;"/><text fill="#000000" font-family="sans-serif" font-size="14" lengthAdjust="spacing" textLength="320" x="167" y="1150.0332">virtual void registerSystem(flecs::world&amp; world) = 0;</text><ellipse cx="158" cy="1163.4141" fill="#84BE84" rx="3" ry="3" style="stroke:#038048;stroke-width:1.0;"/><text fill="#000000" font-family="sans-serif" font-size="14" lengthAdjust="spacing" textLength="300" x="167" y="1167.6426">virtual void startSystem(flecs::world&amp; world) = 0;</text><ellipse cx="158" cy="1181.0234" fill="#84BE84" rx="3" ry="3" style="stroke:#038048;stroke-width:1.0;"/><text fill="#000000" font-family="sans-serif" font-size="14" lengthAdjust="spacing" textLength="299" x="167" y="1185.252">virtual void stopSystem(flecs::world&amp; world) = 0;</text></g><!--class ECSLuaScriptSystem--><g id="elem_ECSLuaScriptSystem"><rect codeLine="91" fill="#F1F1F1" height="48" id="ECSLuaScriptSystem" rx="2.5" ry="2.5" style="stroke:#181818;stroke-width:0.5;" width="166" x="118" y="1358"/><ellipse cx="133" cy="1374" fill="#ADD1B2" rx="11" ry="11" style="stroke:#181818;stroke-width:1.0;"/><path d="M135.7656,1369.875 Q135.9219,1369.6563 136.1094,1369.5469 Q136.2969,1369.4375 136.5156,1369.4375 Q136.8906,1369.4375 137.125,1369.7031 Q137.3594,1369.9531 137.3594,1370.5625 L137.3594,1372.0156 Q137.3594,1372.625 137.125,1372.8906 Q136.8906,1373.1563 136.5156,1373.1563 Q136.1719,1373.1563 135.9688,1372.9531 Q135.7656,1372.7656 135.6563,1372.25 Q135.6094,1371.8906 135.4219,1371.7031 Q135.0938,1371.3281 134.4844,1371.1094 Q133.875,1370.8906 133.25,1370.8906 Q132.4844,1370.8906 131.8438,1371.2188 Q131.2188,1371.5469 130.7188,1372.2969 Q130.2344,1373.0469 130.2344,1374.0781 L130.2344,1375.1719 Q130.2344,1376.4063 131.125,1377.2344 Q132.0156,1378.0469 133.6094,1378.0469 Q134.5469,1378.0469 135.2031,1377.7969 Q135.5938,1377.6406 136.0156,1377.2031 Q136.2813,1376.9375 136.4219,1376.8594 Q136.5781,1376.7813 136.7813,1376.7813 Q137.1094,1376.7813 137.3594,1377.0469 Q137.625,1377.2969 137.625,1377.6406 Q137.625,1377.9844 137.2813,1378.3906 Q136.7813,1378.9688 135.9844,1379.2969 Q134.9063,1379.75 133.6094,1379.75 Q132.0938,1379.75 130.8906,1379.125 Q129.9063,1378.625 129.2188,1377.5625 Q128.5313,1376.4844 128.5313,1375.2031 L128.5313,1374.0469 Q128.5313,1372.7188 129.1406,1371.5781 Q129.7656,1370.4219 130.8594,1369.8125 Q131.9531,1369.1875 133.1875,1369.1875 Q133.9219,1369.1875 134.5625,1369.3594 Q135.2188,1369.5156 135.7656,1369.875 Z " fill="#000000"/><text fill="#000000" font-family="sans-serif" font-size="14" lengthAdjust="spacing" textLength="134" x="147" y="1379.7285">ECSLuaScriptSystem</text><line style="stroke:#181818;stroke-width:0.5;" x1="119" x2="283" y1="1390" y2="1390"/><line style="stroke:#181818;stroke-width:0.5;" x1="119" x2="283" y1="1398" y2="1398"/></g><!--class PhysicsSimulationSystem--><g id="elem_PhysicsSimulationSystem"><rect codeLine="93" fill="#F1F1F1" height="48" id="PhysicsSimulationSystem" rx="2.5" ry="2.5" style="stroke:#181818;stroke-width:0.5;" width="191" x="319.5" y="1358"/><ellipse cx="334.5" cy="1374" fill="#ADD1B2" rx="11" ry="11" style="stroke:#181818;stroke-width:1.0;"/><path d="M337.2656,1369.875 Q337.4219,1369.6563 337.6094,1369.5469 Q337.7969,1369.4375 338.0156,1369.4375 Q338.3906,1369.4375 338.625,1369.7031 Q338.8594,1369.9531 338.8594,1370.5625 L338.8594,1372.0156 Q338.8594,1372.625 338.625,1372.8906 Q338.3906,1373.1563 338.0156,1373.1563 Q337.6719,1373.1563 337.4688,1372.9531 Q337.2656,1372.7656 337.1563,1372.25 Q337.1094,1371.8906 336.9219,1371.7031 Q336.5938,1371.3281 335.9844,1371.1094 Q335.375,1370.8906 334.75,1370.8906 Q333.9844,1370.8906 333.3438,1371.2188 Q332.7188,1371.5469 332.2188,1372.2969 Q331.7344,1373.0469 331.7344,1374.0781 L331.7344,1375.1719 Q331.7344,1376.4063 332.625,1377.2344 Q333.5156,1378.0469 335.1094,1378.0469 Q336.0469,1378.0469 336.7031,1377.7969 Q337.0938,1377.6406 337.5156,1377.2031 Q337.7813,1376.9375 337.9219,1376.8594 Q338.0781,1376.7813 338.2813,1376.7813 Q338.6094,1376.7813 338.8594,1377.0469 Q339.125,1377.2969 339.125,1377.6406 Q339.125,1377.9844 338.7813,1378.3906 Q338.2813,1378.9688 337.4844,1379.2969 Q336.4063,1379.75 335.1094,1379.75 Q333.5938,1379.75 332.3906,1379.125 Q331.4063,1378.625 330.7188,1377.5625 Q330.0313,1376.4844 330.0313,1375.2031 L330.0313,1374.0469 Q330.0313,1372.7188 330.6406,1371.5781 Q331.2656,1370.4219 332.3594,1369.8125 Q333.4531,1369.1875 334.6875,1369.1875 Q335.4219,1369.1875 336.0625,1369.3594 Q336.7188,1369.5156 337.2656,1369.875 Z " fill="#000000"/><text fill="#000000" font-family="sans-serif" font-size="14" lengthAdjust="spacing" textLength="159" x="348.5" y="1379.7285">PhysicsSimulationSystem</text><line style="stroke:#181818;stroke-width:0.5;" x1="320.5" x2="509.5" y1="1390" y2="1390"/><line style="stroke:#181818;stroke-width:0.5;" x1="320.5" x2="509.5" y1="1398" y2="1398"/></g><!--class LuaScriptModule--><g id="elem_LuaScriptModule"><rect codeLine="3" fill="#F1F1F1" height="375.6719" id="LuaScriptModule" rx="2.5" ry="2.5" style="stroke:#181818;stroke-width:0.5;" width="429" x="384.5" y="102"/><ellipse cx="541.75" cy="123.3516" fill="#ADD1B2" rx="11" ry="11" style="stroke:#181818;stroke-width:1.0;"/><path d="M544.5156,119.2266 Q544.6719,119.0078 544.8594,118.8984 Q545.0469,118.7891 545.2656,118.7891 Q545.6406,118.7891 545.875,119.0547 Q546.1094,119.3047 546.1094,119.9141 L546.1094,121.3672 Q546.1094,121.9766 545.875,122.2422 Q545.6406,122.5078 545.2656,122.5078 Q544.9219,122.5078 544.7188,122.3047 Q544.5156,122.1172 544.4063,121.6016 Q544.3594,121.2422 544.1719,121.0547 Q543.8438,120.6797 543.2344,120.4609 Q542.625,120.2422 542,120.2422 Q541.2344,120.2422 540.5938,120.5703 Q539.9688,120.8984 539.4688,121.6484 Q538.9844,122.3984 538.9844,123.4297 L538.9844,124.5234 Q538.9844,125.7578 539.875,126.5859 Q540.7656,127.3984 542.3594,127.3984 Q543.2969,127.3984 543.9531,127.1484 Q544.3438,126.9922 544.7656,126.5547 Q545.0313,126.2891 545.1719,126.2109 Q545.3281,126.1328 545.5313,126.1328 Q545.8594,126.1328 546.1094,126.3984 Q546.375,126.6484 546.375,126.9922 Q546.375,127.3359 546.0313,127.7422 Q545.5313,128.3203 544.7344,128.6484 Q543.6563,129.1016 542.3594,129.1016 Q540.8438,129.1016 539.6406,128.4766 Q538.6563,127.9766 537.9688,126.9141 Q537.2813,125.8359 537.2813,124.5547 L537.2813,123.3984 Q537.2813,122.0703 537.8906,120.9297 Q538.5156,119.7734 539.6094,119.1641 Q540.7031,118.5391 541.9375,118.5391 Q542.6719,118.5391 543.3125,118.7109 Q543.9688,118.8672 544.5156,119.2266 Z " fill="#000000"/><text fill="#000000" font-family="sans-serif" font-size="12" font-style="italic" lengthAdjust="spacing" textLength="71" x="579.75" y="119.457">&#171;singletone&#187;</text><text fill="#000000" font-family="sans-serif" font-size="14" lengthAdjust="spacing" textLength="106" x="562.25" y="136.627">LuaScriptModule</text><line style="stroke:#181818;stroke-width:0.5;" x1="385.5" x2="812.5" y1="144.7031" y2="144.7031"/><rect fill="none" height="6" style="stroke:#C82930;stroke-width:1.0;" width="6" x="392.5" y="156.0078"/><text fill="#000000" font-family="sans-serif" font-size="14" lengthAdjust="spacing" textLength="136" x="404.5" y="163.2363">sol::state m_luaState;</text><line style="stroke:#181818;stroke-width:0.5;" x1="385.5" x2="812.5" y1="170.3125" y2="170.3125"/><rect fill="#F24D5C" height="6" style="stroke:#C82930;stroke-width:1.0;" width="6" x="392.5" y="181.6172"/><text fill="#000000" font-family="sans-serif" font-size="14" lengthAdjust="spacing" textLength="179" x="404.5" y="188.8457">LuaScriptModule() = default;</text><rect fill="#F24D5C" height="6" style="stroke:#C82930;stroke-width:1.0;" width="6" x="392.5" y="199.2266"/><text fill="#000000" font-family="sans-serif" font-size="14" lengthAdjust="spacing" textLength="403" x="404.5" y="206.4551">LuaScriptModule&amp; operator=(const LuaScriptModule&amp;) = delete;</text><rect fill="#F24D5C" height="6" style="stroke:#C82930;stroke-width:1.0;" width="6" x="392.5" y="216.8359"/><text fill="#000000" font-family="sans-serif" font-size="14" lengthAdjust="spacing" textLength="328" x="404.5" y="224.0645">LuaScriptModule(const LuaScriptModule&amp;) = delete;</text><ellipse cx="395.5" cy="237.4453" fill="#84BE84" rx="3" ry="3" style="stroke:#038048;stroke-width:1.0;"/><text fill="#000000" font-family="sans-serif" font-size="14" lengthAdjust="spacing" textLength="243" x="404.5" y="241.6738">static LuaScriptModule&amp; getInstance();</text><text fill="#000000" font-family="sans-serif" font-size="14" lengthAdjust="spacing" textLength="4" x="404.5" y="259.2832">&#160;</text><ellipse cx="395.5" cy="272.6641" fill="#84BE84" rx="3" ry="3" style="stroke:#038048;stroke-width:1.0;"/><text fill="#000000" font-family="sans-serif" font-size="14" lengthAdjust="spacing" textLength="88" x="404.5" y="276.8926">void startup();</text><ellipse cx="395.5" cy="290.2734" fill="#84BE84" rx="3" ry="3" style="stroke:#038048;stroke-width:1.0;"/><text fill="#000000" font-family="sans-serif" font-size="14" lengthAdjust="spacing" textLength="104" x="404.5" y="294.502">void shutdown();</text><text fill="#000000" font-family="sans-serif" font-size="14" lengthAdjust="spacing" textLength="4" x="404.5" y="312.1113">&#160;</text><ellipse cx="395.5" cy="325.4922" fill="#84BE84" rx="3" ry="3" style="stroke:#038048;stroke-width:1.0;"/><text fill="#000000" font-family="sans-serif" font-size="14" lengthAdjust="spacing" textLength="305" x="404.5" y="329.7207">void processCommand(const string&amp; command);</text><ellipse cx="395.5" cy="343.1016" fill="#84BE84" rx="3" ry="3" style="stroke:#038048;stroke-width:1.0;"/><text fill="#000000" font-family="sans-serif" font-size="14" lengthAdjust="spacing" textLength="153" x="404.5" y="347.3301">solstate&amp; getLuaState();</text><text fill="#000000" font-family="sans-serif" font-size="14" lengthAdjust="spacing" textLength="4" x="404.5" y="364.9395">&#160;</text><rect fill="#F24D5C" height="6" style="stroke:#C82930;stroke-width:1.0;" width="6" x="392.5" y="375.3203"/><text fill="#000000" font-family="sans-serif" font-size="14" lengthAdjust="spacing" textLength="179" x="404.5" y="382.5488">void registerLoggerModule()</text><rect fill="#F24D5C" height="6" style="stroke:#C82930;stroke-width:1.0;" width="6" x="392.5" y="392.9297"/><text fill="#000000" font-family="sans-serif" font-size="14" lengthAdjust="spacing" textLength="174" x="404.5" y="400.1582">void registerEventModule();</text><rect fill="#F24D5C" height="6" style="stroke:#C82930;stroke-width:1.0;" width="6" x="392.5" y="410.5391"/><text fill="#000000" font-family="sans-serif" font-size="14" lengthAdjust="spacing" textLength="169" x="404.5" y="417.7676">void registerInputModule();</text><rect fill="#F24D5C" height="6" style="stroke:#C82930;stroke-width:1.0;" width="6" x="392.5" y="428.1484"/><text fill="#000000" font-family="sans-serif" font-size="14" lengthAdjust="spacing" textLength="162" x="404.5" y="435.377">void registerMathTypes();</text><rect fill="#F24D5C" height="6" style="stroke:#C82930;stroke-width:1.0;" width="6" x="392.5" y="445.7578"/><text fill="#000000" font-family="sans-serif" font-size="14" lengthAdjust="spacing" textLength="166" x="404.5" y="452.9863">void registerECSModule();</text><rect fill="#F24D5C" height="6" style="stroke:#C82930;stroke-width:1.0;" width="6" x="392.5" y="463.3672"/><text fill="#000000" font-family="sans-serif" font-size="14" lengthAdjust="spacing" textLength="207" x="404.5" y="470.5957">void registerResourceModule(0;)</text></g><!--class PhysicsModule--><g id="elem_PhysicsModule"><rect codeLine="3" fill="#F1F1F1" height="76.3125" id="PhysicsModule" rx="2.5" ry="2.5" style="stroke:#181818;stroke-width:0.5;" width="196" x="81" y="252"/><ellipse cx="127.75" cy="273.3516" fill="#ADD1B2" rx="11" ry="11" style="stroke:#181818;stroke-width:1.0;"/><path d="M130.5156,269.2266 Q130.6719,269.0078 130.8594,268.8984 Q131.0469,268.7891 131.2656,268.7891 Q131.6406,268.7891 131.875,269.0547 Q132.1094,269.3047 132.1094,269.9141 L132.1094,271.3672 Q132.1094,271.9766 131.875,272.2422 Q131.6406,272.5078 131.2656,272.5078 Q130.9219,272.5078 130.7188,272.3047 Q130.5156,272.1172 130.4063,271.6016 Q130.3594,271.2422 130.1719,271.0547 Q129.8438,270.6797 129.2344,270.4609 Q128.625,270.2422 128,270.2422 Q127.2344,270.2422 126.5938,270.5703 Q125.9688,270.8984 125.4688,271.6484 Q124.9844,272.3984 124.9844,273.4297 L124.9844,274.5234 Q124.9844,275.7578 125.875,276.5859 Q126.7656,277.3984 128.3594,277.3984 Q129.2969,277.3984 129.9531,277.1484 Q130.3438,276.9922 130.7656,276.5547 Q131.0313,276.2891 131.1719,276.2109 Q131.3281,276.1328 131.5313,276.1328 Q131.8594,276.1328 132.1094,276.3984 Q132.375,276.6484 132.375,276.9922 Q132.375,277.3359 132.0313,277.7422 Q131.5313,278.3203 130.7344,278.6484 Q129.6563,279.1016 128.3594,279.1016 Q126.8438,279.1016 125.6406,278.4766 Q124.6563,277.9766 123.9688,276.9141 Q123.2813,275.8359 123.2813,274.5547 L123.2813,273.3984 Q123.2813,272.0703 123.8906,270.9297 Q124.5156,269.7734 125.6094,269.1641 Q126.7031,268.5391 127.9375,268.5391 Q128.6719,268.5391 129.3125,268.7109 Q129.9688,268.8672 130.5156,269.2266 Z " fill="#000000"/><text fill="#000000" font-family="sans-serif" font-size="12" font-style="italic" lengthAdjust="spacing" textLength="71" x="159.75" y="269.457">&#171;singletone&#187;</text><text fill="#000000" font-family="sans-serif" font-size="14" lengthAdjust="spacing" textLength="94" x="148.25" y="286.627">PhysicsModule</text><line style="stroke:#181818;stroke-width:0.5;" x1="82" x2="276" y1="294.7031" y2="294.7031"/><rect fill="none" height="6" style="stroke:#C82930;stroke-width:1.0;" width="6" x="89" y="306.0078"/><text fill="#000000" font-family="sans-serif" font-size="14" lengthAdjust="spacing" textLength="170" x="101" y="313.2363">BulletBT* m_PhysicsWorld;</text><line style="stroke:#181818;stroke-width:0.5;" x1="82" x2="276" y1="320.3125" y2="320.3125"/></g><!--reverse link IECSSystem to ECSLuaScriptSystem--><g id="link_IECSSystem_ECSLuaScriptSystem"><path d="M287.1502,1208.6997 C261.8102,1259.3797 231.61,1319.77 212.59,1357.81 " fill="none" id="IECSSystem-backto-ECSLuaScriptSystem" style="stroke:#181818;stroke-width:1.0;stroke-dasharray:7.0,7.0;"/><polygon fill="none" points="295.2,1192.6,281.7836,1206.0164,292.5167,1211.383,295.2,1192.6" style="stroke:#181818;stroke-width:1.0;"/></g><!--reverse link IECSSystem to PhysicsSimulationSystem--><g id="link_IECSSystem_PhysicsSimulationSystem"><path d="M346.4731,1209.3174 C366.7031,1259.9974 390.56,1319.77 405.74,1357.81 " fill="none" id="IECSSystem-backto-PhysicsSimulationSystem" style="stroke:#181818;stroke-width:1.0;stroke-dasharray:7.0,7.0;"/><polygon fill="none" points="339.8,1192.6,340.9006,1211.5417,352.0455,1207.093,339.8,1192.6" style="stroke:#181818;stroke-width:1.0;"/></g><!--reverse link ECSModule to ECSComponents--><g id="link_ECSModule_ECSComponents"><path codeLine="118" d="M472.1,782.5 C491.505,782.5 504.9125,782.5 524.32,782.5 C534.0238,782.5 543.7275,782.5 553.4309,782.5 C558.2827,782.5 563.1343,782.5 567.9858,782.5 C569.1987,782.5 570.4116,782.5 571.6244,782.5 C572.2309,782.5 572.8373,782.5 573.4437,782.5 C573.7469,782.5 574.0502,782.5 574.3534,782.5 C574.505,782.5 574.6566,782.5 574.8082,782.5 " fill="none" id="ECSModule-backto-ECSComponents" style="stroke:#181818;stroke-width:1.0;stroke-dasharray:7.0,7.0;"/><polygon fill="#181818" points="466.1,782.5,475.1,786.5,471.1,782.5,475.1,778.5,466.1,782.5" style="stroke:#181818;stroke-width:1.0;"/></g><!--reverse link ECSModule to ECSSystems--><g id="link_ECSModule_ECSSystems"><path codeLine="119" d="M157.9394,979.0955 C134.7994,1004.1655 116.69,1000.71 102,1031.5 C100.7069,1034.2094 99.5426,1036.9998 98.4962,1039.8512 C97.9729,1041.2768 97.4792,1042.7177 97.0135,1044.1713 C96.7807,1044.8981 96.5549,1045.628 96.336,1046.3608 C96.2265,1046.7272 96.1187,1047.0943 96.0127,1047.4621 " fill="none" id="ECSModule-backto-ECSSystems" style="stroke:#181818;stroke-width:1.0;stroke-dasharray:7.0,7.0;"/><polygon fill="#181818" points="161.98,974.66,152.9621,978.6196,158.6129,978.3563,158.8762,984.007,161.98,974.66" style="stroke:#181818;stroke-width:1.0;"/></g><!--link ECSComponents to ECSSystems--><g id="link_ECSComponents_ECSSystems"><path codeLine="120" d="M574.4904,983.4055 C574.1705,983.6857 573.8468,983.9633 573.5194,984.2382 C572.8644,984.788 572.1944,985.3272 571.5096,985.856 C568.7704,987.9713 565.7939,989.9202 562.5959,991.7138 C556.1999,995.3009 548.918,998.2667 540.8762,1000.6993 C524.7926,1005.5646 505.6692,1008.2973 484.5141,1009.6033 C442.2038,1012.2153 391.7663,1009.1206 341.265,1005.9663 C240.2625,999.6575 139.005,993.11 102,1031.5 C85.33,1048.79 83.1325,1075.5875 85.1987,1098.345 C85.3279,1099.7673 85.4737,1101.1739 85.6336,1102.5614 C85.7136,1103.2551 85.7971,1103.9441 85.8839,1104.6279 C85.9056,1104.7988 85.1558,1099.0193 85.1778,1099.1896 " fill="none" id="ECSComponents-to-ECSSystems" style="stroke:#181818;stroke-width:1.0;stroke-dasharray:7.0,7.0;"/><polygon fill="#181818" points="85.9496,1105.1397,88.7588,1095.7,85.3065,1100.1812,80.8252,1096.7289,85.9496,1105.1397" style="stroke:#181818;stroke-width:1.0;"/></g><!--link LuaScriptModule to ECSModule--><g id="link_LuaScriptModule_ECSModule"><path codeLine="9" d="M340.6884,440.1352 C340.4639,440.9036 340.2356,441.6709 340.0033,442.4369 C339.5386,443.969 339.058,445.4962 338.561,447.0175 C337.5669,450.0601 336.5072,453.0793 335.378,456.0675 C326.3444,479.9731 312.865,501.8975 293,518 C272.36,534.73 72.77,507.19 54,526 C14.505,565.585 11.95,628.0975 19.54,681.3788 C23.335,708.0194 29.6663,732.3522 35.1844,750.3573 C35.8741,752.608 36.5512,754.7598 37.209,756.8048 C37.3735,757.3161 37.5367,757.8207 37.6987,758.3185 C37.7796,758.5674 35.9948,753.112 36.0751,753.3574 " fill="none" id="LuaScriptModule-to-ECSModule" style="stroke:#181818;stroke-width:1.0;stroke-dasharray:7.0,7.0;"/><polygon fill="#181818" points="37.9406,759.0601,38.9441,749.2625,36.386,754.3079,31.3406,751.7498,37.9406,759.0601" style="stroke:#181818;stroke-width:1.0;"/></g><!--link PhysicsModule to ECSModule--><g id="link_PhysicsModule_ECSModule"><path codeLine="10" d="M46,353.3796 C46,358.6114 46,364.1002 46,369.8175 C46,415.5556 46,475.915 46,536.2725 C46,538.1587 46,534.0448 46,535.9306 " fill="none" id="PhysicsModule-to-ECSModule" style="stroke:#181818;stroke-width:1.0;stroke-dasharray:7.0,7.0;"/><polygon fill="#181818" points="46,541.9306,50,532.9306,46,536.9306,42,532.9306,46,541.9306" style="stroke:#181818;stroke-width:1.0;"/></g><!--SRC=[AqXCpavCJrLmJynDzSbFpqmEBaqghYmkIStbgkPI00B5pBpadDAKL0LNvs3V_9JId5IzWjBS75GvdzB4uEIYp88Id2e2CYgBCvEBaUN12k2cAjZebHReePk4LGsAMLor0000]--></g></svg>