<?xml version="1.0" encoding="us-ascii" standalone="no"?><svg xmlns="http://www.w3.org/2000/svg" xmlns:xlink="http://www.w3.org/1999/xlink" contentStyleType="text/css" height="831px" preserveAspectRatio="none" style="width:353px;height:831px;background:#FFFFFF;" version="1.1" viewBox="0 0 353 831" width="353px" zoomAndPan="magnify"><defs/><g><!--cluster ProjectModule--><g id="cluster_ProjectModule"><path d="M8.5,6 L112.5,6 A3.75,3.75 0 0 1 115,8.5 L122,29.6094 L343.5,29.6094 A2.5,2.5 0 0 1 346,32.1094 L346,821.5 A2.5,2.5 0 0 1 343.5,824 L8.5,824 A2.5,2.5 0 0 1 6,821.5 L6,8.5 A2.5,2.5 0 0 1 8.5,6 " fill="none" style="stroke:#000000;stroke-width:1.5;"/><line style="stroke:#000000;stroke-width:1.5;" x1="6" x2="122" y1="29.6094" y2="29.6094"/><text fill="#000000" font-family="sans-serif" font-size="14" font-weight="bold" lengthAdjust="spacing" textLength="103" x="10" y="22.5332">ProjectModule</text></g><!--class ProjectConfig--><g id="elem_ProjectConfig"><rect codeLine="3" fill="#F1F1F1" height="505.8438" id="ProjectConfig" rx="2.5" ry="2.5" style="stroke:#181818;stroke-width:0.5;" width="307" x="22.5" y="302"/><ellipse cx="129.25" cy="318" fill="#F1F1F1" rx="11" ry="11" style="stroke:#181818;stroke-width:1.0;"/><path d="M127.3594,322.5625 Q127.1406,322.8281 127,322.9063 Q126.8594,322.9844 126.6719,322.9844 Q126.2813,322.9844 126.0313,322.7188 Q125.7969,322.4531 125.7969,321.8594 L125.7969,320.7031 Q125.7969,320.0938 126.0313,319.8438 Q126.2813,319.5781 126.6719,319.5781 Q126.9688,319.5781 127.1719,319.7344 Q127.375,319.8906 127.4844,320.2656 Q127.5938,320.625 127.7031,320.7656 Q127.9531,321.0156 128.5625,321.2813 Q129.1719,321.5469 129.9063,321.5469 Q131.0469,321.5469 131.7656,321.0156 Q132.2344,320.6875 132.2344,320.2188 Q132.2344,319.9063 132.0156,319.625 Q131.7969,319.3438 131.2813,319.1719 Q130.9531,319.0469 129.7969,318.8281 Q128.4063,318.5625 127.6875,318.2031 Q126.9688,317.8438 126.5469,317.1875 Q126.1406,316.5156 126.1406,315.7344 Q126.1406,314.5156 127.1563,313.6094 Q128.1875,312.6875 129.8281,312.6875 Q130.4844,312.6875 131.0313,312.8281 Q131.5938,312.9688 132.0625,313.2656 Q132.3906,312.9531 132.7188,312.9531 Q133.0938,312.9531 133.3281,313.2188 Q133.5625,313.4688 133.5625,314.0781 L133.5625,315.3594 Q133.5625,315.9688 133.3281,316.2344 Q133.0938,316.4844 132.7188,316.4844 Q132.4063,316.4844 132.1719,316.2969 Q131.9844,316.1563 131.8906,315.7344 Q131.8125,315.3125 131.6719,315.125 Q131.4219,314.8125 130.9375,314.6094 Q130.4688,314.3906 129.8281,314.3906 Q128.9063,314.3906 128.375,314.8125 Q127.8438,315.2344 127.8438,315.7031 Q127.8438,316.0156 128.0625,316.3125 Q128.2813,316.6094 128.7031,316.7813 Q128.9844,316.8906 130.2813,317.1563 Q131.5938,317.4063 132.2969,317.7188 Q133,318.0156 133.4688,318.6719 Q133.9375,319.3281 133.9375,320.2344 Q133.9375,321.5 133.0469,322.25 Q131.8594,323.25 130.0313,323.25 Q129.3281,323.25 128.6563,323.0781 Q128,322.9063 127.3594,322.5625 Z " fill="#000000"/><text fill="#000000" font-family="sans-serif" font-size="14" lengthAdjust="spacing" textLength="85" x="149.75" y="323.7285">ProjectConfig</text><line style="stroke:#181818;stroke-width:0.5;" x1="23.5" x2="328.5" y1="334" y2="334"/><rect fill="none" height="6" style="stroke:#C82930;stroke-width:1.0;" width="6" x="30.5" y="345.3047"/><text fill="#000000" font-family="sans-serif" font-size="14" lengthAdjust="spacing" textLength="106" x="42.5" y="352.5332">string openTime;</text><rect fill="none" height="6" style="stroke:#C82930;stroke-width:1.0;" width="6" x="30.5" y="362.9141"/><text fill="#000000" font-family="sans-serif" font-size="14" lengthAdjust="spacing" textLength="115" x="42.5" y="370.1426">string projectPath;</text><rect fill="none" height="6" style="stroke:#C82930;stroke-width:1.0;" width="6" x="30.5" y="380.5234"/><text fill="#000000" font-family="sans-serif" font-size="14" lengthAdjust="spacing" textLength="122" x="42.5" y="387.752">string projectName;</text><text fill="#000000" font-family="sans-serif" font-size="14" lengthAdjust="spacing" textLength="4" x="42.5" y="405.3613">&#160;</text><rect fill="none" height="6" style="stroke:#C82930;stroke-width:1.0;" width="6" x="30.5" y="415.7422"/><text fill="#000000" font-family="sans-serif" font-size="14" lengthAdjust="spacing" textLength="135" x="42.5" y="422.9707">string resourcesPath;</text><rect fill="none" height="6" style="stroke:#C82930;stroke-width:1.0;" width="6" x="30.5" y="433.3516"/><text fill="#000000" font-family="sans-serif" font-size="14" lengthAdjust="spacing" textLength="110" x="42.5" y="440.5801">string configPath;</text><rect fill="none" height="6" style="stroke:#C82930;stroke-width:1.0;" width="6" x="30.5" y="450.9609"/><text fill="#000000" font-family="sans-serif" font-size="14" lengthAdjust="spacing" textLength="98" x="42.5" y="458.1895">string logsPath;</text><rect fill="none" height="6" style="stroke:#C82930;stroke-width:1.0;" width="6" x="30.5" y="468.5703"/><text fill="#000000" font-family="sans-serif" font-size="14" lengthAdjust="spacing" textLength="102" x="42.5" y="475.7988">string buildPath;</text><text fill="#000000" font-family="sans-serif" font-size="14" lengthAdjust="spacing" textLength="4" x="42.5" y="493.4082">&#160;</text><rect fill="none" height="6" style="stroke:#C82930;stroke-width:1.0;" width="6" x="30.5" y="503.7891"/><text fill="#000000" font-family="sans-serif" font-size="14" lengthAdjust="spacing" textLength="146" x="42.5" y="511.0176">string editorStartWorld;</text><rect fill="none" height="6" style="stroke:#C82930;stroke-width:1.0;" width="6" x="30.5" y="521.3984"/><text fill="#000000" font-family="sans-serif" font-size="14" lengthAdjust="spacing" textLength="145" x="42.5" y="528.627">string gameStartWorld;</text><line style="stroke:#181818;stroke-width:0.5;" x1="23.5" x2="328.5" y1="535.7031" y2="535.7031"/><ellipse cx="33.5" cy="550.0078" fill="#84BE84" rx="3" ry="3" style="stroke:#038048;stroke-width:1.0;"/><text fill="#000000" font-family="sans-serif" font-size="14" lengthAdjust="spacing" textLength="158" x="42.5" y="554.2363">ProjectConfig() = default;</text><ellipse cx="33.5" cy="567.6172" fill="#84BE84" rx="3" ry="3" style="stroke:#038048;stroke-width:1.0;"/><text fill="#000000" font-family="sans-serif" font-size="14" lengthAdjust="spacing" textLength="166" x="42.5" y="571.8457">ProjectConfig(string data);</text><text fill="#000000" font-family="sans-serif" font-size="14" lengthAdjust="spacing" textLength="4" x="42.5" y="589.4551">&#160;</text><ellipse cx="33.5" cy="602.8359" fill="#84BE84" rx="3" ry="3" style="stroke:#038048;stroke-width:1.0;"/><text fill="#000000" font-family="sans-serif" font-size="14" lengthAdjust="spacing" textLength="177" x="42.5" y="607.0645">string getOpenTime() const;</text><ellipse cx="33.5" cy="620.4453" fill="#84BE84" rx="3" ry="3" style="stroke:#038048;stroke-width:1.0;"/><text fill="#000000" font-family="sans-serif" font-size="14" lengthAdjust="spacing" textLength="184" x="42.5" y="624.6738">string getProjectPath() const;</text><text fill="#000000" font-family="sans-serif" font-size="14" lengthAdjust="spacing" textLength="4" x="42.5" y="642.2832">&#160;</text><ellipse cx="33.5" cy="655.6641" fill="#84BE84" rx="3" ry="3" style="stroke:#038048;stroke-width:1.0;"/><text fill="#000000" font-family="sans-serif" font-size="14" lengthAdjust="spacing" textLength="208" x="42.5" y="659.8926">string getResourcesPath() const;</text><ellipse cx="33.5" cy="673.2734" fill="#84BE84" rx="3" ry="3" style="stroke:#038048;stroke-width:1.0;"/><text fill="#000000" font-family="sans-serif" font-size="14" lengthAdjust="spacing" textLength="181" x="42.5" y="677.502">string getConfigPath() const;</text><ellipse cx="33.5" cy="690.8828" fill="#84BE84" rx="3" ry="3" style="stroke:#038048;stroke-width:1.0;"/><text fill="#000000" font-family="sans-serif" font-size="14" lengthAdjust="spacing" textLength="171" x="42.5" y="695.1113">string getLogsPath() const;</text><ellipse cx="33.5" cy="708.4922" fill="#84BE84" rx="3" ry="3" style="stroke:#038048;stroke-width:1.0;"/><text fill="#000000" font-family="sans-serif" font-size="14" lengthAdjust="spacing" textLength="171" x="42.5" y="712.7207">string getBuildPath() const;</text><text fill="#000000" font-family="sans-serif" font-size="14" lengthAdjust="spacing" textLength="4" x="42.5" y="730.3301">&#160;</text><ellipse cx="33.5" cy="743.7109" fill="#84BE84" rx="3" ry="3" style="stroke:#038048;stroke-width:1.0;"/><text fill="#000000" font-family="sans-serif" font-size="14" lengthAdjust="spacing" textLength="215" x="42.5" y="747.9395">string getEditorStartWorld() const;</text><ellipse cx="33.5" cy="761.3203" fill="#84BE84" rx="3" ry="3" style="stroke:#038048;stroke-width:1.0;"/><text fill="#000000" font-family="sans-serif" font-size="14" lengthAdjust="spacing" textLength="216" x="42.5" y="765.5488">string getGameStartWorld() const;</text><text fill="#000000" font-family="sans-serif" font-size="14" lengthAdjust="spacing" textLength="4" x="42.5" y="783.1582">&#160;</text><ellipse cx="33.5" cy="796.5391" fill="#84BE84" rx="3" ry="3" style="stroke:#038048;stroke-width:1.0;"/><text fill="#000000" font-family="sans-serif" font-size="14" lengthAdjust="spacing" textLength="281" x="42.5" y="800.7676">void setEditorStartWorld(const string&amp; path);</text></g><!--class ProjectModule--><g id="elem_ProjectModule"><rect codeLine="34" fill="#F1F1F1" height="199.5781" id="ProjectModule" rx="2.5" ry="2.5" style="stroke:#181818;stroke-width:0.5;" width="253" x="49.5" y="42"/><ellipse cx="126.75" cy="63.3516" fill="#ADD1B2" rx="11" ry="11" style="stroke:#181818;stroke-width:1.0;"/><path d="M129.5156,59.2266 Q129.6719,59.0078 129.8594,58.8984 Q130.0469,58.7891 130.2656,58.7891 Q130.6406,58.7891 130.875,59.0547 Q131.1094,59.3047 131.1094,59.9141 L131.1094,61.3672 Q131.1094,61.9766 130.875,62.2422 Q130.6406,62.5078 130.2656,62.5078 Q129.9219,62.5078 129.7188,62.3047 Q129.5156,62.1172 129.4063,61.6016 Q129.3594,61.2422 129.1719,61.0547 Q128.8438,60.6797 128.2344,60.4609 Q127.625,60.2422 127,60.2422 Q126.2344,60.2422 125.5938,60.5703 Q124.9688,60.8984 124.4688,61.6484 Q123.9844,62.3984 123.9844,63.4297 L123.9844,64.5234 Q123.9844,65.7578 124.875,66.5859 Q125.7656,67.3984 127.3594,67.3984 Q128.2969,67.3984 128.9531,67.1484 Q129.3438,66.9922 129.7656,66.5547 Q130.0313,66.2891 130.1719,66.2109 Q130.3281,66.1328 130.5313,66.1328 Q130.8594,66.1328 131.1094,66.3984 Q131.375,66.6484 131.375,66.9922 Q131.375,67.3359 131.0313,67.7422 Q130.5313,68.3203 129.7344,68.6484 Q128.6563,69.1016 127.3594,69.1016 Q125.8438,69.1016 124.6406,68.4766 Q123.6563,67.9766 122.9688,66.9141 Q122.2813,65.8359 122.2813,64.5547 L122.2813,63.3984 Q122.2813,62.0703 122.8906,60.9297 Q123.5156,59.7734 124.6094,59.1641 Q125.7031,58.5391 126.9375,58.5391 Q127.6719,58.5391 128.3125,58.7109 Q128.9688,58.8672 129.5156,59.2266 Z " fill="#000000"/><text fill="#000000" font-family="sans-serif" font-size="12" font-style="italic" lengthAdjust="spacing" textLength="71" x="156.75" y="59.457">&#171;singletone&#187;</text><text fill="#000000" font-family="sans-serif" font-size="14" lengthAdjust="spacing" textLength="90" x="147.25" y="76.627">ProjectModule</text><line style="stroke:#181818;stroke-width:0.5;" x1="50.5" x2="301.5" y1="84.7031" y2="84.7031"/><rect fill="none" height="6" style="stroke:#C82930;stroke-width:1.0;" width="6" x="57.5" y="96.0078"/><text fill="#000000" font-family="sans-serif" font-size="14" lengthAdjust="spacing" textLength="196" x="69.5" y="103.2363">ProjectConfig m_projectConfig;</text><line style="stroke:#181818;stroke-width:0.5;" x1="50.5" x2="301.5" y1="110.3125" y2="110.3125"/><ellipse cx="60.5" cy="124.6172" fill="#84BE84" rx="3" ry="3" style="stroke:#038048;stroke-width:1.0;"/><text fill="#000000" font-family="sans-serif" font-size="14" lengthAdjust="spacing" textLength="227" x="69.5" y="128.8457">static ProjectModule&amp; getInstance();</text><text fill="#000000" font-family="sans-serif" font-size="14" lengthAdjust="spacing" textLength="4" x="69.5" y="146.4551">&#160;</text><ellipse cx="60.5" cy="159.8359" fill="#84BE84" rx="3" ry="3" style="stroke:#038048;stroke-width:1.0;"/><text fill="#000000" font-family="sans-serif" font-size="14" lengthAdjust="spacing" textLength="88" x="69.5" y="164.0645">void startup();</text><ellipse cx="60.5" cy="177.4453" fill="#84BE84" rx="3" ry="3" style="stroke:#038048;stroke-width:1.0;"/><text fill="#000000" font-family="sans-serif" font-size="14" lengthAdjust="spacing" textLength="104" x="69.5" y="181.6738">void shutdown();</text><text fill="#000000" font-family="sans-serif" font-size="14" lengthAdjust="spacing" textLength="4" x="69.5" y="199.2832">&#160;</text><rect fill="#F24D5C" height="6" style="stroke:#C82930;stroke-width:1.0;" width="6" x="57.5" y="209.6641"/><text fill="#000000" font-family="sans-serif" font-size="14" lengthAdjust="spacing" textLength="194" x="69.5" y="216.8926">void setupProjectEnviroment();</text><rect fill="#F24D5C" height="6" style="stroke:#C82930;stroke-width:1.0;" width="6" x="57.5" y="227.2734"/><text fill="#000000" font-family="sans-serif" font-size="14" lengthAdjust="spacing" textLength="159" x="69.5" y="234.502">void saveProjectConfig();</text></g><!--reverse link ProjectModule to ProjectConfig--><g id="link_ProjectModule_ProjectConfig"><path codeLine="47" d="M176,254.23 C176,272.76 176,280.88 176,301.67 " fill="none" id="ProjectModule-backto-ProjectConfig" style="stroke:#181818;stroke-width:1.0;"/><polygon fill="#181818" points="176,242.23,172,248.23,176,254.23,180,248.23,176,242.23" style="stroke:#181818;stroke-width:1.0;"/></g><!--SRC=[VLHBRiCW4Dtd5AoYk9LFu3IBHb5KgH-hhTHbHM7Yq690CAIBAdSlZkt4s8xPeVUPcJV6Xh8VMW39hVu6Xa-QUmcplna9nw7r35jehTLE52UWXgkJ1evG1T46rBie8HiWfbRd5FTNmMTQAGUe1QUzPU36nUpKq3WcTN55zUM5v3Kqm80BrFODgSKFRIKVgelGQHS_4swZb1O9kICSTjHBpAvn6ajEaIPTfxOKu4kJQh0BmxgkrOMKNm8UyiO4hzrO9wtNvuGdQOzDs9Ea-pRt2skCjkcjOD9p6srZpFYW1ITknFR49BNLd9ZGLrANEDPg9gbpyQiWowKBR0ce5QnM_PSGBPUKdwPxZuUbA5ZiFQ_6UGWjKSN2keSZL9rxiqYoFh3toFMlYZHfExOtJPMDEWYhIr3OjMXuz02zhpUA8WxX9arxVuJZFm00]--></g></svg>