<?xml version="1.0" encoding="us-ascii" standalone="no"?><svg xmlns="http://www.w3.org/2000/svg" xmlns:xlink="http://www.w3.org/1999/xlink" contentStyleType="text/css" height="584px" preserveAspectRatio="none" style="width:722px;height:584px;background:#FFFFFF;" version="1.1" viewBox="0 0 722 584" width="722px" zoomAndPan="magnify"><defs/><g><!--cluster EngineContextModule--><g id="cluster_EngineContextModule"><path d="M8.5,6 L166.5,6 A3.75,3.75 0 0 1 169,8.5 L176,29.6094 L712.5,29.6094 A2.5,2.5 0 0 1 715,32.1094 L715,574.5 A2.5,2.5 0 0 1 712.5,577 L8.5,577 A2.5,2.5 0 0 1 6,574.5 L6,8.5 A2.5,2.5 0 0 1 8.5,6 " fill="none" style="stroke:#000000;stroke-width:1.5;"/><line style="stroke:#000000;stroke-width:1.5;" x1="6" x2="176" y1="29.6094" y2="29.6094"/><text fill="#000000" font-family="sans-serif" font-size="14" font-weight="bold" lengthAdjust="spacing" textLength="157" x="10" y="22.5332">EngineContextModule</text></g><!--class IEngineContext--><g id="elem_IEngineContext"><rect codeLine="4" fill="#F1F1F1" height="171.2656" id="IEngineContext" rx="2.5" ry="2.5" style="stroke:#181818;stroke-width:0.5;" width="250" x="22" y="375.5"/><ellipse cx="95.25" cy="391.5" fill="#ADD1B2" rx="11" ry="11" style="stroke:#181818;stroke-width:1.0;"/><path d="M98.0156,387.375 Q98.1719,387.1563 98.3594,387.0469 Q98.5469,386.9375 98.7656,386.9375 Q99.1406,386.9375 99.375,387.2031 Q99.6094,387.4531 99.6094,388.0625 L99.6094,389.5156 Q99.6094,390.125 99.375,390.3906 Q99.1406,390.6563 98.7656,390.6563 Q98.4219,390.6563 98.2188,390.4531 Q98.0156,390.2656 97.9063,389.75 Q97.8594,389.3906 97.6719,389.2031 Q97.3438,388.8281 96.7344,388.6094 Q96.125,388.3906 95.5,388.3906 Q94.7344,388.3906 94.0938,388.7188 Q93.4688,389.0469 92.9688,389.7969 Q92.4844,390.5469 92.4844,391.5781 L92.4844,392.6719 Q92.4844,393.9063 93.375,394.7344 Q94.2656,395.5469 95.8594,395.5469 Q96.7969,395.5469 97.4531,395.2969 Q97.8438,395.1406 98.2656,394.7031 Q98.5313,394.4375 98.6719,394.3594 Q98.8281,394.2813 99.0313,394.2813 Q99.3594,394.2813 99.6094,394.5469 Q99.875,394.7969 99.875,395.1406 Q99.875,395.4844 99.5313,395.8906 Q99.0313,396.4688 98.2344,396.7969 Q97.1563,397.25 95.8594,397.25 Q94.3438,397.25 93.1406,396.625 Q92.1563,396.125 91.4688,395.0625 Q90.7813,393.9844 90.7813,392.7031 L90.7813,391.5469 Q90.7813,390.2188 91.3906,389.0781 Q92.0156,387.9219 93.1094,387.3125 Q94.2031,386.6875 95.4375,386.6875 Q96.1719,386.6875 96.8125,386.8594 Q97.4688,387.0156 98.0156,387.375 Z " fill="#000000"/><text fill="#000000" font-family="sans-serif" font-size="14" lengthAdjust="spacing" textLength="95" x="115.75" y="397.2285">IEngineContext</text><line style="stroke:#181818;stroke-width:0.5;" x1="23" x2="271" y1="407.5" y2="407.5"/><line style="stroke:#181818;stroke-width:0.5;" x1="23" x2="271" y1="415.5" y2="415.5"/><ellipse cx="33" cy="429.8047" fill="#84BE84" rx="3" ry="3" style="stroke:#038048;stroke-width:1.0;"/><text fill="#000000" font-family="sans-serif" font-size="14" lengthAdjust="spacing" textLength="109" x="42" y="434.0332">IEngineContext();</text><ellipse cx="33" cy="447.4141" fill="#84BE84" rx="3" ry="3" style="stroke:#038048;stroke-width:1.0;"/><text fill="#000000" font-family="sans-serif" font-size="14" lengthAdjust="spacing" textLength="155" x="42" y="451.6426">virtual ~IEngineConext();</text><text fill="#000000" font-family="sans-serif" font-size="14" lengthAdjust="spacing" textLength="4" x="42" y="469.252">&#160;</text><ellipse cx="33" cy="482.6328" fill="#84BE84" rx="3" ry="3" style="stroke:#038048;stroke-width:1.0;"/><text fill="#000000" font-family="sans-serif" font-size="14" lengthAdjust="spacing" textLength="163" x="42" y="486.8613">virtual void initMinor() = 0;</text><ellipse cx="33" cy="500.2422" fill="#84BE84" rx="3" ry="3" style="stroke:#038048;stroke-width:1.0;"/><text fill="#000000" font-family="sans-serif" font-size="14" lengthAdjust="spacing" textLength="163" x="42" y="504.4707">virtual void initMajor() = 0;</text><ellipse cx="33" cy="517.8516" fill="#84BE84" rx="3" ry="3" style="stroke:#038048;stroke-width:1.0;"/><text fill="#000000" font-family="sans-serif" font-size="14" lengthAdjust="spacing" textLength="224" x="42" y="522.0801">virtual void tick(float deltaTime) = 0;</text><ellipse cx="33" cy="535.4609" fill="#84BE84" rx="3" ry="3" style="stroke:#038048;stroke-width:1.0;"/><text fill="#000000" font-family="sans-serif" font-size="14" lengthAdjust="spacing" textLength="172" x="42" y="539.6895">virtual void shutDown() = 0;</text></g><!--class EngineConfig--><g id="elem_EngineConfig"><rect codeLine="15" fill="#F1F1F1" height="199.5781" id="EngineConfig" rx="2.5" ry="2.5" style="stroke:#181818;stroke-width:0.5;" width="392" x="307" y="361"/><ellipse cx="456.25" cy="382.3516" fill="#ADD1B2" rx="11" ry="11" style="stroke:#181818;stroke-width:1.0;"/><path d="M459.0156,378.2266 Q459.1719,378.0078 459.3594,377.8984 Q459.5469,377.7891 459.7656,377.7891 Q460.1406,377.7891 460.375,378.0547 Q460.6094,378.3047 460.6094,378.9141 L460.6094,380.3672 Q460.6094,380.9766 460.375,381.2422 Q460.1406,381.5078 459.7656,381.5078 Q459.4219,381.5078 459.2188,381.3047 Q459.0156,381.1172 458.9063,380.6016 Q458.8594,380.2422 458.6719,380.0547 Q458.3438,379.6797 457.7344,379.4609 Q457.125,379.2422 456.5,379.2422 Q455.7344,379.2422 455.0938,379.5703 Q454.4688,379.8984 453.9688,380.6484 Q453.4844,381.3984 453.4844,382.4297 L453.4844,383.5234 Q453.4844,384.7578 454.375,385.5859 Q455.2656,386.3984 456.8594,386.3984 Q457.7969,386.3984 458.4531,386.1484 Q458.8438,385.9922 459.2656,385.5547 Q459.5313,385.2891 459.6719,385.2109 Q459.8281,385.1328 460.0313,385.1328 Q460.3594,385.1328 460.6094,385.3984 Q460.875,385.6484 460.875,385.9922 Q460.875,386.3359 460.5313,386.7422 Q460.0313,387.3203 459.2344,387.6484 Q458.1563,388.1016 456.8594,388.1016 Q455.3438,388.1016 454.1406,387.4766 Q453.1563,386.9766 452.4688,385.9141 Q451.7813,384.8359 451.7813,383.5547 L451.7813,382.3984 Q451.7813,381.0703 452.3906,379.9297 Q453.0156,378.7734 454.1094,378.1641 Q455.2031,377.5391 456.4375,377.5391 Q457.1719,377.5391 457.8125,377.7109 Q458.4688,377.8672 459.0156,378.2266 Z " fill="#000000"/><text fill="#000000" font-family="sans-serif" font-size="12" font-style="italic" lengthAdjust="spacing" textLength="71" x="483.75" y="378.457">&#171;singletone&#187;</text><text fill="#000000" font-family="sans-serif" font-size="14" lengthAdjust="spacing" textLength="85" x="476.75" y="395.627">EngineConfig</text><line style="stroke:#181818;stroke-width:0.5;" x1="308" x2="698" y1="403.7031" y2="403.7031"/><rect fill="none" height="6" style="stroke:#C82930;stroke-width:1.0;" width="6" x="315" y="415.0078"/><text fill="#000000" font-family="sans-serif" font-size="14" lengthAdjust="spacing" textLength="126" x="327" y="422.2363">void* m_configData;</text><line style="stroke:#181818;stroke-width:0.5;" x1="308" x2="698" y1="429.3125" y2="429.3125"/><rect fill="#F24D5C" height="6" style="stroke:#C82930;stroke-width:1.0;" width="6" x="315" y="440.6172"/><text fill="#000000" font-family="sans-serif" font-size="14" lengthAdjust="spacing" textLength="158" x="327" y="447.8457">EngineConfig() = default;</text><rect fill="#F24D5C" height="6" style="stroke:#C82930;stroke-width:1.0;" width="6" x="315" y="458.2266"/><text fill="#000000" font-family="sans-serif" font-size="14" lengthAdjust="spacing" textLength="166" x="327" y="465.4551">~EngineConfig() = default;</text><rect fill="#F24D5C" height="6" style="stroke:#C82930;stroke-width:1.0;" width="6" x="315" y="475.8359"/><text fill="#000000" font-family="sans-serif" font-size="14" lengthAdjust="spacing" textLength="286" x="327" y="483.0645">EngineConfig(const EngineConfig&amp;) = delete;</text><rect fill="#F24D5C" height="6" style="stroke:#C82930;stroke-width:1.0;" width="6" x="315" y="493.4453"/><text fill="#000000" font-family="sans-serif" font-size="14" lengthAdjust="spacing" textLength="361" x="327" y="500.6738">EngineConfig&amp; operator=(const EngineConfig&amp;) = delete;</text><text fill="#000000" font-family="sans-serif" font-size="14" lengthAdjust="spacing" textLength="4" x="327" y="518.2832">&#160;</text><ellipse cx="318" cy="531.6641" fill="#84BE84" rx="3" ry="3" style="stroke:#038048;stroke-width:1.0;"/><text fill="#000000" font-family="sans-serif" font-size="14" lengthAdjust="spacing" textLength="222" x="327" y="535.8926">static EngineConfig&amp; getInstance();</text><ellipse cx="318" cy="549.2734" fill="#84BE84" rx="3" ry="3" style="stroke:#038048;stroke-width:1.0;"/><text fill="#000000" font-family="sans-serif" font-size="14" lengthAdjust="spacing" textLength="366" x="327" y="553.502">uint32_t getFieldFromConfig(const string&amp; fieldName) = 0;</text></g><!--class Engine--><g id="elem_Engine"><rect codeLine="27" fill="#F1F1F1" height="259.3125" id="Engine" rx="2.5" ry="2.5" style="stroke:#181818;stroke-width:0.5;" width="358" x="173" y="42"/><ellipse cx="325.75" cy="58" fill="#ADD1B2" rx="11" ry="11" style="stroke:#181818;stroke-width:1.0;"/><path d="M328.5156,53.875 Q328.6719,53.6563 328.8594,53.5469 Q329.0469,53.4375 329.2656,53.4375 Q329.6406,53.4375 329.875,53.7031 Q330.1094,53.9531 330.1094,54.5625 L330.1094,56.0156 Q330.1094,56.625 329.875,56.8906 Q329.6406,57.1563 329.2656,57.1563 Q328.9219,57.1563 328.7188,56.9531 Q328.5156,56.7656 328.4063,56.25 Q328.3594,55.8906 328.1719,55.7031 Q327.8438,55.3281 327.2344,55.1094 Q326.625,54.8906 326,54.8906 Q325.2344,54.8906 324.5938,55.2188 Q323.9688,55.5469 323.4688,56.2969 Q322.9844,57.0469 322.9844,58.0781 L322.9844,59.1719 Q322.9844,60.4063 323.875,61.2344 Q324.7656,62.0469 326.3594,62.0469 Q327.2969,62.0469 327.9531,61.7969 Q328.3438,61.6406 328.7656,61.2031 Q329.0313,60.9375 329.1719,60.8594 Q329.3281,60.7813 329.5313,60.7813 Q329.8594,60.7813 330.1094,61.0469 Q330.375,61.2969 330.375,61.6406 Q330.375,61.9844 330.0313,62.3906 Q329.5313,62.9688 328.7344,63.2969 Q327.6563,63.75 326.3594,63.75 Q324.8438,63.75 323.6406,63.125 Q322.6563,62.625 321.9688,61.5625 Q321.2813,60.4844 321.2813,59.2031 L321.2813,58.0469 Q321.2813,56.7188 321.8906,55.5781 Q322.5156,54.4219 323.6094,53.8125 Q324.7031,53.1875 325.9375,53.1875 Q326.6719,53.1875 327.3125,53.3594 Q327.9688,53.5156 328.5156,53.875 Z " fill="#000000"/><text fill="#000000" font-family="sans-serif" font-size="14" lengthAdjust="spacing" textLength="44" x="346.25" y="63.7285">Engine</text><line style="stroke:#181818;stroke-width:0.5;" x1="174" x2="530" y1="74" y2="74"/><rect fill="none" height="6" style="stroke:#C82930;stroke-width:1.0;" width="6" x="181" y="85.3047"/><text fill="#000000" font-family="sans-serif" font-size="14" lengthAdjust="spacing" textLength="297" x="193" y="92.5332">unique_ptr&lt;IEngineContext&gt; m_engineContext;</text><line style="stroke:#181818;stroke-width:0.5;" x1="174" x2="530" y1="99.6094" y2="99.6094"/><ellipse cx="184" cy="113.9141" fill="#84BE84" rx="3" ry="3" style="stroke:#038048;stroke-width:1.0;"/><text fill="#000000" font-family="sans-serif" font-size="14" lengthAdjust="spacing" textLength="58" x="193" y="118.1426">Engine();</text><ellipse cx="184" cy="131.5234" fill="#84BE84" rx="3" ry="3" style="stroke:#038048;stroke-width:1.0;"/><text fill="#000000" font-family="sans-serif" font-size="14" lengthAdjust="spacing" textLength="66" x="193" y="135.752">~Engine();</text><ellipse cx="184" cy="149.1328" fill="#84BE84" rx="3" ry="3" style="stroke:#038048;stroke-width:1.0;"/><text fill="#000000" font-family="sans-serif" font-size="14" lengthAdjust="spacing" textLength="232" x="193" y="153.3613">Engine(const Engine&amp; app) = delete;</text><ellipse cx="184" cy="166.7422" fill="#84BE84" rx="3" ry="3" style="stroke:#038048;stroke-width:1.0;"/><text fill="#000000" font-family="sans-serif" font-size="14" lengthAdjust="spacing" textLength="332" x="193" y="170.9707">const Engine&amp; operator=(const Engine rhs) = delete;</text><ellipse cx="184" cy="184.3516" fill="#84BE84" rx="3" ry="3" style="stroke:#038048;stroke-width:1.0;"/><text fill="#000000" font-family="sans-serif" font-size="14" lengthAdjust="spacing" textLength="65" x="193" y="188.5801">void run();</text><text fill="#000000" font-family="sans-serif" font-size="14" lengthAdjust="spacing" textLength="4" x="193" y="206.1895">&#160;</text><rect fill="#F24D5C" height="6" style="stroke:#C82930;stroke-width:1.0;" width="6" x="181" y="216.5703"/><text fill="#000000" font-family="sans-serif" font-size="14" lengthAdjust="spacing" textLength="141" x="193" y="223.7988">void startupModules();</text><rect fill="#F24D5C" height="6" style="stroke:#C82930;stroke-width:1.0;" width="6" x="181" y="234.1797"/><text fill="#000000" font-family="sans-serif" font-size="14" lengthAdjust="spacing" textLength="221" x="193" y="241.4082">void startupEngineContextObject();</text><rect fill="#F24D5C" height="6" style="stroke:#C82930;stroke-width:1.0;" width="6" x="181" y="251.7891"/><text fill="#000000" font-family="sans-serif" font-size="14" lengthAdjust="spacing" textLength="189" x="193" y="259.0176">void initMajorEngineContext();</text><rect fill="#F24D5C" height="6" style="stroke:#C82930;stroke-width:1.0;" width="6" x="181" y="269.3984"/><text fill="#000000" font-family="sans-serif" font-size="14" lengthAdjust="spacing" textLength="113" x="193" y="276.627">void engineTick();</text><rect fill="#F24D5C" height="6" style="stroke:#C82930;stroke-width:1.0;" width="6" x="181" y="287.0078"/><text fill="#000000" font-family="sans-serif" font-size="14" lengthAdjust="spacing" textLength="159" x="193" y="294.2363">void shutDownModules();</text></g><!--reverse link Engine to IEngineContext--><g id="link_Engine_IEngineContext"><path codeLine="44" d="M253.3236,310.8808 C235.4136,336.0008 224.03,351.97 207.45,375.22 " fill="none" id="Engine-backto-IEngineContext" style="stroke:#181818;stroke-width:1.0;"/><polygon fill="#181818" points="260.29,301.11,253.5499,303.6733,253.3236,310.8808,260.0638,308.3176,260.29,301.11" style="stroke:#181818;stroke-width:1.0;"/></g><!--reverse link Engine to EngineConfig--><g id="link_Engine_EngineConfig"><path codeLine="45" d="M422.3388,306.4225 C432.8588,326.4625 440.8,341.58 450.91,360.83 " fill="none" id="Engine-backto-EngineConfig" style="stroke:#181818;stroke-width:1.0;stroke-dasharray:7.0,7.0;"/><polygon fill="#181818" points="419.55,301.11,420.1915,310.9379,421.874,305.5371,427.2749,307.2195,419.55,301.11" style="stroke:#181818;stroke-width:1.0;"/></g><!--SRC=[ZPHDRy8m38Rl_HKvLNoeQDgE52vZI1pOBjoHrwOb498kSTYa2NxxqW_H10ginxoFO_kDtGAI7UIKl8cS2Veg1T8VNChKS1hy1iH-2GUjoS83Ag6Mos_egxt-k9KEJA41Jaujqo3Np46ob331SCc4LBq-cP2dyJqCjeymPCckbt49I5BA4LPiJ-y6w8t1cVmMxhN7m77Yt4R6SXB7cecSKxHTJQSNjaJbXGEoNoSLF0E4DclatbCbIsa6XgE3dFx1U8XDfD6hCAoZR8NqHb18P44Le5IJH_6jPHh1EkkJ9AUuiF4W4kgDW642NvxNM09pHdawLtBlLQnHMHj3afNgEtXFr67-fSz6i2z3rmMgs9_4gJMVkWTk3pNfLNhgE6kEN6j20aNHPUpGfxgD9MgZEuEh-LD6UCiHrLE9O6Uqg1TJk_LvkjVyn-UM9dZDdZVdvjBMN6tSgboWwtpDbbmKrBnLq-SWYhh-6uqQZqRU_0J7u0y0]--></g></svg>