<?xml version="1.0" encoding="us-ascii" standalone="no"?><svg xmlns="http://www.w3.org/2000/svg" xmlns:xlink="http://www.w3.org/1999/xlink" contentStyleType="text/css" height="1378px" preserveAspectRatio="none" style="width:659px;height:1378px;background:#FFFFFF;" version="1.1" viewBox="0 0 659 1378" width="659px" zoomAndPan="magnify"><defs/><g><!--cluster FilesystemModule--><g id="cluster_FilesystemModule"><path d="M8.5,6 L137.5,6 A3.75,3.75 0 0 1 140,8.5 L147,29.6094 L649.5,29.6094 A2.5,2.5 0 0 1 652,32.1094 L652,1368.5 A2.5,2.5 0 0 1 649.5,1371 L8.5,1371 A2.5,2.5 0 0 1 6,1368.5 L6,8.5 A2.5,2.5 0 0 1 8.5,6 " fill="none" style="stroke:#000000;stroke-width:1.5;"/><line style="stroke:#000000;stroke-width:1.5;" x1="6" x2="147" y1="29.6094" y2="29.6094"/><text fill="#000000" font-family="sans-serif" font-size="14" font-weight="bold" lengthAdjust="spacing" textLength="128" x="10" y="22.5332">FilesystemModule</text></g><!--class FResult--><g id="elem_FResult"><rect codeLine="3" fill="#F1F1F1" height="118.4375" id="FResult" rx="2.5" ry="2.5" style="stroke:#181818;stroke-width:0.5;" width="135" x="22.5" y="1237"/><ellipse cx="61.8" cy="1253" fill="#EB937F" rx="11" ry="11" style="stroke:#181818;stroke-width:1.0;"/><path d="M60.6594,1253.7969 L60.6594,1256.2969 L64.9875,1256.2969 L64.9875,1255.375 Q64.9875,1254.7656 65.2219,1254.5 Q65.4719,1254.2344 65.8469,1254.2344 Q66.2219,1254.2344 66.4563,1254.5 Q66.6906,1254.7656 66.6906,1255.375 L66.6906,1258 L58.6906,1258 Q58.0656,1258 57.8,1257.7656 Q57.55,1257.5313 57.55,1257.1406 Q57.55,1256.7656 57.8156,1256.5313 Q58.0813,1256.2969 58.6906,1256.2969 L58.9563,1256.2969 L58.9563,1249.6406 L58.6906,1249.6406 Q58.0656,1249.6406 57.8,1249.4063 Q57.55,1249.1719 57.55,1248.7813 Q57.55,1248.4063 57.8,1248.1719 Q58.0656,1247.9375 58.6906,1247.9375 L66.3156,1247.9375 L66.3156,1250.5313 Q66.3156,1251.1406 66.0813,1251.4063 Q65.8625,1251.6563 65.4719,1251.6563 Q65.0969,1251.6563 64.8625,1251.4063 Q64.6281,1251.1406 64.6281,1250.5313 L64.6281,1249.6406 L60.6594,1249.6406 L60.6594,1252.0938 L62.1438,1252.0938 Q62.1438,1251.4375 62.2688,1251.25 Q62.5344,1250.8438 63.0031,1250.8438 Q63.3781,1250.8438 63.6125,1251.1094 Q63.8469,1251.3594 63.8469,1251.9688 L63.8469,1253.9375 Q63.8469,1254.4844 63.7219,1254.6719 Q63.4563,1255.0625 63.0031,1255.0625 Q62.5344,1255.0625 62.2688,1254.6563 Q62.1438,1254.4688 62.1438,1253.7969 L60.6594,1253.7969 Z " fill="#000000"/><text fill="#000000" font-family="sans-serif" font-size="14" lengthAdjust="spacing" textLength="49" x="81.2" y="1258.7285">FResult</text><line style="stroke:#181818;stroke-width:0.5;" x1="23.5" x2="156.5" y1="1269" y2="1269"/><text fill="#000000" font-family="sans-serif" font-size="14" lengthAdjust="spacing" textLength="69" x="28.5" y="1287.5332">SUCCESS,</text><text fill="#000000" font-family="sans-serif" font-size="14" lengthAdjust="spacing" textLength="123" x="28.5" y="1305.1426">ALREADY_EXISTS,</text><text fill="#000000" font-family="sans-serif" font-size="14" lengthAdjust="spacing" textLength="99" x="28.5" y="1322.752">INVALID_PATH,</text><text fill="#000000" font-family="sans-serif" font-size="14" lengthAdjust="spacing" textLength="68" x="28.5" y="1340.3613">UNDEFIND</text><line style="stroke:#181818;stroke-width:0.5;" x1="23.5" x2="156.5" y1="1347.4375" y2="1347.4375"/></g><!--class DirContentType--><g id="elem_DirContentType"><rect codeLine="11" fill="#F1F1F1" height="100.8281" id="DirContentType" rx="2.5" ry="2.5" style="stroke:#181818;stroke-width:0.5;" width="132" x="193" y="1245.5"/><ellipse cx="208" cy="1261.5" fill="#EB937F" rx="11" ry="11" style="stroke:#181818;stroke-width:1.0;"/><path d="M206.8594,1262.2969 L206.8594,1264.7969 L211.1875,1264.7969 L211.1875,1263.875 Q211.1875,1263.2656 211.4219,1263 Q211.6719,1262.7344 212.0469,1262.7344 Q212.4219,1262.7344 212.6563,1263 Q212.8906,1263.2656 212.8906,1263.875 L212.8906,1266.5 L204.8906,1266.5 Q204.2656,1266.5 204,1266.2656 Q203.75,1266.0313 203.75,1265.6406 Q203.75,1265.2656 204.0156,1265.0313 Q204.2813,1264.7969 204.8906,1264.7969 L205.1563,1264.7969 L205.1563,1258.1406 L204.8906,1258.1406 Q204.2656,1258.1406 204,1257.9063 Q203.75,1257.6719 203.75,1257.2813 Q203.75,1256.9063 204,1256.6719 Q204.2656,1256.4375 204.8906,1256.4375 L212.5156,1256.4375 L212.5156,1259.0313 Q212.5156,1259.6406 212.2813,1259.9063 Q212.0625,1260.1563 211.6719,1260.1563 Q211.2969,1260.1563 211.0625,1259.9063 Q210.8281,1259.6406 210.8281,1259.0313 L210.8281,1258.1406 L206.8594,1258.1406 L206.8594,1260.5938 L208.3438,1260.5938 Q208.3438,1259.9375 208.4688,1259.75 Q208.7344,1259.3438 209.2031,1259.3438 Q209.5781,1259.3438 209.8125,1259.6094 Q210.0469,1259.8594 210.0469,1260.4688 L210.0469,1262.4375 Q210.0469,1262.9844 209.9219,1263.1719 Q209.6563,1263.5625 209.2031,1263.5625 Q208.7344,1263.5625 208.4688,1263.1563 Q208.3438,1262.9688 208.3438,1262.2969 L206.8594,1262.2969 Z " fill="#000000"/><text fill="#000000" font-family="sans-serif" font-size="14" lengthAdjust="spacing" textLength="100" x="222" y="1267.2285">DirContentType</text><line style="stroke:#181818;stroke-width:0.5;" x1="194" x2="324" y1="1277.5" y2="1277.5"/><text fill="#000000" font-family="sans-serif" font-size="14" lengthAdjust="spacing" textLength="29" x="199" y="1296.0332">ALL,</text><text fill="#000000" font-family="sans-serif" font-size="14" lengthAdjust="spacing" textLength="42" x="199" y="1313.6426">FILES,</text><text fill="#000000" font-family="sans-serif" font-size="14" lengthAdjust="spacing" textLength="66" x="199" y="1331.252">FOLDERS</text><line style="stroke:#181818;stroke-width:0.5;" x1="194" x2="324" y1="1338.3281" y2="1338.3281"/></g><!--class ContentSearchFilter--><g id="elem_ContentSearchFilter"><rect codeLine="18" fill="#F1F1F1" height="100.8281" id="ContentSearchFilter" rx="2.5" ry="2.5" style="stroke:#181818;stroke-width:0.5;" width="276" x="360" y="1245.5"/><ellipse cx="430.25" cy="1261.5" fill="#F1F1F1" rx="11" ry="11" style="stroke:#181818;stroke-width:1.0;"/><path d="M428.3594,1266.0625 Q428.1406,1266.3281 428,1266.4063 Q427.8594,1266.4844 427.6719,1266.4844 Q427.2813,1266.4844 427.0313,1266.2188 Q426.7969,1265.9531 426.7969,1265.3594 L426.7969,1264.2031 Q426.7969,1263.5938 427.0313,1263.3438 Q427.2813,1263.0781 427.6719,1263.0781 Q427.9688,1263.0781 428.1719,1263.2344 Q428.375,1263.3906 428.4844,1263.7656 Q428.5938,1264.125 428.7031,1264.2656 Q428.9531,1264.5156 429.5625,1264.7813 Q430.1719,1265.0469 430.9063,1265.0469 Q432.0469,1265.0469 432.7656,1264.5156 Q433.2344,1264.1875 433.2344,1263.7188 Q433.2344,1263.4063 433.0156,1263.125 Q432.7969,1262.8438 432.2813,1262.6719 Q431.9531,1262.5469 430.7969,1262.3281 Q429.4063,1262.0625 428.6875,1261.7031 Q427.9688,1261.3438 427.5469,1260.6875 Q427.1406,1260.0156 427.1406,1259.2344 Q427.1406,1258.0156 428.1563,1257.1094 Q429.1875,1256.1875 430.8281,1256.1875 Q431.4844,1256.1875 432.0313,1256.3281 Q432.5938,1256.4688 433.0625,1256.7656 Q433.3906,1256.4531 433.7188,1256.4531 Q434.0938,1256.4531 434.3281,1256.7188 Q434.5625,1256.9688 434.5625,1257.5781 L434.5625,1258.8594 Q434.5625,1259.4688 434.3281,1259.7344 Q434.0938,1259.9844 433.7188,1259.9844 Q433.4063,1259.9844 433.1719,1259.7969 Q432.9844,1259.6563 432.8906,1259.2344 Q432.8125,1258.8125 432.6719,1258.625 Q432.4219,1258.3125 431.9375,1258.1094 Q431.4688,1257.8906 430.8281,1257.8906 Q429.9063,1257.8906 429.375,1258.3125 Q428.8438,1258.7344 428.8438,1259.2031 Q428.8438,1259.5156 429.0625,1259.8125 Q429.2813,1260.1094 429.7031,1260.2813 Q429.9844,1260.3906 431.2813,1260.6563 Q432.5938,1260.9063 433.2969,1261.2188 Q434,1261.5156 434.4688,1262.1719 Q434.9375,1262.8281 434.9375,1263.7344 Q434.9375,1265 434.0469,1265.75 Q432.8594,1266.75 431.0313,1266.75 Q430.3281,1266.75 429.6563,1266.5781 Q429,1266.4063 428.3594,1266.0625 Z " fill="#000000"/><text fill="#000000" font-family="sans-serif" font-size="14" lengthAdjust="spacing" textLength="127" x="450.75" y="1267.2285">ContentSearchFilter</text><line style="stroke:#181818;stroke-width:0.5;" x1="361" x2="635" y1="1277.5" y2="1277.5"/><ellipse cx="371" cy="1291.8047" fill="none" rx="3" ry="3" style="stroke:#038048;stroke-width:1.0;"/><text fill="#000000" font-family="sans-serif" font-size="14" lengthAdjust="spacing" textLength="145" x="380" y="1296.0332">DirContentType = ALL;</text><ellipse cx="371" cy="1309.4141" fill="none" rx="3" ry="3" style="stroke:#038048;stroke-width:1.0;"/><text fill="#000000" font-family="sans-serif" font-size="14" lengthAdjust="spacing" textLength="250" x="380" y="1313.6426">optional&lt;vector&lt;string&gt;&gt; fileExtensions;</text><ellipse cx="371" cy="1327.0234" fill="none" rx="3" ry="3" style="stroke:#038048;stroke-width:1.0;"/><text fill="#000000" font-family="sans-serif" font-size="14" lengthAdjust="spacing" textLength="136" x="380" y="1331.252">optional&lt;string&gt; filter;</text><line style="stroke:#181818;stroke-width:0.5;" x1="361" x2="635" y1="1338.3281" y2="1338.3281"/></g><!--class FilesystemModule--><g id="elem_FilesystemModule"><rect codeLine="25" fill="#F1F1F1" height="710.25" id="FilesystemModule" rx="2.5" ry="2.5" style="stroke:#181818;stroke-width:0.5;" width="580" x="22" y="467"/><ellipse cx="251.25" cy="488.3516" fill="#ADD1B2" rx="11" ry="11" style="stroke:#181818;stroke-width:1.0;"/><path d="M254.0156,484.2266 Q254.1719,484.0078 254.3594,483.8984 Q254.5469,483.7891 254.7656,483.7891 Q255.1406,483.7891 255.375,484.0547 Q255.6094,484.3047 255.6094,484.9141 L255.6094,486.3672 Q255.6094,486.9766 255.375,487.2422 Q255.1406,487.5078 254.7656,487.5078 Q254.4219,487.5078 254.2188,487.3047 Q254.0156,487.1172 253.9063,486.6016 Q253.8594,486.2422 253.6719,486.0547 Q253.3438,485.6797 252.7344,485.4609 Q252.125,485.2422 251.5,485.2422 Q250.7344,485.2422 250.0938,485.5703 Q249.4688,485.8984 248.9688,486.6484 Q248.4844,487.3984 248.4844,488.4297 L248.4844,489.5234 Q248.4844,490.7578 249.375,491.5859 Q250.2656,492.3984 251.8594,492.3984 Q252.7969,492.3984 253.4531,492.1484 Q253.8438,491.9922 254.2656,491.5547 Q254.5313,491.2891 254.6719,491.2109 Q254.8281,491.1328 255.0313,491.1328 Q255.3594,491.1328 255.6094,491.3984 Q255.875,491.6484 255.875,491.9922 Q255.875,492.3359 255.5313,492.7422 Q255.0313,493.3203 254.2344,493.6484 Q253.1563,494.1016 251.8594,494.1016 Q250.3438,494.1016 249.1406,493.4766 Q248.1563,492.9766 247.4688,491.9141 Q246.7813,490.8359 246.7813,489.5547 L246.7813,488.3984 Q246.7813,487.0703 247.3906,485.9297 Q248.0156,484.7734 249.1094,484.1641 Q250.2031,483.5391 251.4375,483.5391 Q252.1719,483.5391 252.8125,483.7109 Q253.4688,483.8672 254.0156,484.2266 Z " fill="#000000"/><text fill="#000000" font-family="sans-serif" font-size="12" font-style="italic" lengthAdjust="spacing" textLength="71" x="292.75" y="484.457">&#171;singletone&#187;</text><text fill="#000000" font-family="sans-serif" font-size="14" lengthAdjust="spacing" textLength="113" x="271.75" y="501.627">FilesystemModule</text><line style="stroke:#181818;stroke-width:0.5;" x1="23" x2="601" y1="509.7031" y2="509.7031"/><ellipse cx="33" cy="524.0078" fill="none" rx="3" ry="3" style="stroke:#038048;stroke-width:1.0;"/><text fill="#000000" font-family="sans-serif" font-size="14" lengthAdjust="spacing" textLength="259" x="42" y="528.2363">using constr = const string&amp;; &#171;type alias&#187;</text><line style="stroke:#181818;stroke-width:0.5;" x1="23" x2="601" y1="535.3125" y2="535.3125"/><rect fill="#F24D5C" height="6" style="stroke:#C82930;stroke-width:1.0;" width="6" x="30" y="546.6172"/><text fill="#000000" font-family="sans-serif" font-size="14" lengthAdjust="spacing" textLength="186" x="42" y="553.8457">FilesystemModule() = default;</text><ellipse cx="33" cy="567.2266" fill="#84BE84" rx="3" ry="3" style="stroke:#038048;stroke-width:1.0;"/><text fill="#000000" font-family="sans-serif" font-size="14" lengthAdjust="spacing" textLength="194" x="42" y="571.4551">~FilesystemModule() = default;</text><ellipse cx="33" cy="584.8359" fill="#84BE84" rx="3" ry="3" style="stroke:#038048;stroke-width:1.0;"/><text fill="#000000" font-family="sans-serif" font-size="14" lengthAdjust="spacing" textLength="250" x="42" y="589.0645">static FilesystemModule&amp; getInstance();</text><text fill="#000000" font-family="sans-serif" font-size="14" lengthAdjust="spacing" textLength="4" x="42" y="606.6738">&#160;</text><ellipse cx="33" cy="620.0547" fill="#84BE84" rx="3" ry="3" style="stroke:#038048;stroke-width:1.0;"/><text fill="#000000" font-family="sans-serif" font-size="14" lengthAdjust="spacing" textLength="98" x="42" y="624.2832">void startup() {}</text><ellipse cx="33" cy="637.6641" fill="#84BE84" rx="3" ry="3" style="stroke:#038048;stroke-width:1.0;"/><text fill="#000000" font-family="sans-serif" font-size="14" lengthAdjust="spacing" textLength="112" x="42" y="641.8926">void shutDown(){}</text><text fill="#000000" font-family="sans-serif" font-size="14" lengthAdjust="spacing" textLength="4" x="42" y="659.502">&#160;</text><ellipse cx="33" cy="672.8828" fill="#84BE84" rx="3" ry="3" style="stroke:#038048;stroke-width:1.0;"/><text fill="#000000" font-family="sans-serif" font-size="14" lengthAdjust="spacing" textLength="323" x="42" y="677.1113">FResult createFile(constr dirPath, constr fileName);</text><ellipse cx="33" cy="690.4922" fill="#84BE84" rx="3" ry="3" style="stroke:#038048;stroke-width:1.0;"/><text fill="#000000" font-family="sans-serif" font-size="14" lengthAdjust="spacing" textLength="355" x="42" y="694.7207">FResult createDirectory(constr dirPath, constr dirName);</text><ellipse cx="33" cy="708.1016" fill="#84BE84" rx="3" ry="3" style="stroke:#038048;stroke-width:1.0;"/><text fill="#000000" font-family="sans-serif" font-size="14" lengthAdjust="spacing" textLength="219" x="42" y="712.3301">FResult deleteFile(constr filePath);</text><ellipse cx="33" cy="725.7109" fill="#84BE84" rx="3" ry="3" style="stroke:#038048;stroke-width:1.0;"/><text fill="#000000" font-family="sans-serif" font-size="14" lengthAdjust="spacing" textLength="305" x="42" y="729.9395">FResult duplicateFileInDirectory(constr filePath);</text><ellipse cx="33" cy="743.3203" fill="#84BE84" rx="3" ry="3" style="stroke:#038048;stroke-width:1.0;"/><text fill="#000000" font-family="sans-serif" font-size="14" lengthAdjust="spacing" textLength="395" x="42" y="747.5488">FResult moveFileToDirectory(constr filePath, constr destPath);</text><ellipse cx="33" cy="760.9297" fill="#84BE84" rx="3" ry="3" style="stroke:#038048;stroke-width:1.0;"/><text fill="#000000" font-family="sans-serif" font-size="14" lengthAdjust="spacing" textLength="271" x="42" y="765.1582">FResult copyAbsolutePath(constr filePath);</text><ellipse cx="33" cy="778.5391" fill="#84BE84" rx="3" ry="3" style="stroke:#038048;stroke-width:1.0;"/><text fill="#000000" font-family="sans-serif" font-size="14" lengthAdjust="spacing" textLength="267" x="42" y="782.7676">FResult copyRelativePath(constr filePath);</text><text fill="#000000" font-family="sans-serif" font-size="14" lengthAdjust="spacing" textLength="4" x="42" y="800.377">&#160;</text><ellipse cx="33" cy="813.7578" fill="#84BE84" rx="3" ry="3" style="stroke:#038048;stroke-width:1.0;"/><text fill="#000000" font-family="sans-serif" font-size="14" lengthAdjust="spacing" textLength="334" x="42" y="817.9863">FResult writeTextFile(constr filePath, constr content);</text><ellipse cx="33" cy="831.3672" fill="#84BE84" rx="3" ry="3" style="stroke:#038048;stroke-width:1.0;"/><text fill="#000000" font-family="sans-serif" font-size="14" lengthAdjust="spacing" textLength="370" x="42" y="835.5957">FResult appendToTextFile(constr filePath, constr content);</text><ellipse cx="33" cy="848.9766" fill="#84BE84" rx="3" ry="3" style="stroke:#038048;stroke-width:1.0;"/><text fill="#000000" font-family="sans-serif" font-size="14" lengthAdjust="spacing" textLength="461" x="42" y="853.2051">FResult writeBinaryFile(constr filePath, const std::vector&lt;uint8_t&gt;&amp; data);</text><ellipse cx="33" cy="866.5859" fill="#84BE84" rx="3" ry="3" style="stroke:#038048;stroke-width:1.0;"/><text fill="#000000" font-family="sans-serif" font-size="14" lengthAdjust="spacing" textLength="497" x="42" y="870.8145">FResult appendToBinaryFile(constr filePath, const std::vector&lt;uint8_t&gt;&amp; data);</text><text fill="#000000" font-family="sans-serif" font-size="14" lengthAdjust="spacing" textLength="4" x="42" y="888.4238">&#160;</text><ellipse cx="33" cy="901.8047" fill="#84BE84" rx="3" ry="3" style="stroke:#038048;stroke-width:1.0;"/><text fill="#000000" font-family="sans-serif" font-size="14" lengthAdjust="spacing" textLength="325" x="42" y="906.0332">std::vector&lt;uint8_t&gt; readBinaryFile(constr filePath);</text><ellipse cx="33" cy="919.4141" fill="#84BE84" rx="3" ry="3" style="stroke:#038048;stroke-width:1.0;"/><text fill="#000000" font-family="sans-serif" font-size="14" lengthAdjust="spacing" textLength="249" x="42" y="923.6426">std::string readTextFile(constr filePath);</text><text fill="#000000" font-family="sans-serif" font-size="14" lengthAdjust="spacing" textLength="4" x="42" y="941.252">&#160;</text><ellipse cx="33" cy="954.6328" fill="#84BE84" rx="3" ry="3" style="stroke:#038048;stroke-width:1.0;"/><text fill="#000000" font-family="sans-serif" font-size="14" lengthAdjust="spacing" textLength="346" x="42" y="958.8613">std::string getEngineAbsolutePath(constr relativePath);</text><ellipse cx="33" cy="972.2422" fill="#84BE84" rx="3" ry="3" style="stroke:#038048;stroke-width:1.0;"/><text fill="#000000" font-family="sans-serif" font-size="14" lengthAdjust="spacing" textLength="177" x="42" y="976.4707">std::string getCurrentPath();</text><ellipse cx="33" cy="989.8516" fill="#84BE84" rx="3" ry="3" style="stroke:#038048;stroke-width:1.0;"/><text fill="#000000" font-family="sans-serif" font-size="14" lengthAdjust="spacing" textLength="249" x="42" y="994.0801">std::string getFileName(constr filePath);</text><ellipse cx="33" cy="1007.4609" fill="#84BE84" rx="3" ry="3" style="stroke:#038048;stroke-width:1.0;"/><text fill="#000000" font-family="sans-serif" font-size="14" lengthAdjust="spacing" textLength="281" x="42" y="1011.6895">std::string getFileExtensions(constr filePath);</text><ellipse cx="33" cy="1025.0703" fill="#84BE84" rx="3" ry="3" style="stroke:#038048;stroke-width:1.0;"/><text fill="#000000" font-family="sans-serif" font-size="14" lengthAdjust="spacing" textLength="351" x="42" y="1029.2988">std::string getRelativeToTheResources(constr filePath);</text><text fill="#000000" font-family="sans-serif" font-size="14" lengthAdjust="spacing" textLength="4" x="42" y="1046.9082">&#160;</text><ellipse cx="33" cy="1060.2891" fill="#84BE84" rx="3" ry="3" style="stroke:#038048;stroke-width:1.0;"/><text fill="#000000" font-family="sans-serif" font-size="14" lengthAdjust="spacing" textLength="213" x="42" y="1064.5176">size_t getFileSize(constr filePath);</text><ellipse cx="33" cy="1077.8984" fill="#84BE84" rx="3" ry="3" style="stroke:#038048;stroke-width:1.0;"/><text fill="#000000" font-family="sans-serif" font-size="14" lengthAdjust="spacing" textLength="554" x="42" y="1082.127">std::vector &lt;std::string&gt; getDirectoryContents(constr dirPath, ContentSearchFilter filter);</text><ellipse cx="33" cy="1095.5078" fill="#84BE84" rx="3" ry="3" style="stroke:#038048;stroke-width:1.0;"/><text fill="#000000" font-family="sans-serif" font-size="14" lengthAdjust="spacing" textLength="344" x="42" y="1099.7363">uint64_t getFolderModificationTime(constr folderPath);</text><text fill="#000000" font-family="sans-serif" font-size="14" lengthAdjust="spacing" textLength="4" x="42" y="1117.3457">&#160;</text><ellipse cx="33" cy="1130.7266" fill="#84BE84" rx="3" ry="3" style="stroke:#038048;stroke-width:1.0;"/><text fill="#000000" font-family="sans-serif" font-size="14" lengthAdjust="spacing" textLength="191" x="42" y="1134.9551">bool isPathExists(constr path);</text><ellipse cx="33" cy="1148.3359" fill="#84BE84" rx="3" ry="3" style="stroke:#038048;stroke-width:1.0;"/><text fill="#000000" font-family="sans-serif" font-size="14" lengthAdjust="spacing" textLength="149" x="42" y="1152.5645">bool isFile(constr path);</text><ellipse cx="33" cy="1165.9453" fill="#84BE84" rx="3" ry="3" style="stroke:#038048;stroke-width:1.0;"/><text fill="#000000" font-family="sans-serif" font-size="14" lengthAdjust="spacing" textLength="183" x="42" y="1170.1738">bool isDirectory(constr path);</text></g><!--class DirectoryIterator--><g id="elem_DirectoryIterator"><rect codeLine="71" fill="#F1F1F1" height="364.9688" id="DirectoryIterator" rx="2.5" ry="2.5" style="stroke:#181818;stroke-width:0.5;" width="482" x="71" y="42"/><ellipse cx="256.75" cy="58" fill="#ADD1B2" rx="11" ry="11" style="stroke:#181818;stroke-width:1.0;"/><path d="M259.5156,53.875 Q259.6719,53.6563 259.8594,53.5469 Q260.0469,53.4375 260.2656,53.4375 Q260.6406,53.4375 260.875,53.7031 Q261.1094,53.9531 261.1094,54.5625 L261.1094,56.0156 Q261.1094,56.625 260.875,56.8906 Q260.6406,57.1563 260.2656,57.1563 Q259.9219,57.1563 259.7188,56.9531 Q259.5156,56.7656 259.4063,56.25 Q259.3594,55.8906 259.1719,55.7031 Q258.8438,55.3281 258.2344,55.1094 Q257.625,54.8906 257,54.8906 Q256.2344,54.8906 255.5938,55.2188 Q254.9688,55.5469 254.4688,56.2969 Q253.9844,57.0469 253.9844,58.0781 L253.9844,59.1719 Q253.9844,60.4063 254.875,61.2344 Q255.7656,62.0469 257.3594,62.0469 Q258.2969,62.0469 258.9531,61.7969 Q259.3438,61.6406 259.7656,61.2031 Q260.0313,60.9375 260.1719,60.8594 Q260.3281,60.7813 260.5313,60.7813 Q260.8594,60.7813 261.1094,61.0469 Q261.375,61.2969 261.375,61.6406 Q261.375,61.9844 261.0313,62.3906 Q260.5313,62.9688 259.7344,63.2969 Q258.6563,63.75 257.3594,63.75 Q255.8438,63.75 254.6406,63.125 Q253.6563,62.625 252.9688,61.5625 Q252.2813,60.4844 252.2813,59.2031 L252.2813,58.0469 Q252.2813,56.7188 252.8906,55.5781 Q253.5156,54.4219 254.6094,53.8125 Q255.7031,53.1875 256.9375,53.1875 Q257.6719,53.1875 258.3125,53.3594 Q258.9688,53.5156 259.5156,53.875 Z " fill="#000000"/><text fill="#000000" font-family="sans-serif" font-size="14" lengthAdjust="spacing" textLength="102" x="277.25" y="63.7285">DirectoryIterator</text><line style="stroke:#181818;stroke-width:0.5;" x1="72" x2="552" y1="74" y2="74"/><rect fill="none" height="6" style="stroke:#C82930;stroke-width:1.0;" width="6" x="79" y="85.3047"/><text fill="#000000" font-family="sans-serif" font-size="14" lengthAdjust="spacing" textLength="242" x="91" y="92.5332">optional&lt;uint64_t&gt; m_dirLastEditTime;</text><rect fill="none" height="6" style="stroke:#C82930;stroke-width:1.0;" width="6" x="79" y="102.9141"/><text fill="#000000" font-family="sans-serif" font-size="14" lengthAdjust="spacing" textLength="128" x="91" y="110.1426">fs::path m_rootPath;</text><rect fill="none" height="6" style="stroke:#C82930;stroke-width:1.0;" width="6" x="79" y="120.5234"/><text fill="#000000" font-family="sans-serif" font-size="14" lengthAdjust="spacing" textLength="148" x="91" y="127.752">fs::path m_currentPath;</text><text fill="#000000" font-family="sans-serif" font-size="14" lengthAdjust="spacing" textLength="4" x="91" y="145.3613">&#160;</text><ellipse cx="82" cy="158.7422" fill="none" rx="3" ry="3" style="stroke:#038048;stroke-width:1.0;"/><text fill="#000000" font-family="sans-serif" font-size="14" lengthAdjust="spacing" textLength="286" x="91" y="162.9707">using constr = const std::string&amp;; &#171;type alias&#187;</text><line style="stroke:#181818;stroke-width:0.5;" x1="72" x2="552" y1="170.0469" y2="170.0469"/><ellipse cx="82" cy="184.3516" fill="#84BE84" rx="3" ry="3" style="stroke:#038048;stroke-width:1.0;"/><text fill="#000000" font-family="sans-serif" font-size="14" lengthAdjust="spacing" textLength="116" x="91" y="188.5801">DirectoryIterator();</text><ellipse cx="82" cy="201.9609" fill="#84BE84" rx="3" ry="3" style="stroke:#038048;stroke-width:1.0;"/><text fill="#000000" font-family="sans-serif" font-size="14" lengthAdjust="spacing" textLength="232" x="91" y="206.1895">DirectoryIterator(constr startupPath);</text><text fill="#000000" font-family="sans-serif" font-size="14" lengthAdjust="spacing" textLength="4" x="91" y="223.7988">&#160;</text><ellipse cx="82" cy="237.1797" fill="#84BE84" rx="3" ry="3" style="stroke:#038048;stroke-width:1.0;"/><text fill="#000000" font-family="sans-serif" font-size="14" lengthAdjust="spacing" textLength="147" x="91" y="241.4082">FResult stepIntoRoot();</text><ellipse cx="82" cy="254.7891" fill="#84BE84" rx="3" ry="3" style="stroke:#038048;stroke-width:1.0;"/><text fill="#000000" font-family="sans-serif" font-size="14" lengthAdjust="spacing" textLength="159" x="91" y="259.0176">FResult stepIntoParent();</text><ellipse cx="82" cy="272.3984" fill="#84BE84" rx="3" ry="3" style="stroke:#038048;stroke-width:1.0;"/><text fill="#000000" font-family="sans-serif" font-size="14" lengthAdjust="spacing" textLength="273" x="91" y="276.627">FResult stepIntoFolder(constr folderName);</text><text fill="#000000" font-family="sans-serif" font-size="14" lengthAdjust="spacing" textLength="4" x="91" y="294.2363">&#160;</text><ellipse cx="82" cy="307.6172" fill="#84BE84" rx="3" ry="3" style="stroke:#038048;stroke-width:1.0;"/><text fill="#000000" font-family="sans-serif" font-size="14" lengthAdjust="spacing" textLength="175" x="91" y="311.8457">string getCurrentDirName();</text><ellipse cx="82" cy="325.2266" fill="#84BE84" rx="3" ry="3" style="stroke:#038048;stroke-width:1.0;"/><text fill="#000000" font-family="sans-serif" font-size="14" lengthAdjust="spacing" textLength="139" x="91" y="329.4551">string getCurrentDir();</text><ellipse cx="82" cy="342.8359" fill="#84BE84" rx="3" ry="3" style="stroke:#038048;stroke-width:1.0;"/><text fill="#000000" font-family="sans-serif" font-size="14" lengthAdjust="spacing" textLength="343" x="91" y="347.0645">string getCurrentDirWithAppend(constr appendName);</text><ellipse cx="82" cy="360.4453" fill="#84BE84" rx="3" ry="3" style="stroke:#038048;stroke-width:1.0;"/><text fill="#000000" font-family="sans-serif" font-size="14" lengthAdjust="spacing" textLength="456" x="91" y="364.6738">vector&lt;string&gt; getCurrentDirContents(const ContentSearchFilter&amp; filter);</text><ellipse cx="82" cy="378.0547" fill="#84BE84" rx="3" ry="3" style="stroke:#038048;stroke-width:1.0;"/><text fill="#000000" font-family="sans-serif" font-size="14" lengthAdjust="spacing" textLength="114" x="91" y="382.2832">bool isRootPath();</text><ellipse cx="82" cy="395.6641" fill="#84BE84" rx="3" ry="3" style="stroke:#038048;stroke-width:1.0;"/><text fill="#000000" font-family="sans-serif" font-size="14" lengthAdjust="spacing" textLength="179" x="91" y="399.8926">bool isCurrentDirChanged();</text></g><!--reverse link FilesystemModule to FResult--><g id="link_FilesystemModule_FResult"><path codeLine="67" d="M142.8956,1182.5391 C132.4456,1204.7491 125.44,1219.64 117.31,1236.93 " fill="none" id="FilesystemModule-backto-FResult" style="stroke:#181818;stroke-width:1.0;stroke-dasharray:7.0,7.0;"/><polygon fill="#181818" points="145.45,1177.11,137.999,1183.5507,143.3213,1181.6342,145.2377,1186.9566,145.45,1177.11" style="stroke:#181818;stroke-width:1.0;"/></g><!--reverse link FilesystemModule to DirContentType--><g id="link_FilesystemModule_DirContentType"><path codeLine="68" d="M271.5703,1183.0725 C268.6603,1208.9825 266.71,1226.37 264.58,1245.32 " fill="none" id="FilesystemModule-backto-DirContentType" style="stroke:#181818;stroke-width:1.0;stroke-dasharray:7.0,7.0;"/><polygon fill="#181818" points="272.24,1177.11,267.2605,1185.6073,271.6819,1182.0788,275.2105,1186.5002,272.24,1177.11" style="stroke:#181818;stroke-width:1.0;"/></g><!--reverse link FilesystemModule to ContentSearchFilter--><g id="link_FilesystemModule_ContentSearchFilter"><path codeLine="69" d="M453.7397,1182.6922 C463.9497,1208.6022 470.95,1226.37 478.42,1245.32 " fill="none" id="FilesystemModule-backto-ContentSearchFilter" style="stroke:#181818;stroke-width:1.0;stroke-dasharray:7.0,7.0;"/><polygon fill="#181818" points="451.54,1177.11,451.1181,1186.9498,453.3731,1181.7619,458.5611,1184.0169,451.54,1177.11" style="stroke:#181818;stroke-width:1.0;"/></g><!--reverse link DirectoryIterator to FilesystemModule--><g id="link_DirectoryIterator_FilesystemModule"><path codeLine="94" d="M312,413 C312,432.33 312,446.43 312,466.91 " fill="none" id="DirectoryIterator-backto-FilesystemModule" style="stroke:#181818;stroke-width:1.0;stroke-dasharray:7.0,7.0;"/><polygon fill="#181818" points="312,407,308,416,312,412,316,416,312,407" style="stroke:#181818;stroke-width:1.0;"/></g><!--SRC=[fLPRRzem57xlh_0J0dNjqpHDm90O12qIOnNGNPwGcnYm5kp8Fg5b5VljEquCSMwqK_EKsESxtxcVn3JuJJUCJ7Z4z443stsLOHAng-ShWWyJoOvCvamd4QG7sR5v5lUZaRTOl3iV3ATpRpZ-jV9- -ekbS-xFlW-d_dXrDrn-oK_lPsDlui_6wS7nAcSRSpMI0fY0vI5c9TBXT9ghcFXJp-6PV9kElVd2LQX19G4Ggs_1g0gsw2amLT9xNMGbdmnJBx-MCN0fQDJVim2awgDYBZQ30LbZtBmdn6cyrtK8AseaaRVdcXT4LEjAw4c_hn4HCP223GObIs_AukqEMXkoDSKKvVov8ObHHWAq3XHAfYyaCwhLGoum_jA8KurSEUplwtYkDL3WGSM95jamy96AYW2XFKVpNl8G3Q0AaXYLFX_BLzi4nl9Hj3lFHmTcgv04Yb5WXgzjdGgvkgEmVNToqkHaHdUiqsj2OxRJF1wQLE1tauQGOMOA_8RFe6kbapZYWJNO5nNYIzYTtAUmfMo4vGOp3Krw0XaVXWzQHWcaeDTm6yoSHPZRVHEc2dfK7DYIFK5TTCwc1bcVrR7IE6OYNCgtw4YD-Cm5LOSBAh00msxNTdF21NnSmQ15GWhqac5lrEksJLMCO6s6pGoTNWcUDN6AQWfObTE2i3iziU62rHM6SXBVn8eAHebIc8GKUK5iOjlnjVvOI3vL_mDuAbaieIt3tCb41KnVZWh_mrPmObtWrujyMTv8to4V60NdDhMhH5V6Iyqciel19J45yU6zDKf68LCuLFdQp16Cnv8xiKnlApuzI1aHhisvzyHrRaXSSiSAkgNJ858PGOvSDi6hU-psjl3lK2jGi-vhvUfskBD4p-RvU47nfRmsp_lu5Dm1sQqmBrEgmGivcAZcNj-iTRThF4GX9MLQu_MtGTu4RWOQjkwvNYwjteelXUwgtbeMkr8RfpC6DFO5o3dwqwuRSYU1EseykYYILMMn2kt2T7kbD2d6sLOj3Okgq8i2FpXiX-b8FfcG3UZopYx-hHLr57kqhhvQDQrfks5kQw9TS-TGRAdOiB3TAVprLHAODKhv1_pu3m00]--></g></svg>