<?xml version="1.0" encoding="us-ascii" standalone="no"?><svg xmlns="http://www.w3.org/2000/svg" xmlns:xlink="http://www.w3.org/1999/xlink" contentStyleType="text/css" height="1844px" preserveAspectRatio="none" style="width:3172px;height:1844px;background:#FFFFFF;" version="1.1" viewBox="0 0 3172 1844" width="3172px" zoomAndPan="magnify"><defs/><g><!--cluster ResourceManagementSubsystem--><g id="cluster_ResourceManagementSubsystem"><path d="M8.5,6 L244.5,6 A3.75,3.75 0 0 1 247,8.5 L254,29.6094 L3162.5,29.6094 A2.5,2.5 0 0 1 3165,32.1094 L3165,1834.5 A2.5,2.5 0 0 1 3162.5,1837 L8.5,1837 A2.5,2.5 0 0 1 6,1834.5 L6,8.5 A2.5,2.5 0 0 1 8.5,6 " fill="none" style="stroke:#000000;stroke-width:1.5;"/><line style="stroke:#000000;stroke-width:1.5;" x1="6" x2="254" y1="29.6094" y2="29.6094"/><text fill="#000000" font-family="sans-serif" font-size="14" font-weight="bold" lengthAdjust="spacing" textLength="235" x="10" y="22.5332">ResourceManagementSubsystem</text></g><!--cluster FilesystemModule--><g id="cluster_FilesystemModule"><path d="M2465.5,366 L2594.5,366 A3.75,3.75 0 0 1 2597,368.5 L2604,389.6094 L3130.5,389.6094 A2.5,2.5 0 0 1 3133,392.1094 L3133,1753.5 A2.5,2.5 0 0 1 3130.5,1756 L2465.5,1756 A2.5,2.5 0 0 1 2463,1753.5 L2463,368.5 A2.5,2.5 0 0 1 2465.5,366 " fill="none" style="stroke:#000000;stroke-width:1.5;"/><line style="stroke:#000000;stroke-width:1.5;" x1="2463" x2="2604" y1="389.6094" y2="389.6094"/><text fill="#000000" font-family="sans-serif" font-size="14" font-weight="bold" lengthAdjust="spacing" textLength="128" x="2467" y="382.5332">FilesystemModule</text></g><!--cluster ResourceModule--><g id="cluster_ResourceModule"><path d="M40.5,429.5 L162.5,429.5 A3.75,3.75 0 0 1 165,432 L172,453.1094 L2420.5,453.1094 A2.5,2.5 0 0 1 2423,455.6094 L2423,1802.5 A2.5,2.5 0 0 1 2420.5,1805 L40.5,1805 A2.5,2.5 0 0 1 38,1802.5 L38,432 A2.5,2.5 0 0 1 40.5,429.5 " fill="none" style="stroke:#000000;stroke-width:1.5;"/><line style="stroke:#000000;stroke-width:1.5;" x1="38" x2="172" y1="453.1094" y2="453.1094"/><text fill="#000000" font-family="sans-serif" font-size="14" font-weight="bold" lengthAdjust="spacing" textLength="121" x="42" y="446.0332">ResourceModule</text></g><!--cluster Resources--><g id="cluster_Resources"><path d="M88.5,489.5 L165.5,489.5 A3.75,3.75 0 0 1 168,492 L175,513.1094 L1428.5,513.1094 A2.5,2.5 0 0 1 1431,515.6094 L1431,1762.5 A2.5,2.5 0 0 1 1428.5,1765 L88.5,1765 A2.5,2.5 0 0 1 86,1762.5 L86,492 A2.5,2.5 0 0 1 88.5,489.5 " fill="none" style="stroke:#000000;stroke-width:1.5;"/><line style="stroke:#000000;stroke-width:1.5;" x1="86" x2="175" y1="513.1094" y2="513.1094"/><text fill="#000000" font-family="sans-serif" font-size="14" font-weight="bold" lengthAdjust="spacing" textLength="76" x="90" y="506.0332">Resources</text></g><!--cluster ResourceManagement--><g id="cluster_ResourceManagement"><path d="M1473.5,1002 L1633.5,1002 A3.75,3.75 0 0 1 1636,1004.5 L1643,1025.6094 L2380.5,1025.6094 A2.5,2.5 0 0 1 2383,1028.1094 L2383,1762.5 A2.5,2.5 0 0 1 2380.5,1765 L1473.5,1765 A2.5,2.5 0 0 1 1471,1762.5 L1471,1004.5 A2.5,2.5 0 0 1 1473.5,1002 " fill="none" style="stroke:#000000;stroke-width:1.5;"/><line style="stroke:#000000;stroke-width:1.5;" x1="1471" x2="1643" y1="1025.6094" y2="1025.6094"/><text fill="#000000" font-family="sans-serif" font-size="14" font-weight="bold" lengthAdjust="spacing" textLength="159" x="1475" y="1018.5332">ResourceManagement</text></g><!--cluster ShaderCompilerModule--><g id="cluster_ShaderCompilerModule"><path d="M40.5,58 L207.5,58 A3.75,3.75 0 0 1 210,60.5 L217,81.6094 L590.5,81.6094 A2.5,2.5 0 0 1 593,84.1094 L593,323.5 A2.5,2.5 0 0 1 590.5,326 L40.5,326 A2.5,2.5 0 0 1 38,323.5 L38,60.5 A2.5,2.5 0 0 1 40.5,58 " fill="none" style="stroke:#000000;stroke-width:1.5;"/><line style="stroke:#000000;stroke-width:1.5;" x1="38" x2="217" y1="81.6094" y2="81.6094"/><text fill="#000000" font-family="sans-serif" font-size="14" font-weight="bold" lengthAdjust="spacing" textLength="166" x="42" y="74.5332">ShaderCompilerModule</text></g><!--class FResult--><g id="elem_FResult"><rect codeLine="3" fill="#F1F1F1" height="118.4375" id="FResult" rx="2.5" ry="2.5" style="stroke:#181818;stroke-width:0.5;" width="135" x="2495.5" y="1614"/><ellipse cx="2534.8" cy="1630" fill="#EB937F" rx="11" ry="11" style="stroke:#181818;stroke-width:1.0;"/><path d="M2533.6594,1630.7969 L2533.6594,1633.2969 L2537.9875,1633.2969 L2537.9875,1632.375 Q2537.9875,1631.7656 2538.2219,1631.5 Q2538.4719,1631.2344 2538.8469,1631.2344 Q2539.2219,1631.2344 2539.4563,1631.5 Q2539.6906,1631.7656 2539.6906,1632.375 L2539.6906,1635 L2531.6906,1635 Q2531.0656,1635 2530.8,1634.7656 Q2530.55,1634.5313 2530.55,1634.1406 Q2530.55,1633.7656 2530.8156,1633.5313 Q2531.0813,1633.2969 2531.6906,1633.2969 L2531.9563,1633.2969 L2531.9563,1626.6406 L2531.6906,1626.6406 Q2531.0656,1626.6406 2530.8,1626.4063 Q2530.55,1626.1719 2530.55,1625.7813 Q2530.55,1625.4063 2530.8,1625.1719 Q2531.0656,1624.9375 2531.6906,1624.9375 L2539.3156,1624.9375 L2539.3156,1627.5313 Q2539.3156,1628.1406 2539.0813,1628.4063 Q2538.8625,1628.6563 2538.4719,1628.6563 Q2538.0969,1628.6563 2537.8625,1628.4063 Q2537.6281,1628.1406 2537.6281,1627.5313 L2537.6281,1626.6406 L2533.6594,1626.6406 L2533.6594,1629.0938 L2535.1438,1629.0938 Q2535.1438,1628.4375 2535.2688,1628.25 Q2535.5344,1627.8438 2536.0031,1627.8438 Q2536.3781,1627.8438 2536.6125,1628.1094 Q2536.8469,1628.3594 2536.8469,1628.9688 L2536.8469,1630.9375 Q2536.8469,1631.4844 2536.7219,1631.6719 Q2536.4563,1632.0625 2536.0031,1632.0625 Q2535.5344,1632.0625 2535.2688,1631.6563 Q2535.1438,1631.4688 2535.1438,1630.7969 L2533.6594,1630.7969 Z " fill="#000000"/><text fill="#000000" font-family="sans-serif" font-size="14" lengthAdjust="spacing" textLength="49" x="2554.2" y="1635.7285">FResult</text><line style="stroke:#181818;stroke-width:0.5;" x1="2496.5" x2="2629.5" y1="1646" y2="1646"/><text fill="#000000" font-family="sans-serif" font-size="14" lengthAdjust="spacing" textLength="69" x="2501.5" y="1664.5332">SUCCESS,</text><text fill="#000000" font-family="sans-serif" font-size="14" lengthAdjust="spacing" textLength="123" x="2501.5" y="1682.1426">ALREADY_EXISTS,</text><text fill="#000000" font-family="sans-serif" font-size="14" lengthAdjust="spacing" textLength="99" x="2501.5" y="1699.752">INVALID_PATH,</text><text fill="#000000" font-family="sans-serif" font-size="14" lengthAdjust="spacing" textLength="68" x="2501.5" y="1717.3613">UNDEFIND</text><line style="stroke:#181818;stroke-width:0.5;" x1="2496.5" x2="2629.5" y1="1724.4375" y2="1724.4375"/></g><!--class DirContentType--><g id="elem_DirContentType"><rect codeLine="11" fill="#F1F1F1" height="100.8281" id="DirContentType" rx="2.5" ry="2.5" style="stroke:#181818;stroke-width:0.5;" width="132" x="2666" y="1622.5"/><ellipse cx="2681" cy="1638.5" fill="#EB937F" rx="11" ry="11" style="stroke:#181818;stroke-width:1.0;"/><path d="M2679.8594,1639.2969 L2679.8594,1641.7969 L2684.1875,1641.7969 L2684.1875,1640.875 Q2684.1875,1640.2656 2684.4219,1640 Q2684.6719,1639.7344 2685.0469,1639.7344 Q2685.4219,1639.7344 2685.6563,1640 Q2685.8906,1640.2656 2685.8906,1640.875 L2685.8906,1643.5 L2677.8906,1643.5 Q2677.2656,1643.5 2677,1643.2656 Q2676.75,1643.0313 2676.75,1642.6406 Q2676.75,1642.2656 2677.0156,1642.0313 Q2677.2813,1641.7969 2677.8906,1641.7969 L2678.1563,1641.7969 L2678.1563,1635.1406 L2677.8906,1635.1406 Q2677.2656,1635.1406 2677,1634.9063 Q2676.75,1634.6719 2676.75,1634.2813 Q2676.75,1633.9063 2677,1633.6719 Q2677.2656,1633.4375 2677.8906,1633.4375 L2685.5156,1633.4375 L2685.5156,1636.0313 Q2685.5156,1636.6406 2685.2813,1636.9063 Q2685.0625,1637.1563 2684.6719,1637.1563 Q2684.2969,1637.1563 2684.0625,1636.9063 Q2683.8281,1636.6406 2683.8281,1636.0313 L2683.8281,1635.1406 L2679.8594,1635.1406 L2679.8594,1637.5938 L2681.3438,1637.5938 Q2681.3438,1636.9375 2681.4688,1636.75 Q2681.7344,1636.3438 2682.2031,1636.3438 Q2682.5781,1636.3438 2682.8125,1636.6094 Q2683.0469,1636.8594 2683.0469,1637.4688 L2683.0469,1639.4375 Q2683.0469,1639.9844 2682.9219,1640.1719 Q2682.6563,1640.5625 2682.2031,1640.5625 Q2681.7344,1640.5625 2681.4688,1640.1563 Q2681.3438,1639.9688 2681.3438,1639.2969 L2679.8594,1639.2969 Z " fill="#000000"/><text fill="#000000" font-family="sans-serif" font-size="14" lengthAdjust="spacing" textLength="100" x="2695" y="1644.2285">DirContentType</text><line style="stroke:#181818;stroke-width:0.5;" x1="2667" x2="2797" y1="1654.5" y2="1654.5"/><text fill="#000000" font-family="sans-serif" font-size="14" lengthAdjust="spacing" textLength="29" x="2672" y="1673.0332">ALL,</text><text fill="#000000" font-family="sans-serif" font-size="14" lengthAdjust="spacing" textLength="42" x="2672" y="1690.6426">FILES,</text><text fill="#000000" font-family="sans-serif" font-size="14" lengthAdjust="spacing" textLength="66" x="2672" y="1708.252">FOLDERS</text><line style="stroke:#181818;stroke-width:0.5;" x1="2667" x2="2797" y1="1715.3281" y2="1715.3281"/></g><!--class ContentSearchFilter--><g id="elem_ContentSearchFilter"><rect codeLine="18" fill="#F1F1F1" height="100.8281" id="ContentSearchFilter" rx="2.5" ry="2.5" style="stroke:#181818;stroke-width:0.5;" width="276" x="2833" y="1622.5"/><ellipse cx="2903.25" cy="1638.5" fill="#F1F1F1" rx="11" ry="11" style="stroke:#181818;stroke-width:1.0;"/><path d="M2901.3594,1643.0625 Q2901.1406,1643.3281 2901,1643.4063 Q2900.8594,1643.4844 2900.6719,1643.4844 Q2900.2813,1643.4844 2900.0313,1643.2188 Q2899.7969,1642.9531 2899.7969,1642.3594 L2899.7969,1641.2031 Q2899.7969,1640.5938 2900.0313,1640.3438 Q2900.2813,1640.0781 2900.6719,1640.0781 Q2900.9688,1640.0781 2901.1719,1640.2344 Q2901.375,1640.3906 2901.4844,1640.7656 Q2901.5938,1641.125 2901.7031,1641.2656 Q2901.9531,1641.5156 2902.5625,1641.7813 Q2903.1719,1642.0469 2903.9063,1642.0469 Q2905.0469,1642.0469 2905.7656,1641.5156 Q2906.2344,1641.1875 2906.2344,1640.7188 Q2906.2344,1640.4063 2906.0156,1640.125 Q2905.7969,1639.8438 2905.2813,1639.6719 Q2904.9531,1639.5469 2903.7969,1639.3281 Q2902.4063,1639.0625 2901.6875,1638.7031 Q2900.9688,1638.3438 2900.5469,1637.6875 Q2900.1406,1637.0156 2900.1406,1636.2344 Q2900.1406,1635.0156 2901.1563,1634.1094 Q2902.1875,1633.1875 2903.8281,1633.1875 Q2904.4844,1633.1875 2905.0313,1633.3281 Q2905.5938,1633.4688 2906.0625,1633.7656 Q2906.3906,1633.4531 2906.7188,1633.4531 Q2907.0938,1633.4531 2907.3281,1633.7188 Q2907.5625,1633.9688 2907.5625,1634.5781 L2907.5625,1635.8594 Q2907.5625,1636.4688 2907.3281,1636.7344 Q2907.0938,1636.9844 2906.7188,1636.9844 Q2906.4063,1636.9844 2906.1719,1636.7969 Q2905.9844,1636.6563 2905.8906,1636.2344 Q2905.8125,1635.8125 2905.6719,1635.625 Q2905.4219,1635.3125 2904.9375,1635.1094 Q2904.4688,1634.8906 2903.8281,1634.8906 Q2902.9063,1634.8906 2902.375,1635.3125 Q2901.8438,1635.7344 2901.8438,1636.2031 Q2901.8438,1636.5156 2902.0625,1636.8125 Q2902.2813,1637.1094 2902.7031,1637.2813 Q2902.9844,1637.3906 2904.2813,1637.6563 Q2905.5938,1637.9063 2906.2969,1638.2188 Q2907,1638.5156 2907.4688,1639.1719 Q2907.9375,1639.8281 2907.9375,1640.7344 Q2907.9375,1642 2907.0469,1642.75 Q2905.8594,1643.75 2904.0313,1643.75 Q2903.3281,1643.75 2902.6563,1643.5781 Q2902,1643.4063 2901.3594,1643.0625 Z " fill="#000000"/><text fill="#000000" font-family="sans-serif" font-size="14" lengthAdjust="spacing" textLength="127" x="2923.75" y="1644.2285">ContentSearchFilter</text><line style="stroke:#181818;stroke-width:0.5;" x1="2834" x2="3108" y1="1654.5" y2="1654.5"/><ellipse cx="2844" cy="1668.8047" fill="none" rx="3" ry="3" style="stroke:#038048;stroke-width:1.0;"/><text fill="#000000" font-family="sans-serif" font-size="14" lengthAdjust="spacing" textLength="145" x="2853" y="1673.0332">DirContentType = ALL;</text><ellipse cx="2844" cy="1686.4141" fill="none" rx="3" ry="3" style="stroke:#038048;stroke-width:1.0;"/><text fill="#000000" font-family="sans-serif" font-size="14" lengthAdjust="spacing" textLength="250" x="2853" y="1690.6426">optional&lt;vector&lt;string&gt;&gt; fileExtensions;</text><ellipse cx="2844" cy="1704.0234" fill="none" rx="3" ry="3" style="stroke:#038048;stroke-width:1.0;"/><text fill="#000000" font-family="sans-serif" font-size="14" lengthAdjust="spacing" textLength="136" x="2853" y="1708.252">optional&lt;string&gt; filter;</text><line style="stroke:#181818;stroke-width:0.5;" x1="2834" x2="3108" y1="1715.3281" y2="1715.3281"/></g><!--class FilesystemModule--><g id="elem_FilesystemModule"><rect codeLine="25" fill="#F1F1F1" height="710.25" id="FilesystemModule" rx="2.5" ry="2.5" style="stroke:#181818;stroke-width:0.5;" width="580" x="2495" y="835"/><ellipse cx="2724.25" cy="856.3516" fill="#ADD1B2" rx="11" ry="11" style="stroke:#181818;stroke-width:1.0;"/><path d="M2727.0156,852.2266 Q2727.1719,852.0078 2727.3594,851.8984 Q2727.5469,851.7891 2727.7656,851.7891 Q2728.1406,851.7891 2728.375,852.0547 Q2728.6094,852.3047 2728.6094,852.9141 L2728.6094,854.3672 Q2728.6094,854.9766 2728.375,855.2422 Q2728.1406,855.5078 2727.7656,855.5078 Q2727.4219,855.5078 2727.2188,855.3047 Q2727.0156,855.1172 2726.9063,854.6016 Q2726.8594,854.2422 2726.6719,854.0547 Q2726.3438,853.6797 2725.7344,853.4609 Q2725.125,853.2422 2724.5,853.2422 Q2723.7344,853.2422 2723.0938,853.5703 Q2722.4688,853.8984 2721.9688,854.6484 Q2721.4844,855.3984 2721.4844,856.4297 L2721.4844,857.5234 Q2721.4844,858.7578 2722.375,859.5859 Q2723.2656,860.3984 2724.8594,860.3984 Q2725.7969,860.3984 2726.4531,860.1484 Q2726.8438,859.9922 2727.2656,859.5547 Q2727.5313,859.2891 2727.6719,859.2109 Q2727.8281,859.1328 2728.0313,859.1328 Q2728.3594,859.1328 2728.6094,859.3984 Q2728.875,859.6484 2728.875,859.9922 Q2728.875,860.3359 2728.5313,860.7422 Q2728.0313,861.3203 2727.2344,861.6484 Q2726.1563,862.1016 2724.8594,862.1016 Q2723.3438,862.1016 2722.1406,861.4766 Q2721.1563,860.9766 2720.4688,859.9141 Q2719.7813,858.8359 2719.7813,857.5547 L2719.7813,856.3984 Q2719.7813,855.0703 2720.3906,853.9297 Q2721.0156,852.7734 2722.1094,852.1641 Q2723.2031,851.5391 2724.4375,851.5391 Q2725.1719,851.5391 2725.8125,851.7109 Q2726.4688,851.8672 2727.0156,852.2266 Z " fill="#000000"/><text fill="#000000" font-family="sans-serif" font-size="12" font-style="italic" lengthAdjust="spacing" textLength="71" x="2765.75" y="852.457">&#171;singletone&#187;</text><text fill="#000000" font-family="sans-serif" font-size="14" lengthAdjust="spacing" textLength="113" x="2744.75" y="869.627">FilesystemModule</text><line style="stroke:#181818;stroke-width:0.5;" x1="2496" x2="3074" y1="877.7031" y2="877.7031"/><ellipse cx="2506" cy="892.0078" fill="none" rx="3" ry="3" style="stroke:#038048;stroke-width:1.0;"/><text fill="#000000" font-family="sans-serif" font-size="14" lengthAdjust="spacing" textLength="259" x="2515" y="896.2363">using constr = const string&amp;; &#171;type alias&#187;</text><line style="stroke:#181818;stroke-width:0.5;" x1="2496" x2="3074" y1="903.3125" y2="903.3125"/><rect fill="#F24D5C" height="6" style="stroke:#C82930;stroke-width:1.0;" width="6" x="2503" y="914.6172"/><text fill="#000000" font-family="sans-serif" font-size="14" lengthAdjust="spacing" textLength="186" x="2515" y="921.8457">FilesystemModule() = default;</text><ellipse cx="2506" cy="935.2266" fill="#84BE84" rx="3" ry="3" style="stroke:#038048;stroke-width:1.0;"/><text fill="#000000" font-family="sans-serif" font-size="14" lengthAdjust="spacing" textLength="194" x="2515" y="939.4551">~FilesystemModule() = default;</text><ellipse cx="2506" cy="952.8359" fill="#84BE84" rx="3" ry="3" style="stroke:#038048;stroke-width:1.0;"/><text fill="#000000" font-family="sans-serif" font-size="14" lengthAdjust="spacing" textLength="250" x="2515" y="957.0645">static FilesystemModule&amp; getInstance();</text><text fill="#000000" font-family="sans-serif" font-size="14" lengthAdjust="spacing" textLength="4" x="2515" y="974.6738">&#160;</text><ellipse cx="2506" cy="988.0547" fill="#84BE84" rx="3" ry="3" style="stroke:#038048;stroke-width:1.0;"/><text fill="#000000" font-family="sans-serif" font-size="14" lengthAdjust="spacing" textLength="98" x="2515" y="992.2832">void startup() {}</text><ellipse cx="2506" cy="1005.6641" fill="#84BE84" rx="3" ry="3" style="stroke:#038048;stroke-width:1.0;"/><text fill="#000000" font-family="sans-serif" font-size="14" lengthAdjust="spacing" textLength="112" x="2515" y="1009.8926">void shutDown(){}</text><text fill="#000000" font-family="sans-serif" font-size="14" lengthAdjust="spacing" textLength="4" x="2515" y="1027.502">&#160;</text><ellipse cx="2506" cy="1040.8828" fill="#84BE84" rx="3" ry="3" style="stroke:#038048;stroke-width:1.0;"/><text fill="#000000" font-family="sans-serif" font-size="14" lengthAdjust="spacing" textLength="323" x="2515" y="1045.1113">FResult createFile(constr dirPath, constr fileName);</text><ellipse cx="2506" cy="1058.4922" fill="#84BE84" rx="3" ry="3" style="stroke:#038048;stroke-width:1.0;"/><text fill="#000000" font-family="sans-serif" font-size="14" lengthAdjust="spacing" textLength="355" x="2515" y="1062.7207">FResult createDirectory(constr dirPath, constr dirName);</text><ellipse cx="2506" cy="1076.1016" fill="#84BE84" rx="3" ry="3" style="stroke:#038048;stroke-width:1.0;"/><text fill="#000000" font-family="sans-serif" font-size="14" lengthAdjust="spacing" textLength="219" x="2515" y="1080.3301">FResult deleteFile(constr filePath);</text><ellipse cx="2506" cy="1093.7109" fill="#84BE84" rx="3" ry="3" style="stroke:#038048;stroke-width:1.0;"/><text fill="#000000" font-family="sans-serif" font-size="14" lengthAdjust="spacing" textLength="305" x="2515" y="1097.9395">FResult duplicateFileInDirectory(constr filePath);</text><ellipse cx="2506" cy="1111.3203" fill="#84BE84" rx="3" ry="3" style="stroke:#038048;stroke-width:1.0;"/><text fill="#000000" font-family="sans-serif" font-size="14" lengthAdjust="spacing" textLength="395" x="2515" y="1115.5488">FResult moveFileToDirectory(constr filePath, constr destPath);</text><ellipse cx="2506" cy="1128.9297" fill="#84BE84" rx="3" ry="3" style="stroke:#038048;stroke-width:1.0;"/><text fill="#000000" font-family="sans-serif" font-size="14" lengthAdjust="spacing" textLength="271" x="2515" y="1133.1582">FResult copyAbsolutePath(constr filePath);</text><ellipse cx="2506" cy="1146.5391" fill="#84BE84" rx="3" ry="3" style="stroke:#038048;stroke-width:1.0;"/><text fill="#000000" font-family="sans-serif" font-size="14" lengthAdjust="spacing" textLength="267" x="2515" y="1150.7676">FResult copyRelativePath(constr filePath);</text><text fill="#000000" font-family="sans-serif" font-size="14" lengthAdjust="spacing" textLength="4" x="2515" y="1168.377">&#160;</text><ellipse cx="2506" cy="1181.7578" fill="#84BE84" rx="3" ry="3" style="stroke:#038048;stroke-width:1.0;"/><text fill="#000000" font-family="sans-serif" font-size="14" lengthAdjust="spacing" textLength="334" x="2515" y="1185.9863">FResult writeTextFile(constr filePath, constr content);</text><ellipse cx="2506" cy="1199.3672" fill="#84BE84" rx="3" ry="3" style="stroke:#038048;stroke-width:1.0;"/><text fill="#000000" font-family="sans-serif" font-size="14" lengthAdjust="spacing" textLength="370" x="2515" y="1203.5957">FResult appendToTextFile(constr filePath, constr content);</text><ellipse cx="2506" cy="1216.9766" fill="#84BE84" rx="3" ry="3" style="stroke:#038048;stroke-width:1.0;"/><text fill="#000000" font-family="sans-serif" font-size="14" lengthAdjust="spacing" textLength="461" x="2515" y="1221.2051">FResult writeBinaryFile(constr filePath, const std::vector&lt;uint8_t&gt;&amp; data);</text><ellipse cx="2506" cy="1234.5859" fill="#84BE84" rx="3" ry="3" style="stroke:#038048;stroke-width:1.0;"/><text fill="#000000" font-family="sans-serif" font-size="14" lengthAdjust="spacing" textLength="497" x="2515" y="1238.8145">FResult appendToBinaryFile(constr filePath, const std::vector&lt;uint8_t&gt;&amp; data);</text><text fill="#000000" font-family="sans-serif" font-size="14" lengthAdjust="spacing" textLength="4" x="2515" y="1256.4238">&#160;</text><ellipse cx="2506" cy="1269.8047" fill="#84BE84" rx="3" ry="3" style="stroke:#038048;stroke-width:1.0;"/><text fill="#000000" font-family="sans-serif" font-size="14" lengthAdjust="spacing" textLength="325" x="2515" y="1274.0332">std::vector&lt;uint8_t&gt; readBinaryFile(constr filePath);</text><ellipse cx="2506" cy="1287.4141" fill="#84BE84" rx="3" ry="3" style="stroke:#038048;stroke-width:1.0;"/><text fill="#000000" font-family="sans-serif" font-size="14" lengthAdjust="spacing" textLength="249" x="2515" y="1291.6426">std::string readTextFile(constr filePath);</text><text fill="#000000" font-family="sans-serif" font-size="14" lengthAdjust="spacing" textLength="4" x="2515" y="1309.252">&#160;</text><ellipse cx="2506" cy="1322.6328" fill="#84BE84" rx="3" ry="3" style="stroke:#038048;stroke-width:1.0;"/><text fill="#000000" font-family="sans-serif" font-size="14" lengthAdjust="spacing" textLength="346" x="2515" y="1326.8613">std::string getEngineAbsolutePath(constr relativePath);</text><ellipse cx="2506" cy="1340.2422" fill="#84BE84" rx="3" ry="3" style="stroke:#038048;stroke-width:1.0;"/><text fill="#000000" font-family="sans-serif" font-size="14" lengthAdjust="spacing" textLength="177" x="2515" y="1344.4707">std::string getCurrentPath();</text><ellipse cx="2506" cy="1357.8516" fill="#84BE84" rx="3" ry="3" style="stroke:#038048;stroke-width:1.0;"/><text fill="#000000" font-family="sans-serif" font-size="14" lengthAdjust="spacing" textLength="249" x="2515" y="1362.0801">std::string getFileName(constr filePath);</text><ellipse cx="2506" cy="1375.4609" fill="#84BE84" rx="3" ry="3" style="stroke:#038048;stroke-width:1.0;"/><text fill="#000000" font-family="sans-serif" font-size="14" lengthAdjust="spacing" textLength="281" x="2515" y="1379.6895">std::string getFileExtensions(constr filePath);</text><ellipse cx="2506" cy="1393.0703" fill="#84BE84" rx="3" ry="3" style="stroke:#038048;stroke-width:1.0;"/><text fill="#000000" font-family="sans-serif" font-size="14" lengthAdjust="spacing" textLength="351" x="2515" y="1397.2988">std::string getRelativeToTheResources(constr filePath);</text><text fill="#000000" font-family="sans-serif" font-size="14" lengthAdjust="spacing" textLength="4" x="2515" y="1414.9082">&#160;</text><ellipse cx="2506" cy="1428.2891" fill="#84BE84" rx="3" ry="3" style="stroke:#038048;stroke-width:1.0;"/><text fill="#000000" font-family="sans-serif" font-size="14" lengthAdjust="spacing" textLength="213" x="2515" y="1432.5176">size_t getFileSize(constr filePath);</text><ellipse cx="2506" cy="1445.8984" fill="#84BE84" rx="3" ry="3" style="stroke:#038048;stroke-width:1.0;"/><text fill="#000000" font-family="sans-serif" font-size="14" lengthAdjust="spacing" textLength="554" x="2515" y="1450.127">std::vector &lt;std::string&gt; getDirectoryContents(constr dirPath, ContentSearchFilter filter);</text><ellipse cx="2506" cy="1463.5078" fill="#84BE84" rx="3" ry="3" style="stroke:#038048;stroke-width:1.0;"/><text fill="#000000" font-family="sans-serif" font-size="14" lengthAdjust="spacing" textLength="344" x="2515" y="1467.7363">uint64_t getFolderModificationTime(constr folderPath);</text><text fill="#000000" font-family="sans-serif" font-size="14" lengthAdjust="spacing" textLength="4" x="2515" y="1485.3457">&#160;</text><ellipse cx="2506" cy="1498.7266" fill="#84BE84" rx="3" ry="3" style="stroke:#038048;stroke-width:1.0;"/><text fill="#000000" font-family="sans-serif" font-size="14" lengthAdjust="spacing" textLength="191" x="2515" y="1502.9551">bool isPathExists(constr path);</text><ellipse cx="2506" cy="1516.3359" fill="#84BE84" rx="3" ry="3" style="stroke:#038048;stroke-width:1.0;"/><text fill="#000000" font-family="sans-serif" font-size="14" lengthAdjust="spacing" textLength="149" x="2515" y="1520.5645">bool isFile(constr path);</text><ellipse cx="2506" cy="1533.9453" fill="#84BE84" rx="3" ry="3" style="stroke:#038048;stroke-width:1.0;"/><text fill="#000000" font-family="sans-serif" font-size="14" lengthAdjust="spacing" textLength="183" x="2515" y="1538.1738">bool isDirectory(constr path);</text></g><!--class DirectoryIterator--><g id="elem_DirectoryIterator"><rect codeLine="71" fill="#F1F1F1" height="364.9688" id="DirectoryIterator" rx="2.5" ry="2.5" style="stroke:#181818;stroke-width:0.5;" width="482" x="2544" y="410"/><ellipse cx="2729.75" cy="426" fill="#ADD1B2" rx="11" ry="11" style="stroke:#181818;stroke-width:1.0;"/><path d="M2732.5156,421.875 Q2732.6719,421.6563 2732.8594,421.5469 Q2733.0469,421.4375 2733.2656,421.4375 Q2733.6406,421.4375 2733.875,421.7031 Q2734.1094,421.9531 2734.1094,422.5625 L2734.1094,424.0156 Q2734.1094,424.625 2733.875,424.8906 Q2733.6406,425.1563 2733.2656,425.1563 Q2732.9219,425.1563 2732.7188,424.9531 Q2732.5156,424.7656 2732.4063,424.25 Q2732.3594,423.8906 2732.1719,423.7031 Q2731.8438,423.3281 2731.2344,423.1094 Q2730.625,422.8906 2730,422.8906 Q2729.2344,422.8906 2728.5938,423.2188 Q2727.9688,423.5469 2727.4688,424.2969 Q2726.9844,425.0469 2726.9844,426.0781 L2726.9844,427.1719 Q2726.9844,428.4063 2727.875,429.2344 Q2728.7656,430.0469 2730.3594,430.0469 Q2731.2969,430.0469 2731.9531,429.7969 Q2732.3438,429.6406 2732.7656,429.2031 Q2733.0313,428.9375 2733.1719,428.8594 Q2733.3281,428.7813 2733.5313,428.7813 Q2733.8594,428.7813 2734.1094,429.0469 Q2734.375,429.2969 2734.375,429.6406 Q2734.375,429.9844 2734.0313,430.3906 Q2733.5313,430.9688 2732.7344,431.2969 Q2731.6563,431.75 2730.3594,431.75 Q2728.8438,431.75 2727.6406,431.125 Q2726.6563,430.625 2725.9688,429.5625 Q2725.2813,428.4844 2725.2813,427.2031 L2725.2813,426.0469 Q2725.2813,424.7188 2725.8906,423.5781 Q2726.5156,422.4219 2727.6094,421.8125 Q2728.7031,421.1875 2729.9375,421.1875 Q2730.6719,421.1875 2731.3125,421.3594 Q2731.9688,421.5156 2732.5156,421.875 Z " fill="#000000"/><text fill="#000000" font-family="sans-serif" font-size="14" lengthAdjust="spacing" textLength="102" x="2750.25" y="431.7285">DirectoryIterator</text><line style="stroke:#181818;stroke-width:0.5;" x1="2545" x2="3025" y1="442" y2="442"/><rect fill="none" height="6" style="stroke:#C82930;stroke-width:1.0;" width="6" x="2552" y="453.3047"/><text fill="#000000" font-family="sans-serif" font-size="14" lengthAdjust="spacing" textLength="242" x="2564" y="460.5332">optional&lt;uint64_t&gt; m_dirLastEditTime;</text><rect fill="none" height="6" style="stroke:#C82930;stroke-width:1.0;" width="6" x="2552" y="470.9141"/><text fill="#000000" font-family="sans-serif" font-size="14" lengthAdjust="spacing" textLength="128" x="2564" y="478.1426">fs::path m_rootPath;</text><rect fill="none" height="6" style="stroke:#C82930;stroke-width:1.0;" width="6" x="2552" y="488.5234"/><text fill="#000000" font-family="sans-serif" font-size="14" lengthAdjust="spacing" textLength="148" x="2564" y="495.752">fs::path m_currentPath;</text><text fill="#000000" font-family="sans-serif" font-size="14" lengthAdjust="spacing" textLength="4" x="2564" y="513.3613">&#160;</text><ellipse cx="2555" cy="526.7422" fill="none" rx="3" ry="3" style="stroke:#038048;stroke-width:1.0;"/><text fill="#000000" font-family="sans-serif" font-size="14" lengthAdjust="spacing" textLength="286" x="2564" y="530.9707">using constr = const std::string&amp;; &#171;type alias&#187;</text><line style="stroke:#181818;stroke-width:0.5;" x1="2545" x2="3025" y1="538.0469" y2="538.0469"/><ellipse cx="2555" cy="552.3516" fill="#84BE84" rx="3" ry="3" style="stroke:#038048;stroke-width:1.0;"/><text fill="#000000" font-family="sans-serif" font-size="14" lengthAdjust="spacing" textLength="116" x="2564" y="556.5801">DirectoryIterator();</text><ellipse cx="2555" cy="569.9609" fill="#84BE84" rx="3" ry="3" style="stroke:#038048;stroke-width:1.0;"/><text fill="#000000" font-family="sans-serif" font-size="14" lengthAdjust="spacing" textLength="232" x="2564" y="574.1895">DirectoryIterator(constr startupPath);</text><text fill="#000000" font-family="sans-serif" font-size="14" lengthAdjust="spacing" textLength="4" x="2564" y="591.7988">&#160;</text><ellipse cx="2555" cy="605.1797" fill="#84BE84" rx="3" ry="3" style="stroke:#038048;stroke-width:1.0;"/><text fill="#000000" font-family="sans-serif" font-size="14" lengthAdjust="spacing" textLength="147" x="2564" y="609.4082">FResult stepIntoRoot();</text><ellipse cx="2555" cy="622.7891" fill="#84BE84" rx="3" ry="3" style="stroke:#038048;stroke-width:1.0;"/><text fill="#000000" font-family="sans-serif" font-size="14" lengthAdjust="spacing" textLength="159" x="2564" y="627.0176">FResult stepIntoParent();</text><ellipse cx="2555" cy="640.3984" fill="#84BE84" rx="3" ry="3" style="stroke:#038048;stroke-width:1.0;"/><text fill="#000000" font-family="sans-serif" font-size="14" lengthAdjust="spacing" textLength="273" x="2564" y="644.627">FResult stepIntoFolder(constr folderName);</text><text fill="#000000" font-family="sans-serif" font-size="14" lengthAdjust="spacing" textLength="4" x="2564" y="662.2363">&#160;</text><ellipse cx="2555" cy="675.6172" fill="#84BE84" rx="3" ry="3" style="stroke:#038048;stroke-width:1.0;"/><text fill="#000000" font-family="sans-serif" font-size="14" lengthAdjust="spacing" textLength="175" x="2564" y="679.8457">string getCurrentDirName();</text><ellipse cx="2555" cy="693.2266" fill="#84BE84" rx="3" ry="3" style="stroke:#038048;stroke-width:1.0;"/><text fill="#000000" font-family="sans-serif" font-size="14" lengthAdjust="spacing" textLength="139" x="2564" y="697.4551">string getCurrentDir();</text><ellipse cx="2555" cy="710.8359" fill="#84BE84" rx="3" ry="3" style="stroke:#038048;stroke-width:1.0;"/><text fill="#000000" font-family="sans-serif" font-size="14" lengthAdjust="spacing" textLength="343" x="2564" y="715.0645">string getCurrentDirWithAppend(constr appendName);</text><ellipse cx="2555" cy="728.4453" fill="#84BE84" rx="3" ry="3" style="stroke:#038048;stroke-width:1.0;"/><text fill="#000000" font-family="sans-serif" font-size="14" lengthAdjust="spacing" textLength="456" x="2564" y="732.6738">vector&lt;string&gt; getCurrentDirContents(const ContentSearchFilter&amp; filter);</text><ellipse cx="2555" cy="746.0547" fill="#84BE84" rx="3" ry="3" style="stroke:#038048;stroke-width:1.0;"/><text fill="#000000" font-family="sans-serif" font-size="14" lengthAdjust="spacing" textLength="114" x="2564" y="750.2832">bool isRootPath();</text><ellipse cx="2555" cy="763.6641" fill="#84BE84" rx="3" ry="3" style="stroke:#038048;stroke-width:1.0;"/><text fill="#000000" font-family="sans-serif" font-size="14" lengthAdjust="spacing" textLength="179" x="2564" y="767.8926">bool isCurrentDirChanged();</text></g><!--class BaseResource--><g id="elem_BaseResource"><rect codeLine="5" fill="#F1F1F1" height="118.4375" id="BaseResource" rx="2.5" ry="2.5" style="stroke:#181818;stroke-width:0.5;" width="247" x="643.5" y="533.5"/><ellipse cx="716.25" cy="549.5" fill="#ADD1B2" rx="11" ry="11" style="stroke:#181818;stroke-width:1.0;"/><path d="M719.0156,545.375 Q719.1719,545.1563 719.3594,545.0469 Q719.5469,544.9375 719.7656,544.9375 Q720.1406,544.9375 720.375,545.2031 Q720.6094,545.4531 720.6094,546.0625 L720.6094,547.5156 Q720.6094,548.125 720.375,548.3906 Q720.1406,548.6563 719.7656,548.6563 Q719.4219,548.6563 719.2188,548.4531 Q719.0156,548.2656 718.9063,547.75 Q718.8594,547.3906 718.6719,547.2031 Q718.3438,546.8281 717.7344,546.6094 Q717.125,546.3906 716.5,546.3906 Q715.7344,546.3906 715.0938,546.7188 Q714.4688,547.0469 713.9688,547.7969 Q713.4844,548.5469 713.4844,549.5781 L713.4844,550.6719 Q713.4844,551.9063 714.375,552.7344 Q715.2656,553.5469 716.8594,553.5469 Q717.7969,553.5469 718.4531,553.2969 Q718.8438,553.1406 719.2656,552.7031 Q719.5313,552.4375 719.6719,552.3594 Q719.8281,552.2813 720.0313,552.2813 Q720.3594,552.2813 720.6094,552.5469 Q720.875,552.7969 720.875,553.1406 Q720.875,553.4844 720.5313,553.8906 Q720.0313,554.4688 719.2344,554.7969 Q718.1563,555.25 716.8594,555.25 Q715.3438,555.25 714.1406,554.625 Q713.1563,554.125 712.4688,553.0625 Q711.7813,551.9844 711.7813,550.7031 L711.7813,549.5469 Q711.7813,548.2188 712.3906,547.0781 Q713.0156,545.9219 714.1094,545.3125 Q715.2031,544.6875 716.4375,544.6875 Q717.1719,544.6875 717.8125,544.8594 Q718.4688,545.0156 719.0156,545.375 Z " fill="#000000"/><text fill="#000000" font-family="sans-serif" font-size="14" lengthAdjust="spacing" textLength="93" x="736.75" y="555.2285">BaseResource</text><line style="stroke:#181818;stroke-width:0.5;" x1="644.5" x2="889.5" y1="565.5" y2="565.5"/><polygon fill="none" points="654.5,575.8047,650.5,581.8047,658.5,581.8047" style="stroke:#1963A0;stroke-width:1.0;"/><text fill="#000000" font-family="sans-serif" font-size="14" lengthAdjust="spacing" textLength="76" x="663.5" y="584.0332">string GUID;</text><line style="stroke:#181818;stroke-width:0.5;" x1="644.5" x2="889.5" y1="591.1094" y2="591.1094"/><ellipse cx="654.5" cy="605.4141" fill="#84BE84" rx="3" ry="3" style="stroke:#038048;stroke-width:1.0;"/><text fill="#000000" font-family="sans-serif" font-size="14" lengthAdjust="spacing" textLength="221" x="663.5" y="609.6426">BaseResource(const string&amp; path);</text><ellipse cx="654.5" cy="623.0234" fill="#84BE84" rx="3" ry="3" style="stroke:#038048;stroke-width:1.0;"/><text fill="#000000" font-family="sans-serif" font-size="14" lengthAdjust="spacing" textLength="144" x="663.5" y="627.252">string getGUID() const;</text><ellipse cx="654.5" cy="640.6328" fill="#84BE84" rx="3" ry="3" style="stroke:#038048;stroke-width:1.0;"/><text fill="#000000" font-family="sans-serif" font-size="14" lengthAdjust="spacing" textLength="202" x="663.5" y="644.8613">void setGUID(string&amp; newGUID);</text></g><!--class MeshVertex--><g id="elem_MeshVertex"><rect codeLine="13" fill="#F1F1F1" height="118.4375" id="MeshVertex" rx="2.5" ry="2.5" style="stroke:#181818;stroke-width:0.5;" width="337" x="110.5" y="1614"/><ellipse cx="237.75" cy="1630" fill="#F1F1F1" rx="11" ry="11" style="stroke:#181818;stroke-width:1.0;"/><path d="M235.8594,1634.5625 Q235.6406,1634.8281 235.5,1634.9063 Q235.3594,1634.9844 235.1719,1634.9844 Q234.7813,1634.9844 234.5313,1634.7188 Q234.2969,1634.4531 234.2969,1633.8594 L234.2969,1632.7031 Q234.2969,1632.0938 234.5313,1631.8438 Q234.7813,1631.5781 235.1719,1631.5781 Q235.4688,1631.5781 235.6719,1631.7344 Q235.875,1631.8906 235.9844,1632.2656 Q236.0938,1632.625 236.2031,1632.7656 Q236.4531,1633.0156 237.0625,1633.2813 Q237.6719,1633.5469 238.4063,1633.5469 Q239.5469,1633.5469 240.2656,1633.0156 Q240.7344,1632.6875 240.7344,1632.2188 Q240.7344,1631.9063 240.5156,1631.625 Q240.2969,1631.3438 239.7813,1631.1719 Q239.4531,1631.0469 238.2969,1630.8281 Q236.9063,1630.5625 236.1875,1630.2031 Q235.4688,1629.8438 235.0469,1629.1875 Q234.6406,1628.5156 234.6406,1627.7344 Q234.6406,1626.5156 235.6563,1625.6094 Q236.6875,1624.6875 238.3281,1624.6875 Q238.9844,1624.6875 239.5313,1624.8281 Q240.0938,1624.9688 240.5625,1625.2656 Q240.8906,1624.9531 241.2188,1624.9531 Q241.5938,1624.9531 241.8281,1625.2188 Q242.0625,1625.4688 242.0625,1626.0781 L242.0625,1627.3594 Q242.0625,1627.9688 241.8281,1628.2344 Q241.5938,1628.4844 241.2188,1628.4844 Q240.9063,1628.4844 240.6719,1628.2969 Q240.4844,1628.1563 240.3906,1627.7344 Q240.3125,1627.3125 240.1719,1627.125 Q239.9219,1626.8125 239.4375,1626.6094 Q238.9688,1626.3906 238.3281,1626.3906 Q237.4063,1626.3906 236.875,1626.8125 Q236.3438,1627.2344 236.3438,1627.7031 Q236.3438,1628.0156 236.5625,1628.3125 Q236.7813,1628.6094 237.2031,1628.7813 Q237.4844,1628.8906 238.7813,1629.1563 Q240.0938,1629.4063 240.7969,1629.7188 Q241.5,1630.0156 241.9688,1630.6719 Q242.4375,1631.3281 242.4375,1632.2344 Q242.4375,1633.5 241.5469,1634.25 Q240.3594,1635.25 238.5313,1635.25 Q237.8281,1635.25 237.1563,1635.0781 Q236.5,1634.9063 235.8594,1634.5625 Z " fill="#000000"/><text fill="#000000" font-family="sans-serif" font-size="14" lengthAdjust="spacing" textLength="74" x="258.25" y="1635.7285">MeshVertex</text><line style="stroke:#181818;stroke-width:0.5;" x1="111.5" x2="446.5" y1="1646" y2="1646"/><ellipse cx="121.5" cy="1660.3047" fill="none" rx="3" ry="3" style="stroke:#038048;stroke-width:1.0;"/><text fill="#000000" font-family="sans-serif" font-size="14" lengthAdjust="spacing" textLength="61" x="130.5" y="1664.5332">vec3 pos;</text><ellipse cx="121.5" cy="1677.9141" fill="none" rx="3" ry="3" style="stroke:#038048;stroke-width:1.0;"/><text fill="#000000" font-family="sans-serif" font-size="14" lengthAdjust="spacing" textLength="53" x="130.5" y="1682.1426">vec2 uv;</text><ellipse cx="121.5" cy="1695.5234" fill="none" rx="3" ry="3" style="stroke:#038048;stroke-width:1.0;"/><text fill="#000000" font-family="sans-serif" font-size="14" lengthAdjust="spacing" textLength="81" x="130.5" y="1699.752">vec3 normal;</text><line style="stroke:#181818;stroke-width:0.5;" x1="111.5" x2="446.5" y1="1706.8281" y2="1706.8281"/><ellipse cx="121.5" cy="1721.1328" fill="#84BE84" rx="3" ry="3" style="stroke:#038048;stroke-width:1.0;"/><text fill="#000000" font-family="sans-serif" font-size="14" lengthAdjust="spacing" textLength="311" x="130.5" y="1725.3613">bool operator==(const MeshVertex&amp; other) const;</text></g><!--class RMesh--><g id="elem_RMesh"><rect codeLine="21" fill="#F1F1F1" height="188.875" id="RMesh" rx="2.5" ry="2.5" style="stroke:#181818;stroke-width:0.5;" width="310" x="110" y="1095.5"/><ellipse cx="238.75" cy="1111.5" fill="#ADD1B2" rx="11" ry="11" style="stroke:#181818;stroke-width:1.0;"/><path d="M241.5156,1107.375 Q241.6719,1107.1563 241.8594,1107.0469 Q242.0469,1106.9375 242.2656,1106.9375 Q242.6406,1106.9375 242.875,1107.2031 Q243.1094,1107.4531 243.1094,1108.0625 L243.1094,1109.5156 Q243.1094,1110.125 242.875,1110.3906 Q242.6406,1110.6563 242.2656,1110.6563 Q241.9219,1110.6563 241.7188,1110.4531 Q241.5156,1110.2656 241.4063,1109.75 Q241.3594,1109.3906 241.1719,1109.2031 Q240.8438,1108.8281 240.2344,1108.6094 Q239.625,1108.3906 239,1108.3906 Q238.2344,1108.3906 237.5938,1108.7188 Q236.9688,1109.0469 236.4688,1109.7969 Q235.9844,1110.5469 235.9844,1111.5781 L235.9844,1112.6719 Q235.9844,1113.9063 236.875,1114.7344 Q237.7656,1115.5469 239.3594,1115.5469 Q240.2969,1115.5469 240.9531,1115.2969 Q241.3438,1115.1406 241.7656,1114.7031 Q242.0313,1114.4375 242.1719,1114.3594 Q242.3281,1114.2813 242.5313,1114.2813 Q242.8594,1114.2813 243.1094,1114.5469 Q243.375,1114.7969 243.375,1115.1406 Q243.375,1115.4844 243.0313,1115.8906 Q242.5313,1116.4688 241.7344,1116.7969 Q240.6563,1117.25 239.3594,1117.25 Q237.8438,1117.25 236.6406,1116.625 Q235.6563,1116.125 234.9688,1115.0625 Q234.2813,1113.9844 234.2813,1112.7031 L234.2813,1111.5469 Q234.2813,1110.2188 234.8906,1109.0781 Q235.5156,1107.9219 236.6094,1107.3125 Q237.7031,1106.6875 238.9375,1106.6875 Q239.6719,1106.6875 240.3125,1106.8594 Q240.9688,1107.0156 241.5156,1107.375 Z " fill="#000000"/><text fill="#000000" font-family="sans-serif" font-size="14" lengthAdjust="spacing" textLength="44" x="259.25" y="1117.2285">RMesh</text><line style="stroke:#181818;stroke-width:0.5;" x1="111" x2="419" y1="1127.5" y2="1127.5"/><rect fill="none" height="6" style="stroke:#C82930;stroke-width:1.0;" width="6" x="118" y="1138.8047"/><text fill="#000000" font-family="sans-serif" font-size="14" lengthAdjust="spacing" textLength="224" x="130" y="1146.0332">vector&lt;MeshVertex&gt; m_vertexData;</text><rect fill="none" height="6" style="stroke:#C82930;stroke-width:1.0;" width="6" x="118" y="1156.4141"/><text fill="#000000" font-family="sans-serif" font-size="14" lengthAdjust="spacing" textLength="207" x="130" y="1163.6426">vector&lt;uint32_t&gt; m_indicesData;</text><rect fill="none" height="6" style="stroke:#C82930;stroke-width:1.0;" width="6" x="118" y="1174.0234"/><text fill="#000000" font-family="sans-serif" font-size="14" lengthAdjust="spacing" textLength="204" x="130" y="1181.252">vector&lt;RMaterial*&gt; m_materials;</text><ellipse cx="121" cy="1194.6328" fill="none" rx="3" ry="3" style="stroke:#038048;stroke-width:1.0;"/><text fill="#000000" font-family="sans-serif" font-size="14" lengthAdjust="spacing" textLength="96" x="130" y="1198.8613">string vertPath;</text><ellipse cx="121" cy="1212.2422" fill="none" rx="3" ry="3" style="stroke:#038048;stroke-width:1.0;"/><text fill="#000000" font-family="sans-serif" font-size="14" lengthAdjust="spacing" textLength="97" x="130" y="1216.4707">string fragPath;</text><line style="stroke:#181818;stroke-width:0.5;" x1="111" x2="419" y1="1223.5469" y2="1223.5469"/><ellipse cx="121" cy="1237.8516" fill="#84BE84" rx="3" ry="3" style="stroke:#038048;stroke-width:1.0;"/><text fill="#000000" font-family="sans-serif" font-size="14" lengthAdjust="spacing" textLength="172" x="130" y="1242.0801">RMesh(const string&amp; path);</text><ellipse cx="121" cy="1255.4609" fill="#84BE84" rx="3" ry="3" style="stroke:#038048;stroke-width:1.0;"/><text fill="#000000" font-family="sans-serif" font-size="14" lengthAdjust="spacing" textLength="284" x="130" y="1259.6895">const vector&lt;MeshVertex&gt;&amp; getVertexData();</text><ellipse cx="121" cy="1273.0703" fill="#84BE84" rx="3" ry="3" style="stroke:#038048;stroke-width:1.0;"/><text fill="#000000" font-family="sans-serif" font-size="14" lengthAdjust="spacing" textLength="265" x="130" y="1277.2988">const vector&lt;uint32_t&gt;&amp; getIndicesData();</text></g><!--class MaterialInfo--><g id="elem_MaterialInfo"><rect codeLine="35" fill="#F1F1F1" height="136.0469" id="MaterialInfo" rx="2.5" ry="2.5" style="stroke:#181818;stroke-width:0.5;" width="135" x="535.5" y="1605"/><ellipse cx="564" cy="1621" fill="#F1F1F1" rx="11" ry="11" style="stroke:#181818;stroke-width:1.0;"/><path d="M562.1094,1625.5625 Q561.8906,1625.8281 561.75,1625.9063 Q561.6094,1625.9844 561.4219,1625.9844 Q561.0313,1625.9844 560.7813,1625.7188 Q560.5469,1625.4531 560.5469,1624.8594 L560.5469,1623.7031 Q560.5469,1623.0938 560.7813,1622.8438 Q561.0313,1622.5781 561.4219,1622.5781 Q561.7188,1622.5781 561.9219,1622.7344 Q562.125,1622.8906 562.2344,1623.2656 Q562.3438,1623.625 562.4531,1623.7656 Q562.7031,1624.0156 563.3125,1624.2813 Q563.9219,1624.5469 564.6563,1624.5469 Q565.7969,1624.5469 566.5156,1624.0156 Q566.9844,1623.6875 566.9844,1623.2188 Q566.9844,1622.9063 566.7656,1622.625 Q566.5469,1622.3438 566.0313,1622.1719 Q565.7031,1622.0469 564.5469,1621.8281 Q563.1563,1621.5625 562.4375,1621.2031 Q561.7188,1620.8438 561.2969,1620.1875 Q560.8906,1619.5156 560.8906,1618.7344 Q560.8906,1617.5156 561.9063,1616.6094 Q562.9375,1615.6875 564.5781,1615.6875 Q565.2344,1615.6875 565.7813,1615.8281 Q566.3438,1615.9688 566.8125,1616.2656 Q567.1406,1615.9531 567.4688,1615.9531 Q567.8438,1615.9531 568.0781,1616.2188 Q568.3125,1616.4688 568.3125,1617.0781 L568.3125,1618.3594 Q568.3125,1618.9688 568.0781,1619.2344 Q567.8438,1619.4844 567.4688,1619.4844 Q567.1563,1619.4844 566.9219,1619.2969 Q566.7344,1619.1563 566.6406,1618.7344 Q566.5625,1618.3125 566.4219,1618.125 Q566.1719,1617.8125 565.6875,1617.6094 Q565.2188,1617.3906 564.5781,1617.3906 Q563.6563,1617.3906 563.125,1617.8125 Q562.5938,1618.2344 562.5938,1618.7031 Q562.5938,1619.0156 562.8125,1619.3125 Q563.0313,1619.6094 563.4531,1619.7813 Q563.7344,1619.8906 565.0313,1620.1563 Q566.3438,1620.4063 567.0469,1620.7188 Q567.75,1621.0156 568.2188,1621.6719 Q568.6875,1622.3281 568.6875,1623.2344 Q568.6875,1624.5 567.7969,1625.25 Q566.6094,1626.25 564.7813,1626.25 Q564.0781,1626.25 563.4063,1626.0781 Q562.75,1625.9063 562.1094,1625.5625 Z " fill="#000000"/><text fill="#000000" font-family="sans-serif" font-size="14" lengthAdjust="spacing" textLength="73" x="581" y="1626.7285">MaterialInfo</text><line style="stroke:#181818;stroke-width:0.5;" x1="536.5" x2="669.5" y1="1637" y2="1637"/><ellipse cx="546.5" cy="1651.3047" fill="none" rx="3" ry="3" style="stroke:#038048;stroke-width:1.0;"/><text fill="#000000" font-family="sans-serif" font-size="14" lengthAdjust="spacing" textLength="82" x="555.5" y="1655.5332">void* albedo;</text><ellipse cx="546.5" cy="1668.9141" fill="none" rx="3" ry="3" style="stroke:#038048;stroke-width:1.0;"/><text fill="#000000" font-family="sans-serif" font-size="14" lengthAdjust="spacing" textLength="83" x="555.5" y="1673.1426">void* metalic;</text><ellipse cx="546.5" cy="1686.5234" fill="none" rx="3" ry="3" style="stroke:#038048;stroke-width:1.0;"/><text fill="#000000" font-family="sans-serif" font-size="14" lengthAdjust="spacing" textLength="96" x="555.5" y="1690.752">void* reflective;</text><ellipse cx="546.5" cy="1704.1328" fill="none" rx="3" ry="3" style="stroke:#038048;stroke-width:1.0;"/><text fill="#000000" font-family="sans-serif" font-size="14" lengthAdjust="spacing" textLength="93" x="555.5" y="1708.3613">void* emissive;</text><ellipse cx="546.5" cy="1721.7422" fill="none" rx="3" ry="3" style="stroke:#038048;stroke-width:1.0;"/><text fill="#000000" font-family="sans-serif" font-size="14" lengthAdjust="spacing" textLength="109" x="555.5" y="1725.9707">void* normalMap;</text><line style="stroke:#181818;stroke-width:0.5;" x1="536.5" x2="669.5" y1="1733.0469" y2="1733.0469"/></g><!--class RMaterial--><g id="elem_RMaterial"><rect codeLine="44" fill="#F1F1F1" height="100.8281" id="RMaterial" rx="2.5" ry="2.5" style="stroke:#181818;stroke-width:0.5;" width="295" x="455.5" y="1139.5"/><ellipse cx="568.75" cy="1155.5" fill="#ADD1B2" rx="11" ry="11" style="stroke:#181818;stroke-width:1.0;"/><path d="M571.5156,1151.375 Q571.6719,1151.1563 571.8594,1151.0469 Q572.0469,1150.9375 572.2656,1150.9375 Q572.6406,1150.9375 572.875,1151.2031 Q573.1094,1151.4531 573.1094,1152.0625 L573.1094,1153.5156 Q573.1094,1154.125 572.875,1154.3906 Q572.6406,1154.6563 572.2656,1154.6563 Q571.9219,1154.6563 571.7188,1154.4531 Q571.5156,1154.2656 571.4063,1153.75 Q571.3594,1153.3906 571.1719,1153.2031 Q570.8438,1152.8281 570.2344,1152.6094 Q569.625,1152.3906 569,1152.3906 Q568.2344,1152.3906 567.5938,1152.7188 Q566.9688,1153.0469 566.4688,1153.7969 Q565.9844,1154.5469 565.9844,1155.5781 L565.9844,1156.6719 Q565.9844,1157.9063 566.875,1158.7344 Q567.7656,1159.5469 569.3594,1159.5469 Q570.2969,1159.5469 570.9531,1159.2969 Q571.3438,1159.1406 571.7656,1158.7031 Q572.0313,1158.4375 572.1719,1158.3594 Q572.3281,1158.2813 572.5313,1158.2813 Q572.8594,1158.2813 573.1094,1158.5469 Q573.375,1158.7969 573.375,1159.1406 Q573.375,1159.4844 573.0313,1159.8906 Q572.5313,1160.4688 571.7344,1160.7969 Q570.6563,1161.25 569.3594,1161.25 Q567.8438,1161.25 566.6406,1160.625 Q565.6563,1160.125 564.9688,1159.0625 Q564.2813,1157.9844 564.2813,1156.7031 L564.2813,1155.5469 Q564.2813,1154.2188 564.8906,1153.0781 Q565.5156,1151.9219 566.6094,1151.3125 Q567.7031,1150.6875 568.9375,1150.6875 Q569.6719,1150.6875 570.3125,1150.8594 Q570.9688,1151.0156 571.5156,1151.375 Z " fill="#000000"/><text fill="#000000" font-family="sans-serif" font-size="14" lengthAdjust="spacing" textLength="60" x="589.25" y="1161.2285">RMaterial</text><line style="stroke:#181818;stroke-width:0.5;" x1="456.5" x2="749.5" y1="1171.5" y2="1171.5"/><rect fill="none" height="6" style="stroke:#C82930;stroke-width:1.0;" width="6" x="463.5" y="1182.8047"/><text fill="#000000" font-family="sans-serif" font-size="14" lengthAdjust="spacing" textLength="173" x="475.5" y="1190.0332">MaterialInfo m_materialInfo;</text><line style="stroke:#181818;stroke-width:0.5;" x1="456.5" x2="749.5" y1="1197.1094" y2="1197.1094"/><ellipse cx="466.5" cy="1211.4141" fill="#84BE84" rx="3" ry="3" style="stroke:#038048;stroke-width:1.0;"/><text fill="#000000" font-family="sans-serif" font-size="14" lengthAdjust="spacing" textLength="188" x="475.5" y="1215.6426">RMaterial(const string&amp; path);</text><ellipse cx="466.5" cy="1229.0234" fill="#84BE84" rx="3" ry="3" style="stroke:#038048;stroke-width:1.0;"/><text fill="#000000" font-family="sans-serif" font-size="14" lengthAdjust="spacing" textLength="269" x="475.5" y="1233.252">const MaterialInfo&amp; getMaterialInfo() const;</text></g><!--class TextureInfo--><g id="elem_TextureInfo"><rect codeLine="53" fill="#F1F1F1" height="118.4375" id="TextureInfo" rx="2.5" ry="2.5" style="stroke:#181818;stroke-width:0.5;" width="167" x="847.5" y="1614"/><ellipse cx="891.3" cy="1630" fill="#F1F1F1" rx="11" ry="11" style="stroke:#181818;stroke-width:1.0;"/><path d="M889.4094,1634.5625 Q889.1906,1634.8281 889.05,1634.9063 Q888.9094,1634.9844 888.7219,1634.9844 Q888.3313,1634.9844 888.0813,1634.7188 Q887.8469,1634.4531 887.8469,1633.8594 L887.8469,1632.7031 Q887.8469,1632.0938 888.0813,1631.8438 Q888.3313,1631.5781 888.7219,1631.5781 Q889.0188,1631.5781 889.2219,1631.7344 Q889.425,1631.8906 889.5344,1632.2656 Q889.6438,1632.625 889.7531,1632.7656 Q890.0031,1633.0156 890.6125,1633.2813 Q891.2219,1633.5469 891.9563,1633.5469 Q893.0969,1633.5469 893.8156,1633.0156 Q894.2844,1632.6875 894.2844,1632.2188 Q894.2844,1631.9063 894.0656,1631.625 Q893.8469,1631.3438 893.3313,1631.1719 Q893.0031,1631.0469 891.8469,1630.8281 Q890.4563,1630.5625 889.7375,1630.2031 Q889.0188,1629.8438 888.5969,1629.1875 Q888.1906,1628.5156 888.1906,1627.7344 Q888.1906,1626.5156 889.2063,1625.6094 Q890.2375,1624.6875 891.8781,1624.6875 Q892.5344,1624.6875 893.0813,1624.8281 Q893.6438,1624.9688 894.1125,1625.2656 Q894.4406,1624.9531 894.7688,1624.9531 Q895.1438,1624.9531 895.3781,1625.2188 Q895.6125,1625.4688 895.6125,1626.0781 L895.6125,1627.3594 Q895.6125,1627.9688 895.3781,1628.2344 Q895.1438,1628.4844 894.7688,1628.4844 Q894.4563,1628.4844 894.2219,1628.2969 Q894.0344,1628.1563 893.9406,1627.7344 Q893.8625,1627.3125 893.7219,1627.125 Q893.4719,1626.8125 892.9875,1626.6094 Q892.5188,1626.3906 891.8781,1626.3906 Q890.9563,1626.3906 890.425,1626.8125 Q889.8938,1627.2344 889.8938,1627.7031 Q889.8938,1628.0156 890.1125,1628.3125 Q890.3313,1628.6094 890.7531,1628.7813 Q891.0344,1628.8906 892.3313,1629.1563 Q893.6438,1629.4063 894.3469,1629.7188 Q895.05,1630.0156 895.5188,1630.6719 Q895.9875,1631.3281 895.9875,1632.2344 Q895.9875,1633.5 895.0969,1634.25 Q893.9094,1635.25 892.0813,1635.25 Q891.3781,1635.25 890.7063,1635.0781 Q890.05,1634.9063 889.4094,1634.5625 Z " fill="#000000"/><text fill="#000000" font-family="sans-serif" font-size="14" lengthAdjust="spacing" textLength="71" x="911.7" y="1635.7285">TextureInfo</text><line style="stroke:#181818;stroke-width:0.5;" x1="848.5" x2="1013.5" y1="1646" y2="1646"/><ellipse cx="858.5" cy="1660.3047" fill="none" rx="3" ry="3" style="stroke:#038048;stroke-width:1.0;"/><text fill="#000000" font-family="sans-serif" font-size="14" lengthAdjust="spacing" textLength="141" x="867.5" y="1664.5332">vector&lt;uint8_t&gt; pixels;</text><ellipse cx="858.5" cy="1677.9141" fill="none" rx="3" ry="3" style="stroke:#038048;stroke-width:1.0;"/><text fill="#000000" font-family="sans-serif" font-size="14" lengthAdjust="spacing" textLength="77" x="867.5" y="1682.1426">int texWidth;</text><ellipse cx="858.5" cy="1695.5234" fill="none" rx="3" ry="3" style="stroke:#038048;stroke-width:1.0;"/><text fill="#000000" font-family="sans-serif" font-size="14" lengthAdjust="spacing" textLength="81" x="867.5" y="1699.752">int texHeight;</text><ellipse cx="858.5" cy="1713.1328" fill="none" rx="3" ry="3" style="stroke:#038048;stroke-width:1.0;"/><text fill="#000000" font-family="sans-serif" font-size="14" lengthAdjust="spacing" textLength="101" x="867.5" y="1717.3613">int texChannels;</text><line style="stroke:#181818;stroke-width:0.5;" x1="848.5" x2="1013.5" y1="1724.4375" y2="1724.4375"/></g><!--class RTexture--><g id="elem_RTexture"><rect codeLine="61" fill="#F1F1F1" height="118.4375" id="RTexture" rx="2.5" ry="2.5" style="stroke:#181818;stroke-width:0.5;" width="291" x="785.5" y="1131"/><ellipse cx="897.75" cy="1147" fill="#ADD1B2" rx="11" ry="11" style="stroke:#181818;stroke-width:1.0;"/><path d="M900.5156,1142.875 Q900.6719,1142.6563 900.8594,1142.5469 Q901.0469,1142.4375 901.2656,1142.4375 Q901.6406,1142.4375 901.875,1142.7031 Q902.1094,1142.9531 902.1094,1143.5625 L902.1094,1145.0156 Q902.1094,1145.625 901.875,1145.8906 Q901.6406,1146.1563 901.2656,1146.1563 Q900.9219,1146.1563 900.7188,1145.9531 Q900.5156,1145.7656 900.4063,1145.25 Q900.3594,1144.8906 900.1719,1144.7031 Q899.8438,1144.3281 899.2344,1144.1094 Q898.625,1143.8906 898,1143.8906 Q897.2344,1143.8906 896.5938,1144.2188 Q895.9688,1144.5469 895.4688,1145.2969 Q894.9844,1146.0469 894.9844,1147.0781 L894.9844,1148.1719 Q894.9844,1149.4063 895.875,1150.2344 Q896.7656,1151.0469 898.3594,1151.0469 Q899.2969,1151.0469 899.9531,1150.7969 Q900.3438,1150.6406 900.7656,1150.2031 Q901.0313,1149.9375 901.1719,1149.8594 Q901.3281,1149.7813 901.5313,1149.7813 Q901.8594,1149.7813 902.1094,1150.0469 Q902.375,1150.2969 902.375,1150.6406 Q902.375,1150.9844 902.0313,1151.3906 Q901.5313,1151.9688 900.7344,1152.2969 Q899.6563,1152.75 898.3594,1152.75 Q896.8438,1152.75 895.6406,1152.125 Q894.6563,1151.625 893.9688,1150.5625 Q893.2813,1149.4844 893.2813,1148.2031 L893.2813,1147.0469 Q893.2813,1145.7188 893.8906,1144.5781 Q894.5156,1143.4219 895.6094,1142.8125 Q896.7031,1142.1875 897.9375,1142.1875 Q898.6719,1142.1875 899.3125,1142.3594 Q899.9688,1142.5156 900.5156,1142.875 Z " fill="#000000"/><text fill="#000000" font-family="sans-serif" font-size="14" lengthAdjust="spacing" textLength="58" x="918.25" y="1152.7285">RTexture</text><line style="stroke:#181818;stroke-width:0.5;" x1="786.5" x2="1075.5" y1="1163" y2="1163"/><rect fill="none" height="6" style="stroke:#C82930;stroke-width:1.0;" width="6" x="793.5" y="1174.3047"/><text fill="#000000" font-family="sans-serif" font-size="14" lengthAdjust="spacing" textLength="164" x="805.5" y="1181.5332">TextureInfo m_textureInfo;</text><line style="stroke:#181818;stroke-width:0.5;" x1="786.5" x2="1075.5" y1="1188.6094" y2="1188.6094"/><ellipse cx="796.5" cy="1202.9141" fill="#84BE84" rx="3" ry="3" style="stroke:#038048;stroke-width:1.0;"/><text fill="#000000" font-family="sans-serif" font-size="14" lengthAdjust="spacing" textLength="186" x="805.5" y="1207.1426">RTexture(const string&amp; path);</text><ellipse cx="796.5" cy="1220.5234" fill="#84BE84" rx="3" ry="3" style="stroke:#038048;stroke-width:1.0;"/><text fill="#000000" font-family="sans-serif" font-size="14" lengthAdjust="spacing" textLength="80" x="805.5" y="1224.752">~RTexture();</text><ellipse cx="796.5" cy="1238.1328" fill="#84BE84" rx="3" ry="3" style="stroke:#038048;stroke-width:1.0;"/><text fill="#000000" font-family="sans-serif" font-size="14" lengthAdjust="spacing" textLength="265" x="805.5" y="1242.3613">const TextureInfo&amp; getTextureInfo() const;</text></g><!--class ShaderInfo--><g id="elem_ShaderInfo"><rect codeLine="71" fill="#F1F1F1" height="83.2188" id="ShaderInfo" rx="2.5" ry="2.5" style="stroke:#181818;stroke-width:0.5;" width="169" x="1170.5" y="1631.5"/><ellipse cx="1216.25" cy="1647.5" fill="#F1F1F1" rx="11" ry="11" style="stroke:#181818;stroke-width:1.0;"/><path d="M1214.3594,1652.0625 Q1214.1406,1652.3281 1214,1652.4063 Q1213.8594,1652.4844 1213.6719,1652.4844 Q1213.2813,1652.4844 1213.0313,1652.2188 Q1212.7969,1651.9531 1212.7969,1651.3594 L1212.7969,1650.2031 Q1212.7969,1649.5938 1213.0313,1649.3438 Q1213.2813,1649.0781 1213.6719,1649.0781 Q1213.9688,1649.0781 1214.1719,1649.2344 Q1214.375,1649.3906 1214.4844,1649.7656 Q1214.5938,1650.125 1214.7031,1650.2656 Q1214.9531,1650.5156 1215.5625,1650.7813 Q1216.1719,1651.0469 1216.9063,1651.0469 Q1218.0469,1651.0469 1218.7656,1650.5156 Q1219.2344,1650.1875 1219.2344,1649.7188 Q1219.2344,1649.4063 1219.0156,1649.125 Q1218.7969,1648.8438 1218.2813,1648.6719 Q1217.9531,1648.5469 1216.7969,1648.3281 Q1215.4063,1648.0625 1214.6875,1647.7031 Q1213.9688,1647.3438 1213.5469,1646.6875 Q1213.1406,1646.0156 1213.1406,1645.2344 Q1213.1406,1644.0156 1214.1563,1643.1094 Q1215.1875,1642.1875 1216.8281,1642.1875 Q1217.4844,1642.1875 1218.0313,1642.3281 Q1218.5938,1642.4688 1219.0625,1642.7656 Q1219.3906,1642.4531 1219.7188,1642.4531 Q1220.0938,1642.4531 1220.3281,1642.7188 Q1220.5625,1642.9688 1220.5625,1643.5781 L1220.5625,1644.8594 Q1220.5625,1645.4688 1220.3281,1645.7344 Q1220.0938,1645.9844 1219.7188,1645.9844 Q1219.4063,1645.9844 1219.1719,1645.7969 Q1218.9844,1645.6563 1218.8906,1645.2344 Q1218.8125,1644.8125 1218.6719,1644.625 Q1218.4219,1644.3125 1217.9375,1644.1094 Q1217.4688,1643.8906 1216.8281,1643.8906 Q1215.9063,1643.8906 1215.375,1644.3125 Q1214.8438,1644.7344 1214.8438,1645.2031 Q1214.8438,1645.5156 1215.0625,1645.8125 Q1215.2813,1646.1094 1215.7031,1646.2813 Q1215.9844,1646.3906 1217.2813,1646.6563 Q1218.5938,1646.9063 1219.2969,1647.2188 Q1220,1647.5156 1220.4688,1648.1719 Q1220.9375,1648.8281 1220.9375,1649.7344 Q1220.9375,1651 1220.0469,1651.75 Q1218.8594,1652.75 1217.0313,1652.75 Q1216.3281,1652.75 1215.6563,1652.5781 Q1215,1652.4063 1214.3594,1652.0625 Z " fill="#000000"/><text fill="#000000" font-family="sans-serif" font-size="14" lengthAdjust="spacing" textLength="69" x="1236.75" y="1653.2285">ShaderInfo</text><line style="stroke:#181818;stroke-width:0.5;" x1="1171.5" x2="1338.5" y1="1663.5" y2="1663.5"/><ellipse cx="1181.5" cy="1677.8047" fill="none" rx="3" ry="3" style="stroke:#038048;stroke-width:1.0;"/><text fill="#000000" font-family="sans-serif" font-size="14" lengthAdjust="spacing" textLength="143" x="1190.5" y="1682.0332">vector&lt;uint8_t&gt; buffer;</text><ellipse cx="1181.5" cy="1695.4141" fill="none" rx="3" ry="3" style="stroke:#038048;stroke-width:1.0;"/><text fill="#000000" font-family="sans-serif" font-size="14" lengthAdjust="spacing" textLength="88" x="1190.5" y="1699.6426">size_t fileSize;</text><line style="stroke:#181818;stroke-width:0.5;" x1="1171.5" x2="1338.5" y1="1706.7188" y2="1706.7188"/></g><!--class RShader--><g id="elem_RShader"><rect codeLine="77" fill="#F1F1F1" height="100.8281" id="RShader" rx="2.5" ry="2.5" style="stroke:#181818;stroke-width:0.5;" width="287" x="1111.5" y="1139.5"/><ellipse cx="1222.75" cy="1155.5" fill="#ADD1B2" rx="11" ry="11" style="stroke:#181818;stroke-width:1.0;"/><path d="M1225.5156,1151.375 Q1225.6719,1151.1563 1225.8594,1151.0469 Q1226.0469,1150.9375 1226.2656,1150.9375 Q1226.6406,1150.9375 1226.875,1151.2031 Q1227.1094,1151.4531 1227.1094,1152.0625 L1227.1094,1153.5156 Q1227.1094,1154.125 1226.875,1154.3906 Q1226.6406,1154.6563 1226.2656,1154.6563 Q1225.9219,1154.6563 1225.7188,1154.4531 Q1225.5156,1154.2656 1225.4063,1153.75 Q1225.3594,1153.3906 1225.1719,1153.2031 Q1224.8438,1152.8281 1224.2344,1152.6094 Q1223.625,1152.3906 1223,1152.3906 Q1222.2344,1152.3906 1221.5938,1152.7188 Q1220.9688,1153.0469 1220.4688,1153.7969 Q1219.9844,1154.5469 1219.9844,1155.5781 L1219.9844,1156.6719 Q1219.9844,1157.9063 1220.875,1158.7344 Q1221.7656,1159.5469 1223.3594,1159.5469 Q1224.2969,1159.5469 1224.9531,1159.2969 Q1225.3438,1159.1406 1225.7656,1158.7031 Q1226.0313,1158.4375 1226.1719,1158.3594 Q1226.3281,1158.2813 1226.5313,1158.2813 Q1226.8594,1158.2813 1227.1094,1158.5469 Q1227.375,1158.7969 1227.375,1159.1406 Q1227.375,1159.4844 1227.0313,1159.8906 Q1226.5313,1160.4688 1225.7344,1160.7969 Q1224.6563,1161.25 1223.3594,1161.25 Q1221.8438,1161.25 1220.6406,1160.625 Q1219.6563,1160.125 1218.9688,1159.0625 Q1218.2813,1157.9844 1218.2813,1156.7031 L1218.2813,1155.5469 Q1218.2813,1154.2188 1218.8906,1153.0781 Q1219.5156,1151.9219 1220.6094,1151.3125 Q1221.7031,1150.6875 1222.9375,1150.6875 Q1223.6719,1150.6875 1224.3125,1150.8594 Q1224.9688,1151.0156 1225.5156,1151.375 Z " fill="#000000"/><text fill="#000000" font-family="sans-serif" font-size="14" lengthAdjust="spacing" textLength="56" x="1243.25" y="1161.2285">RShader</text><line style="stroke:#181818;stroke-width:0.5;" x1="1112.5" x2="1397.5" y1="1171.5" y2="1171.5"/><rect fill="none" height="6" style="stroke:#C82930;stroke-width:1.0;" width="6" x="1119.5" y="1182.8047"/><text fill="#000000" font-family="sans-serif" font-size="14" lengthAdjust="spacing" textLength="163" x="1131.5" y="1190.0332">ShaderInfo m_shaderInfo;</text><line style="stroke:#181818;stroke-width:0.5;" x1="1112.5" x2="1397.5" y1="1197.1094" y2="1197.1094"/><ellipse cx="1122.5" cy="1211.4141" fill="#84BE84" rx="3" ry="3" style="stroke:#038048;stroke-width:1.0;"/><text fill="#000000" font-family="sans-serif" font-size="14" lengthAdjust="spacing" textLength="184" x="1131.5" y="1215.6426">RShader(const string&amp; path);</text><ellipse cx="1122.5" cy="1229.0234" fill="#84BE84" rx="3" ry="3" style="stroke:#038048;stroke-width:1.0;"/><text fill="#000000" font-family="sans-serif" font-size="14" lengthAdjust="spacing" textLength="261" x="1131.5" y="1233.252">const ShaderInfo&amp; getShaderInfo() const;</text></g><!--class ResourceCache--><g id="elem_ResourceCache"><rect codeLine="90" fill="#F1F1F1" height="136.0469" id="ResourceCache" rx="2.5" ry="2.5" style="stroke:#181818;stroke-width:0.5;" width="345" x="1514.5" y="1605"/><ellipse cx="1626.25" cy="1621" fill="#ADD1B2" rx="11" ry="11" style="stroke:#181818;stroke-width:1.0;"/><path d="M1629.0156,1616.875 Q1629.1719,1616.6563 1629.3594,1616.5469 Q1629.5469,1616.4375 1629.7656,1616.4375 Q1630.1406,1616.4375 1630.375,1616.7031 Q1630.6094,1616.9531 1630.6094,1617.5625 L1630.6094,1619.0156 Q1630.6094,1619.625 1630.375,1619.8906 Q1630.1406,1620.1563 1629.7656,1620.1563 Q1629.4219,1620.1563 1629.2188,1619.9531 Q1629.0156,1619.7656 1628.9063,1619.25 Q1628.8594,1618.8906 1628.6719,1618.7031 Q1628.3438,1618.3281 1627.7344,1618.1094 Q1627.125,1617.8906 1626.5,1617.8906 Q1625.7344,1617.8906 1625.0938,1618.2188 Q1624.4688,1618.5469 1623.9688,1619.2969 Q1623.4844,1620.0469 1623.4844,1621.0781 L1623.4844,1622.1719 Q1623.4844,1623.4063 1624.375,1624.2344 Q1625.2656,1625.0469 1626.8594,1625.0469 Q1627.7969,1625.0469 1628.4531,1624.7969 Q1628.8438,1624.6406 1629.2656,1624.2031 Q1629.5313,1623.9375 1629.6719,1623.8594 Q1629.8281,1623.7813 1630.0313,1623.7813 Q1630.3594,1623.7813 1630.6094,1624.0469 Q1630.875,1624.2969 1630.875,1624.6406 Q1630.875,1624.9844 1630.5313,1625.3906 Q1630.0313,1625.9688 1629.2344,1626.2969 Q1628.1563,1626.75 1626.8594,1626.75 Q1625.3438,1626.75 1624.1406,1626.125 Q1623.1563,1625.625 1622.4688,1624.5625 Q1621.7813,1623.4844 1621.7813,1622.2031 L1621.7813,1621.0469 Q1621.7813,1619.7188 1622.3906,1618.5781 Q1623.0156,1617.4219 1624.1094,1616.8125 Q1625.2031,1616.1875 1626.4375,1616.1875 Q1627.1719,1616.1875 1627.8125,1616.3594 Q1628.4688,1616.5156 1629.0156,1616.875 Z " fill="#000000"/><text fill="#000000" font-family="sans-serif" font-size="14" lengthAdjust="spacing" textLength="102" x="1646.75" y="1626.7285">ResourceCache</text><rect fill="#FFFFFF" height="17.0938" style="stroke:#181818;stroke-width:1.0;stroke-dasharray:2.0,2.0;" width="9" x="1853.5" y="1602"/><text fill="#000000" font-family="sans-serif" font-size="12" font-style="italic" lengthAdjust="spacing" textLength="7" x="1854.5" y="1615.457">T</text><line style="stroke:#181818;stroke-width:0.5;" x1="1515.5" x2="1858.5" y1="1637" y2="1637"/><rect fill="none" height="6" style="stroke:#C82930;stroke-width:1.0;" width="6" x="1522.5" y="1648.3047"/><text fill="#000000" font-family="sans-serif" font-size="14" lengthAdjust="spacing" textLength="319" x="1534.5" y="1655.5332">unordered_map&lt;string, shared_ptr&lt;T&gt;&gt; m_cache;</text><line style="stroke:#181818;stroke-width:0.5;" x1="1515.5" x2="1858.5" y1="1662.6094" y2="1662.6094"/><ellipse cx="1525.5" cy="1676.9141" fill="#84BE84" rx="3" ry="3" style="stroke:#038048;stroke-width:1.0;"/><text fill="#000000" font-family="sans-serif" font-size="14" lengthAdjust="spacing" textLength="253" x="1534.5" y="1681.1426">shared_ptr&lt;T&gt; load(const string&amp; path);</text><ellipse cx="1525.5" cy="1694.5234" fill="#84BE84" rx="3" ry="3" style="stroke:#038048;stroke-width:1.0;"/><text fill="#000000" font-family="sans-serif" font-size="14" lengthAdjust="spacing" textLength="171" x="1534.5" y="1698.752">unload(const string&amp; path);</text><ellipse cx="1525.5" cy="1712.1328" fill="#84BE84" rx="3" ry="3" style="stroke:#038048;stroke-width:1.0;"/><text fill="#000000" font-family="sans-serif" font-size="14" lengthAdjust="spacing" textLength="75" x="1534.5" y="1716.3613">void clear();</text><ellipse cx="1525.5" cy="1729.7422" fill="#84BE84" rx="3" ry="3" style="stroke:#038048;stroke-width:1.0;"/><text fill="#000000" font-family="sans-serif" font-size="14" lengthAdjust="spacing" textLength="139" x="1534.5" y="1733.9707">void removeUnused();</text></g><!--class ResourceRegistry--><g id="elem_ResourceRegistry"><rect codeLine="99" fill="#F1F1F1" height="118.4375" id="ResourceRegistry" rx="2.5" ry="2.5" style="stroke:#181818;stroke-width:0.5;" width="543" x="1815.5" y="1131"/><ellipse cx="2026.25" cy="1147" fill="#ADD1B2" rx="11" ry="11" style="stroke:#181818;stroke-width:1.0;"/><path d="M2029.0156,1142.875 Q2029.1719,1142.6563 2029.3594,1142.5469 Q2029.5469,1142.4375 2029.7656,1142.4375 Q2030.1406,1142.4375 2030.375,1142.7031 Q2030.6094,1142.9531 2030.6094,1143.5625 L2030.6094,1145.0156 Q2030.6094,1145.625 2030.375,1145.8906 Q2030.1406,1146.1563 2029.7656,1146.1563 Q2029.4219,1146.1563 2029.2188,1145.9531 Q2029.0156,1145.7656 2028.9063,1145.25 Q2028.8594,1144.8906 2028.6719,1144.7031 Q2028.3438,1144.3281 2027.7344,1144.1094 Q2027.125,1143.8906 2026.5,1143.8906 Q2025.7344,1143.8906 2025.0938,1144.2188 Q2024.4688,1144.5469 2023.9688,1145.2969 Q2023.4844,1146.0469 2023.4844,1147.0781 L2023.4844,1148.1719 Q2023.4844,1149.4063 2024.375,1150.2344 Q2025.2656,1151.0469 2026.8594,1151.0469 Q2027.7969,1151.0469 2028.4531,1150.7969 Q2028.8438,1150.6406 2029.2656,1150.2031 Q2029.5313,1149.9375 2029.6719,1149.8594 Q2029.8281,1149.7813 2030.0313,1149.7813 Q2030.3594,1149.7813 2030.6094,1150.0469 Q2030.875,1150.2969 2030.875,1150.6406 Q2030.875,1150.9844 2030.5313,1151.3906 Q2030.0313,1151.9688 2029.2344,1152.2969 Q2028.1563,1152.75 2026.8594,1152.75 Q2025.3438,1152.75 2024.1406,1152.125 Q2023.1563,1151.625 2022.4688,1150.5625 Q2021.7813,1149.4844 2021.7813,1148.2031 L2021.7813,1147.0469 Q2021.7813,1145.7188 2022.3906,1144.5781 Q2023.0156,1143.4219 2024.1094,1142.8125 Q2025.2031,1142.1875 2026.4375,1142.1875 Q2027.1719,1142.1875 2027.8125,1142.3594 Q2028.4688,1142.5156 2029.0156,1142.875 Z " fill="#000000"/><text fill="#000000" font-family="sans-serif" font-size="14" lengthAdjust="spacing" textLength="113" x="2046.75" y="1152.7285">ResourceRegistry</text><line style="stroke:#181818;stroke-width:0.5;" x1="1816.5" x2="2357.5" y1="1163" y2="1163"/><rect fill="none" height="6" style="stroke:#C82930;stroke-width:1.0;" width="6" x="1823.5" y="1174.3047"/><text fill="#000000" font-family="sans-serif" font-size="14" lengthAdjust="spacing" textLength="393" x="1835.5" y="1181.5332">unordered_map&lt;string, shared_ptr&lt;BaseResource&gt;&gt; registry;</text><line style="stroke:#181818;stroke-width:0.5;" x1="1816.5" x2="2357.5" y1="1188.6094" y2="1188.6094"/><ellipse cx="1826.5" cy="1202.9141" fill="#84BE84" rx="3" ry="3" style="stroke:#038048;stroke-width:1.0;"/><text fill="#000000" font-family="sans-serif" font-size="14" lengthAdjust="spacing" textLength="517" x="1835.5" y="1207.1426">void registrerResource(const string&amp; guid, shared_ptr&lt;BaseResource&gt; resource);</text><ellipse cx="1826.5" cy="1220.5234" fill="#84BE84" rx="3" ry="3" style="stroke:#038048;stroke-width:1.0;"/><text fill="#000000" font-family="sans-serif" font-size="14" lengthAdjust="spacing" textLength="331" x="1835.5" y="1224.752">void unregisterResourceByGUID(const string&amp; guid);</text><ellipse cx="1826.5" cy="1238.1328" fill="#84BE84" rx="3" ry="3" style="stroke:#038048;stroke-width:1.0;"/><text fill="#000000" font-family="sans-serif" font-size="14" lengthAdjust="spacing" textLength="424" x="1835.5" y="1242.3613">shared_ptr&lt;BaseResource&gt; getResource(const string&amp; guid)const;</text></g><!--class ResourceModule--><g id="elem_ResourceModule"><rect codeLine="107" fill="#F1F1F1" height="287.625" id="ResourceModule" rx="2.5" ry="2.5" style="stroke:#181818;stroke-width:0.5;" width="266" x="1514" y="1046"/><ellipse cx="1589.25" cy="1067.3516" fill="#ADD1B2" rx="11" ry="11" style="stroke:#181818;stroke-width:1.0;"/><path d="M1592.0156,1063.2266 Q1592.1719,1063.0078 1592.3594,1062.8984 Q1592.5469,1062.7891 1592.7656,1062.7891 Q1593.1406,1062.7891 1593.375,1063.0547 Q1593.6094,1063.3047 1593.6094,1063.9141 L1593.6094,1065.3672 Q1593.6094,1065.9766 1593.375,1066.2422 Q1593.1406,1066.5078 1592.7656,1066.5078 Q1592.4219,1066.5078 1592.2188,1066.3047 Q1592.0156,1066.1172 1591.9063,1065.6016 Q1591.8594,1065.2422 1591.6719,1065.0547 Q1591.3438,1064.6797 1590.7344,1064.4609 Q1590.125,1064.2422 1589.5,1064.2422 Q1588.7344,1064.2422 1588.0938,1064.5703 Q1587.4688,1064.8984 1586.9688,1065.6484 Q1586.4844,1066.3984 1586.4844,1067.4297 L1586.4844,1068.5234 Q1586.4844,1069.7578 1587.375,1070.5859 Q1588.2656,1071.3984 1589.8594,1071.3984 Q1590.7969,1071.3984 1591.4531,1071.1484 Q1591.8438,1070.9922 1592.2656,1070.5547 Q1592.5313,1070.2891 1592.6719,1070.2109 Q1592.8281,1070.1328 1593.0313,1070.1328 Q1593.3594,1070.1328 1593.6094,1070.3984 Q1593.875,1070.6484 1593.875,1070.9922 Q1593.875,1071.3359 1593.5313,1071.7422 Q1593.0313,1072.3203 1592.2344,1072.6484 Q1591.1563,1073.1016 1589.8594,1073.1016 Q1588.3438,1073.1016 1587.1406,1072.4766 Q1586.1563,1071.9766 1585.4688,1070.9141 Q1584.7813,1069.8359 1584.7813,1068.5547 L1584.7813,1067.3984 Q1584.7813,1066.0703 1585.3906,1064.9297 Q1586.0156,1063.7734 1587.1094,1063.1641 Q1588.2031,1062.5391 1589.4375,1062.5391 Q1590.1719,1062.5391 1590.8125,1062.7109 Q1591.4688,1062.8672 1592.0156,1063.2266 Z " fill="#000000"/><text fill="#000000" font-family="sans-serif" font-size="12" font-style="italic" lengthAdjust="spacing" textLength="71" x="1627.75" y="1063.457">&#171;singletone&#187;</text><text fill="#000000" font-family="sans-serif" font-size="14" lengthAdjust="spacing" textLength="107" x="1609.75" y="1080.627">ResourceModule</text><line style="stroke:#181818;stroke-width:0.5;" x1="1515" x2="1779" y1="1088.7031" y2="1088.7031"/><rect fill="none" height="6" style="stroke:#C82930;stroke-width:1.0;" width="6" x="1522" y="1100.0078"/><text fill="#000000" font-family="sans-serif" font-size="14" lengthAdjust="spacing" textLength="177" x="1534" y="1107.2363">MeshCache m_meshCache;</text><rect fill="none" height="6" style="stroke:#C82930;stroke-width:1.0;" width="6" x="1522" y="1117.6172"/><text fill="#000000" font-family="sans-serif" font-size="14" lengthAdjust="spacing" textLength="199" x="1534" y="1124.8457">ShaderCache m_shaderCache;</text><rect fill="none" height="6" style="stroke:#C82930;stroke-width:1.0;" width="6" x="1522" y="1135.2266"/><text fill="#000000" font-family="sans-serif" font-size="14" lengthAdjust="spacing" textLength="200" x="1534" y="1142.4551">TextureCache m_textureCache;</text><rect fill="none" height="6" style="stroke:#C82930;stroke-width:1.0;" width="6" x="1522" y="1152.8359"/><text fill="#000000" font-family="sans-serif" font-size="14" lengthAdjust="spacing" textLength="209" x="1534" y="1160.0645">MaterialCache m_materialCache;</text><text fill="#000000" font-family="sans-serif" font-size="14" lengthAdjust="spacing" textLength="119" x="1534" y="1177.6738">&#171;template class T&#187;</text><ellipse cx="1525" cy="1191.0547" fill="none" rx="3" ry="3" style="stroke:#038048;stroke-width:1.0;"/><text fill="#000000" font-family="sans-serif" font-size="14" lengthAdjust="spacing" textLength="131" x="1534" y="1195.2832">static shared_ptr&lt;T&gt;</text><line style="stroke:#181818;stroke-width:0.5;" x1="1515" x2="1779" y1="1202.3594" y2="1202.3594"/><rect fill="#F24D5C" height="6" style="stroke:#C82930;stroke-width:1.0;" width="6" x="1522" y="1213.6641"/><text fill="#000000" font-family="sans-serif" font-size="14" lengthAdjust="spacing" textLength="121" x="1534" y="1220.8926">ResourceModule();</text><ellipse cx="1525" cy="1234.2734" fill="#84BE84" rx="3" ry="3" style="stroke:#038048;stroke-width:1.0;"/><text fill="#000000" font-family="sans-serif" font-size="14" lengthAdjust="spacing" textLength="240" x="1534" y="1238.502">static ResourceModule&amp; getInstance()</text><ellipse cx="1525" cy="1251.8828" fill="#84BE84" rx="3" ry="3" style="stroke:#038048;stroke-width:1.0;"/><text fill="#000000" font-family="sans-serif" font-size="14" lengthAdjust="spacing" textLength="131" x="1534" y="1256.1113">void clearAllCache();</text><ellipse cx="1525" cy="1269.4922" fill="#84BE84" rx="3" ry="3" style="stroke:#038048;stroke-width:1.0;"/><text fill="#000000" font-family="sans-serif" font-size="14" lengthAdjust="spacing" textLength="88" x="1534" y="1273.7207">void startup();</text><ellipse cx="1525" cy="1287.1016" fill="#84BE84" rx="3" ry="3" style="stroke:#038048;stroke-width:1.0;"/><text fill="#000000" font-family="sans-serif" font-size="14" lengthAdjust="spacing" textLength="106" x="1534" y="1291.3301">void shutDown();</text><ellipse cx="1525" cy="1304.7109" fill="#84BE84" rx="3" ry="3" style="stroke:#038048;stroke-width:1.0;"/><text fill="#000000" font-family="sans-serif" font-size="14" lengthAdjust="spacing" textLength="197" x="1534" y="1308.9395">void OnLoadInitialWorldState();</text><rect fill="#F24D5C" height="6" style="stroke:#C82930;stroke-width:1.0;" width="6" x="1522" y="1319.3203"/><text fill="#000000" font-family="sans-serif" font-size="14" lengthAdjust="spacing" textLength="164" x="1534" y="1326.5488">void checkAllResources();</text></g><!--class ShaderCompiler--><g id="elem_ShaderCompiler"><rect codeLine="3" fill="#F1F1F1" height="199.5781" id="ShaderCompiler" rx="2.5" ry="2.5" style="stroke:#181818;stroke-width:0.5;" width="487" x="81.5" y="102"/><ellipse cx="269.75" cy="123.3516" fill="#ADD1B2" rx="11" ry="11" style="stroke:#181818;stroke-width:1.0;"/><path d="M272.5156,119.2266 Q272.6719,119.0078 272.8594,118.8984 Q273.0469,118.7891 273.2656,118.7891 Q273.6406,118.7891 273.875,119.0547 Q274.1094,119.3047 274.1094,119.9141 L274.1094,121.3672 Q274.1094,121.9766 273.875,122.2422 Q273.6406,122.5078 273.2656,122.5078 Q272.9219,122.5078 272.7188,122.3047 Q272.5156,122.1172 272.4063,121.6016 Q272.3594,121.2422 272.1719,121.0547 Q271.8438,120.6797 271.2344,120.4609 Q270.625,120.2422 270,120.2422 Q269.2344,120.2422 268.5938,120.5703 Q267.9688,120.8984 267.4688,121.6484 Q266.9844,122.3984 266.9844,123.4297 L266.9844,124.5234 Q266.9844,125.7578 267.875,126.5859 Q268.7656,127.3984 270.3594,127.3984 Q271.2969,127.3984 271.9531,127.1484 Q272.3438,126.9922 272.7656,126.5547 Q273.0313,126.2891 273.1719,126.2109 Q273.3281,126.1328 273.5313,126.1328 Q273.8594,126.1328 274.1094,126.3984 Q274.375,126.6484 274.375,126.9922 Q274.375,127.3359 274.0313,127.7422 Q273.5313,128.3203 272.7344,128.6484 Q271.6563,129.1016 270.3594,129.1016 Q268.8438,129.1016 267.6406,128.4766 Q266.6563,127.9766 265.9688,126.9141 Q265.2813,125.8359 265.2813,124.5547 L265.2813,123.3984 Q265.2813,122.0703 265.8906,120.9297 Q266.5156,119.7734 267.6094,119.1641 Q268.7031,118.5391 269.9375,118.5391 Q270.6719,118.5391 271.3125,118.7109 Q271.9688,118.8672 272.5156,119.2266 Z " fill="#000000"/><text fill="#000000" font-family="sans-serif" font-size="12" font-style="italic" lengthAdjust="spacing" textLength="71" x="305.75" y="119.457">&#171;singletone&#187;</text><text fill="#000000" font-family="sans-serif" font-size="14" lengthAdjust="spacing" textLength="102" x="290.25" y="136.627">ShaderCompiler</text><line style="stroke:#181818;stroke-width:0.5;" x1="82.5" x2="567.5" y1="144.7031" y2="144.7031"/><rect fill="none" height="6" style="stroke:#C82930;stroke-width:1.0;" width="6" x="89.5" y="156.0078"/><text fill="#000000" font-family="sans-serif" font-size="14" lengthAdjust="spacing" textLength="230" x="101.5" y="163.2363">vector&lt;Event&lt;bool, string&gt;&gt; m_task;</text><line style="stroke:#181818;stroke-width:0.5;" x1="82.5" x2="567.5" y1="170.3125" y2="170.3125"/><rect fill="#F24D5C" height="6" style="stroke:#C82930;stroke-width:1.0;" width="6" x="89.5" y="181.6172"/><text fill="#000000" font-family="sans-serif" font-size="14" lengthAdjust="spacing" textLength="175" x="101.5" y="188.8457">ShaderCompiler() = default;</text><polygon fill="#4177AF" points="92.5,198.2266,88.5,204.2266,96.5,204.2266" style="stroke:#1963A0;stroke-width:1.0;"/><text fill="#000000" font-family="sans-serif" font-size="14" lengthAdjust="spacing" textLength="180" x="101.5" y="206.4551">-ShaderCompiler() = default;</text><rect fill="#F24D5C" height="6" style="stroke:#C82930;stroke-width:1.0;" width="6" x="89.5" y="216.8359"/><text fill="#000000" font-family="sans-serif" font-size="14" lengthAdjust="spacing" textLength="317" x="101.5" y="224.0645">ShaderCompiler(const ShaderCompier&amp;) = delete;</text><rect fill="#F24D5C" height="6" style="stroke:#C82930;stroke-width:1.0;" width="6" x="89.5" y="234.4453"/><text fill="#000000" font-family="sans-serif" font-size="14" lengthAdjust="spacing" textLength="388" x="101.5" y="241.6738">ShaderCompiler&amp; operator=(cont ShaderCompiler&amp;) = delete;</text><ellipse cx="92.5" cy="255.0547" fill="#84BE84" rx="3" ry="3" style="stroke:#038048;stroke-width:1.0;"/><text fill="#000000" font-family="sans-serif" font-size="14" lengthAdjust="spacing" textLength="306" x="101.5" y="259.2832">string compileShader(const string&amp; shaderPath);</text><ellipse cx="92.5" cy="272.6641" fill="#84BE84" rx="3" ry="3" style="stroke:#038048;stroke-width:1.0;"/><text fill="#000000" font-family="sans-serif" font-size="14" lengthAdjust="spacing" textLength="461" x="101.5" y="276.8926">const Event&amp; compileShadersAsync(const vector&lt;string&gt;&amp; shaderPaths);</text><ellipse cx="92.5" cy="290.2734" fill="#84BE84" rx="3" ry="3" style="stroke:#038048;stroke-width:1.0;"/><text fill="#000000" font-family="sans-serif" font-size="14" lengthAdjust="spacing" textLength="365" x="101.5" y="294.502">bool isShaderPrecompiled(const std::string&amp; shaderPath);</text></g><!--reverse link FilesystemModule to FResult--><g id="link_FilesystemModule_FResult"><path codeLine="67" d="M2618.9561,1550.7579 C2607.1061,1576.4379 2598.8,1594.42 2589.79,1613.96 " fill="none" id="FilesystemModule-backto-FResult" style="stroke:#181818;stroke-width:1.0;stroke-dasharray:7.0,7.0;"/><polygon fill="#181818" points="2621.47,1545.31,2614.0671,1551.806,2619.375,1549.85,2621.331,1555.1579,2621.47,1545.31" style="stroke:#181818;stroke-width:1.0;"/></g><!--reverse link FilesystemModule to DirContentType--><g id="link_FilesystemModule_DirContentType"><path codeLine="68" d="M2745.3027,1551.2739 C2742.0527,1580.7639 2739.79,1601.33 2737.47,1622.39 " fill="none" id="FilesystemModule-backto-DirContentType" style="stroke:#181818;stroke-width:1.0;stroke-dasharray:7.0,7.0;"/><polygon fill="#181818" points="2745.96,1545.31,2740.9982,1553.8177,2745.4123,1550.2799,2748.95,1554.694,2745.96,1545.31" style="stroke:#181818;stroke-width:1.0;"/></g><!--reverse link FilesystemModule to ContentSearchFilter--><g id="link_FilesystemModule_ContentSearchFilter"><path codeLine="69" d="M2924.1734,1550.9064 C2935.5734,1580.3964 2943.67,1601.33 2951.82,1622.39 " fill="none" id="FilesystemModule-backto-ContentSearchFilter" style="stroke:#181818;stroke-width:1.0;stroke-dasharray:7.0,7.0;"/><polygon fill="#181818" points="2922.01,1545.31,2921.5242,1555.1469,2923.8128,1549.9737,2928.986,1552.2623,2922.01,1545.31" style="stroke:#181818;stroke-width:1.0;"/></g><!--reverse link DirectoryIterator to FilesystemModule--><g id="link_DirectoryIterator_FilesystemModule"><path codeLine="94" d="M2785,781 C2785,800.33 2785,814.43 2785,834.91 " fill="none" id="DirectoryIterator-backto-FilesystemModule" style="stroke:#181818;stroke-width:1.0;stroke-dasharray:7.0,7.0;"/><polygon fill="#181818" points="2785,775,2781,784,2785,780,2789,784,2785,775" style="stroke:#181818;stroke-width:1.0;"/></g><!--reverse link BaseResource to RMesh--><g id="link_BaseResource_RMesh"><path codeLine="32" d="M730.5642,667.4777 C708.6042,707.5777 682.99,743.38 639,775 C563.3,829.42 509.12,774.72 438,835 C358.43,902.45 312.27,1015.16 287.95,1095.28 " fill="none" id="BaseResource-backto-RMesh" style="stroke:#181818;stroke-width:1.0;"/><polygon fill="none" points="739.21,651.69,725.3016,664.5957,735.8267,670.3596,739.21,651.69" style="stroke:#181818;stroke-width:1.0;"/></g><!--reverse link RMesh to MeshVertex--><g id="link_RMesh_MeshVertex"><path codeLine="33" d="M268.0691,1296.5949 C270.9091,1394.1649 274.93,1532.02 277.31,1613.81 " fill="none" id="RMesh-backto-MeshVertex" style="stroke:#181818;stroke-width:1.0;"/><polygon fill="none" points="267.72,1284.6,263.8963,1290.7138,268.0691,1296.5949,271.8929,1290.4811,267.72,1284.6" style="stroke:#181818;stroke-width:1.0;"/></g><!--reverse link BaseResource to RMaterial--><g id="link_BaseResource_RMaterial"><path codeLine="50" d="M746.2009,669.034 C714.0409,785.814 646.91,1029.54 616.74,1139.1 " fill="none" id="BaseResource-backto-RMaterial" style="stroke:#181818;stroke-width:1.0;"/><polygon fill="none" points="750.98,651.68,740.4162,667.4409,751.9856,670.627,750.98,651.68" style="stroke:#181818;stroke-width:1.0;"/></g><!--reverse link RMaterial to MaterialInfo--><g id="link_RMaterial_MaterialInfo"><path codeLine="51" d="M603,1252.66 C603,1339.43 603,1506.7 603,1604.59 " fill="none" id="RMaterial-backto-MaterialInfo" style="stroke:#181818;stroke-width:1.0;"/><polygon fill="none" points="603,1240.66,599,1246.66,603,1252.66,607,1246.66,603,1240.66" style="stroke:#181818;stroke-width:1.0;"/></g><!--reverse link BaseResource to RTexture--><g id="link_BaseResource_RTexture"><path codeLine="68" d="M787.8001,669.0337 C819.1601,782.8837 883.51,1016.55 914.91,1130.58 " fill="none" id="BaseResource-backto-RTexture" style="stroke:#181818;stroke-width:1.0;"/><polygon fill="none" points="783.02,651.68,782.0155,670.6271,793.5846,667.4403,783.02,651.68" style="stroke:#181818;stroke-width:1.0;"/></g><!--reverse link RTexture to TextureInfo--><g id="link_RTexture_TextureInfo"><path codeLine="69" d="M931,1261.02 C931,1353.47 931,1521.19 931,1613.77 " fill="none" id="RTexture-backto-TextureInfo" style="stroke:#181818;stroke-width:1.0;"/><polygon fill="none" points="931,1249.02,927,1255.02,931,1261.02,935,1255.02,931,1249.02" style="stroke:#181818;stroke-width:1.0;"/></g><!--reverse link BaseResource to RShader--><g id="link_BaseResource_RShader"><path codeLine="84" d="M803.0689,667.4941 C824.8089,707.5941 850.21,743.35 894,775 C969.21,829.36 1024.09,773.97 1094,835 C1187.2,916.37 1229.47,1062.64 1245.96,1139.2 " fill="none" id="BaseResource-backto-RShader" style="stroke:#181818;stroke-width:1.0;"/><polygon fill="none" points="794.49,651.67,797.7942,670.3537,808.3436,664.6344,794.49,651.67" style="stroke:#181818;stroke-width:1.0;"/></g><!--reverse link RShader to ShaderInfo--><g id="link_RShader_ShaderInfo"><path codeLine="85" d="M1255,1252.66 C1255,1348.08 1255,1543.32 1255,1631.25 " fill="none" id="RShader-backto-ShaderInfo" style="stroke:#181818;stroke-width:1.0;"/><polygon fill="none" points="1255,1240.66,1251,1246.66,1255,1252.66,1259,1246.66,1255,1240.66" style="stroke:#181818;stroke-width:1.0;"/></g><!--reverse link ResourceModule to ResourceRegistry--><g id="link_ResourceModule_ResourceRegistry"><path codeLine="123" d="M1792.2,1190 C1803.89,1190 1803.57,1190 1815.26,1190 " fill="none" id="ResourceModule-backto-ResourceRegistry" style="stroke:#181818;stroke-width:1.0;"/><polygon fill="none" points="1780.2,1190,1786.2,1194,1792.2,1190,1786.2,1186,1780.2,1190" style="stroke:#181818;stroke-width:1.0;"/></g><!--reverse link ResourceModule to ResourceCache--><g id="link_ResourceModule_ResourceCache"><path codeLine="124" d="M1659.8844,1345.9687 C1667.3344,1435.5587 1675.6,1534.91 1681.41,1604.72 " fill="none" id="ResourceModule-backto-ResourceCache" style="stroke:#181818;stroke-width:1.0;"/><polygon fill="none" points="1658.89,1334.01,1655.401,1340.3208,1659.8844,1345.9687,1663.3735,1339.6579,1658.89,1334.01" style="stroke:#181818;stroke-width:1.0;"/></g><!--link Resources to ResourceManagement--><g id="link_Resources_ResourceManagement"><path codeLine="126" d="M1431.0369,678.9909 C1431.3498,682.3184 1431.6696,685.7197 1431.9959,689.1903 C1437.2175,744.72 1444.1087,818.0013 1451,891.28 C1457.8913,964.5588 1464.7825,1037.835 1470.0041,1093.3547 C1470.3304,1096.8247 1469.5266,1088.278 1469.8395,1091.6049 " fill="none" id="Resources-to-ResourceManagement" style="stroke:#181818;stroke-width:1.0;"/><polygon fill="none" points="1470.9631,1103.5522,1474.3837,1097.204,1469.8395,1091.6049,1466.4189,1097.9531,1470.9631,1103.5522" style="stroke:#181818;stroke-width:1.0;"/></g><!--link FilesystemModule to ResourceModule--><g id="link_FilesystemModule_ResourceModule"><path codeLine="7" d="M2462.9343,590.5842 C2462.3476,590.4449 2461.7299,590.2983 2461.0814,590.1443 C2455.8936,588.9128 2448.7375,587.2145 2439.773,585.088 C2435.2908,584.0248 2430.3566,582.8545 2424.9902,581.5821 C2424.6548,581.5025 2424.3177,581.4226 2423.9789,581.3423 C2423.8096,581.3021 2423.6398,581.2618 2423.4695,581.2215 C2423.3844,581.2013 2429.1373,582.5654 2429.052,582.5452 " fill="none" id="FilesystemModule-to-ResourceModule" style="stroke:#181818;stroke-width:1.0;stroke-dasharray:7.0,7.0;"/><polygon fill="#181818" points="2423.2139,581.1609,2431.0482,587.1294,2428.079,582.3144,2432.8939,579.3452,2423.2139,581.1609" style="stroke:#181818;stroke-width:1.0;"/></g><!--link ShaderCompilerModule to ResourceModule--><g id="link_ShaderCompilerModule_ResourceModule"><path codeLine="8" d="M46,327.0051 C46,349.4615 46,373.3653 46,397.2687 C46,403.2446 46,409.2204 46,415.1736 C46,418.1502 46,421.1212 46,424.0836 C46,425.5648 46,421.0439 46,422.5205 " fill="none" id="ShaderCompilerModule-to-ResourceModule" style="stroke:#181818;stroke-width:1.0;stroke-dasharray:7.0,7.0;"/><polygon fill="#181818" points="46,428.5205,50,419.5205,46,423.5205,42,419.5205,46,428.5205" style="stroke:#181818;stroke-width:1.0;"/></g><!--SRC=[AqXCpavCJrK8IYtEBorAJlLDp0DoSrFpIe9BauehYqjISxcgkHI0G34pBpcdD2LLmIqp9nKYuvkVKfgJgbTGcfk3gWHk6Yu5mHc9AQb5plcv1K33Yf2LWTMXwbUmqSj9JIlHmx0PkzhI0ZsivdFL0W00]--></g></svg>