<?xml version="1.0" encoding="us-ascii" standalone="no"?><svg xmlns="http://www.w3.org/2000/svg" xmlns:xlink="http://www.w3.org/1999/xlink" contentStyleType="text/css" height="141px" preserveAspectRatio="none" style="width:241px;height:141px;background:#FFFFFF;" version="1.1" viewBox="0 0 241 141" width="241px" zoomAndPan="magnify"><defs/><g><!--cluster PhysicsModule--><g id="cluster_PhysicsModule"><path d="M8.5,6 L115.5,6 A3.75,3.75 0 0 1 118,8.5 L125,29.6094 L231.5,29.6094 A2.5,2.5 0 0 1 234,32.1094 L234,131.5 A2.5,2.5 0 0 1 231.5,134 L8.5,134 A2.5,2.5 0 0 1 6,131.5 L6,8.5 A2.5,2.5 0 0 1 8.5,6 " fill="none" style="stroke:#000000;stroke-width:1.5;"/><line style="stroke:#000000;stroke-width:1.5;" x1="6" x2="125" y1="29.6094" y2="29.6094"/><text fill="#000000" font-family="sans-serif" font-size="14" font-weight="bold" lengthAdjust="spacing" textLength="106" x="10" y="22.5332">PhysicsModule</text></g><!--class PhysicsModule--><g id="elem_PhysicsModule"><rect codeLine="3" fill="#F1F1F1" height="76.3125" id="PhysicsModule" rx="2.5" ry="2.5" style="stroke:#181818;stroke-width:0.5;" width="196" x="22" y="42"/><ellipse cx="68.75" cy="63.3516" fill="#ADD1B2" rx="11" ry="11" style="stroke:#181818;stroke-width:1.0;"/><path d="M71.5156,59.2266 Q71.6719,59.0078 71.8594,58.8984 Q72.0469,58.7891 72.2656,58.7891 Q72.6406,58.7891 72.875,59.0547 Q73.1094,59.3047 73.1094,59.9141 L73.1094,61.3672 Q73.1094,61.9766 72.875,62.2422 Q72.6406,62.5078 72.2656,62.5078 Q71.9219,62.5078 71.7188,62.3047 Q71.5156,62.1172 71.4063,61.6016 Q71.3594,61.2422 71.1719,61.0547 Q70.8438,60.6797 70.2344,60.4609 Q69.625,60.2422 69,60.2422 Q68.2344,60.2422 67.5938,60.5703 Q66.9688,60.8984 66.4688,61.6484 Q65.9844,62.3984 65.9844,63.4297 L65.9844,64.5234 Q65.9844,65.7578 66.875,66.5859 Q67.7656,67.3984 69.3594,67.3984 Q70.2969,67.3984 70.9531,67.1484 Q71.3438,66.9922 71.7656,66.5547 Q72.0313,66.2891 72.1719,66.2109 Q72.3281,66.1328 72.5313,66.1328 Q72.8594,66.1328 73.1094,66.3984 Q73.375,66.6484 73.375,66.9922 Q73.375,67.3359 73.0313,67.7422 Q72.5313,68.3203 71.7344,68.6484 Q70.6563,69.1016 69.3594,69.1016 Q67.8438,69.1016 66.6406,68.4766 Q65.6563,67.9766 64.9688,66.9141 Q64.2813,65.8359 64.2813,64.5547 L64.2813,63.3984 Q64.2813,62.0703 64.8906,60.9297 Q65.5156,59.7734 66.6094,59.1641 Q67.7031,58.5391 68.9375,58.5391 Q69.6719,58.5391 70.3125,58.7109 Q70.9688,58.8672 71.5156,59.2266 Z " fill="#000000"/><text fill="#000000" font-family="sans-serif" font-size="12" font-style="italic" lengthAdjust="spacing" textLength="71" x="100.75" y="59.457">&#171;singletone&#187;</text><text fill="#000000" font-family="sans-serif" font-size="14" lengthAdjust="spacing" textLength="94" x="89.25" y="76.627">PhysicsModule</text><line style="stroke:#181818;stroke-width:0.5;" x1="23" x2="217" y1="84.7031" y2="84.7031"/><rect fill="none" height="6" style="stroke:#C82930;stroke-width:1.0;" width="6" x="30" y="96.0078"/><text fill="#000000" font-family="sans-serif" font-size="14" lengthAdjust="spacing" textLength="170" x="42" y="103.2363">BulletBT* m_PhysicsWorld;</text><line style="stroke:#181818;stroke-width:0.5;" x1="23" x2="217" y1="110.3125" y2="110.3125"/></g><!--SRC=[AqXCpavCJrK8oAWipamkzirFASr9vQhcKW22v9p4uc9K6GKRc-BClFISr9Byl5GxEx0oY68Gq7KgpG5AEOLeAUJ6G_M5vnVbf5Y3bTHorG80]--></g></svg>