<?xml version="1.0" encoding="us-ascii" standalone="no"?><svg xmlns="http://www.w3.org/2000/svg" xmlns:xlink="http://www.w3.org/1999/xlink" contentStyleType="text/css" height="1924px" preserveAspectRatio="none" style="width:2968px;height:1924px;background:#FFFFFF;" version="1.1" viewBox="0 0 2968 1924" width="2968px" zoomAndPan="magnify"><defs/><g><!--cluster EditorSystem--><g id="cluster_EditorSystem"><path d="M8.5,6 L101.5,6 A3.75,3.75 0 0 1 104,8.5 L111,29.6094 L2958.5,29.6094 A2.5,2.5 0 0 1 2961,32.1094 L2961,1914.5 A2.5,2.5 0 0 1 2958.5,1917 L8.5,1917 A2.5,2.5 0 0 1 6,1914.5 L6,8.5 A2.5,2.5 0 0 1 8.5,6 " fill="none" style="stroke:#000000;stroke-width:1.5;"/><line style="stroke:#000000;stroke-width:1.5;" x1="6" x2="111" y1="29.6094" y2="29.6094"/><text fill="#000000" font-family="sans-serif" font-size="14" font-weight="bold" lengthAdjust="spacing" textLength="92" x="10" y="22.5332">EditorSystem</text></g><!--cluster EditorModule--><g id="cluster_EditorModule"><path d="M242.5,58 L338.5,58 A3.75,3.75 0 0 1 341,60.5 L348,81.6094 L544.5,81.6094 A2.5,2.5 0 0 1 547,84.1094 L547,347.5 A2.5,2.5 0 0 1 544.5,350 L242.5,350 A2.5,2.5 0 0 1 240,347.5 L240,60.5 A2.5,2.5 0 0 1 242.5,58 " fill="none" style="stroke:#000000;stroke-width:1.5;"/><line style="stroke:#000000;stroke-width:1.5;" x1="240" x2="348" y1="81.6094" y2="81.6094"/><text fill="#000000" font-family="sans-serif" font-size="14" font-weight="bold" lengthAdjust="spacing" textLength="95" x="244" y="74.5332">EditorModule</text></g><!--cluster ProjectModule--><g id="cluster_ProjectModule"><path d="M40.5,434 L144.5,434 A3.75,3.75 0 0 1 147,436.5 L154,457.6094 L399.5,457.6094 A2.5,2.5 0 0 1 402,460.1094 L402,1309.5 A2.5,2.5 0 0 1 399.5,1312 L40.5,1312 A2.5,2.5 0 0 1 38,1309.5 L38,436.5 A2.5,2.5 0 0 1 40.5,434 " fill="none" style="stroke:#000000;stroke-width:1.5;"/><line style="stroke:#000000;stroke-width:1.5;" x1="38" x2="154" y1="457.6094" y2="457.6094"/><text fill="#000000" font-family="sans-serif" font-size="14" font-weight="bold" lengthAdjust="spacing" textLength="103" x="42" y="450.5332">ProjectModule</text></g><!--cluster EditorUIModule--><g id="cluster_EditorUIModule"><path d="M444.5,390 L554.5,390 A3.75,3.75 0 0 1 557,392.5 L564,413.6094 L2926.5,413.6094 A2.5,2.5 0 0 1 2929,416.1094 L2929,1882.5 A2.5,2.5 0 0 1 2926.5,1885 L444.5,1885 A2.5,2.5 0 0 1 442,1882.5 L442,392.5 A2.5,2.5 0 0 1 444.5,390 " fill="none" style="stroke:#000000;stroke-width:1.5;"/><line style="stroke:#000000;stroke-width:1.5;" x1="442" x2="564" y1="413.6094" y2="413.6094"/><text fill="#000000" font-family="sans-serif" font-size="14" font-weight="bold" lengthAdjust="spacing" textLength="109" x="446" y="406.5332">EditorUIModule</text></g><!--cluster GUIObjects--><g id="cluster_GUIObjects"><path d="M492.5,812 L572.5,812 A3.75,3.75 0 0 1 575,814.5 L582,835.6094 L2886.5,835.6094 A2.5,2.5 0 0 1 2889,838.1094 L2889,1842.5 A2.5,2.5 0 0 1 2886.5,1845 L492.5,1845 A2.5,2.5 0 0 1 490,1842.5 L490,814.5 A2.5,2.5 0 0 1 492.5,812 " fill="none" style="stroke:#000000;stroke-width:1.5;"/><line style="stroke:#000000;stroke-width:1.5;" x1="490" x2="582" y1="835.6094" y2="835.6094"/><text fill="#000000" font-family="sans-serif" font-size="14" font-weight="bold" lengthAdjust="spacing" textLength="79" x="494" y="828.5332">GUIObjects</text></g><!--cluster ImGuiModule--><g id="cluster_ImGuiModule"><path d="M1540.5,864 L1634.5,864 A3.75,3.75 0 0 1 1637,866.5 L1644,887.6094 L1925.5,887.6094 A2.5,2.5 0 0 1 1928,890.1094 L1928,1550.5 A2.5,2.5 0 0 1 1925.5,1553 L1540.5,1553 A2.5,2.5 0 0 1 1538,1550.5 L1538,866.5 A2.5,2.5 0 0 1 1540.5,864 " fill="none" style="stroke:#000000;stroke-width:1.5;"/><line style="stroke:#000000;stroke-width:1.5;" x1="1538" x2="1644" y1="887.6094" y2="887.6094"/><text fill="#000000" font-family="sans-serif" font-size="14" font-weight="bold" lengthAdjust="spacing" textLength="93" x="1542" y="880.5332">ImGuiModule</text></g><!--class Editor--><g id="elem_Editor"><rect codeLine="3" fill="#F1F1F1" height="224.0938" id="Editor" rx="2.5" ry="2.5" style="stroke:#181818;stroke-width:0.5;" width="240" x="283" y="102"/><ellipse cx="304.75" cy="118" fill="#ADD1B2" rx="11" ry="11" style="stroke:#181818;stroke-width:1.0;"/><path d="M307.5156,113.875 Q307.6719,113.6563 307.8594,113.5469 Q308.0469,113.4375 308.2656,113.4375 Q308.6406,113.4375 308.875,113.7031 Q309.1094,113.9531 309.1094,114.5625 L309.1094,116.0156 Q309.1094,116.625 308.875,116.8906 Q308.6406,117.1563 308.2656,117.1563 Q307.9219,117.1563 307.7188,116.9531 Q307.5156,116.7656 307.4063,116.25 Q307.3594,115.8906 307.1719,115.7031 Q306.8438,115.3281 306.2344,115.1094 Q305.625,114.8906 305,114.8906 Q304.2344,114.8906 303.5938,115.2188 Q302.9688,115.5469 302.4688,116.2969 Q301.9844,117.0469 301.9844,118.0781 L301.9844,119.1719 Q301.9844,120.4063 302.875,121.2344 Q303.7656,122.0469 305.3594,122.0469 Q306.2969,122.0469 306.9531,121.7969 Q307.3438,121.6406 307.7656,121.2031 Q308.0313,120.9375 308.1719,120.8594 Q308.3281,120.7813 308.5313,120.7813 Q308.8594,120.7813 309.1094,121.0469 Q309.375,121.2969 309.375,121.6406 Q309.375,121.9844 309.0313,122.3906 Q308.5313,122.9688 307.7344,123.2969 Q306.6563,123.75 305.3594,123.75 Q303.8438,123.75 302.6406,123.125 Q301.6563,122.625 300.9688,121.5625 Q300.2813,120.4844 300.2813,119.2031 L300.2813,118.0469 Q300.2813,116.7188 300.8906,115.5781 Q301.5156,114.4219 302.6094,113.8125 Q303.7031,113.1875 304.9375,113.1875 Q305.6719,113.1875 306.3125,113.3594 Q306.9688,113.5156 307.5156,113.875 Z " fill="#000000"/><text fill="#000000" font-family="sans-serif" font-size="14" lengthAdjust="spacing" textLength="37" x="320.25" y="123.7285">Editor</text><rect fill="#FFFFFF" height="17.0938" style="stroke:#181818;stroke-width:1.0;stroke-dasharray:2.0,2.0;" width="154" x="372" y="99"/><text fill="#000000" font-family="sans-serif" font-size="12" font-style="italic" lengthAdjust="spacing" textLength="152" x="373" y="112.457">expands by IEngineContext</text><line style="stroke:#181818;stroke-width:0.5;" x1="284" x2="522" y1="134" y2="134"/><line style="stroke:#181818;stroke-width:0.5;" x1="284" x2="522" y1="142" y2="142"/><ellipse cx="294" cy="156.3047" fill="#84BE84" rx="3" ry="3" style="stroke:#038048;stroke-width:1.0;"/><text fill="#000000" font-family="sans-serif" font-size="14" lengthAdjust="spacing" textLength="51" x="303" y="160.5332">Editor();</text><ellipse cx="294" cy="173.9141" fill="#84BE84" rx="3" ry="3" style="stroke:#038048;stroke-width:1.0;"/><text fill="#000000" font-family="sans-serif" font-size="14" lengthAdjust="spacing" textLength="101" x="303" y="178.1426">virtual ~Editor();</text><text fill="#000000" font-family="sans-serif" font-size="14" lengthAdjust="spacing" textLength="4" x="303" y="195.752">&#160;</text><ellipse cx="294" cy="209.1328" fill="#84BE84" rx="3" ry="3" style="stroke:#038048;stroke-width:1.0;"/><text fill="#000000" font-family="sans-serif" font-size="14" lengthAdjust="spacing" textLength="153" x="303" y="213.3613">void initMinor() override;</text><ellipse cx="294" cy="226.7422" fill="#84BE84" rx="3" ry="3" style="stroke:#038048;stroke-width:1.0;"/><text fill="#000000" font-family="sans-serif" font-size="14" lengthAdjust="spacing" textLength="153" x="303" y="230.9707">void initMajor() override;</text><ellipse cx="294" cy="244.3516" fill="#84BE84" rx="3" ry="3" style="stroke:#038048;stroke-width:1.0;"/><text fill="#000000" font-family="sans-serif" font-size="14" lengthAdjust="spacing" textLength="214" x="303" y="248.5801">void tick(float deltaTime) override;</text><ellipse cx="294" cy="261.9609" fill="#84BE84" rx="3" ry="3" style="stroke:#038048;stroke-width:1.0;"/><text fill="#000000" font-family="sans-serif" font-size="14" lengthAdjust="spacing" textLength="170" x="303" y="266.1895">void shutdown() override();</text><text fill="#000000" font-family="sans-serif" font-size="14" lengthAdjust="spacing" textLength="4" x="303" y="283.7988">&#160;</text><rect fill="#F24D5C" height="6" style="stroke:#C82930;stroke-width:1.0;" width="6" x="291" y="294.1797"/><text fill="#000000" font-family="sans-serif" font-size="14" lengthAdjust="spacing" textLength="178" x="303" y="301.4082">void startupEditorModules();</text><rect fill="#F24D5C" height="6" style="stroke:#C82930;stroke-width:1.0;" width="6" x="291" y="311.7891"/><text fill="#000000" font-family="sans-serif" font-size="14" lengthAdjust="spacing" textLength="196" x="303" y="319.0176">void shutDownEditorModules();</text></g><!--class ProjectConfig--><g id="elem_ProjectConfig"><rect codeLine="3" fill="#F1F1F1" height="505.8438" id="ProjectConfig" rx="2.5" ry="2.5" style="stroke:#181818;stroke-width:0.5;" width="307" x="70.5" y="782"/><ellipse cx="177.25" cy="798" fill="#F1F1F1" rx="11" ry="11" style="stroke:#181818;stroke-width:1.0;"/><path d="M175.3594,802.5625 Q175.1406,802.8281 175,802.9063 Q174.8594,802.9844 174.6719,802.9844 Q174.2813,802.9844 174.0313,802.7188 Q173.7969,802.4531 173.7969,801.8594 L173.7969,800.7031 Q173.7969,800.0938 174.0313,799.8438 Q174.2813,799.5781 174.6719,799.5781 Q174.9688,799.5781 175.1719,799.7344 Q175.375,799.8906 175.4844,800.2656 Q175.5938,800.625 175.7031,800.7656 Q175.9531,801.0156 176.5625,801.2813 Q177.1719,801.5469 177.9063,801.5469 Q179.0469,801.5469 179.7656,801.0156 Q180.2344,800.6875 180.2344,800.2188 Q180.2344,799.9063 180.0156,799.625 Q179.7969,799.3438 179.2813,799.1719 Q178.9531,799.0469 177.7969,798.8281 Q176.4063,798.5625 175.6875,798.2031 Q174.9688,797.8438 174.5469,797.1875 Q174.1406,796.5156 174.1406,795.7344 Q174.1406,794.5156 175.1563,793.6094 Q176.1875,792.6875 177.8281,792.6875 Q178.4844,792.6875 179.0313,792.8281 Q179.5938,792.9688 180.0625,793.2656 Q180.3906,792.9531 180.7188,792.9531 Q181.0938,792.9531 181.3281,793.2188 Q181.5625,793.4688 181.5625,794.0781 L181.5625,795.3594 Q181.5625,795.9688 181.3281,796.2344 Q181.0938,796.4844 180.7188,796.4844 Q180.4063,796.4844 180.1719,796.2969 Q179.9844,796.1563 179.8906,795.7344 Q179.8125,795.3125 179.6719,795.125 Q179.4219,794.8125 178.9375,794.6094 Q178.4688,794.3906 177.8281,794.3906 Q176.9063,794.3906 176.375,794.8125 Q175.8438,795.2344 175.8438,795.7031 Q175.8438,796.0156 176.0625,796.3125 Q176.2813,796.6094 176.7031,796.7813 Q176.9844,796.8906 178.2813,797.1563 Q179.5938,797.4063 180.2969,797.7188 Q181,798.0156 181.4688,798.6719 Q181.9375,799.3281 181.9375,800.2344 Q181.9375,801.5 181.0469,802.25 Q179.8594,803.25 178.0313,803.25 Q177.3281,803.25 176.6563,803.0781 Q176,802.9063 175.3594,802.5625 Z " fill="#000000"/><text fill="#000000" font-family="sans-serif" font-size="14" lengthAdjust="spacing" textLength="85" x="197.75" y="803.7285">ProjectConfig</text><line style="stroke:#181818;stroke-width:0.5;" x1="71.5" x2="376.5" y1="814" y2="814"/><rect fill="none" height="6" style="stroke:#C82930;stroke-width:1.0;" width="6" x="78.5" y="825.3047"/><text fill="#000000" font-family="sans-serif" font-size="14" lengthAdjust="spacing" textLength="106" x="90.5" y="832.5332">string openTime;</text><rect fill="none" height="6" style="stroke:#C82930;stroke-width:1.0;" width="6" x="78.5" y="842.9141"/><text fill="#000000" font-family="sans-serif" font-size="14" lengthAdjust="spacing" textLength="115" x="90.5" y="850.1426">string projectPath;</text><rect fill="none" height="6" style="stroke:#C82930;stroke-width:1.0;" width="6" x="78.5" y="860.5234"/><text fill="#000000" font-family="sans-serif" font-size="14" lengthAdjust="spacing" textLength="122" x="90.5" y="867.752">string projectName;</text><text fill="#000000" font-family="sans-serif" font-size="14" lengthAdjust="spacing" textLength="4" x="90.5" y="885.3613">&#160;</text><rect fill="none" height="6" style="stroke:#C82930;stroke-width:1.0;" width="6" x="78.5" y="895.7422"/><text fill="#000000" font-family="sans-serif" font-size="14" lengthAdjust="spacing" textLength="135" x="90.5" y="902.9707">string resourcesPath;</text><rect fill="none" height="6" style="stroke:#C82930;stroke-width:1.0;" width="6" x="78.5" y="913.3516"/><text fill="#000000" font-family="sans-serif" font-size="14" lengthAdjust="spacing" textLength="110" x="90.5" y="920.5801">string configPath;</text><rect fill="none" height="6" style="stroke:#C82930;stroke-width:1.0;" width="6" x="78.5" y="930.9609"/><text fill="#000000" font-family="sans-serif" font-size="14" lengthAdjust="spacing" textLength="98" x="90.5" y="938.1895">string logsPath;</text><rect fill="none" height="6" style="stroke:#C82930;stroke-width:1.0;" width="6" x="78.5" y="948.5703"/><text fill="#000000" font-family="sans-serif" font-size="14" lengthAdjust="spacing" textLength="102" x="90.5" y="955.7988">string buildPath;</text><text fill="#000000" font-family="sans-serif" font-size="14" lengthAdjust="spacing" textLength="4" x="90.5" y="973.4082">&#160;</text><rect fill="none" height="6" style="stroke:#C82930;stroke-width:1.0;" width="6" x="78.5" y="983.7891"/><text fill="#000000" font-family="sans-serif" font-size="14" lengthAdjust="spacing" textLength="146" x="90.5" y="991.0176">string editorStartWorld;</text><rect fill="none" height="6" style="stroke:#C82930;stroke-width:1.0;" width="6" x="78.5" y="1001.3984"/><text fill="#000000" font-family="sans-serif" font-size="14" lengthAdjust="spacing" textLength="145" x="90.5" y="1008.627">string gameStartWorld;</text><line style="stroke:#181818;stroke-width:0.5;" x1="71.5" x2="376.5" y1="1015.7031" y2="1015.7031"/><ellipse cx="81.5" cy="1030.0078" fill="#84BE84" rx="3" ry="3" style="stroke:#038048;stroke-width:1.0;"/><text fill="#000000" font-family="sans-serif" font-size="14" lengthAdjust="spacing" textLength="158" x="90.5" y="1034.2363">ProjectConfig() = default;</text><ellipse cx="81.5" cy="1047.6172" fill="#84BE84" rx="3" ry="3" style="stroke:#038048;stroke-width:1.0;"/><text fill="#000000" font-family="sans-serif" font-size="14" lengthAdjust="spacing" textLength="166" x="90.5" y="1051.8457">ProjectConfig(string data);</text><text fill="#000000" font-family="sans-serif" font-size="14" lengthAdjust="spacing" textLength="4" x="90.5" y="1069.4551">&#160;</text><ellipse cx="81.5" cy="1082.8359" fill="#84BE84" rx="3" ry="3" style="stroke:#038048;stroke-width:1.0;"/><text fill="#000000" font-family="sans-serif" font-size="14" lengthAdjust="spacing" textLength="177" x="90.5" y="1087.0645">string getOpenTime() const;</text><ellipse cx="81.5" cy="1100.4453" fill="#84BE84" rx="3" ry="3" style="stroke:#038048;stroke-width:1.0;"/><text fill="#000000" font-family="sans-serif" font-size="14" lengthAdjust="spacing" textLength="184" x="90.5" y="1104.6738">string getProjectPath() const;</text><text fill="#000000" font-family="sans-serif" font-size="14" lengthAdjust="spacing" textLength="4" x="90.5" y="1122.2832">&#160;</text><ellipse cx="81.5" cy="1135.6641" fill="#84BE84" rx="3" ry="3" style="stroke:#038048;stroke-width:1.0;"/><text fill="#000000" font-family="sans-serif" font-size="14" lengthAdjust="spacing" textLength="208" x="90.5" y="1139.8926">string getResourcesPath() const;</text><ellipse cx="81.5" cy="1153.2734" fill="#84BE84" rx="3" ry="3" style="stroke:#038048;stroke-width:1.0;"/><text fill="#000000" font-family="sans-serif" font-size="14" lengthAdjust="spacing" textLength="181" x="90.5" y="1157.502">string getConfigPath() const;</text><ellipse cx="81.5" cy="1170.8828" fill="#84BE84" rx="3" ry="3" style="stroke:#038048;stroke-width:1.0;"/><text fill="#000000" font-family="sans-serif" font-size="14" lengthAdjust="spacing" textLength="171" x="90.5" y="1175.1113">string getLogsPath() const;</text><ellipse cx="81.5" cy="1188.4922" fill="#84BE84" rx="3" ry="3" style="stroke:#038048;stroke-width:1.0;"/><text fill="#000000" font-family="sans-serif" font-size="14" lengthAdjust="spacing" textLength="171" x="90.5" y="1192.7207">string getBuildPath() const;</text><text fill="#000000" font-family="sans-serif" font-size="14" lengthAdjust="spacing" textLength="4" x="90.5" y="1210.3301">&#160;</text><ellipse cx="81.5" cy="1223.7109" fill="#84BE84" rx="3" ry="3" style="stroke:#038048;stroke-width:1.0;"/><text fill="#000000" font-family="sans-serif" font-size="14" lengthAdjust="spacing" textLength="215" x="90.5" y="1227.9395">string getEditorStartWorld() const;</text><ellipse cx="81.5" cy="1241.3203" fill="#84BE84" rx="3" ry="3" style="stroke:#038048;stroke-width:1.0;"/><text fill="#000000" font-family="sans-serif" font-size="14" lengthAdjust="spacing" textLength="216" x="90.5" y="1245.5488">string getGameStartWorld() const;</text><text fill="#000000" font-family="sans-serif" font-size="14" lengthAdjust="spacing" textLength="4" x="90.5" y="1263.1582">&#160;</text><ellipse cx="81.5" cy="1276.5391" fill="#84BE84" rx="3" ry="3" style="stroke:#038048;stroke-width:1.0;"/><text fill="#000000" font-family="sans-serif" font-size="14" lengthAdjust="spacing" textLength="281" x="90.5" y="1280.7676">void setEditorStartWorld(const string&amp; path);</text></g><!--class ProjectModule--><g id="elem_ProjectModule"><rect codeLine="34" fill="#F1F1F1" height="199.5781" id="ProjectModule" rx="2.5" ry="2.5" style="stroke:#181818;stroke-width:0.5;" width="253" x="97.5" y="478"/><ellipse cx="174.75" cy="499.3516" fill="#ADD1B2" rx="11" ry="11" style="stroke:#181818;stroke-width:1.0;"/><path d="M177.5156,495.2266 Q177.6719,495.0078 177.8594,494.8984 Q178.0469,494.7891 178.2656,494.7891 Q178.6406,494.7891 178.875,495.0547 Q179.1094,495.3047 179.1094,495.9141 L179.1094,497.3672 Q179.1094,497.9766 178.875,498.2422 Q178.6406,498.5078 178.2656,498.5078 Q177.9219,498.5078 177.7188,498.3047 Q177.5156,498.1172 177.4063,497.6016 Q177.3594,497.2422 177.1719,497.0547 Q176.8438,496.6797 176.2344,496.4609 Q175.625,496.2422 175,496.2422 Q174.2344,496.2422 173.5938,496.5703 Q172.9688,496.8984 172.4688,497.6484 Q171.9844,498.3984 171.9844,499.4297 L171.9844,500.5234 Q171.9844,501.7578 172.875,502.5859 Q173.7656,503.3984 175.3594,503.3984 Q176.2969,503.3984 176.9531,503.1484 Q177.3438,502.9922 177.7656,502.5547 Q178.0313,502.2891 178.1719,502.2109 Q178.3281,502.1328 178.5313,502.1328 Q178.8594,502.1328 179.1094,502.3984 Q179.375,502.6484 179.375,502.9922 Q179.375,503.3359 179.0313,503.7422 Q178.5313,504.3203 177.7344,504.6484 Q176.6563,505.1016 175.3594,505.1016 Q173.8438,505.1016 172.6406,504.4766 Q171.6563,503.9766 170.9688,502.9141 Q170.2813,501.8359 170.2813,500.5547 L170.2813,499.3984 Q170.2813,498.0703 170.8906,496.9297 Q171.5156,495.7734 172.6094,495.1641 Q173.7031,494.5391 174.9375,494.5391 Q175.6719,494.5391 176.3125,494.7109 Q176.9688,494.8672 177.5156,495.2266 Z " fill="#000000"/><text fill="#000000" font-family="sans-serif" font-size="12" font-style="italic" lengthAdjust="spacing" textLength="71" x="204.75" y="495.457">&#171;singletone&#187;</text><text fill="#000000" font-family="sans-serif" font-size="14" lengthAdjust="spacing" textLength="90" x="195.25" y="512.627">ProjectModule</text><line style="stroke:#181818;stroke-width:0.5;" x1="98.5" x2="349.5" y1="520.7031" y2="520.7031"/><rect fill="none" height="6" style="stroke:#C82930;stroke-width:1.0;" width="6" x="105.5" y="532.0078"/><text fill="#000000" font-family="sans-serif" font-size="14" lengthAdjust="spacing" textLength="196" x="117.5" y="539.2363">ProjectConfig m_projectConfig;</text><line style="stroke:#181818;stroke-width:0.5;" x1="98.5" x2="349.5" y1="546.3125" y2="546.3125"/><ellipse cx="108.5" cy="560.6172" fill="#84BE84" rx="3" ry="3" style="stroke:#038048;stroke-width:1.0;"/><text fill="#000000" font-family="sans-serif" font-size="14" lengthAdjust="spacing" textLength="227" x="117.5" y="564.8457">static ProjectModule&amp; getInstance();</text><text fill="#000000" font-family="sans-serif" font-size="14" lengthAdjust="spacing" textLength="4" x="117.5" y="582.4551">&#160;</text><ellipse cx="108.5" cy="595.8359" fill="#84BE84" rx="3" ry="3" style="stroke:#038048;stroke-width:1.0;"/><text fill="#000000" font-family="sans-serif" font-size="14" lengthAdjust="spacing" textLength="88" x="117.5" y="600.0645">void startup();</text><ellipse cx="108.5" cy="613.4453" fill="#84BE84" rx="3" ry="3" style="stroke:#038048;stroke-width:1.0;"/><text fill="#000000" font-family="sans-serif" font-size="14" lengthAdjust="spacing" textLength="104" x="117.5" y="617.6738">void shutdown();</text><text fill="#000000" font-family="sans-serif" font-size="14" lengthAdjust="spacing" textLength="4" x="117.5" y="635.2832">&#160;</text><rect fill="#F24D5C" height="6" style="stroke:#C82930;stroke-width:1.0;" width="6" x="105.5" y="645.6641"/><text fill="#000000" font-family="sans-serif" font-size="14" lengthAdjust="spacing" textLength="194" x="117.5" y="652.8926">void setupProjectEnviroment();</text><rect fill="#F24D5C" height="6" style="stroke:#C82930;stroke-width:1.0;" width="6" x="105.5" y="663.2734"/><text fill="#000000" font-family="sans-serif" font-size="14" lengthAdjust="spacing" textLength="159" x="117.5" y="670.502">void saveProjectConfig();</text></g><!--class EditorUIModule--><g id="elem_EditorUIModule"><rect codeLine="87" fill="#F1F1F1" height="287.625" id="EditorUIModule" rx="2.5" ry="2.5" style="stroke:#181818;stroke-width:0.5;" width="359" x="485.5" y="434"/><ellipse cx="613.25" cy="455.3516" fill="#ADD1B2" rx="11" ry="11" style="stroke:#181818;stroke-width:1.0;"/><path d="M616.0156,451.2266 Q616.1719,451.0078 616.3594,450.8984 Q616.5469,450.7891 616.7656,450.7891 Q617.1406,450.7891 617.375,451.0547 Q617.6094,451.3047 617.6094,451.9141 L617.6094,453.3672 Q617.6094,453.9766 617.375,454.2422 Q617.1406,454.5078 616.7656,454.5078 Q616.4219,454.5078 616.2188,454.3047 Q616.0156,454.1172 615.9063,453.6016 Q615.8594,453.2422 615.6719,453.0547 Q615.3438,452.6797 614.7344,452.4609 Q614.125,452.2422 613.5,452.2422 Q612.7344,452.2422 612.0938,452.5703 Q611.4688,452.8984 610.9688,453.6484 Q610.4844,454.3984 610.4844,455.4297 L610.4844,456.5234 Q610.4844,457.7578 611.375,458.5859 Q612.2656,459.3984 613.8594,459.3984 Q614.7969,459.3984 615.4531,459.1484 Q615.8438,458.9922 616.2656,458.5547 Q616.5313,458.2891 616.6719,458.2109 Q616.8281,458.1328 617.0313,458.1328 Q617.3594,458.1328 617.6094,458.3984 Q617.875,458.6484 617.875,458.9922 Q617.875,459.3359 617.5313,459.7422 Q617.0313,460.3203 616.2344,460.6484 Q615.1563,461.1016 613.8594,461.1016 Q612.3438,461.1016 611.1406,460.4766 Q610.1563,459.9766 609.4688,458.9141 Q608.7813,457.8359 608.7813,456.5547 L608.7813,455.3984 Q608.7813,454.0703 609.3906,452.9297 Q610.0156,451.7734 611.1094,451.1641 Q612.2031,450.5391 613.4375,450.5391 Q614.1719,450.5391 614.8125,450.7109 Q615.4688,450.8672 616.0156,451.2266 Z " fill="#000000"/><text fill="#000000" font-family="sans-serif" font-size="12" font-style="italic" lengthAdjust="spacing" textLength="71" x="645.75" y="451.457">&#171;singletone&#187;</text><text fill="#000000" font-family="sans-serif" font-size="14" lengthAdjust="spacing" textLength="95" x="633.75" y="468.627">EditorUIModule</text><line style="stroke:#181818;stroke-width:0.5;" x1="486.5" x2="843.5" y1="476.7031" y2="476.7031"/><rect fill="none" height="6" style="stroke:#C82930;stroke-width:1.0;" width="6" x="493.5" y="488.0078"/><text fill="#000000" font-family="sans-serif" font-size="14" lengthAdjust="spacing" textLength="294" x="505.5" y="495.2363">unique_ptr&lt;GUIEditorToolPanel&gt; m_toolPanel;</text><rect fill="none" height="6" style="stroke:#C82930;stroke-width:1.0;" width="6" x="493.5" y="505.6172"/><text fill="#000000" font-family="sans-serif" font-size="14" lengthAdjust="spacing" textLength="308" x="505.5" y="512.8457">unique_ptr&lt;GUIMainMenuBar&gt; m_mainMenuBar;</text><rect fill="none" height="6" style="stroke:#C82930;stroke-width:1.0;" width="6" x="493.5" y="523.2266"/><text fill="#000000" font-family="sans-serif" font-size="14" lengthAdjust="spacing" textLength="265" x="505.5" y="530.4551">unique_ptr&lt;GUIOutputLog&gt; m_outputLog;</text><rect fill="none" height="6" style="stroke:#C82930;stroke-width:1.0;" width="6" x="493.5" y="540.8359"/><text fill="#000000" font-family="sans-serif" font-size="14" lengthAdjust="spacing" textLength="333" x="505.5" y="548.0645">unique_ptr&lt;GUIContentBrowser&gt; m_contentBrowser;</text><rect fill="none" height="6" style="stroke:#C82930;stroke-width:1.0;" width="6" x="493.5" y="558.4453"/><text fill="#000000" font-family="sans-serif" font-size="14" lengthAdjust="spacing" textLength="320" x="505.5" y="565.6738">unique_ptr&lt;GUIWorldInspector&gt; m_worldInspector;</text><rect fill="none" height="6" style="stroke:#C82930;stroke-width:1.0;" width="6" x="493.5" y="576.0547"/><text fill="#000000" font-family="sans-serif" font-size="14" lengthAdjust="spacing" textLength="315" x="505.5" y="583.2832">unique_ptr&lt;GUIEditorViewport&gt; m_editorViewport;</text><rect fill="none" height="6" style="stroke:#C82930;stroke-width:1.0;" width="6" x="493.5" y="593.6641"/><text fill="#000000" font-family="sans-serif" font-size="14" lengthAdjust="spacing" textLength="272" x="505.5" y="600.8926">unique_ptr&lt;GUIEditorConsole&gt; m_console;</text><line style="stroke:#181818;stroke-width:0.5;" x1="486.5" x2="843.5" y1="607.9688" y2="607.9688"/><ellipse cx="496.5" cy="622.2734" fill="#84BE84" rx="3" ry="3" style="stroke:#038048;stroke-width:1.0;"/><text fill="#000000" font-family="sans-serif" font-size="14" lengthAdjust="spacing" textLength="232" x="505.5" y="626.502">static EditorUIModule&amp; getInstance();</text><ellipse cx="496.5" cy="639.8828" fill="#84BE84" rx="3" ry="3" style="stroke:#038048;stroke-width:1.0;"/><text fill="#000000" font-family="sans-serif" font-size="14" lengthAdjust="spacing" textLength="88" x="505.5" y="644.1113">void startup();</text><ellipse cx="496.5" cy="657.4922" fill="#84BE84" rx="3" ry="3" style="stroke:#038048;stroke-width:1.0;"/><text fill="#000000" font-family="sans-serif" font-size="14" lengthAdjust="spacing" textLength="86" x="505.5" y="661.7207">void render();</text><ellipse cx="496.5" cy="675.1016" fill="#84BE84" rx="3" ry="3" style="stroke:#038048;stroke-width:1.0;"/><text fill="#000000" font-family="sans-serif" font-size="14" lengthAdjust="spacing" textLength="104" x="505.5" y="679.3301">void shutdown();</text><text fill="#000000" font-family="sans-serif" font-size="14" lengthAdjust="spacing" textLength="4" x="505.5" y="696.9395">&#160;</text><ellipse cx="496.5" cy="710.3203" fill="#84BE84" rx="3" ry="3" style="stroke:#038048;stroke-width:1.0;"/><text fill="#000000" font-family="sans-serif" font-size="14" lengthAdjust="spacing" textLength="210" x="505.5" y="714.5488">GUIMainMenuBar* getMenuBar();</text></g><!--class GUIContentBrowser--><g id="elem_GUIContentBrowser"><rect codeLine="6" fill="#F1F1F1" height="224.0938" id="GUIContentBrowser" rx="2.5" ry="2.5" style="stroke:#181818;stroke-width:0.5;" width="287" x="522.5" y="1597"/><ellipse cx="599.75" cy="1613" fill="#ADD1B2" rx="11" ry="11" style="stroke:#181818;stroke-width:1.0;"/><path d="M602.5156,1608.875 Q602.6719,1608.6563 602.8594,1608.5469 Q603.0469,1608.4375 603.2656,1608.4375 Q603.6406,1608.4375 603.875,1608.7031 Q604.1094,1608.9531 604.1094,1609.5625 L604.1094,1611.0156 Q604.1094,1611.625 603.875,1611.8906 Q603.6406,1612.1563 603.2656,1612.1563 Q602.9219,1612.1563 602.7188,1611.9531 Q602.5156,1611.7656 602.4063,1611.25 Q602.3594,1610.8906 602.1719,1610.7031 Q601.8438,1610.3281 601.2344,1610.1094 Q600.625,1609.8906 600,1609.8906 Q599.2344,1609.8906 598.5938,1610.2188 Q597.9688,1610.5469 597.4688,1611.2969 Q596.9844,1612.0469 596.9844,1613.0781 L596.9844,1614.1719 Q596.9844,1615.4063 597.875,1616.2344 Q598.7656,1617.0469 600.3594,1617.0469 Q601.2969,1617.0469 601.9531,1616.7969 Q602.3438,1616.6406 602.7656,1616.2031 Q603.0313,1615.9375 603.1719,1615.8594 Q603.3281,1615.7813 603.5313,1615.7813 Q603.8594,1615.7813 604.1094,1616.0469 Q604.375,1616.2969 604.375,1616.6406 Q604.375,1616.9844 604.0313,1617.3906 Q603.5313,1617.9688 602.7344,1618.2969 Q601.6563,1618.75 600.3594,1618.75 Q598.8438,1618.75 597.6406,1618.125 Q596.6563,1617.625 595.9688,1616.5625 Q595.2813,1615.4844 595.2813,1614.2031 L595.2813,1613.0469 Q595.2813,1611.7188 595.8906,1610.5781 Q596.5156,1609.4219 597.6094,1608.8125 Q598.7031,1608.1875 599.9375,1608.1875 Q600.6719,1608.1875 601.3125,1608.3594 Q601.9688,1608.5156 602.5156,1608.875 Z " fill="#000000"/><text fill="#000000" font-family="sans-serif" font-size="14" lengthAdjust="spacing" textLength="124" x="620.25" y="1618.7285">GUIContentBrowser</text><line style="stroke:#181818;stroke-width:0.5;" x1="523.5" x2="808.5" y1="1629" y2="1629"/><rect fill="none" height="6" style="stroke:#C82930;stroke-width:1.0;" width="6" x="530.5" y="1640.3047"/><text fill="#000000" font-family="sans-serif" font-size="14" lengthAdjust="spacing" textLength="173" x="542.5" y="1647.5332">DirectoryInterator m_dirIter;</text><rect fill="none" height="6" style="stroke:#C82930;stroke-width:1.0;" width="6" x="530.5" y="1657.9141"/><text fill="#000000" font-family="sans-serif" font-size="14" lengthAdjust="spacing" textLength="116" x="542.5" y="1665.1426">string m_rootPath;</text><rect fill="none" height="6" style="stroke:#C82930;stroke-width:1.0;" width="6" x="530.5" y="1675.5234"/><text fill="#000000" font-family="sans-serif" font-size="14" lengthAdjust="spacing" textLength="136" x="542.5" y="1682.752">string m_currentPath;</text><rect fill="none" height="6" style="stroke:#C82930;stroke-width:1.0;" width="6" x="530.5" y="1693.1328"/><text fill="#000000" font-family="sans-serif" font-size="14" lengthAdjust="spacing" textLength="142" x="542.5" y="1700.3613">vector&lt;string&gt; m_files;</text><rect fill="none" height="6" style="stroke:#C82930;stroke-width:1.0;" width="6" x="530.5" y="1710.7422"/><text fill="#000000" font-family="sans-serif" font-size="14" lengthAdjust="spacing" textLength="160" x="542.5" y="1717.9707">vector&lt;string&gt; m_folders;</text><line style="stroke:#181818;stroke-width:0.5;" x1="523.5" x2="808.5" y1="1725.0469" y2="1725.0469"/><ellipse cx="533.5" cy="1739.3516" fill="#84BE84" rx="3" ry="3" style="stroke:#038048;stroke-width:1.0;"/><text fill="#000000" font-family="sans-serif" font-size="14" lengthAdjust="spacing" textLength="138" x="542.5" y="1743.5801">GUIContentBrowser();</text><ellipse cx="533.5" cy="1756.9609" fill="#84BE84" rx="3" ry="3" style="stroke:#038048;stroke-width:1.0;"/><text fill="#000000" font-family="sans-serif" font-size="14" lengthAdjust="spacing" textLength="261" x="542.5" y="1761.1895">~GUIContentBrowser() override = default;</text><ellipse cx="533.5" cy="1774.5703" fill="#84BE84" rx="3" ry="3" style="stroke:#038048;stroke-width:1.0;"/><text fill="#000000" font-family="sans-serif" font-size="14" lengthAdjust="spacing" textLength="142" x="542.5" y="1778.7988">void render() override;</text><text fill="#000000" font-family="sans-serif" font-size="14" lengthAdjust="spacing" textLength="4" x="542.5" y="1796.4082">&#160;</text><rect fill="#F24D5C" height="6" style="stroke:#C82930;stroke-width:1.0;" width="6" x="530.5" y="1806.7891"/><text fill="#000000" font-family="sans-serif" font-size="14" lengthAdjust="spacing" textLength="138" x="542.5" y="1814.0176">void updateContent();</text></g><!--class GUIWorldInspector--><g id="elem_GUIWorldInspector"><rect codeLine="21" fill="#F1F1F1" height="206.4844" id="GUIWorldInspector" rx="2.5" ry="2.5" style="stroke:#181818;stroke-width:0.5;" width="323" x="844.5" y="1606"/><ellipse cx="942.75" cy="1622" fill="#ADD1B2" rx="11" ry="11" style="stroke:#181818;stroke-width:1.0;"/><path d="M945.5156,1617.875 Q945.6719,1617.6563 945.8594,1617.5469 Q946.0469,1617.4375 946.2656,1617.4375 Q946.6406,1617.4375 946.875,1617.7031 Q947.1094,1617.9531 947.1094,1618.5625 L947.1094,1620.0156 Q947.1094,1620.625 946.875,1620.8906 Q946.6406,1621.1563 946.2656,1621.1563 Q945.9219,1621.1563 945.7188,1620.9531 Q945.5156,1620.7656 945.4063,1620.25 Q945.3594,1619.8906 945.1719,1619.7031 Q944.8438,1619.3281 944.2344,1619.1094 Q943.625,1618.8906 943,1618.8906 Q942.2344,1618.8906 941.5938,1619.2188 Q940.9688,1619.5469 940.4688,1620.2969 Q939.9844,1621.0469 939.9844,1622.0781 L939.9844,1623.1719 Q939.9844,1624.4063 940.875,1625.2344 Q941.7656,1626.0469 943.3594,1626.0469 Q944.2969,1626.0469 944.9531,1625.7969 Q945.3438,1625.6406 945.7656,1625.2031 Q946.0313,1624.9375 946.1719,1624.8594 Q946.3281,1624.7813 946.5313,1624.7813 Q946.8594,1624.7813 947.1094,1625.0469 Q947.375,1625.2969 947.375,1625.6406 Q947.375,1625.9844 947.0313,1626.3906 Q946.5313,1626.9688 945.7344,1627.2969 Q944.6563,1627.75 943.3594,1627.75 Q941.8438,1627.75 940.6406,1627.125 Q939.6563,1626.625 938.9688,1625.5625 Q938.2813,1624.4844 938.2813,1623.2031 L938.2813,1622.0469 Q938.2813,1620.7188 938.8906,1619.5781 Q939.5156,1618.4219 940.6094,1617.8125 Q941.7031,1617.1875 942.9375,1617.1875 Q943.6719,1617.1875 944.3125,1617.3594 Q944.9688,1617.5156 945.5156,1617.875 Z " fill="#000000"/><text fill="#000000" font-family="sans-serif" font-size="14" lengthAdjust="spacing" textLength="118" x="963.25" y="1627.7285">GUIWorldInspector</text><line style="stroke:#181818;stroke-width:0.5;" x1="845.5" x2="1166.5" y1="1638" y2="1638"/><rect fill="none" height="6" style="stroke:#C82930;stroke-width:1.0;" width="6" x="852.5" y="1649.3047"/><text fill="#000000" font-family="sans-serif" font-size="14" lengthAdjust="spacing" textLength="139" x="864.5" y="1656.5332">flecs::world&amp; m_world;</text><rect fill="none" height="6" style="stroke:#C82930;stroke-width:1.0;" width="6" x="852.5" y="1666.9141"/><text fill="#000000" font-family="sans-serif" font-size="14" lengthAdjust="spacing" textLength="186" x="864.5" y="1674.1426">flecs::entity m_selectedEntity;</text><line style="stroke:#181818;stroke-width:0.5;" x1="845.5" x2="1166.5" y1="1681.2188" y2="1681.2188"/><ellipse cx="855.5" cy="1695.5234" fill="#84BE84" rx="3" ry="3" style="stroke:#038048;stroke-width:1.0;"/><text fill="#000000" font-family="sans-serif" font-size="14" lengthAdjust="spacing" textLength="141" x="864.5" y="1699.752">GUIWSorldInspector();</text><ellipse cx="855.5" cy="1713.1328" fill="#84BE84" rx="3" ry="3" style="stroke:#038048;stroke-width:1.0;"/><text fill="#000000" font-family="sans-serif" font-size="14" lengthAdjust="spacing" textLength="297" x="864.5" y="1717.3613">virtual ~GUIWorldInspector() override = default;</text><ellipse cx="855.5" cy="1730.7422" fill="#84BE84" rx="3" ry="3" style="stroke:#038048;stroke-width:1.0;"/><text fill="#000000" font-family="sans-serif" font-size="14" lengthAdjust="spacing" textLength="184" x="864.5" y="1734.9707">virtual void render() override;</text><text fill="#000000" font-family="sans-serif" font-size="14" lengthAdjust="spacing" textLength="4" x="864.5" y="1752.5801">&#160;</text><rect fill="#F24D5C" height="6" style="stroke:#C82930;stroke-width:1.0;" width="6" x="852.5" y="1762.9609"/><text fill="#000000" font-family="sans-serif" font-size="14" lengthAdjust="spacing" textLength="192" x="864.5" y="1770.1895">void renderEntityTreePopup();</text><rect fill="#F24D5C" height="6" style="stroke:#C82930;stroke-width:1.0;" width="6" x="852.5" y="1780.5703"/><text fill="#000000" font-family="sans-serif" font-size="14" lengthAdjust="spacing" textLength="151" x="864.5" y="1787.7988">void renderEntityTree();</text><rect fill="#F24D5C" height="6" style="stroke:#C82930;stroke-width:1.0;" width="6" x="852.5" y="1798.1797"/><text fill="#000000" font-family="sans-serif" font-size="14" lengthAdjust="spacing" textLength="228" x="864.5" y="1805.4082">void renderSelectedEntityDefaults();</text></g><!--class GUIEditorConsole--><g id="elem_GUIEditorConsole"><rect codeLine="35" fill="#F1F1F1" height="153.6563" id="GUIEditorConsole" rx="2.5" ry="2.5" style="stroke:#181818;stroke-width:0.5;" width="331" x="1202.5" y="1632"/><ellipse cx="1307.75" cy="1648" fill="#ADD1B2" rx="11" ry="11" style="stroke:#181818;stroke-width:1.0;"/><path d="M1310.5156,1643.875 Q1310.6719,1643.6563 1310.8594,1643.5469 Q1311.0469,1643.4375 1311.2656,1643.4375 Q1311.6406,1643.4375 1311.875,1643.7031 Q1312.1094,1643.9531 1312.1094,1644.5625 L1312.1094,1646.0156 Q1312.1094,1646.625 1311.875,1646.8906 Q1311.6406,1647.1563 1311.2656,1647.1563 Q1310.9219,1647.1563 1310.7188,1646.9531 Q1310.5156,1646.7656 1310.4063,1646.25 Q1310.3594,1645.8906 1310.1719,1645.7031 Q1309.8438,1645.3281 1309.2344,1645.1094 Q1308.625,1644.8906 1308,1644.8906 Q1307.2344,1644.8906 1306.5938,1645.2188 Q1305.9688,1645.5469 1305.4688,1646.2969 Q1304.9844,1647.0469 1304.9844,1648.0781 L1304.9844,1649.1719 Q1304.9844,1650.4063 1305.875,1651.2344 Q1306.7656,1652.0469 1308.3594,1652.0469 Q1309.2969,1652.0469 1309.9531,1651.7969 Q1310.3438,1651.6406 1310.7656,1651.2031 Q1311.0313,1650.9375 1311.1719,1650.8594 Q1311.3281,1650.7813 1311.5313,1650.7813 Q1311.8594,1650.7813 1312.1094,1651.0469 Q1312.375,1651.2969 1312.375,1651.6406 Q1312.375,1651.9844 1312.0313,1652.3906 Q1311.5313,1652.9688 1310.7344,1653.2969 Q1309.6563,1653.75 1308.3594,1653.75 Q1306.8438,1653.75 1305.6406,1653.125 Q1304.6563,1652.625 1303.9688,1651.5625 Q1303.2813,1650.4844 1303.2813,1649.2031 L1303.2813,1648.0469 Q1303.2813,1646.7188 1303.8906,1645.5781 Q1304.5156,1644.4219 1305.6094,1643.8125 Q1306.7031,1643.1875 1307.9375,1643.1875 Q1308.6719,1643.1875 1309.3125,1643.3594 Q1309.9688,1643.5156 1310.5156,1643.875 Z " fill="#000000"/><text fill="#000000" font-family="sans-serif" font-size="14" lengthAdjust="spacing" textLength="112" x="1328.25" y="1653.7285">GUIEditorConsole</text><line style="stroke:#181818;stroke-width:0.5;" x1="1203.5" x2="1532.5" y1="1664" y2="1664"/><line style="stroke:#181818;stroke-width:0.5;" x1="1203.5" x2="1532.5" y1="1672" y2="1672"/><ellipse cx="1213.5" cy="1686.3047" fill="#84BE84" rx="3" ry="3" style="stroke:#038048;stroke-width:1.0;"/><text fill="#000000" font-family="sans-serif" font-size="14" lengthAdjust="spacing" textLength="126" x="1222.5" y="1690.5332">GUIEditorConsole();</text><ellipse cx="1213.5" cy="1703.9141" fill="#84BE84" rx="3" ry="3" style="stroke:#038048;stroke-width:1.0;"/><text fill="#000000" font-family="sans-serif" font-size="14" lengthAdjust="spacing" textLength="249" x="1222.5" y="1708.1426">~GUIEditorConsole() override = default;</text><text fill="#000000" font-family="sans-serif" font-size="14" lengthAdjust="spacing" textLength="4" x="1222.5" y="1725.752">&#160;</text><ellipse cx="1213.5" cy="1739.1328" fill="#84BE84" rx="3" ry="3" style="stroke:#038048;stroke-width:1.0;"/><text fill="#000000" font-family="sans-serif" font-size="14" lengthAdjust="spacing" textLength="142" x="1222.5" y="1743.3613">void render() override;</text><text fill="#000000" font-family="sans-serif" font-size="14" lengthAdjust="spacing" textLength="4" x="1222.5" y="1760.9707">&#160;</text><rect fill="#F24D5C" height="6" style="stroke:#C82930;stroke-width:1.0;" width="6" x="1210.5" y="1771.3516"/><text fill="#000000" font-family="sans-serif" font-size="14" lengthAdjust="spacing" textLength="305" x="1222.5" y="1778.5801">void processCommand(const string&amp; command);</text></g><!--class GUIEditorToolPanel--><g id="elem_GUIEditorToolPanel"><rect codeLine="45" fill="#F1F1F1" height="153.6563" id="GUIEditorToolPanel" rx="2.5" ry="2.5" style="stroke:#181818;stroke-width:0.5;" width="329" x="1568.5" y="1632"/><ellipse cx="1666.75" cy="1648" fill="#ADD1B2" rx="11" ry="11" style="stroke:#181818;stroke-width:1.0;"/><path d="M1669.5156,1643.875 Q1669.6719,1643.6563 1669.8594,1643.5469 Q1670.0469,1643.4375 1670.2656,1643.4375 Q1670.6406,1643.4375 1670.875,1643.7031 Q1671.1094,1643.9531 1671.1094,1644.5625 L1671.1094,1646.0156 Q1671.1094,1646.625 1670.875,1646.8906 Q1670.6406,1647.1563 1670.2656,1647.1563 Q1669.9219,1647.1563 1669.7188,1646.9531 Q1669.5156,1646.7656 1669.4063,1646.25 Q1669.3594,1645.8906 1669.1719,1645.7031 Q1668.8438,1645.3281 1668.2344,1645.1094 Q1667.625,1644.8906 1667,1644.8906 Q1666.2344,1644.8906 1665.5938,1645.2188 Q1664.9688,1645.5469 1664.4688,1646.2969 Q1663.9844,1647.0469 1663.9844,1648.0781 L1663.9844,1649.1719 Q1663.9844,1650.4063 1664.875,1651.2344 Q1665.7656,1652.0469 1667.3594,1652.0469 Q1668.2969,1652.0469 1668.9531,1651.7969 Q1669.3438,1651.6406 1669.7656,1651.2031 Q1670.0313,1650.9375 1670.1719,1650.8594 Q1670.3281,1650.7813 1670.5313,1650.7813 Q1670.8594,1650.7813 1671.1094,1651.0469 Q1671.375,1651.2969 1671.375,1651.6406 Q1671.375,1651.9844 1671.0313,1652.3906 Q1670.5313,1652.9688 1669.7344,1653.2969 Q1668.6563,1653.75 1667.3594,1653.75 Q1665.8438,1653.75 1664.6406,1653.125 Q1663.6563,1652.625 1662.9688,1651.5625 Q1662.2813,1650.4844 1662.2813,1649.2031 L1662.2813,1648.0469 Q1662.2813,1646.7188 1662.8906,1645.5781 Q1663.5156,1644.4219 1664.6094,1643.8125 Q1665.7031,1643.1875 1666.9375,1643.1875 Q1667.6719,1643.1875 1668.3125,1643.3594 Q1668.9688,1643.5156 1669.5156,1643.875 Z " fill="#000000"/><text fill="#000000" font-family="sans-serif" font-size="14" lengthAdjust="spacing" textLength="124" x="1687.25" y="1653.7285">GUIEditorToolPanel</text><line style="stroke:#181818;stroke-width:0.5;" x1="1569.5" x2="1896.5" y1="1664" y2="1664"/><rect fill="none" height="6" style="stroke:#C82930;stroke-width:1.0;" width="6" x="1576.5" y="1675.3047"/><text fill="#000000" font-family="sans-serif" font-size="14" lengthAdjust="spacing" textLength="178" x="1588.5" y="1682.5332">ECSModule&amp; m_ecsModule;</text><line style="stroke:#181818;stroke-width:0.5;" x1="1569.5" x2="1896.5" y1="1689.6094" y2="1689.6094"/><ellipse cx="1579.5" cy="1703.9141" fill="#84BE84" rx="3" ry="3" style="stroke:#038048;stroke-width:1.0;"/><text fill="#000000" font-family="sans-serif" font-size="14" lengthAdjust="spacing" textLength="138" x="1588.5" y="1708.1426">GUIEditorToolPanel();</text><ellipse cx="1579.5" cy="1721.5234" fill="#84BE84" rx="3" ry="3" style="stroke:#038048;stroke-width:1.0;"/><text fill="#000000" font-family="sans-serif" font-size="14" lengthAdjust="spacing" textLength="303" x="1588.5" y="1725.752">virtual ~GUIEditorToolPanel() override = default;</text><ellipse cx="1579.5" cy="1739.1328" fill="#84BE84" rx="3" ry="3" style="stroke:#038048;stroke-width:1.0;"/><text fill="#000000" font-family="sans-serif" font-size="14" lengthAdjust="spacing" textLength="184" x="1588.5" y="1743.3613">virtual void render() override;</text><text fill="#000000" font-family="sans-serif" font-size="14" lengthAdjust="spacing" textLength="4" x="1588.5" y="1760.9707">&#160;</text><rect fill="#F24D5C" height="6" style="stroke:#C82930;stroke-width:1.0;" width="6" x="1576.5" y="1771.3516"/><text fill="#000000" font-family="sans-serif" font-size="14" lengthAdjust="spacing" textLength="196" x="1588.5" y="1778.5801">void renderSaveWorldPopup();</text></g><!--class GUIEditorViewport--><g id="elem_GUIEditorViewport"><rect codeLine="56" fill="#F1F1F1" height="118.4375" id="GUIEditorViewport" rx="2.5" ry="2.5" style="stroke:#181818;stroke-width:0.5;" width="260" x="1933" y="1650"/><ellipse cx="2001.75" cy="1666" fill="#ADD1B2" rx="11" ry="11" style="stroke:#181818;stroke-width:1.0;"/><path d="M2004.5156,1661.875 Q2004.6719,1661.6563 2004.8594,1661.5469 Q2005.0469,1661.4375 2005.2656,1661.4375 Q2005.6406,1661.4375 2005.875,1661.7031 Q2006.1094,1661.9531 2006.1094,1662.5625 L2006.1094,1664.0156 Q2006.1094,1664.625 2005.875,1664.8906 Q2005.6406,1665.1563 2005.2656,1665.1563 Q2004.9219,1665.1563 2004.7188,1664.9531 Q2004.5156,1664.7656 2004.4063,1664.25 Q2004.3594,1663.8906 2004.1719,1663.7031 Q2003.8438,1663.3281 2003.2344,1663.1094 Q2002.625,1662.8906 2002,1662.8906 Q2001.2344,1662.8906 2000.5938,1663.2188 Q1999.9688,1663.5469 1999.4688,1664.2969 Q1998.9844,1665.0469 1998.9844,1666.0781 L1998.9844,1667.1719 Q1998.9844,1668.4063 1999.875,1669.2344 Q2000.7656,1670.0469 2002.3594,1670.0469 Q2003.2969,1670.0469 2003.9531,1669.7969 Q2004.3438,1669.6406 2004.7656,1669.2031 Q2005.0313,1668.9375 2005.1719,1668.8594 Q2005.3281,1668.7813 2005.5313,1668.7813 Q2005.8594,1668.7813 2006.1094,1669.0469 Q2006.375,1669.2969 2006.375,1669.6406 Q2006.375,1669.9844 2006.0313,1670.3906 Q2005.5313,1670.9688 2004.7344,1671.2969 Q2003.6563,1671.75 2002.3594,1671.75 Q2000.8438,1671.75 1999.6406,1671.125 Q1998.6563,1670.625 1997.9688,1669.5625 Q1997.2813,1668.4844 1997.2813,1667.2031 L1997.2813,1666.0469 Q1997.2813,1664.7188 1997.8906,1663.5781 Q1998.5156,1662.4219 1999.6094,1661.8125 Q2000.7031,1661.1875 2001.9375,1661.1875 Q2002.6719,1661.1875 2003.3125,1661.3594 Q2003.9688,1661.5156 2004.5156,1661.875 Z " fill="#000000"/><text fill="#000000" font-family="sans-serif" font-size="14" lengthAdjust="spacing" textLength="114" x="2022.25" y="1671.7285">GUIEditorViewport</text><line style="stroke:#181818;stroke-width:0.5;" x1="1934" x2="2192" y1="1682" y2="1682"/><rect fill="none" height="6" style="stroke:#C82930;stroke-width:1.0;" width="6" x="1941" y="1693.3047"/><text fill="#000000" font-family="sans-serif" font-size="14" lengthAdjust="spacing" textLength="220" x="1953" y="1700.5332">void* m_offscreenImageDescriptor;</text><line style="stroke:#181818;stroke-width:0.5;" x1="1934" x2="2192" y1="1707.6094" y2="1707.6094"/><ellipse cx="1944" cy="1721.9141" fill="#84BE84" rx="3" ry="3" style="stroke:#038048;stroke-width:1.0;"/><text fill="#000000" font-family="sans-serif" font-size="14" lengthAdjust="spacing" textLength="128" x="1953" y="1726.1426">GUIEditorViewport();</text><ellipse cx="1944" cy="1739.5234" fill="#84BE84" rx="3" ry="3" style="stroke:#038048;stroke-width:1.0;"/><text fill="#000000" font-family="sans-serif" font-size="14" lengthAdjust="spacing" textLength="234" x="1953" y="1743.752">virtual ~GUIEditorViewport() override;</text><ellipse cx="1944" cy="1757.1328" fill="#84BE84" rx="3" ry="3" style="stroke:#038048;stroke-width:1.0;"/><text fill="#000000" font-family="sans-serif" font-size="14" lengthAdjust="spacing" textLength="184" x="1953" y="1761.3613">virtual void render() override;</text></g><!--class GUIMainMenuBar--><g id="elem_GUIMainMenuBar"><rect codeLine="65" fill="#F1F1F1" height="118.4375" id="GUIMainMenuBar" rx="2.5" ry="2.5" style="stroke:#181818;stroke-width:0.5;" width="262" x="2228" y="1650"/><ellipse cx="2299.75" cy="1666" fill="#ADD1B2" rx="11" ry="11" style="stroke:#181818;stroke-width:1.0;"/><path d="M2302.5156,1661.875 Q2302.6719,1661.6563 2302.8594,1661.5469 Q2303.0469,1661.4375 2303.2656,1661.4375 Q2303.6406,1661.4375 2303.875,1661.7031 Q2304.1094,1661.9531 2304.1094,1662.5625 L2304.1094,1664.0156 Q2304.1094,1664.625 2303.875,1664.8906 Q2303.6406,1665.1563 2303.2656,1665.1563 Q2302.9219,1665.1563 2302.7188,1664.9531 Q2302.5156,1664.7656 2302.4063,1664.25 Q2302.3594,1663.8906 2302.1719,1663.7031 Q2301.8438,1663.3281 2301.2344,1663.1094 Q2300.625,1662.8906 2300,1662.8906 Q2299.2344,1662.8906 2298.5938,1663.2188 Q2297.9688,1663.5469 2297.4688,1664.2969 Q2296.9844,1665.0469 2296.9844,1666.0781 L2296.9844,1667.1719 Q2296.9844,1668.4063 2297.875,1669.2344 Q2298.7656,1670.0469 2300.3594,1670.0469 Q2301.2969,1670.0469 2301.9531,1669.7969 Q2302.3438,1669.6406 2302.7656,1669.2031 Q2303.0313,1668.9375 2303.1719,1668.8594 Q2303.3281,1668.7813 2303.5313,1668.7813 Q2303.8594,1668.7813 2304.1094,1669.0469 Q2304.375,1669.2969 2304.375,1669.6406 Q2304.375,1669.9844 2304.0313,1670.3906 Q2303.5313,1670.9688 2302.7344,1671.2969 Q2301.6563,1671.75 2300.3594,1671.75 Q2298.8438,1671.75 2297.6406,1671.125 Q2296.6563,1670.625 2295.9688,1669.5625 Q2295.2813,1668.4844 2295.2813,1667.2031 L2295.2813,1666.0469 Q2295.2813,1664.7188 2295.8906,1663.5781 Q2296.5156,1662.4219 2297.6094,1661.8125 Q2298.7031,1661.1875 2299.9375,1661.1875 Q2300.6719,1661.1875 2301.3125,1661.3594 Q2301.9688,1661.5156 2302.5156,1661.875 Z " fill="#000000"/><text fill="#000000" font-family="sans-serif" font-size="14" lengthAdjust="spacing" textLength="110" x="2320.25" y="1671.7285">GUIMainMenuBar</text><line style="stroke:#181818;stroke-width:0.5;" x1="2229" x2="2489" y1="1682" y2="1682"/><ellipse cx="2239" cy="1696.3047" fill="none" rx="3" ry="3" style="stroke:#038048;stroke-width:1.0;"/><text fill="#000000" font-family="sans-serif" font-size="14" lengthAdjust="spacing" textLength="236" x="2248" y="1700.5332">Event&lt;string&gt; OnOpenButtonClicked;</text><line style="stroke:#181818;stroke-width:0.5;" x1="2229" x2="2489" y1="1707.6094" y2="1707.6094"/><ellipse cx="2239" cy="1721.9141" fill="#84BE84" rx="3" ry="3" style="stroke:#038048;stroke-width:1.0;"/><text fill="#000000" font-family="sans-serif" font-size="14" lengthAdjust="spacing" textLength="124" x="2248" y="1726.1426">GUIMainMenuBar();</text><ellipse cx="2239" cy="1739.5234" fill="#84BE84" rx="3" ry="3" style="stroke:#038048;stroke-width:1.0;"/><text fill="#000000" font-family="sans-serif" font-size="14" lengthAdjust="spacing" textLength="233" x="2248" y="1743.752">virtual ~GUIMainMenuBar() = default;</text><ellipse cx="2239" cy="1757.1328" fill="#84BE84" rx="3" ry="3" style="stroke:#038048;stroke-width:1.0;"/><text fill="#000000" font-family="sans-serif" font-size="14" lengthAdjust="spacing" textLength="184" x="2248" y="1761.3613">virtual void render() override;</text></g><!--class GUIOutputLog--><g id="elem_GUIOutputLog"><rect codeLine="73" fill="#F1F1F1" height="206.4844" id="GUIOutputLog" rx="2.5" ry="2.5" style="stroke:#181818;stroke-width:0.5;" width="340" x="2525" y="1606"/><ellipse cx="2645.75" cy="1622" fill="#ADD1B2" rx="11" ry="11" style="stroke:#181818;stroke-width:1.0;"/><path d="M2648.5156,1617.875 Q2648.6719,1617.6563 2648.8594,1617.5469 Q2649.0469,1617.4375 2649.2656,1617.4375 Q2649.6406,1617.4375 2649.875,1617.7031 Q2650.1094,1617.9531 2650.1094,1618.5625 L2650.1094,1620.0156 Q2650.1094,1620.625 2649.875,1620.8906 Q2649.6406,1621.1563 2649.2656,1621.1563 Q2648.9219,1621.1563 2648.7188,1620.9531 Q2648.5156,1620.7656 2648.4063,1620.25 Q2648.3594,1619.8906 2648.1719,1619.7031 Q2647.8438,1619.3281 2647.2344,1619.1094 Q2646.625,1618.8906 2646,1618.8906 Q2645.2344,1618.8906 2644.5938,1619.2188 Q2643.9688,1619.5469 2643.4688,1620.2969 Q2642.9844,1621.0469 2642.9844,1622.0781 L2642.9844,1623.1719 Q2642.9844,1624.4063 2643.875,1625.2344 Q2644.7656,1626.0469 2646.3594,1626.0469 Q2647.2969,1626.0469 2647.9531,1625.7969 Q2648.3438,1625.6406 2648.7656,1625.2031 Q2649.0313,1624.9375 2649.1719,1624.8594 Q2649.3281,1624.7813 2649.5313,1624.7813 Q2649.8594,1624.7813 2650.1094,1625.0469 Q2650.375,1625.2969 2650.375,1625.6406 Q2650.375,1625.9844 2650.0313,1626.3906 Q2649.5313,1626.9688 2648.7344,1627.2969 Q2647.6563,1627.75 2646.3594,1627.75 Q2644.8438,1627.75 2643.6406,1627.125 Q2642.6563,1626.625 2641.9688,1625.5625 Q2641.2813,1624.4844 2641.2813,1623.2031 L2641.2813,1622.0469 Q2641.2813,1620.7188 2641.8906,1619.5781 Q2642.5156,1618.4219 2643.6094,1617.8125 Q2644.7031,1617.1875 2645.9375,1617.1875 Q2646.6719,1617.1875 2647.3125,1617.3594 Q2647.9688,1617.5156 2648.5156,1617.875 Z " fill="#000000"/><text fill="#000000" font-family="sans-serif" font-size="14" lengthAdjust="spacing" textLength="90" x="2666.25" y="1627.7285">GUIOutputLog</text><line style="stroke:#181818;stroke-width:0.5;" x1="2526" x2="2864" y1="1638" y2="1638"/><rect fill="none" height="6" style="stroke:#C82930;stroke-width:1.0;" width="6" x="2533" y="1649.3047"/><text fill="#000000" font-family="sans-serif" font-size="14" lengthAdjust="spacing" textLength="181" x="2545" y="1656.5332">vector&lt;string&gt; m_messages;</text><rect fill="none" height="6" style="stroke:#C82930;stroke-width:1.0;" width="6" x="2533" y="1666.9141"/><text fill="#000000" font-family="sans-serif" font-size="14" lengthAdjust="spacing" textLength="163" x="2545" y="1674.1426">int m_loggerSubscriberID;</text><line style="stroke:#181818;stroke-width:0.5;" x1="2526" x2="2864" y1="1681.2188" y2="1681.2188"/><ellipse cx="2536" cy="1695.5234" fill="#84BE84" rx="3" ry="3" style="stroke:#038048;stroke-width:1.0;"/><text fill="#000000" font-family="sans-serif" font-size="14" lengthAdjust="spacing" textLength="104" x="2545" y="1699.752">GUIOutputLog();</text><ellipse cx="2536" cy="1713.1328" fill="#84BE84" rx="3" ry="3" style="stroke:#038048;stroke-width:1.0;"/><text fill="#000000" font-family="sans-serif" font-size="14" lengthAdjust="spacing" textLength="112" x="2545" y="1717.3613">~GUIOutputLog();</text><text fill="#000000" font-family="sans-serif" font-size="14" lengthAdjust="spacing" textLength="4" x="2545" y="1734.9707">&#160;</text><ellipse cx="2536" cy="1748.3516" fill="#84BE84" rx="3" ry="3" style="stroke:#038048;stroke-width:1.0;"/><text fill="#000000" font-family="sans-serif" font-size="14" lengthAdjust="spacing" textLength="142" x="2545" y="1752.5801">void render() override;</text><ellipse cx="2536" cy="1765.9609" fill="#84BE84" rx="3" ry="3" style="stroke:#038048;stroke-width:1.0;"/><text fill="#000000" font-family="sans-serif" font-size="14" lengthAdjust="spacing" textLength="75" x="2545" y="1770.1895">void clear();</text><text fill="#000000" font-family="sans-serif" font-size="14" lengthAdjust="spacing" textLength="4" x="2545" y="1787.7988">&#160;</text><rect fill="#F24D5C" height="6" style="stroke:#C82930;stroke-width:1.0;" width="6" x="2533" y="1798.1797"/><text fill="#000000" font-family="sans-serif" font-size="14" lengthAdjust="spacing" textLength="314" x="2545" y="1805.4082">void receiveLogMessage(const string&amp; message);</text></g><!--class GUIObject--><g id="elem_GUIObject"><rect codeLine="4" fill="#F1F1F1" height="188.875" id="GUIObject" rx="2.5" ry="2.5" style="stroke:#181818;stroke-width:0.5;" width="358" x="1554" y="1348"/><ellipse cx="1696.75" cy="1364" fill="#ADD1B2" rx="11" ry="11" style="stroke:#181818;stroke-width:1.0;"/><path d="M1699.5156,1359.875 Q1699.6719,1359.6563 1699.8594,1359.5469 Q1700.0469,1359.4375 1700.2656,1359.4375 Q1700.6406,1359.4375 1700.875,1359.7031 Q1701.1094,1359.9531 1701.1094,1360.5625 L1701.1094,1362.0156 Q1701.1094,1362.625 1700.875,1362.8906 Q1700.6406,1363.1563 1700.2656,1363.1563 Q1699.9219,1363.1563 1699.7188,1362.9531 Q1699.5156,1362.7656 1699.4063,1362.25 Q1699.3594,1361.8906 1699.1719,1361.7031 Q1698.8438,1361.3281 1698.2344,1361.1094 Q1697.625,1360.8906 1697,1360.8906 Q1696.2344,1360.8906 1695.5938,1361.2188 Q1694.9688,1361.5469 1694.4688,1362.2969 Q1693.9844,1363.0469 1693.9844,1364.0781 L1693.9844,1365.1719 Q1693.9844,1366.4063 1694.875,1367.2344 Q1695.7656,1368.0469 1697.3594,1368.0469 Q1698.2969,1368.0469 1698.9531,1367.7969 Q1699.3438,1367.6406 1699.7656,1367.2031 Q1700.0313,1366.9375 1700.1719,1366.8594 Q1700.3281,1366.7813 1700.5313,1366.7813 Q1700.8594,1366.7813 1701.1094,1367.0469 Q1701.375,1367.2969 1701.375,1367.6406 Q1701.375,1367.9844 1701.0313,1368.3906 Q1700.5313,1368.9688 1699.7344,1369.2969 Q1698.6563,1369.75 1697.3594,1369.75 Q1695.8438,1369.75 1694.6406,1369.125 Q1693.6563,1368.625 1692.9688,1367.5625 Q1692.2813,1366.4844 1692.2813,1365.2031 L1692.2813,1364.0469 Q1692.2813,1362.7188 1692.8906,1361.5781 Q1693.5156,1360.4219 1694.6094,1359.8125 Q1695.7031,1359.1875 1696.9375,1359.1875 Q1697.6719,1359.1875 1698.3125,1359.3594 Q1698.9688,1359.5156 1699.5156,1359.875 Z " fill="#000000"/><text fill="#000000" font-family="sans-serif" font-size="14" lengthAdjust="spacing" textLength="64" x="1717.25" y="1369.7285">GUIObject</text><line style="stroke:#181818;stroke-width:0.5;" x1="1555" x2="1911" y1="1380" y2="1380"/><rect fill="none" height="6" style="stroke:#C82930;stroke-width:1.0;" width="6" x="1562" y="1391.3047"/><text fill="#000000" font-family="sans-serif" font-size="14" lengthAdjust="spacing" textLength="129" x="1574" y="1398.5332">uint32_t m_objectID;</text><line style="stroke:#181818;stroke-width:0.5;" x1="1555" x2="1911" y1="1405.6094" y2="1405.6094"/><ellipse cx="1565" cy="1419.9141" fill="#84BE84" rx="3" ry="3" style="stroke:#038048;stroke-width:1.0;"/><text fill="#000000" font-family="sans-serif" font-size="14" lengthAdjust="spacing" textLength="78" x="1574" y="1424.1426">GUIObject();</text><ellipse cx="1565" cy="1437.5234" fill="#84BE84" rx="3" ry="3" style="stroke:#038048;stroke-width:1.0;"/><text fill="#000000" font-family="sans-serif" font-size="14" lengthAdjust="spacing" textLength="257" x="1574" y="1441.752">GUIObject(const GUIObject&amp; T) = delete;</text><ellipse cx="1565" cy="1455.1328" fill="#84BE84" rx="3" ry="3" style="stroke:#038048;stroke-width:1.0;"/><text fill="#000000" font-family="sans-serif" font-size="14" lengthAdjust="spacing" textLength="332" x="1574" y="1459.3613">GUIObject&amp; operator=(const GUIObject&amp; T) = delete;</text><ellipse cx="1565" cy="1472.7422" fill="#84BE84" rx="3" ry="3" style="stroke:#038048;stroke-width:1.0;"/><text fill="#000000" font-family="sans-serif" font-size="14" lengthAdjust="spacing" textLength="128" x="1574" y="1476.9707">virtual ~GUIObject();</text><text fill="#000000" font-family="sans-serif" font-size="14" lengthAdjust="spacing" textLength="4" x="1574" y="1494.5801">&#160;</text><ellipse cx="1565" cy="1507.9609" fill="#84BE84" rx="3" ry="3" style="stroke:#038048;stroke-width:1.0;"/><text fill="#000000" font-family="sans-serif" font-size="14" lengthAdjust="spacing" textLength="128" x="1574" y="1512.1895">virtual void render();</text><ellipse cx="1565" cy="1525.5703" fill="#84BE84" rx="3" ry="3" style="stroke:#038048;stroke-width:1.0;"/><text fill="#000000" font-family="sans-serif" font-size="14" lengthAdjust="spacing" textLength="140" x="1574" y="1529.7988">uint32_t getID() const;</text></g><!--class ImGuiModule--><g id="elem_ImGuiModule"><rect codeLine="17" fill="#F1F1F1" height="270.0156" id="ImGuiModule" rx="2.5" ry="2.5" style="stroke:#181818;stroke-width:0.5;" width="247" x="1609.5" y="900"/><ellipse cx="1687.75" cy="921.3516" fill="#ADD1B2" rx="11" ry="11" style="stroke:#181818;stroke-width:1.0;"/><path d="M1690.5156,917.2266 Q1690.6719,917.0078 1690.8594,916.8984 Q1691.0469,916.7891 1691.2656,916.7891 Q1691.6406,916.7891 1691.875,917.0547 Q1692.1094,917.3047 1692.1094,917.9141 L1692.1094,919.3672 Q1692.1094,919.9766 1691.875,920.2422 Q1691.6406,920.5078 1691.2656,920.5078 Q1690.9219,920.5078 1690.7188,920.3047 Q1690.5156,920.1172 1690.4063,919.6016 Q1690.3594,919.2422 1690.1719,919.0547 Q1689.8438,918.6797 1689.2344,918.4609 Q1688.625,918.2422 1688,918.2422 Q1687.2344,918.2422 1686.5938,918.5703 Q1685.9688,918.8984 1685.4688,919.6484 Q1684.9844,920.3984 1684.9844,921.4297 L1684.9844,922.5234 Q1684.9844,923.7578 1685.875,924.5859 Q1686.7656,925.3984 1688.3594,925.3984 Q1689.2969,925.3984 1689.9531,925.1484 Q1690.3438,924.9922 1690.7656,924.5547 Q1691.0313,924.2891 1691.1719,924.2109 Q1691.3281,924.1328 1691.5313,924.1328 Q1691.8594,924.1328 1692.1094,924.3984 Q1692.375,924.6484 1692.375,924.9922 Q1692.375,925.3359 1692.0313,925.7422 Q1691.5313,926.3203 1690.7344,926.6484 Q1689.6563,927.1016 1688.3594,927.1016 Q1686.8438,927.1016 1685.6406,926.4766 Q1684.6563,925.9766 1683.9688,924.9141 Q1683.2813,923.8359 1683.2813,922.5547 L1683.2813,921.3984 Q1683.2813,920.0703 1683.8906,918.9297 Q1684.5156,917.7734 1685.6094,917.1641 Q1686.7031,916.5391 1687.9375,916.5391 Q1688.6719,916.5391 1689.3125,916.7109 Q1689.9688,916.8672 1690.5156,917.2266 Z " fill="#000000"/><text fill="#000000" font-family="sans-serif" font-size="12" font-style="italic" lengthAdjust="spacing" textLength="71" x="1713.75" y="917.457">&#171;singletone&#187;</text><text fill="#000000" font-family="sans-serif" font-size="14" lengthAdjust="spacing" textLength="82" x="1708.25" y="934.627">ImGuiModule</text><line style="stroke:#181818;stroke-width:0.5;" x1="1610.5" x2="1855.5" y1="942.7031" y2="942.7031"/><rect fill="none" height="6" style="stroke:#C82930;stroke-width:1.0;" width="6" x="1617.5" y="954.0078"/><text fill="#000000" font-family="sans-serif" font-size="14" lengthAdjust="spacing" textLength="221" x="1629.5" y="961.2363">vector&lt;GUIObject*&gt; m_GuiObjects;</text><line style="stroke:#181818;stroke-width:0.5;" x1="1610.5" x2="1855.5" y1="968.3125" y2="968.3125"/><rect fill="#F24D5C" height="6" style="stroke:#C82930;stroke-width:1.0;" width="6" x="1617.5" y="979.6172"/><text fill="#000000" font-family="sans-serif" font-size="14" lengthAdjust="spacing" textLength="155" x="1629.5" y="986.8457">ImGuiModule() = default;</text><text fill="#000000" font-family="sans-serif" font-size="14" lengthAdjust="spacing" textLength="4" x="1629.5" y="1004.4551">&#160;</text><ellipse cx="1620.5" cy="1017.8359" fill="#84BE84" rx="3" ry="3" style="stroke:#038048;stroke-width:1.0;"/><text fill="#000000" font-family="sans-serif" font-size="14" lengthAdjust="spacing" textLength="163" x="1629.5" y="1022.0645">~ImGuiModule() = default;</text><ellipse cx="1620.5" cy="1035.4453" fill="#84BE84" rx="3" ry="3" style="stroke:#038048;stroke-width:1.0;"/><text fill="#000000" font-family="sans-serif" font-size="14" lengthAdjust="spacing" textLength="88" x="1629.5" y="1039.6738">void startup();</text><ellipse cx="1620.5" cy="1053.0547" fill="#84BE84" rx="3" ry="3" style="stroke:#038048;stroke-width:1.0;"/><text fill="#000000" font-family="sans-serif" font-size="14" lengthAdjust="spacing" textLength="104" x="1629.5" y="1057.2832">void shutdown();</text><text fill="#000000" font-family="sans-serif" font-size="14" lengthAdjust="spacing" textLength="4" x="1629.5" y="1074.8926">&#160;</text><ellipse cx="1620.5" cy="1088.2734" fill="#84BE84" rx="3" ry="3" style="stroke:#038048;stroke-width:1.0;"/><text fill="#000000" font-family="sans-serif" font-size="14" lengthAdjust="spacing" textLength="219" x="1629.5" y="1092.502">static ImGuiModule&amp; getInstance();</text><ellipse cx="1620.5" cy="1105.8828" fill="#84BE84" rx="3" ry="3" style="stroke:#038048;stroke-width:1.0;"/><text fill="#000000" font-family="sans-serif" font-size="14" lengthAdjust="spacing" textLength="130" x="1629.5" y="1110.1113">void setImGuiStyle();</text><ellipse cx="1620.5" cy="1123.4922" fill="#84BE84" rx="3" ry="3" style="stroke:#038048;stroke-width:1.0;"/><text fill="#000000" font-family="sans-serif" font-size="14" lengthAdjust="spacing" textLength="136" x="1629.5" y="1127.7207">void renderUI() const;</text><ellipse cx="1620.5" cy="1141.1016" fill="#84BE84" rx="3" ry="3" style="stroke:#038048;stroke-width:1.0;"/><text fill="#000000" font-family="sans-serif" font-size="14" lengthAdjust="spacing" textLength="220" x="1629.5" y="1145.3301">void addObject(GUIObject* object);</text><ellipse cx="1620.5" cy="1158.7109" fill="#84BE84" rx="3" ry="3" style="stroke:#038048;stroke-width:1.0;"/><text fill="#000000" font-family="sans-serif" font-size="14" lengthAdjust="spacing" textLength="198" x="1629.5" y="1162.9395">void removeObject(uint32_t id);</text></g><!--reverse link ProjectModule to ProjectConfig--><g id="link_ProjectModule_ProjectConfig"><path codeLine="47" d="M224,690.01 C224,721.12 224,745 224,781.75 " fill="none" id="ProjectModule-backto-ProjectConfig" style="stroke:#181818;stroke-width:1.0;"/><polygon fill="#181818" points="224,678.01,220,684.01,224,690.01,228,684.01,224,678.01" style="stroke:#181818;stroke-width:1.0;"/></g><!--reverse link ImGuiModule to GUIObject--><g id="link_ImGuiModule_GUIObject"><path codeLine="33" d="M1733,1182.18 C1733,1240.41 1733,1295.2 1733,1347.93 " fill="none" id="ImGuiModule-backto-GUIObject" style="stroke:#181818;stroke-width:1.0;"/><polygon fill="#181818" points="1733,1170.18,1729,1176.18,1733,1182.18,1737,1176.18,1733,1170.18" style="stroke:#181818;stroke-width:1.0;"/></g><!--reverse link GUIObject to GUIContentBrowser--><g id="link_GUIObject_GUIContentBrowser"><path d="M1536.0133,1452.2476 C1348.6233,1465.2676 1066.83,1499.62 827,1597 C821.18,1599.36 815.36,1601.96 809.57,1604.76 " fill="none" id="GUIObject-backto-GUIContentBrowser" style="stroke:#181818;stroke-width:1.0;"/><polygon fill="none" points="1553.97,1451,1535.5974,1446.2621,1536.4292,1458.2332,1553.97,1451" style="stroke:#181818;stroke-width:1.0;"/></g><!--reverse link GUIObject to GUIWorldInspector--><g id="link_GUIObject_GUIWorldInspector"><path d="M1536.1665,1484.3441 C1426.9565,1509.9841 1303.6,1544.87 1185,1597 C1178.64,1599.8 1172.24,1602.79 1165.83,1605.93 " fill="none" id="GUIObject-backto-GUIWorldInspector" style="stroke:#181818;stroke-width:1.0;"/><polygon fill="none" points="1553.69,1480.23,1534.7951,1478.5029,1537.5378,1490.1853,1553.69,1480.23" style="stroke:#181818;stroke-width:1.0;"/></g><!--reverse link GUIObject to GUIEditorConsole--><g id="link_GUIObject_GUIEditorConsole"><path d="M1589.2232,1547.6902 C1546.3632,1578.7402 1513.78,1602.36 1472.97,1631.93 " fill="none" id="GUIObject-backto-GUIEditorConsole" style="stroke:#181818;stroke-width:1.0;"/><polygon fill="none" points="1603.8,1537.13,1585.7032,1542.8312,1592.7433,1552.5491,1603.8,1537.13" style="stroke:#181818;stroke-width:1.0;"/></g><!--reverse link GUIObject to GUIEditorToolPanel--><g id="link_GUIObject_GUIEditorToolPanel"><path d="M1733,1555.13 C1733,1586.18 1733,1602.36 1733,1631.93 " fill="none" id="GUIObject-backto-GUIEditorToolPanel" style="stroke:#181818;stroke-width:1.0;"/><polygon fill="none" points="1733,1537.13,1727,1555.13,1739,1555.13,1733,1537.13" style="stroke:#181818;stroke-width:1.0;"/></g><!--reverse link GUIObject to GUIEditorViewport--><g id="link_GUIObject_GUIEditorViewport"><path d="M1863.8566,1548.3858 C1910.7666,1585.9758 1949.32,1616.89 1990.54,1649.92 " fill="none" id="GUIObject-backto-GUIEditorViewport" style="stroke:#181818;stroke-width:1.0;"/><polygon fill="none" points="1849.81,1537.13,1860.1046,1553.068,1867.6085,1543.7036,1849.81,1537.13" style="stroke:#181818;stroke-width:1.0;"/></g><!--reverse link GUIObject to GUIMainMenuBar--><g id="link_GUIObject_GUIMainMenuBar"><path d="M1929.3489,1490.5375 C2021.5989,1516.0475 2116.83,1548.32 2211,1597 C2238.96,1611.45 2267.2,1631.11 2291.41,1649.86 " fill="none" id="GUIObject-backto-GUIMainMenuBar" style="stroke:#181818;stroke-width:1.0;"/><polygon fill="none" points="1912,1485.74,1927.7497,1496.3205,1930.9481,1484.7545,1912,1485.74" style="stroke:#181818;stroke-width:1.0;"/></g><!--reverse link GUIObject to GUIOutputLog--><g id="link_GUIObject_GUIOutputLog"><path d="M1929.9196,1463.7136 C2090.1596,1483.8436 2311.53,1521.79 2508,1597 C2515.14,1599.73 2522.32,1602.73 2529.49,1605.93 " fill="none" id="GUIObject-backto-GUIOutputLog" style="stroke:#181818;stroke-width:1.0;"/><polygon fill="none" points="1912.06,1461.47,1929.1718,1469.6668,1930.6675,1457.7604,1912.06,1461.47" style="stroke:#181818;stroke-width:1.0;"/></g><!--reverse link EditorUIModule to GUIObjects--><g id="link_EditorUIModule_GUIObjects"><path codeLine="104" d="M610.433,727.6627 C604.4092,744.0777 600.2013,755.5437 593.828,772.9095 C590.6414,781.5923 587.4303,790.3419 584.2137,799.1061 C583.4096,801.2972 582.6051,803.4892 581.8006,805.6812 C581.3983,806.7773 580.996,807.8733 580.5938,808.9693 C580.3927,809.5173 580.1916,810.0653 579.9905,810.6132 " fill="none" id="EditorUIModule-backto-GUIObjects" style="stroke:#181818;stroke-width:1.0;stroke-dasharray:7.0,7.0;"/><polygon fill="#181818" points="612.5,722.03,605.6443,729.1011,610.7775,726.7239,613.1546,731.8571,612.5,722.03" style="stroke:#181818;stroke-width:1.0;"/></g><!--reverse link EditorModule to EditorUIModule--><g id="link_EditorModule_EditorUIModule"><path codeLine="7" d="M239.3999,265.552 C239.3122,266.4739 239.7456,262.1224 239.6664,263.0601 C239.3494,266.8106 239.1033,270.682 238.9537,274.6363 C237.7575,306.27 242.74,343.205 267,366 C287.61,385.36 372.05,356.17 394,374 C411.8775,388.5225 424.3475,408.1912 432.9888,429.5939 C435.1491,434.9446 437.0701,440.4036 438.7765,445.9177 C439.6297,448.6747 440.4292,451.4455 441.1782,454.2234 C441.3654,454.9179 441.5495,455.6128 441.7304,456.3081 C441.8209,456.6557 441.9106,457.0034 441.9996,457.3512 " fill="none" id="EditorModule-backto-EditorUIModule" style="stroke:#181818;stroke-width:1.0;stroke-dasharray:7.0,7.0;"/><polygon fill="#181818" points="239.9836,259.5804,235.127,268.1486,239.4972,264.5567,243.089,268.9269,239.9836,259.5804" style="stroke:#181818;stroke-width:1.0;"/></g><!--reverse link EditorModule to ProjectModule--><g id="link_EditorModule_ProjectModule"><path codeLine="8" d="M234.4379,221.0346 C234.1524,221.1648 238.8988,219.0079 238.6004,219.1448 C238.0036,219.4186 237.3814,219.7057 236.7346,220.0061 C235.4411,220.6069 234.0492,221.2607 232.5661,221.967 C229.5999,223.3796 226.2686,225.0021 222.6277,226.8303 C208.0641,234.1431 188.5481,244.7462 167.6412,258.3625 C125.8275,285.595 78.45,324.88 54,374 C34.2,413.785 31.9525,463.5825 34.7763,503.8988 C35.4822,513.9778 36.5051,523.4643 37.6499,532.0536 C37.7215,532.5904 37.7935,533.1238 37.8659,533.6535 C37.9022,533.9184 37.9385,534.1824 37.9749,534.4455 " fill="none" id="EditorModule-backto-ProjectModule" style="stroke:#181818;stroke-width:1.0;stroke-dasharray:7.0,7.0;"/><polygon fill="#181818" points="239.8999,218.5513,230.0514,218.635,235.3483,220.6207,233.3625,225.9176,239.8999,218.5513" style="stroke:#181818;stroke-width:1.0;"/></g><!--SRC=[AqXCpavCJrLmJSaioIyAhYmkIStbgkPI00B5pBpadD8Kc9npVbv9QaM9Na5fRWwgV41HVbPgSeblVaffJYeMUOZ-K4za1M0L40c8i8ADdXwQIkngK6pZgWK0]--></g></svg>