<?xml version="1.0" encoding="us-ascii" standalone="no"?><svg xmlns="http://www.w3.org/2000/svg" xmlns:xlink="http://www.w3.org/1999/xlink" contentStyleType="text/css" height="377px" preserveAspectRatio="none" style="width:401px;height:377px;background:#FFFFFF;" version="1.1" viewBox="0 0 401 377" width="401px" zoomAndPan="magnify"><defs/><g><!--cluster EventModule--><g id="cluster_EventModule"><path d="M8.5,6 L103.5,6 A3.75,3.75 0 0 1 106,8.5 L113,29.6094 L391.5,29.6094 A2.5,2.5 0 0 1 394,32.1094 L394,367.5 A2.5,2.5 0 0 1 391.5,370 L8.5,370 A2.5,2.5 0 0 1 6,367.5 L6,8.5 A2.5,2.5 0 0 1 8.5,6 " fill="none" style="stroke:#000000;stroke-width:1.5;"/><line style="stroke:#000000;stroke-width:1.5;" x1="6" x2="113" y1="29.6094" y2="29.6094"/><text fill="#000000" font-family="sans-serif" font-size="14" font-weight="bold" lengthAdjust="spacing" textLength="94" x="10" y="22.5332">EventModule</text></g><!--class Event--><g id="elem_Event"><rect codeLine="3" fill="#F1F1F1" height="312.1406" id="Event" rx="2.5" ry="2.5" style="stroke:#181818;stroke-width:0.5;" width="356" x="22" y="42"/><ellipse cx="158.75" cy="58" fill="#ADD1B2" rx="11" ry="11" style="stroke:#181818;stroke-width:1.0;"/><path d="M161.5156,53.875 Q161.6719,53.6563 161.8594,53.5469 Q162.0469,53.4375 162.2656,53.4375 Q162.6406,53.4375 162.875,53.7031 Q163.1094,53.9531 163.1094,54.5625 L163.1094,56.0156 Q163.1094,56.625 162.875,56.8906 Q162.6406,57.1563 162.2656,57.1563 Q161.9219,57.1563 161.7188,56.9531 Q161.5156,56.7656 161.4063,56.25 Q161.3594,55.8906 161.1719,55.7031 Q160.8438,55.3281 160.2344,55.1094 Q159.625,54.8906 159,54.8906 Q158.2344,54.8906 157.5938,55.2188 Q156.9688,55.5469 156.4688,56.2969 Q155.9844,57.0469 155.9844,58.0781 L155.9844,59.1719 Q155.9844,60.4063 156.875,61.2344 Q157.7656,62.0469 159.3594,62.0469 Q160.2969,62.0469 160.9531,61.7969 Q161.3438,61.6406 161.7656,61.2031 Q162.0313,60.9375 162.1719,60.8594 Q162.3281,60.7813 162.5313,60.7813 Q162.8594,60.7813 163.1094,61.0469 Q163.375,61.2969 163.375,61.6406 Q163.375,61.9844 163.0313,62.3906 Q162.5313,62.9688 161.7344,63.2969 Q160.6563,63.75 159.3594,63.75 Q157.8438,63.75 156.6406,63.125 Q155.6563,62.625 154.9688,61.5625 Q154.2813,60.4844 154.2813,59.2031 L154.2813,58.0469 Q154.2813,56.7188 154.8906,55.5781 Q155.5156,54.4219 156.6094,53.8125 Q157.7031,53.1875 158.9375,53.1875 Q159.6719,53.1875 160.3125,53.3594 Q160.9688,53.5156 161.5156,53.875 Z " fill="#000000"/><text fill="#000000" font-family="sans-serif" font-size="14" lengthAdjust="spacing" textLength="36" x="179.25" y="63.7285">Event</text><rect fill="#FFFFFF" height="17.0938" style="stroke:#181818;stroke-width:1.0;stroke-dasharray:2.0,2.0;" width="36" x="345" y="39"/><text fill="#000000" font-family="sans-serif" font-size="12" font-style="italic" lengthAdjust="spacing" textLength="34" x="346" y="52.457">Args...</text><line style="stroke:#181818;stroke-width:0.5;" x1="23" x2="377" y1="74" y2="74"/><rect fill="none" height="6" style="stroke:#C82930;stroke-width:1.0;" width="6" x="30" y="85.3047"/><text fill="#000000" font-family="sans-serif" font-size="14" lengthAdjust="spacing" textLength="101" x="42" y="92.5332">mutex m_mutex;</text><rect fill="none" height="6" style="stroke:#C82930;stroke-width:1.0;" width="6" x="30" y="102.9141"/><text fill="#000000" font-family="sans-serif" font-size="14" lengthAdjust="spacing" textLength="86" x="42" y="110.1426">int nextId_{0};</text><rect fill="none" height="6" style="stroke:#C82930;stroke-width:1.0;" width="6" x="30" y="120.5234"/><text fill="#000000" font-family="sans-serif" font-size="14" lengthAdjust="spacing" textLength="253" x="42" y="127.752">vector&lt;pair&lt;int&lt; Handler&gt;&gt; m_handlers;</text><line style="stroke:#181818;stroke-width:0.5;" x1="23" x2="377" y1="134.8281" y2="134.8281"/><ellipse cx="33" cy="149.1328" fill="#84BE84" rx="3" ry="3" style="stroke:#038048;stroke-width:1.0;"/><text fill="#000000" font-family="sans-serif" font-size="14" lengthAdjust="spacing" textLength="188" x="42" y="153.3613">Event(const Event&amp;) = delete;</text><ellipse cx="33" cy="166.7422" fill="#84BE84" rx="3" ry="3" style="stroke:#038048;stroke-width:1.0;"/><text fill="#000000" font-family="sans-serif" font-size="14" lengthAdjust="spacing" textLength="263" x="42" y="170.9707">Event&amp; operator=(const Event&amp;) = delete;</text><ellipse cx="33" cy="184.3516" fill="#84BE84" rx="3" ry="3" style="stroke:#038048;stroke-width:1.0;"/><text fill="#000000" font-family="sans-serif" font-size="14" lengthAdjust="spacing" textLength="159" x="42" y="188.5801">Event(Event&amp;&amp;) = delete;</text><ellipse cx="33" cy="201.9609" fill="#84BE84" rx="3" ry="3" style="stroke:#038048;stroke-width:1.0;"/><text fill="#000000" font-family="sans-serif" font-size="14" lengthAdjust="spacing" textLength="234" x="42" y="206.1895">Event&amp; operator=(Event&amp;&amp;) = delete;</text><ellipse cx="33" cy="219.5703" fill="#84BE84" rx="3" ry="3" style="stroke:#038048;stroke-width:1.0;"/><text fill="#000000" font-family="sans-serif" font-size="14" lengthAdjust="spacing" textLength="109" x="42" y="223.7988">Event() = default;</text><ellipse cx="33" cy="237.1797" fill="#84BE84" rx="3" ry="3" style="stroke:#038048;stroke-width:1.0;"/><text fill="#000000" font-family="sans-serif" font-size="14" lengthAdjust="spacing" textLength="117" x="42" y="241.4082">~Event() = default;</text><text fill="#000000" font-family="sans-serif" font-size="14" lengthAdjust="spacing" textLength="4" x="42" y="259.0176">&#160;</text><ellipse cx="33" cy="272.3984" fill="#84BE84" rx="3" ry="3" style="stroke:#038048;stroke-width:1.0;"/><text fill="#000000" font-family="sans-serif" font-size="14" lengthAdjust="spacing" textLength="330" x="42" y="276.627">using Handler = function&lt;void(Args...)&gt;; &#171;type alias&#187;</text><text fill="#000000" font-family="sans-serif" font-size="14" lengthAdjust="spacing" textLength="4" x="42" y="294.2363">&#160;</text><ellipse cx="33" cy="307.6172" fill="#84BE84" rx="3" ry="3" style="stroke:#038048;stroke-width:1.0;"/><text fill="#000000" font-family="sans-serif" font-size="14" lengthAdjust="spacing" textLength="242" x="42" y="311.8457">int subscribe(const Handler&amp; handler);</text><ellipse cx="33" cy="325.2266" fill="#84BE84" rx="3" ry="3" style="stroke:#038048;stroke-width:1.0;"/><text fill="#000000" font-family="sans-serif" font-size="14" lengthAdjust="spacing" textLength="151" x="42" y="329.4551">void unsubscribe(int id);</text><ellipse cx="33" cy="342.8359" fill="#84BE84" rx="3" ry="3" style="stroke:#038048;stroke-width:1.0;"/><text fill="#000000" font-family="sans-serif" font-size="14" lengthAdjust="spacing" textLength="181" x="42" y="347.0645">void operator()(Args... args);</text></g><!--SRC=[ZL3BQiCm4BpxA_PaP4fDxrO4FHJQGxyXADB65LKaeuT92CwtLxRishI5PYyhTcP7izDnySbRX9SUJNYtCceihWMa4ffxd-T0drthwxfc4vBniHvFCU0PJlkfD-jSfIM3v_0czzUdOGFqA89rjEFAqKIYyCgDrEWOIoeV-UsRudlXOJ90X3K-P3Db1JkGg35WyuDMWktGyVJ1xiuDaWbtQlvB9XawygZ31hlz0QvezCgqImw9Sen616KDxQsIP4w-OWrG6YuT0jUAUyOs2cFQFXwySEg0y-MpNWbpgDN6poWCqQmheu2IloZBvQHQR01FVUODnV05]--></g></svg>