<?xml version="1.0" encoding="us-ascii" standalone="no"?><svg xmlns="http://www.w3.org/2000/svg" xmlns:xlink="http://www.w3.org/1999/xlink" contentStyleType="text/css" height="679px" preserveAspectRatio="none" style="width:527px;height:679px;background:#FFFFFF;" version="1.1" viewBox="0 0 527 679" width="527px" zoomAndPan="magnify"><defs/><g><!--cluster WindowModule--><g id="cluster_WindowModule"><path d="M8.5,6 L117.5,6 A3.75,3.75 0 0 1 120,8.5 L127,29.6094 L517.5,29.6094 A2.5,2.5 0 0 1 520,32.1094 L520,669.5 A2.5,2.5 0 0 1 517.5,672 L8.5,672 A2.5,2.5 0 0 1 6,669.5 L6,8.5 A2.5,2.5 0 0 1 8.5,6 " fill="none" style="stroke:#000000;stroke-width:1.5;"/><line style="stroke:#000000;stroke-width:1.5;" x1="6" x2="127" y1="29.6094" y2="29.6094"/><text fill="#000000" font-family="sans-serif" font-size="14" font-weight="bold" lengthAdjust="spacing" textLength="108" x="10" y="22.5332">WindowModule</text></g><!--class Window--><g id="elem_Window"><rect codeLine="3" fill="#F1F1F1" height="417.7969" id="Window" rx="2.5" ry="2.5" style="stroke:#181818;stroke-width:0.5;" width="482" x="22" y="238"/><ellipse cx="234.25" cy="254" fill="#ADD1B2" rx="11" ry="11" style="stroke:#181818;stroke-width:1.0;"/><path d="M237.0156,249.875 Q237.1719,249.6563 237.3594,249.5469 Q237.5469,249.4375 237.7656,249.4375 Q238.1406,249.4375 238.375,249.7031 Q238.6094,249.9531 238.6094,250.5625 L238.6094,252.0156 Q238.6094,252.625 238.375,252.8906 Q238.1406,253.1563 237.7656,253.1563 Q237.4219,253.1563 237.2188,252.9531 Q237.0156,252.7656 236.9063,252.25 Q236.8594,251.8906 236.6719,251.7031 Q236.3438,251.3281 235.7344,251.1094 Q235.125,250.8906 234.5,250.8906 Q233.7344,250.8906 233.0938,251.2188 Q232.4688,251.5469 231.9688,252.2969 Q231.4844,253.0469 231.4844,254.0781 L231.4844,255.1719 Q231.4844,256.4063 232.375,257.2344 Q233.2656,258.0469 234.8594,258.0469 Q235.7969,258.0469 236.4531,257.7969 Q236.8438,257.6406 237.2656,257.2031 Q237.5313,256.9375 237.6719,256.8594 Q237.8281,256.7813 238.0313,256.7813 Q238.3594,256.7813 238.6094,257.0469 Q238.875,257.2969 238.875,257.6406 Q238.875,257.9844 238.5313,258.3906 Q238.0313,258.9688 237.2344,259.2969 Q236.1563,259.75 234.8594,259.75 Q233.3438,259.75 232.1406,259.125 Q231.1563,258.625 230.4688,257.5625 Q229.7813,256.4844 229.7813,255.2031 L229.7813,254.0469 Q229.7813,252.7188 230.3906,251.5781 Q231.0156,250.4219 232.1094,249.8125 Q233.2031,249.1875 234.4375,249.1875 Q235.1719,249.1875 235.8125,249.3594 Q236.4688,249.5156 237.0156,249.875 Z " fill="#000000"/><text fill="#000000" font-family="sans-serif" font-size="14" lengthAdjust="spacing" textLength="49" x="254.75" y="259.7285">Window</text><line style="stroke:#181818;stroke-width:0.5;" x1="23" x2="503" y1="270" y2="270"/><rect fill="none" height="6" style="stroke:#C82930;stroke-width:1.0;" width="6" x="30" y="281.3047"/><text fill="#000000" font-family="sans-serif" font-size="14" lengthAdjust="spacing" textLength="163" x="42" y="288.5332">GLFWwindow* m_window;</text><rect fill="none" height="6" style="stroke:#C82930;stroke-width:1.0;" width="6" x="30" y="298.9141"/><text fill="#000000" font-family="sans-serif" font-size="14" lengthAdjust="spacing" textLength="223" x="42" y="306.1426">bool m_framebufferResized = false;</text><line style="stroke:#181818;stroke-width:0.5;" x1="23" x2="503" y1="313.2188" y2="313.2188"/><ellipse cx="33" cy="327.5234" fill="#84BE84" rx="3" ry="3" style="stroke:#038048;stroke-width:1.0;"/><text fill="#000000" font-family="sans-serif" font-size="14" lengthAdjust="spacing" textLength="397" x="42" y="331.752">Window(int width, int height, const char* titile, GraphicsAPI api);</text><ellipse cx="33" cy="345.1328" fill="#84BE84" rx="3" ry="3" style="stroke:#038048;stroke-width:1.0;"/><text fill="#000000" font-family="sans-serif" font-size="14" lengthAdjust="spacing" textLength="71" x="42" y="349.3613">~Window();</text><text fill="#000000" font-family="sans-serif" font-size="14" lengthAdjust="spacing" textLength="4" x="42" y="366.9707">&#160;</text><ellipse cx="33" cy="380.3516" fill="#84BE84" rx="3" ry="3" style="stroke:#038048;stroke-width:1.0;"/><text fill="#000000" font-family="sans-serif" font-size="14" lengthAdjust="spacing" textLength="154" x="42" y="384.5801">void resetResizedFlag();</text><ellipse cx="33" cy="397.9609" fill="#84BE84" rx="3" ry="3" style="stroke:#038048;stroke-width:1.0;"/><text fill="#000000" font-family="sans-serif" font-size="14" lengthAdjust="spacing" textLength="109" x="42" y="402.1895">void pollEvents();</text><ellipse cx="33" cy="415.5703" fill="#84BE84" rx="3" ry="3" style="stroke:#038048;stroke-width:1.0;"/><text fill="#000000" font-family="sans-serif" font-size="14" lengthAdjust="spacing" textLength="305" x="42" y="419.7988">void setKeyCallBack(GLFWkeyfun keyCallback);</text><ellipse cx="33" cy="433.1797" fill="#84BE84" rx="3" ry="3" style="stroke:#038048;stroke-width:1.0;"/><text fill="#000000" font-family="sans-serif" font-size="14" lengthAdjust="spacing" textLength="456" x="42" y="437.4082">void setCursorPositionCallback(GLFWcursorposfun cursorPosCallback);</text><ellipse cx="33" cy="450.7891" fill="#84BE84" rx="3" ry="3" style="stroke:#038048;stroke-width:1.0;"/><text fill="#000000" font-family="sans-serif" font-size="14" lengthAdjust="spacing" textLength="336" x="42" y="455.0176">void setScrollBallback(GLFWscrollfun scrollCallback);</text><text fill="#000000" font-family="sans-serif" font-size="14" lengthAdjust="spacing" textLength="4" x="42" y="472.627">&#160;</text><ellipse cx="33" cy="486.0078" fill="#84BE84" rx="3" ry="3" style="stroke:#038048;stroke-width:1.0;"/><text fill="#000000" font-family="sans-serif" font-size="14" lengthAdjust="spacing" textLength="197" x="42" y="490.2363">bool glfwWindowIsValid() const;</text><ellipse cx="33" cy="503.6172" fill="#84BE84" rx="3" ry="3" style="stroke:#038048;stroke-width:1.0;"/><text fill="#000000" font-family="sans-serif" font-size="14" lengthAdjust="spacing" textLength="123" x="42" y="507.8457">bool shouldClose();</text><ellipse cx="33" cy="521.2266" fill="#84BE84" rx="3" ry="3" style="stroke:#038048;stroke-width:1.0;"/><text fill="#000000" font-family="sans-serif" font-size="14" lengthAdjust="spacing" textLength="157" x="42" y="525.4551">bool wasResized() const;</text><text fill="#000000" font-family="sans-serif" font-size="14" lengthAdjust="spacing" textLength="4" x="42" y="543.0645">&#160;</text><ellipse cx="33" cy="556.4453" fill="#84BE84" rx="3" ry="3" style="stroke:#038048;stroke-width:1.0;"/><text fill="#000000" font-family="sans-serif" font-size="14" lengthAdjust="spacing" textLength="185" x="42" y="560.6738">float currentTimeInseconds();</text><text fill="#000000" font-family="sans-serif" font-size="14" lengthAdjust="spacing" textLength="4" x="42" y="578.2832">&#160;</text><ellipse cx="33" cy="591.6641" fill="#84BE84" rx="3" ry="3" style="stroke:#038048;stroke-width:1.0;"/><text fill="#000000" font-family="sans-serif" font-size="14" lengthAdjust="spacing" textLength="219" x="42" y="595.8926">GLFWwindow* getGLFWWindow();</text><ellipse cx="33" cy="609.2734" fill="#84BE84" rx="3" ry="3" style="stroke:#038048;stroke-width:1.0;"/><text fill="#000000" font-family="sans-serif" font-size="14" lengthAdjust="spacing" textLength="150" x="42" y="613.502">VkExtent2D getExtent();</text><ellipse cx="33" cy="626.8828" fill="#84BE84" rx="3" ry="3" style="stroke:#038048;stroke-width:1.0;"/><text fill="#000000" font-family="sans-serif" font-size="14" lengthAdjust="spacing" textLength="355" x="42" y="631.1113">VkSurfaceKHR getWindowSurface(VkInstance instance);</text><ellipse cx="33" cy="644.4922" fill="#84BE84" rx="3" ry="3" style="stroke:#038048;stroke-width:1.0;"/><text fill="#000000" font-family="sans-serif" font-size="14" lengthAdjust="spacing" textLength="352" x="42" y="648.7207">vector&lt;const char*&gt; getRequiredInstancewExtensions();</text></g><!--class WindowModule--><g id="elem_WindowModule"><rect codeLine="29" fill="#F1F1F1" height="136.0469" id="WindowModule" rx="2.5" ry="2.5" style="stroke:#181818;stroke-width:0.5;" width="445" x="40.5" y="42"/><ellipse cx="211.25" cy="58" fill="#ADD1B2" rx="11" ry="11" style="stroke:#181818;stroke-width:1.0;"/><path d="M214.0156,53.875 Q214.1719,53.6563 214.3594,53.5469 Q214.5469,53.4375 214.7656,53.4375 Q215.1406,53.4375 215.375,53.7031 Q215.6094,53.9531 215.6094,54.5625 L215.6094,56.0156 Q215.6094,56.625 215.375,56.8906 Q215.1406,57.1563 214.7656,57.1563 Q214.4219,57.1563 214.2188,56.9531 Q214.0156,56.7656 213.9063,56.25 Q213.8594,55.8906 213.6719,55.7031 Q213.3438,55.3281 212.7344,55.1094 Q212.125,54.8906 211.5,54.8906 Q210.7344,54.8906 210.0938,55.2188 Q209.4688,55.5469 208.9688,56.2969 Q208.4844,57.0469 208.4844,58.0781 L208.4844,59.1719 Q208.4844,60.4063 209.375,61.2344 Q210.2656,62.0469 211.8594,62.0469 Q212.7969,62.0469 213.4531,61.7969 Q213.8438,61.6406 214.2656,61.2031 Q214.5313,60.9375 214.6719,60.8594 Q214.8281,60.7813 215.0313,60.7813 Q215.3594,60.7813 215.6094,61.0469 Q215.875,61.2969 215.875,61.6406 Q215.875,61.9844 215.5313,62.3906 Q215.0313,62.9688 214.2344,63.2969 Q213.1563,63.75 211.8594,63.75 Q210.3438,63.75 209.1406,63.125 Q208.1563,62.625 207.4688,61.5625 Q206.7813,60.4844 206.7813,59.2031 L206.7813,58.0469 Q206.7813,56.7188 207.3906,55.5781 Q208.0156,54.4219 209.1094,53.8125 Q210.2031,53.1875 211.4375,53.1875 Q212.1719,53.1875 212.8125,53.3594 Q213.4688,53.5156 214.0156,53.875 Z " fill="#000000"/><text fill="#000000" font-family="sans-serif" font-size="14" lengthAdjust="spacing" textLength="95" x="231.75" y="63.7285">WindowModule</text><line style="stroke:#181818;stroke-width:0.5;" x1="41.5" x2="484.5" y1="74" y2="74"/><rect fill="none" height="6" style="stroke:#C82930;stroke-width:1.0;" width="6" x="48.5" y="85.3047"/><text fill="#000000" font-family="sans-serif" font-size="14" lengthAdjust="spacing" textLength="205" x="60.5" y="92.5332">unique_ptr&lt;Window&gt; m_window;</text><line style="stroke:#181818;stroke-width:0.5;" x1="41.5" x2="484.5" y1="99.6094" y2="99.6094"/><ellipse cx="51.5" cy="113.9141" fill="#84BE84" rx="3" ry="3" style="stroke:#038048;stroke-width:1.0;"/><text fill="#000000" font-family="sans-serif" font-size="14" lengthAdjust="spacing" textLength="232" x="60.5" y="118.1426">static WindowModule&amp; getInstance();</text><ellipse cx="51.5" cy="131.5234" fill="#84BE84" rx="3" ry="3" style="stroke:#038048;stroke-width:1.0;"/><text fill="#000000" font-family="sans-serif" font-size="14" lengthAdjust="spacing" textLength="419" x="60.5" y="135.752">void startup(int width, int height, const char* title, GraphicsAPI api);</text><ellipse cx="51.5" cy="149.1328" fill="#84BE84" rx="3" ry="3" style="stroke:#038048;stroke-width:1.0;"/><text fill="#000000" font-family="sans-serif" font-size="14" lengthAdjust="spacing" textLength="104" x="60.5" y="153.3613">void shutdown();</text><ellipse cx="51.5" cy="166.7422" fill="#84BE84" rx="3" ry="3" style="stroke:#038048;stroke-width:1.0;"/><text fill="#000000" font-family="sans-serif" font-size="14" lengthAdjust="spacing" textLength="141" x="60.5" y="170.9707">Window* getWindow();</text></g><!--reverse link WindowModule to Window--><g id="link_WindowModule_Window"><path codeLine="39" d="M263,190.39 C263,208.25 263,216.52 263,237.71 " fill="none" id="WindowModule-backto-Window" style="stroke:#181818;stroke-width:1.0;"/><polygon fill="#181818" points="263,178.39,259,184.39,263,190.39,267,184.39,263,178.39" style="stroke:#181818;stroke-width:1.0;"/></g><!--SRC=[ZLHDRzim3BtdL-WqE6bosJLTWIrhkw0RKAH3SYmKYRO5Av8hIlMweVljquSTssdHpYUQV7oFveThoYfQ0Da9nNNpGtCdOV9dGlp394Li0z6HtE5PN7-_sZKnCYE7-sGj-_1UQ-dzkQ47sBiy1xC15B-1aqyafn9XEJc2pv929fGbZU2sd9DWbY2Aqiu9qmejOIKrCsA55HBcvDhGkXGCFz-k2Qt5j5S- -zkoJOSAZrfmOW31jcLSILfamxI8gBMKbu-WBBwC-TmRU5fHAR_uZcNX-ojuofqYLNBllVkrh9KpgCsjHb-xLXqo4h0OgZK66jRXtYAxOqQ72WOa65s18Lc3z3u_pgEGUPEwiyOjbO9dqzJTvGaGI-qaNqcDC6f433OKsoRswJqabvhQy2t6j_6dEC1Q8NWKn_54XljJW0sl_U2Eg6rr-SjweezV0oZP9u0xPtBAuERR9a0IH-lBjfLNjrGny1kLZ55JWLbjpWSBTX4uDl3WX07UvJPH5_tmZclnF7bn8Etbd9o9K-B1mNrjpNc2NGokfQ_42rd1HamVGYbT2Q-iewN6kle_Z-QTcqcCfRDUNOsqTls8nkDfEp2icCmMY-vlyVmF]--></g></svg>